<svg width="15" height="4" viewBox="0 0 17 5" fill="none" xmlns="http://www.w3.org/2000/svg">
<path d="M12.4995 2.5C12.4995 1.96957 12.7036 1.46086 13.0669 1.08579C13.4302 0.710714 13.923 0.5 14.4369 0.5C14.9507 0.5 15.4435 0.710714 15.8068 1.08579C16.1701 1.46086 16.3743 1.96957 16.3743 2.5C16.3743 3.03043 16.1701 3.53914 15.8068 3.91421C15.4435 4.28929 14.9507 4.5 14.4369 4.5C13.923 4.5 13.4302 4.28929 13.0669 3.91421C12.7036 3.53914 12.4995 3.03043 12.4995 2.5ZM6.68723 2.5C6.68723 1.96957 6.89135 1.46086 7.25468 1.08579C7.61801 0.710714 8.1108 0.5 8.62463 0.5C9.13847 0.5 9.63125 0.710714 9.99459 1.08579C10.3579 1.46086 10.562 1.96957 10.562 2.5C10.562 3.03043 10.3579 3.53914 9.99459 3.91421C9.63125 4.28929 9.13847 4.5 8.62463 4.5C8.1108 4.5 7.61801 4.28929 7.25468 3.91421C6.89135 3.53914 6.68723 3.03043 6.68723 2.5ZM0.875 2.5C0.875 1.96957 1.07912 1.46086 1.44245 1.08579C1.80579 0.710714 2.29858 0.5 2.81241 0.5C3.32624 0.5 3.81903 0.710714 4.18236 1.08579C4.5457 1.46086 4.74982 1.96957 4.74982 2.5C4.74982 3.03043 4.5457 3.53914 4.18236 3.91421C3.81903 4.28929 3.32624 4.5 2.81241 4.5C2.29858 4.5 1.80579 4.28929 1.44245 3.91421C1.07912 3.53914 0.875 3.03043 0.875 2.5Z" fill="#22242C"/>
</svg>
