<svg width="22" height="22" viewBox="0 0 22 22" fill="none" xmlns="http://www.w3.org/2000/svg">
<g clip-path="url(#clip0_4150_84982)">
<path d="M10.9864 21.1026C5.42297 21.1026 0.871094 16.5507 0.871094 10.9873C0.871094 5.42394 5.42297 0.87207 10.9864 0.87207C16.5498 0.87207 21.1016 5.42394 21.1016 10.9873C21.1016 16.5507 16.5498 21.1026 10.9864 21.1026ZM10.9864 2.97942C6.60308 2.97942 2.97844 6.60406 2.97844 10.9873C2.97844 15.3706 6.60308 18.9953 10.9864 18.9953C15.3697 18.9953 18.9943 15.3706 18.9943 10.9873C18.9943 6.60406 15.3697 2.97942 10.9864 2.97942Z" fill="white"/>
<path d="M9.38522 14.9489C9.13234 14.9489 8.79516 14.8646 8.62658 14.6117L6.51923 12.5043C6.09776 12.0829 6.09776 11.4085 6.51923 10.987C6.9407 10.5656 7.61505 10.5656 8.03652 10.987L9.38522 12.3357L13.9371 7.78388C14.3586 7.36241 15.0329 7.36241 15.4544 7.78388C15.8759 8.20535 15.8759 8.8797 15.4544 9.30117L10.1439 14.6117C9.89099 14.8646 9.6381 14.9489 9.38522 14.9489Z" fill="white"/>
</g>
<defs>
<clipPath id="clip0_4150_84982">
<rect width="21" height="21" fill="white" transform="translate(0.5 0.5)"/>
</clipPath>
</defs>
</svg>
