<svg width="22" height="22" viewBox="0 0 22 22" fill="none" xmlns="http://www.w3.org/2000/svg">
<g clip-path="url(#clip0_4150_84991)">
<path d="M10.9864 21.1026C5.42297 21.1026 0.871094 16.5507 0.871094 10.9873C0.871094 5.42394 5.42297 0.87207 10.9864 0.87207C16.5498 0.87207 21.1016 5.42394 21.1016 10.9873C21.1016 16.5507 16.5498 21.1026 10.9864 21.1026ZM10.9864 2.97942C6.60308 2.97942 2.97844 6.60406 2.97844 10.9873C2.97844 15.3706 6.60308 18.9953 10.9864 18.9953C15.3697 18.9953 18.9943 15.3706 18.9943 10.9873C18.9943 6.60406 15.3697 2.97942 10.9864 2.97942Z" fill="white"/>
<path fill-rule="evenodd" clip-rule="evenodd" d="M6.4545 6.4545C6.89384 6.01517 7.60616 6.01517 8.0455 6.4545L11 9.40901L13.9545 6.4545C14.3938 6.01517 15.1062 6.01517 15.5455 6.4545C15.9848 6.89384 15.9848 7.60616 15.5455 8.0455L12.591 11L15.5455 13.9545C15.9848 14.3938 15.9848 15.1062 15.5455 15.5455C15.1062 15.9848 14.3938 15.9848 13.9545 15.5455L11 12.591L8.0455 15.5455C7.60616 15.9848 6.89384 15.9848 6.4545 15.5455C6.01517 15.1062 6.01517 14.3938 6.4545 13.9545L9.40901 11L6.4545 8.0455C6.01517 7.60616 6.01517 6.89384 6.4545 6.4545Z" fill="white"/>
</g>
<defs>
<clipPath id="clip0_4150_84991">
<rect width="21" height="21" fill="white" transform="translate(0.5 0.5)"/>
</clipPath>
</defs>
</svg>
