<svg width="34" height="34" viewBox="0 0 34 34" fill="none" xmlns="http://www.w3.org/2000/svg">
<circle cx="17" cy="17" r="16.25" stroke="#22242C" stroke-width="0.5" stroke-linecap="round" stroke-linejoin="round" stroke-dasharray="4 4"/>
<path fill-rule="evenodd" clip-rule="evenodd" d="M18 10.1663C16.4812 10.1663 15.25 11.3976 15.25 12.9163C15.25 14.4351 16.4812 15.6663 18 15.6663C19.5188 15.6663 20.75 14.4351 20.75 12.9163C20.75 11.3976 19.5188 10.1663 18 10.1663ZM13.4167 12.9163C13.4167 10.385 15.4687 8.33301 18 8.33301C20.5313 8.33301 22.5833 10.385 22.5833 12.9163C22.5833 15.4476 20.5313 17.4997 18 17.4997C15.4687 17.4997 13.4167 15.4476 13.4167 12.9163ZM11.0924 20.6754C11.952 19.8159 13.1178 19.333 14.3333 19.333H21.6667C22.8822 19.333 24.048 19.8159 24.9076 20.6754C25.7671 21.535 26.25 22.7008 26.25 23.9163V25.7497C26.25 26.2559 25.8396 26.6663 25.3333 26.6663C24.8271 26.6663 24.4167 26.2559 24.4167 25.7497V23.9163C24.4167 23.187 24.1269 22.4875 23.6112 21.9718C23.0955 21.4561 22.396 21.1663 21.6667 21.1663H14.3333C13.604 21.1663 12.9045 21.4561 12.3888 21.9718C11.8731 22.4875 11.5833 23.187 11.5833 23.9163V25.7497C11.5833 26.2559 11.1729 26.6663 10.6667 26.6663C10.1604 26.6663 9.75 26.2559 9.75 25.7497V23.9163C9.75 22.7008 10.2329 21.535 11.0924 20.6754Z" fill="#22242C"/>
</svg>
