<svg width="14" height="13" viewBox="0 0 14 13" fill="none" xmlns="http://www.w3.org/2000/svg">
<path d="M12.6134 2.05298C12.2789 1.71736 11.8815 1.45107 11.4439 1.26937C11.0064 1.08767 10.5372 0.994141 10.0634 0.994141C9.58958 0.994141 9.12043 1.08767 8.68284 1.26937C8.24526 1.45107 7.84784 1.71736 7.51339 2.05298L7.00006 2.57298L6.48672 2.05298C6.15227 1.71736 5.75486 1.45107 5.31727 1.26937C4.87968 1.08767 4.41053 0.994141 3.93672 0.994141C3.46291 0.994141 2.99376 1.08767 2.55618 1.26937C2.11859 1.45107 1.72118 1.71736 1.38672 2.05298C-0.0266091 3.46631 -0.113276 5.85298 1.66672 7.66631L7.00006 12.9996L12.3334 7.66631C14.1134 5.85298 14.0267 3.46631 12.6134 2.05298Z" fill="#FF4A55"/>
</svg>
