<svg width="16" height="14" viewBox="0 0 16 14" fill="none" xmlns="http://www.w3.org/2000/svg">
<path d="M13.6134 2.05298C13.2789 1.71736 12.8815 1.45107 12.4439 1.26937C12.0064 1.08767 11.5372 0.994141 11.0634 0.994141C10.5896 0.994141 10.1204 1.08767 9.68284 1.26937C9.24526 1.45107 8.84784 1.71736 8.51339 2.05298L8.00006 2.57298L7.48672 2.05298C7.15227 1.71736 6.75486 1.45107 6.31727 1.26937C5.87968 1.08767 5.41053 0.994141 4.93672 0.994141C4.46291 0.994141 3.99376 1.08767 3.55618 1.26937C3.11859 1.45107 2.72118 1.71736 2.38672 2.05298C0.973391 3.46631 0.886724 5.85298 2.66672 7.66631L8.00006 12.9996L13.3334 7.66631C15.1134 5.85298 15.0267 3.46631 13.6134 2.05298Z" fill="white" stroke="#7A7C80" stroke-linecap="round" stroke-linejoin="round"/>
</svg>
