<svg width="146" height="146" viewBox="0 0 146 146" fill="none" xmlns="http://www.w3.org/2000/svg">
<g filter="url(#filter0_d_743_26855)">
<rect x="50" y="30" width="46" height="46" rx="23" fill="#0FAFE4"/>
<path d="M70.2793 43.9459H65.8637C65.083 43.9459 64.3343 44.2561 63.7822 44.8081C63.2302 45.3602 62.92 46.1089 62.92 46.8896V60.1363C62.92 60.917 63.2302 61.6657 63.7822 62.2178C64.3343 62.7698 65.083 63.08 65.8637 63.08H79.1104C79.8911 63.08 80.6398 62.7698 81.1919 62.2178C81.744 61.6657 82.0541 60.917 82.0541 60.1363V55.7207M78.04 45.9439L80.056 47.9599M69.9762 56.024H73.2195L82.4086 46.8349C82.8387 46.4048 83.0803 45.8215 83.0803 45.2133C83.0803 44.6051 82.8387 44.0217 82.4086 43.5917C81.9785 43.1616 81.3952 42.92 80.787 42.92C80.1787 42.92 79.5954 43.1616 79.1654 43.5917L69.9762 52.7808V56.024Z" stroke="white" stroke-width="2.5" stroke-linecap="round" stroke-linejoin="round"/>
</g>
<defs>
<filter id="filter0_d_743_26855" x="-2" y="0" width="150" height="146" filterUnits="userSpaceOnUse" color-interpolation-filters="sRGB">
<feFlood flood-opacity="0" result="BackgroundImageFix"/>
<feColorMatrix in="SourceAlpha" type="matrix" values="0 0 0 0 0 0 0 0 0 0 0 0 0 0 0 0 0 0 127 0" result="hardAlpha"/>
<feOffset dy="20"/>
<feGaussianBlur stdDeviation="25"/>
<feColorMatrix type="matrix" values="0 0 0 0 0.74902 0 0 0 0 0.0823529 0 0 0 0 0.423529 0 0 0 0.05 0"/>
<feBlend mode="normal" in2="BackgroundImageFix" result="effect1_dropShadow_743_26855"/>
<feBlend mode="normal" in="SourceGraphic" in2="effect1_dropShadow_743_26855" result="shape"/>
</filter>
</defs>
</svg>
