<svg width="124" height="124" viewBox="0 0 124 124" fill="none" xmlns="http://www.w3.org/2000/svg">
<g filter="url(#filter0_d_663_44269)">
<path d="M59.2793 32.9459H54.8637C54.083 32.9459 53.3343 33.2561 52.7822 33.8081C52.2302 34.3602 51.92 35.1089 51.92 35.8896V49.1363C51.92 49.917 52.2302 50.6657 52.7822 51.2178C53.3343 51.7698 54.083 52.08 54.8637 52.08H68.1104C68.8911 52.08 69.6398 51.7698 70.1919 51.2178C70.744 50.6657 71.0541 49.917 71.0541 49.1363V44.7207M67.04 34.9439L69.056 36.9599M58.9762 45.024H62.2195L71.4086 35.8349C71.8387 35.4048 72.0803 34.8215 72.0803 34.2133C72.0803 33.605 71.8387 33.0217 71.4086 32.5917C70.9785 32.1616 70.3952 31.92 69.787 31.92C69.1787 31.92 68.5954 32.1616 68.1654 32.5917L58.9762 41.7808V45.024Z" stroke="#8E8EA1" stroke-width="2.5" stroke-linecap="round" stroke-linejoin="round"/>
</g>
<defs>
<filter id="filter0_d_663_44269" x="-13" y="-11" width="150" height="146" filterUnits="userSpaceOnUse" color-interpolation-filters="sRGB">
<feFlood flood-opacity="0" result="BackgroundImageFix"/>
<feColorMatrix in="SourceAlpha" type="matrix" values="0 0 0 0 0 0 0 0 0 0 0 0 0 0 0 0 0 0 127 0" result="hardAlpha"/>
<feOffset dy="20"/>
<feGaussianBlur stdDeviation="25"/>
<feColorMatrix type="matrix" values="0 0 0 0 0.74902 0 0 0 0 0.0823529 0 0 0 0 0.423529 0 0 0 0.05 0"/>
<feBlend mode="normal" in2="BackgroundImageFix" result="effect1_dropShadow_663_44269"/>
<feBlend mode="normal" in="SourceGraphic" in2="effect1_dropShadow_663_44269" result="shape"/>
</filter>
</defs>
</svg>
