<svg width="24" height="24" viewBox="0 0 24 24" fill="none" xmlns="http://www.w3.org/2000/svg">
<path fill-rule="evenodd" clip-rule="evenodd" d="M12.5502 3.00783C12.2317 2.79575 11.8152 2.80297 11.5042 3.02596L3.78378 8.56208C3.54282 8.73487 3.3999 9.01321 3.3999 9.30973V19.68C3.3999 20.1881 3.8118 20.6 4.3199 20.6H7.6399V13.44C7.6399 12.8877 8.08762 12.44 8.6399 12.44H15.3599C15.9122 12.44 16.3599 12.8877 16.3599 13.44V20.6H19.6799C20.188 20.6 20.5999 20.1881 20.5999 19.68V8.86044C20.5999 8.55265 20.446 8.26525 20.1898 8.09467L12.5502 3.00783ZM14.3599 20.12V14.44H9.6399V20.12H14.3599ZM13.6587 1.34311L13.1045 2.17547L13.6587 1.34311L21.2983 6.42994C22.1114 6.97137 22.5999 7.88354 22.5999 8.86044V19.68C22.5999 21.2927 21.2926 22.6 19.6799 22.6H4.3199C2.70723 22.6 1.3999 21.2927 1.3999 19.68V9.30973C1.3999 8.36861 1.8535 7.48518 2.61831 6.93676L10.3387 1.40064C11.3257 0.692891 12.6478 0.669983 13.6587 1.34311Z" fill="#C1C9D2"/>
</svg>
