<svg width="24" height="24" viewBox="0 0 24 24" fill="none" xmlns="http://www.w3.org/2000/svg">
<path d="M11.9851 23.5455C5.62695 23.5455 0.424805 18.3434 0.424805 11.9852C0.424805 5.62701 5.62695 0.424866 11.9851 0.424866C18.3433 0.424866 23.5454 5.62701 23.5454 11.9852C23.5454 18.3434 18.3433 23.5455 11.9851 23.5455ZM11.9851 2.83326C6.97565 2.83326 2.8332 6.97571 2.8332 11.9852C2.8332 16.9946 6.97565 21.1371 11.9851 21.1371C16.9946 21.1371 21.137 16.9946 21.137 11.9852C21.137 6.97571 16.9946 2.83326 11.9851 2.83326Z" fill="#22242C"/>
<path d="M10.1552 16.5129C9.86623 16.5129 9.48088 16.4166 9.28821 16.1276L6.87981 13.7192C6.39813 13.2375 6.39813 12.4668 6.87981 11.9852C7.36149 11.5035 8.13218 11.5035 8.61386 11.9852L10.1552 13.5265L15.3574 8.32439C15.8391 7.84271 16.6097 7.84271 17.0914 8.32439C17.5731 8.80607 17.5731 9.57676 17.0914 10.0584L11.0223 16.1276C10.7333 16.4166 10.4442 16.5129 10.1552 16.5129Z" fill="#22242C"/>
</svg>
