<svg width="146" height="146" viewBox="0 0 146 146" fill="none" xmlns="http://www.w3.org/2000/svg">
<g filter="url(#filter0_d_721_23006)">
<rect x="50" y="30" width="46" height="46" rx="23" fill="#0FAFE4"/>
<path d="M73.48 45.8L80.2 52.52L83.08 49.64L76.36 42.92L73.48 45.8Z" stroke="white" stroke-width="2" stroke-linecap="round" stroke-linejoin="round"/>
<path d="M79.24 51.56L77.8 58.76L63.88 62.12L67.24 48.2L74.44 46.76L79.24 51.56Z" stroke="white" stroke-width="2" stroke-linecap="round" stroke-linejoin="round"/>
<path d="M63.88 62.12L71.1626 54.8374" stroke="white" stroke-width="2" stroke-linecap="round" stroke-linejoin="round"/>
<path d="M72.52 51.56C73.5804 51.56 74.44 52.4196 74.44 53.48C74.44 54.5404 73.5804 55.4 72.52 55.4C71.4596 55.4 70.6 54.5404 70.6 53.48C70.6 52.4196 71.4596 51.56 72.52 51.56Z" stroke="white" stroke-width="2" stroke-linecap="round" stroke-linejoin="round"/>
</g>
<defs>
<filter id="filter0_d_721_23006" x="-2" y="0" width="150" height="146" filterUnits="userSpaceOnUse" color-interpolation-filters="sRGB">
<feFlood flood-opacity="0" result="BackgroundImageFix"/>
<feColorMatrix in="SourceAlpha" type="matrix" values="0 0 0 0 0 0 0 0 0 0 0 0 0 0 0 0 0 0 127 0" result="hardAlpha"/>
<feOffset dy="20"/>
<feGaussianBlur stdDeviation="25"/>
<feColorMatrix type="matrix" values="0 0 0 0 0.74902 0 0 0 0 0.0823529 0 0 0 0 0.423529 0 0 0 0.05 0"/>
<feBlend mode="normal" in2="BackgroundImageFix" result="effect1_dropShadow_721_23006"/>
<feBlend mode="normal" in="SourceGraphic" in2="effect1_dropShadow_721_23006" result="shape"/>
</filter>
</defs>
</svg>
