<svg width="24" height="24" viewBox="0 0 24 24" fill="none" xmlns="http://www.w3.org/2000/svg">
<path fill-rule="evenodd" clip-rule="evenodd" d="M10.5599 2.91998C10.0518 2.91998 9.63988 3.33188 9.63988 3.83998V5.27998C9.63988 5.78808 10.0518 6.19998 10.5599 6.19998H12.4799C12.988 6.19998 13.3999 5.78808 13.3999 5.27998V3.83998C13.3999 3.33188 12.988 2.91998 12.4799 2.91998H10.5599ZM7.63988 3.83998C7.63988 2.22731 8.94721 0.919983 10.5599 0.919983H12.4799C14.0926 0.919983 15.3999 2.22731 15.3999 3.83998V5.27998C15.3999 6.8793 14.1141 8.17831 12.5199 8.19971V9.55998H17.2799C17.8322 9.55998 18.2799 10.0077 18.2799 10.56V12.9203C19.8741 12.9417 21.1599 14.2407 21.1599 15.84V17.28C21.1599 18.8793 19.8741 20.1783 18.2799 20.1997V22.08C18.2799 22.6323 17.8322 23.08 17.2799 23.08C16.7276 23.08 16.2799 22.6323 16.2799 22.08V20.1997C14.6856 20.1783 13.3999 18.8793 13.3999 17.28V15.84C13.3999 14.2407 14.6856 12.9417 16.2799 12.9203V11.56H6.75988V12.9203C8.35412 12.9417 9.63988 14.2407 9.63988 15.84V17.28C9.63988 18.8793 8.35412 20.1783 6.75988 20.1997V22.08C6.75988 22.6323 6.31217 23.08 5.75988 23.08C5.2076 23.08 4.75988 22.6323 4.75988 22.08V20.1997C3.16565 20.1783 1.87988 18.8793 1.87988 17.28V15.84C1.87988 14.2407 3.16565 12.9417 4.75988 12.9203V10.56C4.75988 10.0077 5.2076 9.55998 5.75988 9.55998H10.5199V8.19971C8.92565 8.17831 7.63988 6.8793 7.63988 5.27998V3.83998ZM6.71988 18.2C7.22798 18.2 7.63988 17.7881 7.63988 17.28V15.84C7.63988 15.3319 7.22798 14.92 6.71988 14.92H4.79988C4.29178 14.92 3.87988 15.3319 3.87988 15.84V17.28C3.87988 17.7881 4.29178 18.2 4.79988 18.2H6.71988ZM18.2399 18.2C18.748 18.2 19.1599 17.7881 19.1599 17.28V15.84C19.1599 15.3319 18.748 14.92 18.2399 14.92H16.3199C15.8118 14.92 15.3999 15.3319 15.3999 15.84V17.28C15.3999 17.7881 15.8118 18.2 16.3199 18.2H18.2399Z" fill="#C1C9D2"/>
</svg>
