<svg width="285" height="395" viewBox="0 0 285 395" fill="none" xmlns="http://www.w3.org/2000/svg">
<path d="M206.874 384.769C245.814 384.769 277.382 380.113 277.382 374.369C277.382 368.625 245.814 363.969 206.874 363.969C167.933 363.969 136.365 368.625 136.365 374.369C136.365 380.113 167.933 384.769 206.874 384.769Z" fill="#E6E7E8"/>
<path d="M265.141 310.016H149.18C139.106 310.016 130.866 301.775 130.866 291.701V19.4592C130.866 9.38539 139.106 1.14465 149.18 1.14465H265.141C275.215 1.14465 283.456 9.38539 283.456 19.4592V291.701C283.456 301.775 275.215 310.016 265.141 310.016Z" fill="#E6E7E8"/>
<path fill-rule="evenodd" clip-rule="evenodd" d="M149.18 311.16H265.141C275.871 311.16 284.604 302.431 284.6 291.701V19.4592C284.6 8.72956 275.871 0 265.141 0H149.18C138.45 0 129.721 8.72956 129.721 19.4592V291.701C129.721 302.431 138.45 311.16 149.18 311.16ZM132.011 19.4592C132.011 9.99234 139.714 2.28931 149.181 2.28931H265.142C274.609 2.28931 282.312 9.99234 282.312 19.4592V291.701C282.312 301.168 274.609 308.871 265.142 308.871H149.181C139.714 308.871 132.011 301.168 132.011 291.701V19.4592Z" fill="#1A4A67"/>
<path d="M255.459 281.199H158.863C148.789 281.199 140.549 272.959 140.549 262.885V29.8386C140.549 19.7648 148.789 11.524 158.863 11.524H255.459C265.533 11.524 273.773 19.7648 273.773 29.8386V262.885C273.777 272.959 265.533 281.199 255.459 281.199Z" fill="white"/>
<path d="M221.535 8.20814H192.788C192.087 8.20814 191.517 7.63377 191.517 6.9372C191.517 6.23655 192.091 5.66626 192.788 5.66626H221.535C222.235 5.66626 222.806 6.24063 222.806 6.9372C222.806 7.63785 222.235 8.20814 221.535 8.20814Z" fill="#1A4A67"/>
<path d="M207.162 302.569C211.534 302.569 215.077 299.026 215.077 294.654C215.077 290.283 211.534 286.74 207.162 286.74C202.791 286.74 199.248 290.283 199.248 294.654C199.248 299.026 202.791 302.569 207.162 302.569Z" fill="#1A4A67"/>
<path d="M243.49 249.023H170.835C164.362 249.023 159.067 243.727 159.067 237.254V232.684C159.067 226.211 164.362 220.915 170.835 220.915H243.49C249.963 220.915 255.259 226.211 255.259 232.684V237.254C255.259 243.727 249.963 249.023 243.49 249.023Z" fill="#0FAFE4"/>
<path fill-rule="evenodd" clip-rule="evenodd" d="M170.835 250.167H243.49C250.611 250.167 256.403 244.371 256.403 237.254V232.684C256.403 225.563 250.611 219.771 243.49 219.771H170.835C163.714 219.771 157.922 225.563 157.922 232.684V237.254C157.922 244.375 163.714 250.167 170.835 250.167ZM160.211 232.68C160.211 226.822 164.977 222.056 170.835 222.056H243.49C249.348 222.056 254.114 226.822 254.114 232.68V237.25C254.114 243.108 249.348 247.874 243.49 247.874H170.835C164.977 247.874 160.211 243.108 160.211 237.25V232.68Z" fill="#1A4A67"/>
<path d="M207.97 85.7966C201.863 84.269 200.336 65.9544 194.234 65.9544C180.824 67.1724 176.172 84.9411 168.623 98.2697C169.609 103.761 174.432 107.969 180.196 107.969H233.934C240.407 107.969 245.703 102.673 245.703 96.2003V57.6689C243.837 57.8155 241.931 58.4877 240.02 59.8523C229.339 69.0096 221.706 88.8517 207.97 85.7966Z" fill="#0FAFE4"/>
<path fill-rule="evenodd" clip-rule="evenodd" d="M180.196 109.113H233.934C241.054 109.113 246.847 103.321 246.843 96.1963V56.4265L245.608 56.5242C243.441 56.6953 241.335 57.4978 239.274 58.9765C235.754 61.9933 232.553 66.1472 229.459 70.1637L229.428 70.2031L229.411 70.2261C222.936 78.6376 216.825 86.577 208.23 84.6804C205.835 84.0694 203.961 79.3848 202.311 75.2543C200.168 69.8854 198.14 64.8138 194.131 64.8138H194.127C183.174 65.8119 177.752 77.124 172.509 88.0655C170.957 91.308 169.352 94.6565 167.625 97.7075L167.421 98.066L167.495 98.4734C168.603 104.641 173.947 109.113 180.196 109.113ZM180.192 106.824C175.186 106.824 170.888 103.333 169.825 98.4653C171.512 95.4468 173.068 92.2002 174.575 89.0514L174.576 89.0497C179.769 78.2066 184.674 67.9668 194.23 67.0951C196.586 67.0951 198.495 71.8724 200.18 76.0897L200.185 76.1016C202.222 81.2017 204.149 86.0207 207.689 86.9046L207.717 86.9128C217.738 89.141 224.606 80.224 231.246 71.6004L231.252 71.5922C234.281 67.6597 237.415 63.5899 240.684 60.7811C241.935 59.889 243.23 59.2902 244.554 58.9969V96.2004C244.554 102.058 239.788 106.824 233.93 106.824H180.192Z" fill="#1A4A67"/>
<path d="M234.031 41.8188H180.293C173.82 41.8188 168.524 47.1144 168.524 53.5872V96.2003C168.524 96.9091 168.598 97.5975 168.72 98.2738C176.268 84.9452 180.92 67.1765 194.33 65.9585C200.436 65.9585 201.964 84.2731 208.066 85.8006C221.802 88.8517 229.436 69.0096 240.121 59.8523C242.027 58.4876 243.938 57.8196 245.803 57.6689V53.5872C245.799 47.1144 240.504 41.8188 234.031 41.8188Z" fill="white"/>
<path fill-rule="evenodd" clip-rule="evenodd" d="M167.592 98.4734L168.15 101.598L169.715 98.8278C171.483 95.7074 173.104 92.3223 174.672 89.0472L174.673 89.0456C179.866 78.2025 184.771 67.9626 194.327 67.0909C196.683 67.0909 198.592 71.8683 200.278 76.0856L200.282 76.0975C202.319 81.1976 204.246 86.0165 207.814 86.9086C217.835 89.1369 224.703 80.2199 231.343 71.5963L231.349 71.5881C234.378 67.6556 237.513 63.5858 240.781 60.777C242.423 59.6079 244.138 58.9439 245.89 58.8054L246.945 58.7239V53.5872C246.945 46.4667 241.152 40.6741 234.031 40.6741H180.294C173.173 40.6741 167.38 46.4667 167.38 53.5872V96.2003C167.38 96.9295 167.45 97.6709 167.592 98.4734ZM169.666 53.5872C169.666 47.7295 174.432 42.9635 180.29 42.9635H234.028C239.885 42.9635 244.651 47.7295 244.651 53.5872V56.6627C242.855 56.9764 241.099 57.7422 239.372 58.9806C235.852 61.9973 232.651 66.1513 229.557 70.1678L229.526 70.2072C223.037 78.6353 216.898 86.5909 208.34 84.6886C205.938 84.0902 204.065 79.4032 202.412 75.2664L202.409 75.2584C200.266 69.8895 198.238 64.8179 194.229 64.8179H194.225C183.272 65.8118 177.85 77.1274 172.608 88.0686L172.607 88.0696L172.463 88.3696C171.552 90.2653 170.626 92.1935 169.666 94.074V53.5872Z" fill="#1A4A67"/>
<path d="M242.012 132.809H172.31C170.44 132.809 168.908 131.277 168.908 129.408C168.908 127.538 170.44 126.006 172.31 126.006H242.012C243.882 126.006 245.413 127.538 245.413 129.408C245.413 131.277 243.882 132.809 242.012 132.809Z" fill="#0FAFE4"/>
<path d="M242.012 148.378H172.31C170.44 148.378 168.908 146.846 168.908 144.977C168.908 143.107 170.44 141.575 172.31 141.575H242.012C243.882 141.575 245.413 143.107 245.413 144.977C245.413 146.851 243.882 148.378 242.012 148.378Z" fill="#E6E7E8"/>
<path d="M242.012 163.951H172.31C170.44 163.951 168.908 162.42 168.908 160.55C168.908 158.68 170.44 157.148 172.31 157.148H242.012C243.882 157.148 245.413 158.68 245.413 160.55C245.413 162.42 243.882 163.951 242.012 163.951Z" fill="#E6E7E8"/>
<path d="M214.793 69.2011C218.534 69.2011 221.567 66.1681 221.567 62.4268C221.567 58.6855 218.534 55.6525 214.793 55.6525C211.051 55.6525 208.018 58.6855 208.018 62.4268C208.018 66.1681 211.051 69.2011 214.793 69.2011Z" fill="#0FAFE4"/>
<path fill-rule="evenodd" clip-rule="evenodd" d="M206.874 62.4267C206.874 66.7936 210.426 70.3457 214.792 70.3457C219.159 70.3457 222.711 66.7936 222.711 62.4267C222.711 58.0599 219.159 54.5078 214.792 54.5078C210.426 54.5078 206.874 58.0599 206.874 62.4267ZM209.164 62.4267C209.164 59.3227 211.689 56.7971 214.793 56.7971C217.897 56.7971 220.423 59.3227 220.423 62.4267C220.423 65.5308 217.897 68.0563 214.793 68.0563C211.689 68.0563 209.164 65.5308 209.164 62.4267Z" fill="#1A4A67"/>
<path d="M206.576 207.668C206.14 207.314 206.074 206.67 206.429 206.238L215.753 194.788C216.108 194.352 216.751 194.287 217.183 194.641C217.619 194.996 217.684 195.639 217.33 196.071L208.005 207.522C207.655 207.958 207.011 208.023 206.576 207.668Z" fill="#1A4A67"/>
<path d="M207.745 207.668C208.181 207.314 208.246 206.67 207.892 206.238L198.567 194.788C198.213 194.352 197.569 194.287 197.137 194.641C196.702 194.996 196.636 195.639 196.991 196.071L206.315 207.522C206.665 207.958 207.313 208.023 207.745 207.668Z" fill="#1A4A67"/>
<path d="M98.6031 127.998H21.1532C14.5215 127.998 9.09558 122.572 9.09558 115.941C9.09558 109.309 14.5215 103.883 21.1532 103.883H98.6031C105.235 103.883 110.661 109.309 110.661 115.941C110.657 122.576 105.235 127.998 98.6031 127.998Z" fill="#E6E7E8"/>
<path d="M98.9093 116.731C98.6974 116.992 98.3064 117.032 98.0457 116.821L91.1492 111.203C90.8885 110.991 90.8478 110.6 91.0596 110.34C91.2714 110.079 91.6625 110.038 91.9232 110.25L98.8196 115.867C99.0844 116.083 99.1252 116.47 98.9093 116.731Z" fill="white"/>
<path d="M98.9094 116.026C98.6976 115.766 98.3065 115.725 98.0458 115.937L91.1493 121.554C90.8886 121.766 90.8479 122.157 91.0597 122.418C91.2715 122.678 91.6626 122.719 91.9233 122.507L98.8198 116.89C99.0845 116.678 99.1253 116.291 98.9094 116.026Z" fill="white"/>
<path d="M68.9518 154.831H17.161C12.7249 154.831 9.09949 151.201 9.09949 146.769C9.09949 142.333 12.729 138.708 17.161 138.708H68.9518C73.3878 138.708 77.0133 142.337 77.0133 146.769C77.0133 151.205 73.3838 154.831 68.9518 154.831Z" fill="#8BDEEC"/>
<path d="M69.1563 147.299C69.0137 147.474 68.753 147.498 68.5779 147.356L63.9666 143.6C63.7915 143.457 63.767 143.197 63.9096 143.021C64.0522 142.846 64.3129 142.822 64.488 142.964L69.0993 146.72C69.2744 146.863 69.2989 147.123 69.1563 147.299Z" fill="white"/>
<path d="M69.1564 146.826C69.0139 146.651 68.7531 146.627 68.578 146.769L63.9668 150.525C63.7916 150.667 63.7672 150.928 63.9097 151.103C64.0523 151.278 64.313 151.303 64.4882 151.16L69.0994 147.405C69.2746 147.262 69.299 147.001 69.1564 146.826Z" fill="white"/>
<path d="M111.308 171.756C113.666 171.756 115.578 169.845 115.578 167.487C115.578 165.129 113.666 163.218 111.308 163.218C108.951 163.218 107.039 165.129 107.039 167.487C107.039 169.845 108.951 171.756 111.308 171.756Z" fill="#8BDEEC"/>
<path d="M98.9409 154.969C101.299 154.969 103.21 153.058 103.21 150.7C103.21 148.342 101.299 146.431 98.9409 146.431C96.5832 146.431 94.6719 148.342 94.6719 150.7C94.6719 153.058 96.5832 154.969 98.9409 154.969Z" fill="#8BDEEC"/>
<path d="M85.5922 172.925C87.9499 172.925 89.8612 171.014 89.8612 168.656C89.8612 166.298 87.9499 164.387 85.5922 164.387C83.2344 164.387 81.3231 166.298 81.3231 168.656C81.3231 171.014 83.2344 172.925 85.5922 172.925Z" fill="#8BDEEC"/>
<path d="M75.3222 116.592L74.3283 135.094L59.8469 140.679C59.8469 140.679 68.5561 127.937 67.0774 116.592C65.6028 105.248 75.3222 116.592 75.3222 116.592Z" fill="white"/>
<path fill-rule="evenodd" clip-rule="evenodd" d="M58.9022 140.035L56.8287 143.07L75.4325 135.897L76.4916 116.197L76.1943 115.851C74.4997 113.871 70.2591 109.407 67.5217 110.621C65.5135 111.517 65.6601 114.543 65.9453 116.743C67.3466 127.513 58.9877 139.913 58.9022 140.035ZM68.4501 112.71C68.4909 112.69 68.5479 112.682 68.609 112.682C69.4522 112.682 71.8923 114.446 74.1531 116.996L73.2243 134.292L62.572 138.398C65.1058 133.885 69.3096 124.89 68.2139 116.446C67.7861 113.162 68.442 112.714 68.4501 112.71Z" fill="#1A4A67"/>
<path d="M88.2601 78.7371L71.2694 70.6471L62.7557 75.242C62.7557 75.242 59.8839 81.4134 58.2015 88.2203C57.2117 87.2997 54.7594 85.5318 55.1016 90.9658C55.2971 94.0739 56.1525 96.0455 57.0202 97.2757C57.0854 99.2921 57.4601 101.117 58.283 102.559C61.9858 109.036 65.7294 116.584 76.4102 118.715C80.2719 119.485 85.266 108.543 88.3415 95.7319C91.417 82.9166 88.2601 78.7371 88.2601 78.7371Z" fill="white"/>
<path fill-rule="evenodd" clip-rule="evenodd" d="M76.1822 119.835C76.3818 119.876 76.5855 119.896 76.7851 119.896C81.8851 119.896 86.7612 107.215 89.4456 95.9926C92.6148 82.8066 89.3112 78.232 89.1686 78.0446L89.0016 77.8206L71.2329 69.364L61.8719 74.4151L61.7131 74.7614C61.6031 74.9976 59.2038 80.1873 57.501 86.3465C56.5926 85.9188 55.9001 86.0247 55.4317 86.2487C53.8797 86.9819 53.843 89.3364 53.953 91.0392C54.1241 93.7155 54.7718 95.9356 55.8838 97.6464C55.9938 99.8461 56.4664 101.691 57.2851 103.125L57.8758 104.164L57.8855 104.181C61.4882 110.528 65.568 117.715 76.1822 119.835ZM56.2427 90.8966C56.1368 89.2509 56.3282 88.5951 56.426 88.3711C56.6011 88.4322 56.9433 88.6195 57.4118 89.0676L58.8334 90.3875L59.3019 88.5014C60.7195 82.7822 63.0169 77.4499 63.632 76.0731L71.2984 71.9385L87.4499 79.6293C87.951 80.5988 89.7311 85.0267 87.2218 95.4712C83.6005 110.56 78.7611 118.03 76.6266 117.599C67.0357 115.68 63.3934 109.259 59.8706 103.048L59.8681 103.044L59.2734 101.997C58.6012 100.816 58.2265 99.2189 58.1613 97.2432L58.1491 96.901L57.9536 96.6199C56.9718 95.2227 56.3934 93.2959 56.2427 90.8966Z" fill="#1A4A67"/>
<path d="M99.6337 75.2869C100.567 72.2806 98.929 68.4352 96.7415 66.5777C95.8983 65.8607 94.8351 65.4045 93.7719 65.5104C92.9735 65.5878 92.1913 65.9748 91.397 65.8444C89.0181 65.4493 88.7329 61.942 86.5251 61.2291C84.8794 60.6996 83.2988 62.1905 81.6205 62.5856C80.3537 62.883 79.042 62.5408 77.767 62.276C74.1782 61.5224 70.8501 59.7993 67.1718 59.3553C64.0677 58.9805 60.8293 59.3309 58.0226 60.8381C55.0897 62.4104 52.9877 65.3027 51.8675 68.6429C51.1995 70.639 50.9836 72.8631 51.5213 74.908C51.0813 73.2257 48.0547 75.0343 47.5618 75.6942C45.635 78.2931 45.3091 83.9268 46.3316 86.9494C47.1422 89.3446 48.4743 91.4628 49.2157 93.8906C50.0955 96.7869 50.4622 100.001 52.0671 102.567C53.9043 105.512 57.5542 107.011 60.6949 106.197C59.7254 103.533 58.764 100.807 58.5848 97.9479C58.4055 95.0883 54.6212 82.163 68.7075 79.3726C74.3086 78.2646 81.0543 82.9329 86.6636 83.1569C89.3277 83.2628 91.9958 82.7455 94.4929 81.7312C96.4237 80.9491 98.3016 78.0691 99.3648 75.9631C99.4707 75.7431 99.5603 75.519 99.6337 75.2869Z" fill="#1A4A67"/>
<path d="M25.0351 348.486L16.5052 370.882L8.72473 368.801L19.0145 345.96C19.0145 345.964 23.4261 346.49 25.0351 348.486Z" fill="white"/>
<path fill-rule="evenodd" clip-rule="evenodd" d="M7.12842 369.558L17.2063 372.255L26.3351 348.278L25.9237 347.765C24.0784 345.472 19.6504 344.885 19.1494 344.824L18.3143 344.726L7.12842 369.558ZM15.8052 369.509L10.3222 368.043L19.7035 347.231C20.893 347.459 22.6731 347.952 23.7037 348.771L15.8052 369.509Z" fill="#1A4A67"/>
<path d="M36.4384 391.767C36.1614 392.232 33.4077 392.044 32.9963 392.048C28.7476 392.109 22.2177 392.419 18.5638 389.963C15.0035 387.567 12.7142 383.453 9.56942 380.569C7.35749 378.541 4.53454 377.31 1.91934 375.872C-0.968791 374.284 4.90523 361.11 8.40846 363.24C11.2436 364.968 9.85049 369.742 17.081 369.123C23.2768 368.589 19.3418 377.437 26.5479 382.708C32.9189 387.368 39.4772 386.679 36.4384 391.767Z" fill="#A7A9AC"/>
<path fill-rule="evenodd" clip-rule="evenodd" d="M17.9277 390.916C20.938 392.94 25.5044 393.242 29.4802 393.242C30.3845 393.242 31.2603 393.226 32.0791 393.209L33.016 393.193C33.058 393.19 33.1204 393.193 33.2009 393.196C33.2452 393.198 33.2951 393.2 33.3501 393.201C35.8186 393.283 36.9307 393.185 37.4236 392.354C38.3035 390.879 38.5519 389.694 38.2016 388.618C37.649 386.916 35.7835 386.113 33.4254 385.099L33.4071 385.091C31.6107 384.321 29.3784 383.359 27.2275 381.787C24.0217 379.441 23.2559 376.345 22.5837 373.612L22.5764 373.582C21.8857 370.782 21.1067 367.625 16.9826 367.982C12.9621 368.332 12.2451 366.943 11.3449 365.183C10.8275 364.169 10.2369 363.016 9.00259 362.267C8.09013 361.709 6.99435 361.737 5.92708 362.344C2.90453 364.059 -0.0202619 370.463 0.000105759 373.99C0.00825281 375.762 0.749634 376.54 1.36474 376.878C1.81315 377.126 2.27123 377.367 2.72966 377.607C2.86676 377.679 3.00388 377.751 3.14079 377.824C5.22236 378.911 7.18173 379.938 8.79484 381.416C10.025 382.545 11.1168 383.865 12.2696 385.266L12.2909 385.292C13.9666 387.32 15.6967 389.415 17.9277 390.916ZM5.23571 366.194C6.12781 364.935 7.04028 364.161 7.58613 364.161C7.67168 364.161 7.74907 364.181 7.81425 364.222C8.48822 364.63 8.86232 365.357 9.29701 366.202L9.30923 366.226L9.31544 366.238C10.2885 368.14 11.6185 370.739 17.1793 370.263C19.1549 370.088 19.546 370.85 20.3607 374.157L20.3627 374.166C21.055 376.967 22.002 380.8 25.8763 383.632C28.2389 385.36 30.6015 386.378 32.5039 387.193C34.2677 387.946 35.7912 388.602 36.0234 389.323C36.1538 389.73 35.9093 390.354 35.6242 390.883C35.3187 390.924 34.6954 390.953 33.4245 390.912C33.3641 390.911 33.3079 390.909 33.2567 390.908C33.1354 390.906 33.0419 390.904 32.9846 390.904L32.0395 390.92L32.0314 390.92C27.9219 390.993 22.2977 391.094 19.2038 389.014C17.2404 387.694 15.6843 385.808 14.0345 383.808C12.8858 382.41 11.6922 380.964 10.3439 379.73C8.51082 378.048 6.32334 376.903 4.20511 375.795C4.1095 375.745 4.0139 375.695 3.91837 375.645C3.43182 375.39 2.94715 375.137 2.47386 374.874C1.87098 374.377 2.65717 369.815 5.23571 366.194Z" fill="#1A4A67"/>
<path d="M40.7801 268.527C37.3176 287.367 30.0912 304.512 19.3615 320.326C14.127 328.037 8.52591 335.471 3.10405 343.052C-4.6275 353.863 21.5775 356.393 28.0299 358.344C32.2501 359.619 38.5274 359.945 38.2463 356.69C38.1649 355.733 37.4276 354.792 36.8206 353.871C31.2928 345.427 36.124 336.921 39.9491 329.353C51.4079 306.659 59.1435 280.495 68.1338 256.848C71.5556 247.845 70.0158 238.977 70.5127 229.103C70.8183 223.058 60.3371 196.429 48.8864 202.992C41.7618 207.078 45.709 222.606 46.4708 228.847C47.0004 233.16 47.9291 237.865 47.2203 242.212C45.7701 251.117 42.4176 259.622 40.7801 268.527Z" fill="white"/>
<path fill-rule="evenodd" clip-rule="evenodd" d="M27.6959 359.436C29.1705 359.884 31.5984 360.389 33.8592 360.389C35.5945 360.389 37.232 360.091 38.2789 359.244C39.0977 358.58 39.4806 357.664 39.3869 356.588C39.2892 355.484 38.6374 354.511 38.059 353.655L37.782 353.24C32.8867 345.763 36.7048 338.253 40.3987 330.987L40.4012 330.982L40.9715 329.862C49.0045 313.955 55.2452 296.272 61.278 279.167L61.3062 279.087C63.8638 271.841 66.5061 264.354 69.2051 257.251C71.7022 250.677 71.637 244.285 71.5678 237.519C71.5393 234.81 71.5148 232.008 71.6574 229.156C71.9099 224.195 65.8811 207.469 57.5141 202.332C54.4223 200.434 51.245 200.316 48.3202 201.994C41.5985 205.845 43.5357 217.709 44.8189 225.567L44.821 225.58C45.0328 226.879 45.2202 228.036 45.3383 228.977C45.432 229.751 45.538 230.541 45.6479 231.34L45.654 231.384C46.1409 234.951 46.6437 238.633 46.0919 242.016C45.3383 246.623 44.043 251.235 42.7883 255.691C41.6314 259.789 40.442 264.03 39.6517 268.315C36.2503 286.829 29.3009 303.632 18.4124 319.678C14.9698 324.751 11.2982 329.796 7.74867 334.673L7.67454 334.775C5.83331 337.304 3.99208 339.834 2.17121 342.38C0.566246 344.624 0.146673 346.763 0.920642 348.734C3.1122 354.311 14.3388 356.6 22.5388 358.271L22.6068 358.284C24.7328 358.718 26.5673 359.093 27.6959 359.436ZM20.3057 320.969C31.2228 304.879 38.49 287.306 41.9036 268.735C42.6735 264.551 43.8507 260.363 44.9995 256.322L45.008 256.292C46.2763 251.784 47.5879 247.122 48.3601 242.395C48.9692 238.668 48.4409 234.811 47.9292 231.074L47.9242 231.038C47.8143 230.252 47.7084 229.474 47.6147 228.708C47.504 227.803 47.3253 226.702 47.1256 225.471C47.1122 225.388 47.0987 225.305 47.0851 225.221L47.0812 225.197C45.9727 218.399 44.1219 207.05 49.464 203.99C51.676 202.723 53.9205 202.817 56.3198 204.291C63.9536 208.976 69.575 225.07 69.3754 229.05C69.2288 231.971 69.2573 234.81 69.2858 237.552L69.2861 237.581C69.3512 244.112 69.4127 250.286 67.0698 256.445C64.3823 263.52 61.7546 270.966 59.2103 278.176L59.1264 278.413L59.0923 278.51C53.0904 295.515 46.8867 313.092 38.934 328.839L38.3678 329.956L38.3657 329.959C34.5616 337.442 30.2502 345.921 35.8707 354.503L36.164 354.943L36.181 354.968C36.6157 355.616 37.0648 356.285 37.109 356.792C37.1376 357.15 37.0194 357.321 36.8361 357.472C35.6792 358.409 31.8786 358.311 28.3632 357.248C27.1439 356.882 25.2933 356.503 23.1429 356.064L22.9984 356.034L22.9811 356.031C16.1681 354.641 4.78415 352.319 3.0503 347.903C2.56962 346.681 2.89551 345.313 4.03609 343.716C5.85288 341.178 7.69004 338.652 9.5272 336.127L9.55426 336.09C13.1306 331.176 16.8276 326.097 20.3057 320.969Z" fill="#1A4A67"/>
<path d="M68.6878 356.026L73.9874 380.137L66.1093 382.736L62.0724 357.248C62.0724 357.252 66.1704 355.211 68.6878 356.026Z" fill="white"/>
<path fill-rule="evenodd" clip-rule="evenodd" d="M60.809 356.6L65.188 384.247L75.3229 380.903L69.6607 355.138L69.0375 354.934C66.1656 354.006 62.0229 355.993 61.5626 356.226L60.809 356.6ZM67.0306 381.229L63.34 357.937C64.505 357.46 66.3422 356.861 67.7272 356.996L72.648 379.375L67.0306 381.229Z" fill="#1A4A67"/>
<path d="M106.248 389.641C106.248 389.641 100.354 391.653 89.0541 392.492C77.7542 393.331 65.1425 393.751 62.8532 392.073C60.5598 390.394 59.0852 376.141 62.8532 376.141C66.6212 376.141 68.0836 381.592 74.7275 376.728C80.4182 372.561 84.9643 380.418 94.8711 382.512C104.774 384.606 108.786 385.445 106.248 389.641Z" fill="#D1D3D4"/>
<path fill-rule="evenodd" clip-rule="evenodd" d="M62.1774 392.993C63.428 393.91 66.9801 394.37 72.7849 394.37C77.0336 394.37 82.4921 394.126 89.136 393.633C100.452 392.794 106.371 390.81 106.615 390.724L107.011 390.59L107.227 390.236C108.151 388.708 108.367 387.421 107.886 386.309C106.832 383.878 102.942 383.055 95.1182 381.399L95.1037 381.396C91.2116 380.57 88.1763 378.811 85.495 377.257L85.482 377.249C81.4696 374.919 77.999 372.907 74.0477 375.803C70.2688 378.572 68.7206 377.621 66.7663 376.419L66.7642 376.418L66.7574 376.414C65.6714 375.747 64.443 374.992 62.8536 374.992C62.0959 374.992 60.7191 375.335 59.9736 377.62C58.662 381.64 59.717 391.193 62.1774 392.993ZM62.1527 378.325C62.3605 377.689 62.6375 377.282 62.8534 377.282C63.7886 377.282 64.6001 377.776 65.5367 378.347L65.5663 378.365L65.567 378.366C67.7096 379.681 70.3818 381.322 75.4039 377.644C78.0273 375.726 80.2718 376.866 84.3371 379.225C87.0297 380.789 90.3782 382.732 94.7002 383.645C100.57 384.883 105.206 385.865 105.788 387.213C105.927 387.535 105.825 388.028 105.479 388.679C103.98 389.128 98.3338 390.651 88.9687 391.348C72.1206 392.598 64.7802 392.065 63.5255 391.148C62.4542 390.358 60.8899 382.174 62.1527 378.325Z" fill="#1A4A67"/>
<path d="M89.2018 362.78C88.823 361.896 87.829 361.236 86.9655 360.548C79.075 354.258 81.0018 344.665 82.2646 336.282C85.2587 316.395 82.0528 296.349 80.8552 276.458C79.6901 257.043 81.6332 237.56 86.0693 218.634C87.6824 211.758 89.9065 201.126 79.2706 203.138C74.2316 204.092 69.2578 203.904 64.2352 203.024C61.5915 202.56 64.2881 201.701 61.5915 202.56C52.4057 205.493 48.9717 222.854 50.8577 228.904C54.6135 240.949 55.8356 252.51 56.4466 265.264C57.3102 283.35 60.3205 301.457 58.1738 319.405C57.1228 328.2 55.9008 336.97 54.7276 345.749C54.0432 350.869 49.762 362.087 52.6338 366.723C56.577 373.086 74.1461 367.693 80.016 367.55C84.4277 367.436 90.4891 365.782 89.2018 362.78Z" fill="white"/>
<path fill-rule="evenodd" clip-rule="evenodd" d="M51.6602 367.318C53.3752 370.088 57.0861 370.947 61.3633 370.947C65.3829 370.947 69.9043 370.191 73.7416 369.548L73.7794 369.542C76.3743 369.106 78.6147 368.731 80.0445 368.695C82.7656 368.625 88.3545 367.811 90.0287 365.204C90.599 364.316 90.6764 363.322 90.2528 362.332C89.8133 361.314 88.8901 360.598 88.072 359.963L88.0694 359.961L87.6783 359.655C80.6949 354.085 81.9703 345.759 83.2042 337.704L83.2056 337.695L83.393 336.453C85.6782 321.291 84.3747 305.873 83.1119 290.964L83.0837 290.629C82.6891 285.947 82.2823 281.119 81.9998 276.389C80.8755 257.707 82.6231 238.366 87.1854 218.895C88.5256 213.163 89.7028 206.784 86.6396 203.587C85.0224 201.896 82.4723 201.366 79.0587 202.014C74.5453 202.866 69.7589 202.829 64.4348 201.896C64.2881 201.872 64.17 201.847 64.0804 201.823V201.656L63.6078 201.293C63.0742 200.886 62.7239 200.996 61.2411 201.468C51.0451 204.723 47.8392 223.062 49.766 229.242C53.7255 241.935 54.7683 254.082 55.3019 265.317C55.5569 270.619 56.0009 276.006 56.4302 281.213L56.4384 281.313L56.4409 281.343C57.4708 293.824 58.5351 306.722 57.0332 319.266C56.2199 326.079 55.2873 332.994 54.3847 339.687L54.3528 339.923L53.5911 345.594C53.4159 346.908 52.9682 348.732 52.4916 350.673L52.4586 350.808L52.4532 350.83C51.061 356.5 49.3291 363.555 51.6602 367.318ZM61.9382 203.648C62.0971 203.595 62.2356 203.55 62.3537 203.513C62.8756 203.936 63.6235 204.073 64.0067 204.144C64.0153 204.146 64.0238 204.147 64.032 204.149C69.6372 205.13 74.6883 205.167 79.4788 204.259C82.0818 203.77 83.9352 204.071 84.9821 205.167C87.4466 207.737 85.8254 214.654 84.9536 218.369C80.3383 238.057 78.5745 257.622 79.711 276.523C80.0043 281.395 80.4198 286.356 80.8271 291.151C82.0777 305.93 83.369 321.21 81.1286 336.106L80.9412 337.345C79.6662 345.638 78.2282 355.044 86.249 361.44L86.6645 361.762L86.7032 361.792C87.3184 362.271 87.9478 362.761 88.1473 363.228C88.2898 363.558 88.2328 363.762 88.1025 363.961C87.2959 365.216 83.6582 366.312 79.988 366.401C78.3952 366.442 76.0815 366.829 73.4011 367.281L73.3861 367.284C66.5099 368.441 56.1316 370.187 53.6079 366.116C51.7829 363.167 53.4612 356.34 54.6873 351.358L54.7123 351.256C55.2272 349.157 55.6722 347.342 55.8646 345.899L56.6263 340.233C57.5429 333.455 58.4879 326.448 59.3149 319.539C60.8424 306.757 59.767 293.725 58.7242 281.126L58.7118 280.976C58.2838 275.801 57.8419 270.456 57.5918 265.207C57.05 253.817 55.9909 241.499 51.954 228.557C50.2268 223.025 53.4653 206.352 61.9382 203.648Z" fill="#1A4A67"/>
<path d="M94.6923 178.567C94.6923 178.567 105.874 190.938 107.695 189.183C109.512 187.423 142.955 151.698 144.63 147.808C146.304 143.918 150.308 132.666 149.889 130.398C149.469 128.129 148.406 128.373 152.838 127.57C157.27 126.768 165.694 126.577 165.009 128.296C164.325 130.015 160.822 130.161 160.822 130.161C160.822 130.161 165.36 131.273 163.645 132.194C161.93 133.115 156.223 133.884 156.777 135.534C157.331 137.184 158.158 140.964 157.856 144.162C157.555 147.36 156.321 148.806 152.614 151.087C148.907 153.364 148.255 151.779 146.096 156.289C143.937 160.798 111.133 199.977 109.039 201.599C106.945 203.22 106.4 205.008 101.748 200.723C97.0957 196.437 88.9038 185.83 82.3495 178.97C76.337 172.681 73.8644 163.825 73.8644 163.825L83.592 162.391C83.592 162.395 84.7366 169.137 94.6923 178.567Z" fill="white"/>
<path fill-rule="evenodd" clip-rule="evenodd" d="M100.973 201.57C103.254 203.672 104.79 204.524 106.093 204.524C107.124 204.524 108.012 203.99 109.006 203.114C109.23 202.919 109.47 202.711 109.735 202.503C112.387 200.446 144.959 161.295 147.122 156.782C148.368 154.179 148.857 153.996 150.169 153.511L150.173 153.509C150.938 153.224 151.89 152.87 153.208 152.061C156.915 149.784 158.626 148.117 158.992 144.268C159.306 140.911 158.487 137.172 157.941 135.432C158.511 135.009 160.336 134.479 161.355 134.186C162.512 133.852 163.51 133.563 164.178 133.204C165.18 132.667 165.2 131.88 165.159 131.567L165.158 131.557C165.125 131.327 165.065 130.904 164.447 130.418C165.151 130.035 165.762 129.493 166.068 128.719C166.296 128.153 166.202 127.558 165.819 127.09C164.06 124.939 154.34 126.137 152.629 126.446L152.352 126.495C149.786 126.96 149.012 127.102 148.544 127.868C148.158 128.497 148.347 129.114 148.513 129.659L148.515 129.664C148.592 129.909 148.686 130.214 148.759 130.605C149.065 132.276 145.7 142.415 143.574 147.356C142.063 150.867 110.281 184.938 107.067 188.189C105.454 187.826 99.9097 182.636 95.5388 177.801L95.4777 177.736C86.072 168.827 84.754 162.372 84.7202 162.207L84.7196 162.204L84.5322 161.1L72.4135 162.888L72.7638 164.139C72.8656 164.513 75.3831 173.345 81.5219 179.769C84.4996 182.885 87.8114 186.771 91.0132 190.531L91.1629 190.707C94.9078 195.098 98.4323 199.231 100.973 201.57ZM83.1759 178.184C78.748 173.548 76.2754 167.373 75.3711 164.766L82.7482 163.682C83.4855 166.021 85.9785 171.886 93.873 179.374C96.256 182.005 104.085 190.401 107.14 190.502C107.788 190.527 108.248 190.246 108.493 190.01C110.322 188.238 143.851 152.509 145.68 148.264C146.751 145.779 151.558 133.139 151.012 130.194C150.935 129.77 150.837 129.424 150.752 129.139C151.216 129.033 151.953 128.899 152.764 128.752L153.041 128.703C156.723 128.039 161.555 127.982 163.428 128.369C162.752 128.748 161.587 128.988 160.768 129.025L152.805 129.383L160.548 131.282C160.98 131.387 161.432 131.522 161.836 131.664C161.592 131.738 161.333 131.814 161.071 131.89C160.957 131.923 160.842 131.957 160.728 131.99C158.149 132.736 156.418 133.31 155.811 134.467C155.575 134.915 155.53 135.428 155.693 135.905C156.255 137.579 156.992 141.131 156.715 144.06C156.463 146.765 155.538 147.95 152.014 150.118C150.886 150.814 150.084 151.111 149.379 151.372C147.627 152.02 146.637 152.513 145.065 155.8C143.146 159.804 110.819 198.731 108.342 200.699C108.053 200.918 107.793 201.145 107.548 201.359L107.507 201.395L107.505 201.397C106.26 202.483 105.791 202.893 102.525 199.884C100.053 197.607 96.5086 193.448 92.7569 189.044C89.5347 185.26 86.1985 181.349 83.1759 178.184Z" fill="#1A4A67"/>
<path d="M81.3804 169.524C78.7163 158.713 81.6085 140.529 73.9869 132.508C73.2048 131.685 72.3779 130.874 71.3432 130.406C61.7663 126.092 55.9901 133.954 51.8718 140.769C47.7494 147.592 47.843 154.973 45.8307 162.623C43.5414 171.32 44.0017 180.364 43.8388 189.342C43.7369 194.808 44.405 200.238 44.0954 205.713C43.8795 209.534 43.3377 213.331 42.466 217.054C41.8875 219.531 38.6491 224.447 39.5942 226.969C40.3437 228.965 43.7736 228.211 45.46 228.268C51.9817 228.484 58.3731 226.549 64.1738 223.681C69.4735 221.062 74.1173 217.001 80.2276 216.496C83.2623 216.243 92.8188 217.49 91.446 211.97C88.1913 198.898 84.4803 187.753 83.132 178.522C82.7002 175.536 82.1217 172.522 81.3804 169.524Z" fill="#0FAFE4"/>
<path fill-rule="evenodd" clip-rule="evenodd" d="M38.5232 227.372C39.2035 229.189 41.0895 229.506 42.8004 229.506C43.3096 229.506 43.8025 229.494 44.2424 229.466C44.6824 229.437 45.0897 229.417 45.4197 229.425C51.5055 229.629 57.9621 228.04 64.6793 224.72C66.272 223.93 67.8118 223.017 69.2987 222.129C72.8793 219.995 76.2644 217.978 80.3216 217.644C80.8375 217.6 81.5447 217.604 82.3565 217.608L82.3828 217.608C85.6539 217.624 90.1185 217.64 91.9434 215.318C92.7051 214.349 92.9088 213.131 92.5544 211.701C91.4138 207.118 90.2325 202.825 89.0879 198.67L89.0463 198.519C86.9416 190.868 85.1227 184.256 84.2648 178.363C83.8126 175.259 83.2179 172.192 82.4928 169.251C81.5867 165.582 81.3413 161.025 81.0813 156.2L81.0793 156.163L81.0791 156.158C80.5781 146.856 80.0601 137.236 74.8142 131.717C74.0077 130.87 73.0463 129.917 71.812 129.363C60.5031 124.273 54.0185 135.007 50.8972 140.174L50.8945 140.178C47.9941 144.977 47.1265 149.894 46.2099 155.099C45.7944 157.462 45.3626 159.902 44.7231 162.33C42.8222 169.551 42.7801 177.065 42.7394 184.335L42.7393 184.351C42.7311 186.005 42.7189 187.663 42.6904 189.317C42.6469 191.69 42.7493 194.074 42.8485 196.384L42.8574 196.592C42.9878 199.566 43.1222 202.638 42.9511 205.648C42.7393 209.408 42.2016 213.155 41.3502 216.793C41.1838 217.516 40.71 218.578 40.2069 219.706L40.2015 219.718L40.1926 219.738C39.0379 222.328 37.7309 225.259 38.5232 227.372ZM52.8532 141.36C56.3891 135.51 60.4341 130.332 66.1207 130.332C67.5912 130.332 69.1677 130.679 70.8704 131.449C71.7218 131.832 72.4673 132.573 73.1516 133.294C77.8158 138.207 78.3128 147.396 78.7894 156.285L78.7953 156.394C79.0619 161.303 79.3137 165.939 80.264 169.797C80.9728 172.665 81.5553 175.659 81.9952 178.689C82.8792 184.763 84.7286 191.488 86.8753 199.273L86.9456 199.528C88.0644 203.592 89.2205 207.79 90.3297 212.251C90.57 213.208 90.3378 213.652 90.1423 213.901C89.0119 215.336 84.8823 215.323 82.404 215.314L82.3904 215.314C81.4901 215.31 80.6998 215.31 80.1296 215.355C75.5468 215.734 71.7707 217.983 68.1249 220.154L68.0312 220.209C66.6102 221.056 65.1431 221.929 63.6644 222.659C57.2893 225.808 51.1831 227.311 45.4924 227.128C45.1261 227.112 44.6794 227.137 44.194 227.164L44.1114 227.168C42.8568 227.242 40.9585 227.348 40.6652 226.569C40.2009 225.331 41.4066 222.626 42.2906 220.651C42.8446 219.416 43.3619 218.251 43.5819 217.314C44.4618 213.546 45.0198 209.664 45.2398 205.774C45.4129 202.691 45.2797 199.596 45.1508 196.599L45.1461 196.491L45.1447 196.457C45.0433 194.125 44.9386 191.717 44.9832 189.358C45.0158 187.696 45.0239 186.03 45.0321 184.364V184.364L45.0322 184.347C45.0729 177.224 45.115 169.857 46.9425 162.913C47.6025 160.391 48.0424 157.902 48.466 155.495L48.4727 155.457C49.3501 150.485 50.1796 145.784 52.8532 141.36Z" fill="#1A4A67"/>
<path d="M87.5063 162.664C87.5063 162.664 79.791 137.681 69.8313 142.451C59.8715 147.221 73.8722 173.903 73.8722 173.903L90.0604 165.858L87.5063 162.664Z" fill="#86E1FF"/>
<path fill-rule="evenodd" clip-rule="evenodd" d="M72.854 174.437L73.3754 175.426L91.8366 166.253L88.5289 162.118C87.8609 160.029 82.716 144.594 75.2615 141.331C73.2654 140.459 71.2735 140.492 69.3304 141.421C67.5829 142.256 66.3608 143.698 65.6927 145.706C62.662 154.847 72.4385 173.642 72.854 174.437ZM70.3244 143.482C71.0128 143.152 71.6931 142.989 72.3815 142.989C73.0292 142.989 73.681 143.136 74.3491 143.425C81.2211 146.431 86.3619 162.831 86.4108 162.998L86.4759 163.206L88.2805 165.458L74.3816 172.367C72.4182 168.387 65.5095 153.543 67.8722 146.423C68.3406 145.009 69.1431 144.048 70.3244 143.482Z" fill="#1A4A67"/>
</svg>
