<svg width="396" height="251" viewBox="0 0 396 251" fill="none" xmlns="http://www.w3.org/2000/svg">
<path d="M197.13 130C119.791 130 65.4852 162.667 48 179H361C338.602 162.667 274.47 130 197.13 130Z" fill="url(#paint0_linear_1227_19565)"/>
<path d="M174.343 180.283L126.907 161.791L149.017 137.671L196.454 156.163L174.343 180.283Z" fill="url(#paint1_linear_1227_19565)" fill-opacity="0.2"/>
<path d="M218.564 180.283L266 161.791L243.89 137.671L196.454 156.163L218.564 180.283Z" fill="url(#paint2_linear_1227_19565)" fill-opacity="0.2"/>
<path d="M218.564 180.283L266 161.791L243.89 137.671L196.454 156.163L218.564 180.283Z" fill="url(#paint3_linear_1227_19565)" fill-opacity="0.2"/>
<path d="M148.653 137.93L196.089 119.438V70.394L148.653 88.8861V137.93Z" fill="url(#paint4_linear_1227_19565)"/>
<path d="M243.525 137.93L196.089 119.438V70.394L243.525 88.8861V137.93Z" fill="url(#paint5_linear_1227_19565)"/>
<path d="M148.653 88.8861L196.089 107.378V156.423L148.653 137.93V88.8861Z" fill="url(#paint6_linear_1227_19565)"/>
<path d="M148.653 88.8861L196.089 107.378V156.423L148.653 137.93V88.8861Z" fill="black" fill-opacity="0.2"/>
<path d="M243.525 88.8861L196.089 107.378V156.423L243.525 137.93V88.8861Z" fill="url(#paint7_linear_1227_19565)"/>
<path d="M184.431 133.91L136.995 115.418L148.251 88.8861L195.687 107.378L184.431 133.91Z" fill="url(#paint8_linear_1227_19565)"/>
<path d="M208.149 133.91L255.585 115.418L243.123 88.8861L195.687 107.378L208.149 133.91Z" fill="url(#paint9_linear_1227_19565)"/>
<path d="M208.149 133.91L255.585 115.418L243.123 88.8861L195.687 107.378L208.149 133.91Z" fill="url(#paint10_linear_1227_19565)"/>
<path d="M330 123.5C330 137.031 324.18 148 317 148C309.82 148 304 137.031 304 123.5C304 109.969 309.82 99 317 99C324.18 99 330 109.969 330 123.5Z" fill="url(#paint11_linear_1227_19565)"/>
<path d="M317.5 161.5V113.5M317 136.5L311 130M318 124L322 119" stroke="#1C8DCC" stroke-width="2" stroke-linecap="round" stroke-linejoin="round"/>
<path d="M96 139.5C96 145.851 91.0751 151 85 151C78.9249 151 74 145.851 74 139.5C74 133.149 78.9249 128 85 128C91.0751 128 96 133.149 96 139.5Z" fill="url(#paint12_linear_1227_19565)"/>
<path d="M110 139.5C110 145.851 105.075 151 99 151C92.9249 151 88 145.851 88 139.5C88 133.149 92.9249 128 99 128C105.075 128 110 133.149 110 139.5Z" fill="url(#paint13_linear_1227_19565)"/>
<path d="M103 125.5C103 131.851 98.0751 137 92 137C85.9249 137 81 131.851 81 125.5C81 119.149 85.9249 114 92 114C98.0751 114 103 119.149 103 125.5Z" fill="url(#paint14_linear_1227_19565)"/>
<path d="M92.5 164V123M92 142.646L86 137.094M93 131.969L97 127.698" stroke="#1C8DCC" stroke-width="2" stroke-linecap="round" stroke-linejoin="round"/>
<path d="M297 127.5C297 133.851 292.075 139 286 139C279.925 139 275 133.851 275 127.5C275 121.149 279.925 116 286 116C292.075 116 297 121.149 297 127.5Z" fill="url(#paint15_linear_1227_19565)"/>
<path d="M311 127.5C311 133.851 306.075 139 300 139C293.925 139 289 133.851 289 127.5C289 121.149 293.925 116 300 116C306.075 116 311 121.149 311 127.5Z" fill="url(#paint16_linear_1227_19565)"/>
<path d="M304 113.5C304 119.851 299.075 125 293 125C286.925 125 282 119.851 282 113.5C282 107.149 286.925 102 293 102C299.075 102 304 107.149 304 113.5Z" fill="url(#paint17_linear_1227_19565)"/>
<path d="M293.5 152V111M293 130.646L287 125.094M294 119.969L298 115.698" stroke="#1C8DCC" stroke-width="2" stroke-linecap="round" stroke-linejoin="round"/>
<path d="M110.5 53.2767C124.833 44.11 163.1 27.1767 201.5 32.7767C249.5 39.7767 269.5 66.2763 318 53.2767C345 46.0398 347 16.2763 332.5 8.77633C318 1.27634 306.5 10.276 306.5 20.2763C306.5 30.2766 314.167 32.7767 318 32.7767M275 51.2764C241 42.9314 216 26 197 20.2763C151.595 6.59816 116 5.5 55.5 51.2764" stroke="#BBD8E1"/>
<path d="M112.847 79.5188C114.016 66.1067 132.56 62.9395 137.19 63.2812C135.118 80.6221 127.116 78.3398 121.606 77.3934C118.261 76.8188 114.872 78.7324 112.847 79.5188Z" fill="#BBD8E1"/>
<path d="M169.118 22.6579C163.818 19.3872 157.521 25.3937 156.369 27.2063C163.376 31.2275 164.739 27.6274 165.91 25.3215C166.621 23.9214 168.267 23.1924 169.118 22.6579Z" fill="#BBD8E1"/>
<path d="M293.624 33.0003C298.259 37.1602 305.523 32.3674 306.979 30.7882C300.797 25.5865 298.816 28.8874 297.254 30.9488C296.306 32.2004 294.557 32.6255 293.624 33.0003Z" fill="#BBD8E1"/>
<defs>
<linearGradient id="paint0_linear_1227_19565" x1="204.5" y1="130" x2="204.5" y2="179" gradientUnits="userSpaceOnUse">
<stop stop-color="#A3E8FF"/>
<stop offset="1" stop-color="#54C5EB" stop-opacity="0"/>
</linearGradient>
<linearGradient id="paint1_linear_1227_19565" x1="149.055" y1="174.513" x2="161.68" y2="137.671" gradientUnits="userSpaceOnUse">
<stop offset="0.241968" stop-opacity="0"/>
<stop offset="0.832924" stop-color="#086B8C"/>
</linearGradient>
<linearGradient id="paint2_linear_1227_19565" x1="214.581" y1="169.287" x2="188.853" y2="117.83" gradientUnits="userSpaceOnUse">
<stop stop-opacity="0"/>
<stop offset="1" stop-color="#086B8C"/>
</linearGradient>
<linearGradient id="paint3_linear_1227_19565" x1="214.581" y1="169.287" x2="188.853" y2="117.83" gradientUnits="userSpaceOnUse">
<stop stop-opacity="0"/>
<stop offset="1" stop-color="#086B8C"/>
</linearGradient>
<linearGradient id="paint4_linear_1227_19565" x1="191" y1="96.5007" x2="181" y2="73.5007" gradientUnits="userSpaceOnUse">
<stop offset="0.143049" stop-color="#1791BA"/>
<stop offset="0.869792" stop-color="#89E3FC"/>
</linearGradient>
<linearGradient id="paint5_linear_1227_19565" x1="205" y1="96.5007" x2="214.5" y2="79.5007" gradientUnits="userSpaceOnUse">
<stop stop-color="#4689AF"/>
<stop offset="1" stop-color="#55D9FE"/>
</linearGradient>
<linearGradient id="paint6_linear_1227_19565" x1="149.859" y1="115.82" x2="184.029" y2="138.734" gradientUnits="userSpaceOnUse">
<stop stop-color="#00C3F9"/>
<stop offset="1" stop-color="#0D89CF"/>
</linearGradient>
<linearGradient id="paint7_linear_1227_19565" x1="238.701" y1="115.82" x2="211.365" y2="140.744" gradientUnits="userSpaceOnUse">
<stop stop-color="#74E1FF"/>
<stop offset="1" stop-color="#07A6D8"/>
</linearGradient>
<linearGradient id="paint8_linear_1227_19565" x1="196.089" y1="131.498" x2="196.089" y2="81.2481" gradientUnits="userSpaceOnUse">
<stop offset="0.336408" stop-color="#78D7F1"/>
<stop offset="1" stop-color="#086B8C"/>
</linearGradient>
<linearGradient id="paint9_linear_1227_19565" x1="196.089" y1="131.498" x2="196.089" y2="81.2481" gradientUnits="userSpaceOnUse">
<stop offset="0.336408" stop-color="#78D7F1"/>
<stop offset="1" stop-color="#086B8C"/>
</linearGradient>
<linearGradient id="paint10_linear_1227_19565" x1="196.089" y1="131.498" x2="196.089" y2="81.2481" gradientUnits="userSpaceOnUse">
<stop offset="0.336408" stop-color="#78D7F1"/>
<stop offset="1" stop-color="#086B8C"/>
</linearGradient>
<linearGradient id="paint11_linear_1227_19565" x1="295.727" y1="114.978" x2="327.212" y2="101.095" gradientUnits="userSpaceOnUse">
<stop stop-color="#0FAFE4"/>
<stop offset="1" stop-color="#CBF2FF"/>
</linearGradient>
<linearGradient id="paint12_linear_1227_19565" x1="81" y1="135.5" x2="100.5" y2="120" gradientUnits="userSpaceOnUse">
<stop stop-color="#0FAFE4"/>
<stop offset="1" stop-color="#CBF2FF"/>
</linearGradient>
<linearGradient id="paint13_linear_1227_19565" x1="81" y1="135.5" x2="100.5" y2="120" gradientUnits="userSpaceOnUse">
<stop stop-color="#0FAFE4"/>
<stop offset="1" stop-color="#CBF2FF"/>
</linearGradient>
<linearGradient id="paint14_linear_1227_19565" x1="81" y1="135.5" x2="100.5" y2="120" gradientUnits="userSpaceOnUse">
<stop stop-color="#0FAFE4"/>
<stop offset="1" stop-color="#CBF2FF"/>
</linearGradient>
<linearGradient id="paint15_linear_1227_19565" x1="282" y1="123.5" x2="301.5" y2="108" gradientUnits="userSpaceOnUse">
<stop stop-color="#67C6E6"/>
<stop offset="1" stop-color="#CBF2FF"/>
</linearGradient>
<linearGradient id="paint16_linear_1227_19565" x1="282" y1="123.5" x2="301.5" y2="108" gradientUnits="userSpaceOnUse">
<stop stop-color="#67C6E6"/>
<stop offset="1" stop-color="#CBF2FF"/>
</linearGradient>
<linearGradient id="paint17_linear_1227_19565" x1="282" y1="123.5" x2="301.5" y2="108" gradientUnits="userSpaceOnUse">
<stop stop-color="#67C6E6"/>
<stop offset="1" stop-color="#CBF2FF"/>
</linearGradient>
</defs>
</svg>
