<svg width="33" height="32" viewBox="0 0 33 32" fill="none" xmlns="http://www.w3.org/2000/svg">
<rect x="2.98438" y="2.46143" width="27.117" height="27.117" rx="13.5585" fill="#FFAF2E"/>
<path d="M10.6653 10.5371C10.4956 10.4972 10.3691 10.3452 10.3691 10.1633V8.99966C10.3691 8.78739 10.5413 8.61523 10.7536 8.61523H21.2684C21.4806 8.61523 21.6528 8.78739 21.6528 8.99966V10.1634C21.6528 10.3453 21.5263 10.4973 21.3566 10.5372C21.2405 12.6076 20.1653 14.5049 18.4297 15.6677L17.7042 16.1537L18.4297 16.6398C20.1653 17.8024 21.2406 19.6999 21.3566 21.7702C21.5263 21.8102 21.6528 21.9622 21.6528 22.1441V23.3078C21.6528 23.5201 21.4806 23.6922 21.2684 23.6922H10.7536C10.5413 23.6922 10.3691 23.5201 10.3691 23.3078V22.1441C10.3691 21.9622 10.4956 21.8102 10.6653 21.7702C10.7814 19.6999 11.8567 17.8025 13.5923 16.6398L14.3178 16.1537L13.5923 15.6677C11.8567 14.5049 10.7814 12.6075 10.6653 10.5371ZM15.2224 15.8343C15.3289 15.9057 15.3929 16.0255 15.3929 16.1537C15.3929 16.282 15.3289 16.4017 15.2224 16.4731L14.0201 17.2785C12.501 18.2962 11.5541 19.9506 11.436 21.7597H20.586C20.4679 19.9507 19.5209 18.2962 18.0018 17.2785L16.7995 16.4731C16.693 16.4017 16.6291 16.282 16.6291 16.1537C16.6291 16.0255 16.693 15.9057 16.7995 15.8343L18.0018 15.0289C19.5209 14.0112 20.4679 12.3568 20.586 10.5478H11.436C11.5541 12.3569 12.501 14.0112 14.0201 15.0289L15.2224 15.8343Z" fill="white"/>
<path d="M15.0085 13.9113H17.0135C17.1729 13.9113 17.3158 14.0096 17.3727 14.1584C17.4295 14.3073 17.3887 14.4759 17.2699 14.5821L16.2674 15.4791C16.1944 15.5444 16.1027 15.577 16.0111 15.577C15.9195 15.577 15.8277 15.5444 15.7548 15.4791L14.7523 14.5821C14.6335 14.4759 14.5927 14.3073 14.6495 14.1584C14.7062 14.0096 14.8491 13.9113 15.0085 13.9113Z" fill="white"/>
<path d="M16.0267 17.6223L17.0017 18.2486C17.8543 18.8197 18.3659 19.7783 18.3659 20.8045H13.4639C13.4639 19.7783 13.9755 18.8197 14.828 18.2486L15.8031 17.6223C15.8719 17.581 15.9579 17.581 16.0267 17.6223Z" fill="white"/>
</svg>
