<svg width="26" height="24" viewBox="0 0 26 24" fill="none" xmlns="http://www.w3.org/2000/svg">
<path fill-rule="evenodd" clip-rule="evenodd" d="M6 1C5.20435 1 4.44129 1.31607 3.87868 1.87868C3.31607 2.44129 3 3.20435 3 4V20C3 20.7957 3.31607 21.5587 3.87868 22.1213C4.44129 22.6839 5.20435 23 6 23H18C18.7957 23 19.5587 22.6839 20.1213 22.1213C20.6839 21.5587 21 20.7957 21 20V16L19 18V20C19 20.2652 18.8946 20.5196 18.7071 20.7071C18.5196 20.8946 18.2652 21 18 21H6C5.73478 21 5.48043 20.8946 5.29289 20.7071C5.10536 20.5196 5 20.2652 5 20V4C5 3.73478 5.10536 3.48043 5.29289 3.29289C5.48043 3.10536 5.73478 3 6 3H13V8C13 8.55228 13.4477 9 14 9L16 7H15V3.91421L17.0429 5.95711L18.4571 4.54289L15.2071 1.29289C15.0196 1.10536 14.7652 1 14.5 1H6ZM11 13C11 12.4477 10.5523 12 10 12H8C7.44772 12 7 12.4477 7 13C7 13.5523 7.44772 14 8 14H10C10.2251 14 10.4328 13.9256 10.5999 13.8001L11 13ZM8 8C7.44772 8 7 8.44772 7 9C7 9.55228 7.44772 10 8 10H10C10.5523 10 11 9.55228 11 9C11 8.44772 10.5523 8 10 8H8ZM8 16C7.44772 16 7 16.4477 7 17C7 17.5523 7.44772 18 8 18H8.5C9.05229 18 9.5 17.5523 9.5 17C9.5 16.4477 9.05229 16 8.5 16H8Z" fill="#C1C9D2"/>
<path fill-rule="evenodd" clip-rule="evenodd" d="M19.4581 5.88451C20.0757 5.26689 20.9134 4.91992 21.7868 4.91992C22.6602 4.91992 23.4979 5.26689 24.1155 5.88451C24.7331 6.50212 25.0801 7.33979 25.0801 8.21322C25.0801 9.08666 24.7331 9.92433 24.1155 10.5419L14.9264 19.7311C14.7389 19.9186 14.4845 20.024 14.2193 20.024H10.9761C10.4238 20.024 9.97607 19.5762 9.97607 19.024V15.7807C9.97607 15.5155 10.0814 15.2612 10.269 15.0736L19.4581 5.88451ZM20.8723 7.29872C21.1148 7.05618 21.4438 6.91992 21.7868 6.91992C22.1298 6.91992 22.4588 7.05618 22.7013 7.29872C22.9439 7.54126 23.0801 7.87022 23.0801 8.21322C23.0801 8.55623 22.9439 8.88519 22.7013 9.12773L21.6696 10.1594L19.8406 8.33043L20.8723 7.29872ZM20.2554 11.5737L18.4264 9.74465L11.9761 16.195V18.024H13.8051L20.2554 11.5737Z" fill="#C1C9D2"/>
</svg>
