<svg width="24" height="24" viewBox="0 0 24 24" fill="none" xmlns="http://www.w3.org/2000/svg">
<path d="M21.8605 16.2739C22.0219 15.8924 21.8434 15.4523 21.4619 15.291C21.0804 15.1297 20.6403 15.3082 20.479 15.6897L21.8605 16.2739ZM8.78814 4.1316C9.16778 3.96593 9.34124 3.52387 9.17557 3.14423C9.0099 2.76459 8.56784 2.59113 8.1882 2.7568L8.78814 4.1316ZM21.9282 12.2474V12.9974C22.3424 12.9974 22.6782 12.6616 22.6782 12.2474H21.9282ZM12.3282 2.6474V1.8974C12.1293 1.8974 11.9385 1.97642 11.7978 2.11707C11.6572 2.25772 11.5782 2.44849 11.5782 2.6474L12.3282 2.6474ZM12.3282 12.2474H11.5782C11.5782 12.6616 11.914 12.9974 12.3282 12.9974V12.2474ZM20.479 15.6897C19.916 17.0212 19.0354 18.1944 17.9142 19.1069L18.861 20.2703C20.1722 19.2032 21.2021 17.831 21.8605 16.2739L20.479 15.6897ZM17.9142 19.1069C16.7929 20.0195 15.4653 20.6434 14.0472 20.9243L14.3386 22.3957C15.997 22.0672 17.5497 21.3375 18.861 20.2703L17.9142 19.1069ZM14.0472 20.9243C12.6291 21.2051 11.1639 21.1343 9.77947 20.7181L9.34755 22.1546C10.9666 22.6414 12.6802 22.7242 14.3386 22.3957L14.0472 20.9243ZM9.77947 20.7181C8.39508 20.3018 7.13374 19.5528 6.10572 18.5364L5.05114 19.6031C6.2534 20.7917 7.72853 21.6677 9.34755 22.1546L9.77947 20.7181ZM6.10572 18.5364C5.0777 17.5201 4.3143 16.2674 3.88226 14.8878L2.45082 15.3361C2.95608 16.9495 3.84887 18.4145 5.05114 19.6031L6.10572 18.5364ZM3.88226 14.8878C3.45022 13.5083 3.3627 12.0439 3.62735 10.6227L2.1527 10.3481C1.8432 12.0102 1.94555 13.7228 2.45082 15.3361L3.88226 14.8878ZM3.62735 10.6227C3.892 9.20157 4.50075 7.86685 5.4004 6.7353L4.22627 5.8018C3.17414 7.12515 2.4622 8.68609 2.1527 10.3481L3.62735 10.6227ZM5.4004 6.7353C6.30005 5.60374 7.46319 4.70979 8.78814 4.1316L8.1882 2.7568C6.63868 3.43298 5.2784 4.47845 4.22627 5.8018L5.4004 6.7353ZM22.6782 12.2474C22.6782 10.8882 22.4105 9.54235 21.8903 8.28663L20.5045 8.86065C20.9493 9.93438 21.1782 11.0852 21.1782 12.2474H22.6782ZM21.8903 8.28663C21.3702 7.03091 20.6078 5.88993 19.6467 4.92884L18.5861 5.9895C19.4079 6.8113 20.0598 7.78692 20.5045 8.86065L21.8903 8.28663ZM19.6467 4.92884C18.6856 3.96776 17.5447 3.20538 16.2889 2.68525L15.7149 4.07107C16.7887 4.51582 17.7643 5.16771 18.5861 5.9895L19.6467 4.92884ZM16.2889 2.68525C15.0332 2.16511 13.6874 1.8974 12.3282 1.8974V3.3974C13.4904 3.3974 14.6412 3.62631 15.7149 4.07107L16.2889 2.68525ZM11.5782 2.6474V12.2474H13.0782V2.6474H11.5782ZM12.3282 12.9974H21.9282V11.4974H12.3282V12.9974Z" fill="#22242C"/>
</svg>
