<svg width="18" height="22" viewBox="0 0 18 22" fill="none" xmlns="http://www.w3.org/2000/svg">
<path d="M13 2.25C12.5858 2.25 12.25 2.58579 12.25 3C12.25 3.41421 12.5858 3.75 13 3.75V2.25ZM15 3V2.25V3ZM1 19H0.25H1ZM3 3V2.25V3ZM5 3.75C5.41421 3.75 5.75 3.41421 5.75 3C5.75 2.58579 5.41421 2.25 5 2.25V3.75ZM11.5303 10.0303C11.8232 9.73744 11.8232 9.26256 11.5303 8.96967C11.2374 8.67678 10.7626 8.67678 10.4697 8.96967L11.5303 10.0303ZM8.25 12.25L7.71967 12.7803C8.01256 13.0732 8.48744 13.0732 8.78033 12.7803L8.25 12.25ZM7.53033 10.4697C7.23744 10.1768 6.76256 10.1768 6.46967 10.4697C6.17678 10.7626 6.17678 11.2374 6.46967 11.5303L7.53033 10.4697ZM11.5303 14.0303C11.8232 13.7374 11.8232 13.2626 11.5303 12.9697C11.2374 12.6768 10.7626 12.6768 10.4697 12.9697L11.5303 14.0303ZM8.25 16.25L7.71967 16.7803C8.01256 17.0732 8.48744 17.0732 8.78033 16.7803L8.25 16.25ZM7.53033 14.4697C7.23744 14.1768 6.76256 14.1768 6.46967 14.4697C6.17678 14.7626 6.17678 15.2374 6.46967 15.5303L7.53033 14.4697ZM13 3.75H15V2.25H13V3.75ZM15 3.75C15.3315 3.75 15.6495 3.8817 15.8839 4.11612L16.9445 3.05546C16.4288 2.53973 15.7293 2.25 15 2.25V3.75ZM15.8839 4.11612C16.1183 4.35054 16.25 4.66848 16.25 5H17.75C17.75 4.27065 17.4603 3.57118 16.9445 3.05546L15.8839 4.11612ZM16.25 5V19H17.75V5H16.25ZM16.25 19C16.25 19.3315 16.1183 19.6495 15.8839 19.8839L16.9445 20.9445C17.4603 20.4288 17.75 19.7293 17.75 19H16.25ZM15.8839 19.8839C15.6495 20.1183 15.3315 20.25 15 20.25V21.75C15.7293 21.75 16.4288 21.4603 16.9445 20.9445L15.8839 19.8839ZM15 20.25H3V21.75H15V20.25ZM3 20.25C2.66848 20.25 2.35054 20.1183 2.11612 19.8839L1.05546 20.9445C1.57118 21.4603 2.27065 21.75 3 21.75V20.25ZM2.11612 19.8839C1.8817 19.6495 1.75 19.3315 1.75 19H0.25C0.25 19.7293 0.539731 20.4288 1.05546 20.9445L2.11612 19.8839ZM1.75 19V5H0.25V19H1.75ZM1.75 5C1.75 4.66848 1.8817 4.35054 2.11612 4.11612L1.05546 3.05546C0.539731 3.57118 0.25 4.27065 0.25 5H1.75ZM2.11612 4.11612C2.35054 3.8817 2.66848 3.75 3 3.75V2.25C2.27065 2.25 1.57118 2.53973 1.05546 3.05546L2.11612 4.11612ZM3 3.75H5V2.25H3V3.75ZM6 1.75H12V0.25H6V1.75ZM12 1.75C12.1381 1.75 12.25 1.86193 12.25 2H13.75C13.75 1.0335 12.9665 0.25 12 0.25V1.75ZM12.25 2V4H13.75V2H12.25ZM12.25 4C12.25 4.13807 12.1381 4.25 12 4.25V5.75C12.9665 5.75 13.75 4.9665 13.75 4H12.25ZM12 4.25H6V5.75H12V4.25ZM6 4.25C5.86193 4.25 5.75 4.13807 5.75 4H4.25C4.25 4.9665 5.0335 5.75 6 5.75V4.25ZM5.75 4V2H4.25V4H5.75ZM5.75 2C5.75 1.86193 5.86193 1.75 6 1.75V0.25C5.0335 0.25 4.25 1.0335 4.25 2H5.75ZM10.4697 8.96967L7.71967 11.7197L8.78033 12.7803L11.5303 10.0303L10.4697 8.96967ZM8.78033 11.7197L7.53033 10.4697L6.46967 11.5303L7.71967 12.7803L8.78033 11.7197ZM10.4697 12.9697L7.71967 15.7197L8.78033 16.7803L11.5303 14.0303L10.4697 12.9697ZM8.78033 15.7197L7.53033 14.4697L6.46967 15.5303L7.71967 16.7803L8.78033 15.7197Z" fill="#22242C"/>
</svg>
