<svg width="24" height="24" viewBox="0 0 24 24" fill="none" xmlns="http://www.w3.org/2000/svg">
<path d="M11.9978 8.07128C11.2211 8.07128 10.462 8.30157 9.81622 8.73304C9.17049 9.16451 8.6672 9.77776 8.37 10.4953C8.0728 11.2128 7.99504 12.0023 8.14655 12.764C8.29806 13.5257 8.67204 14.2253 9.22119 14.7745C9.77034 15.3236 10.47 15.6976 11.2317 15.8491C11.9934 16.0006 12.7829 15.9229 13.5004 15.6257C14.2179 15.3285 14.8312 14.8252 15.2626 14.1795C15.6941 13.5337 15.9244 12.7746 15.9244 11.9979C15.9244 10.9565 15.5107 9.95776 14.7743 9.22137C14.0379 8.48498 13.0392 8.07128 11.9978 8.07128ZM11.9978 13.9613C11.6094 13.9613 11.2299 13.8461 10.907 13.6304C10.5841 13.4146 10.3325 13.108 10.1839 12.7493C10.0353 12.3905 9.99639 11.9958 10.0721 11.6149C10.1479 11.2341 10.3349 10.8842 10.6095 10.6097C10.884 10.3351 11.2339 10.1481 11.6147 10.0723C11.9956 9.99658 12.3903 10.0355 12.7491 10.1841C13.1078 10.3327 13.4145 10.5843 13.6302 10.9072C13.8459 11.23 13.9611 11.6096 13.9611 11.9979C13.9611 12.5186 13.7542 13.018 13.386 13.3862C13.0178 13.7544 12.5185 13.9613 11.9978 13.9613Z" fill="#00C3F9"/>
<path d="M22.796 11.9979C22.8055 11.2935 22.5621 10.609 22.11 10.0687C21.6579 9.52832 21.0271 9.16795 20.3321 9.05295C20.2231 8.73476 20.0953 8.42334 19.9492 8.12037C20.3345 7.55161 20.5088 6.86606 20.4419 6.18237C20.3751 5.49868 20.0714 4.85985 19.5833 4.37644C19.0952 3.89303 18.4535 3.59544 17.7692 3.53519C17.0849 3.47493 16.4011 3.65579 15.8361 4.04647C15.5459 3.90184 15.2476 3.77401 14.9427 3.66362C14.8291 2.97495 14.4746 2.34902 13.9425 1.89743C13.4103 1.44583 12.735 1.19794 12.037 1.19794C11.3391 1.19794 10.6638 1.44583 10.1316 1.89743C9.59939 2.34902 9.24489 2.97495 9.1313 3.66362C8.8131 3.77259 8.50169 3.90043 8.19872 4.04647C7.63423 3.60281 6.92713 3.38064 6.21034 3.42174C5.49356 3.46283 4.81648 3.76435 4.30639 4.26961C3.79631 4.77487 3.48837 5.44905 3.44047 6.16542C3.39257 6.88178 3.60801 7.59096 4.04628 8.15963C3.90025 8.46261 3.7724 8.77402 3.66343 9.09221C2.97477 9.20581 2.34884 9.56031 1.89725 10.0925C1.44565 10.6247 1.19775 11.3 1.19775 11.9979C1.19775 12.6959 1.44565 13.3712 1.89725 13.9034C2.34884 14.4356 2.97477 14.7901 3.66343 14.9037C3.7724 15.2219 3.90025 15.5333 4.04628 15.8362C3.63465 16.4035 3.43884 17.099 3.49405 17.7978C3.54925 18.4965 3.85185 19.1526 4.34747 19.6482C4.84308 20.1438 5.4992 20.4464 6.19793 20.5016C6.89665 20.5568 7.59216 20.361 8.15945 19.9494C8.46243 20.0954 8.77384 20.2233 9.09203 20.3323C9.20563 21.0209 9.56012 21.6469 10.0923 22.0984C10.6245 22.55 11.2998 22.7979 11.9978 22.7979C12.6957 22.7979 13.371 22.55 13.9032 22.0984C14.4354 21.6469 14.7899 21.0209 14.9035 20.3323C15.2217 20.2233 15.5331 20.0954 15.8361 19.9494C16.4033 20.361 17.0989 20.5568 17.7976 20.5016C18.4963 20.4464 19.1524 20.1438 19.648 19.6482C20.1437 19.1526 20.4462 18.4965 20.5015 17.7978C20.5567 17.099 20.3609 16.4035 19.9492 15.8362C20.0953 15.5333 20.2231 15.2219 20.3321 14.9037C21.0204 14.7897 21.646 14.435 22.0972 13.9029C22.5485 13.3707 22.7961 12.6957 22.796 11.9979ZM19.8511 12.9796H19.5958C19.3729 12.9725 19.1542 13.0416 18.9758 13.1754C18.7973 13.3093 18.6698 13.4999 18.6142 13.7158C18.4576 14.3381 18.2095 14.9335 17.8779 15.4828C17.7693 15.6704 17.7258 15.8886 17.7542 16.1035C17.7826 16.3184 17.8813 16.5178 18.035 16.6707L18.2117 16.8572C18.3424 16.9298 18.4548 17.0313 18.5402 17.154C18.6257 17.2766 18.6821 17.4172 18.705 17.565C18.7279 17.7127 18.7167 17.8638 18.6723 18.0065C18.628 18.1493 18.5516 18.2801 18.449 18.3889C18.3464 18.4976 18.2203 18.5815 18.0804 18.6341C17.9404 18.6867 17.7903 18.7067 17.6414 18.6925C17.4926 18.6782 17.349 18.6302 17.2215 18.552C17.0941 18.4738 16.9862 18.3676 16.9061 18.2413L16.7196 18.0646C16.566 17.8961 16.3585 17.7863 16.1328 17.7541C15.9071 17.7218 15.6773 17.7692 15.4827 17.8879C14.9334 18.2195 14.3379 18.4676 13.7157 18.6242C13.4997 18.6798 13.3091 18.8074 13.1753 18.9858C13.0414 19.1642 12.9724 19.3829 12.9794 19.6058V19.8512C12.9794 20.1116 12.876 20.3613 12.6919 20.5454C12.5078 20.7295 12.2581 20.8329 11.9978 20.8329C11.7374 20.8329 11.4877 20.7295 11.3036 20.5454C11.1195 20.3613 11.0161 20.1116 11.0161 19.8512V19.596C11.0231 19.3731 10.9541 19.1544 10.8202 18.976C10.6864 18.7975 10.4958 18.67 10.2798 18.6143C9.65764 18.4578 9.06214 18.2097 8.51285 17.8781C8.36035 17.7916 8.18748 17.7476 8.0122 17.7505C7.75467 17.7516 7.50788 17.8538 7.32504 18.0352L7.13852 18.2119C7.0659 18.3426 6.96438 18.4549 6.84172 18.5404C6.71905 18.6259 6.57848 18.6823 6.43072 18.7052C6.28297 18.728 6.13194 18.7169 5.98915 18.6725C5.84637 18.6282 5.7156 18.5518 5.60684 18.4492C5.49807 18.3466 5.41418 18.2205 5.36156 18.0805C5.30894 17.9406 5.28899 17.7905 5.30322 17.6416C5.31745 17.4928 5.3655 17.3492 5.44368 17.2217C5.52187 17.0943 5.62814 16.9864 5.75438 16.9063L5.93107 16.7197C6.09958 16.5662 6.20937 16.3587 6.24161 16.133C6.27386 15.9073 6.22654 15.6775 6.10777 15.4828C5.77622 14.9335 5.5281 14.3381 5.37153 13.7158C5.31588 13.4999 5.18834 13.3093 5.00991 13.1754C4.83148 13.0416 4.61279 12.9725 4.38986 12.9796H4.14445C3.8841 12.9796 3.63441 12.8762 3.45031 12.6921C3.26621 12.508 3.16279 12.2583 3.16279 11.9979C3.16279 11.7376 3.26621 11.4879 3.45031 11.3038C3.63441 11.1197 3.8841 11.0163 4.14445 11.0163H4.39968C4.62261 11.0233 4.84129 10.9543 5.01972 10.8204C5.19816 10.6866 5.3257 10.496 5.38134 10.28C5.53791 9.65782 5.78604 9.06233 6.11759 8.51303C6.22621 8.32548 6.2697 8.10725 6.24129 7.89239C6.21288 7.67752 6.11416 7.4781 5.96053 7.32522L5.78383 7.1387C5.623 6.95091 5.53897 6.70935 5.54851 6.46229C5.55805 6.21523 5.66047 5.98086 5.8353 5.80604C6.01013 5.63121 6.24449 5.52879 6.49155 5.51924C6.73861 5.5097 6.98018 5.59374 7.16797 5.75456L7.35449 5.93126C7.50736 6.08489 7.70679 6.18361 7.92165 6.21202C8.13652 6.24044 8.35474 6.19694 8.5423 6.08832C9.09159 5.75677 9.68709 5.50865 10.3093 5.35208C10.5253 5.29643 10.7159 5.16889 10.8497 4.99046C10.9835 4.81203 11.0526 4.59334 11.0455 4.37041V4.14463C11.0455 3.88428 11.149 3.63459 11.3331 3.45049C11.5172 3.26639 11.7668 3.16297 12.0272 3.16297C12.2876 3.16297 12.5372 3.26639 12.7213 3.45049C12.9054 3.63459 13.0089 3.88428 13.0089 4.14463V4.39986C13.0018 4.62279 13.0709 4.84148 13.2047 5.01991C13.3385 5.19834 13.5291 5.32588 13.7451 5.38153C14.3673 5.5381 14.9628 5.78622 15.5121 6.11777C15.6997 6.22639 15.9179 6.26989 16.1328 6.24147C16.3476 6.21306 16.547 6.11434 16.6999 5.96071L16.9061 5.75456C16.9941 5.6518 17.1024 5.56834 17.2242 5.50941C17.3459 5.45049 17.4786 5.41738 17.6138 5.41216C17.749 5.40694 17.8838 5.42972 18.0098 5.47907C18.1357 5.52842 18.2502 5.60328 18.3458 5.69895C18.4415 5.79462 18.5163 5.90903 18.5657 6.035C18.6151 6.16097 18.6378 6.29578 18.6326 6.43098C18.6274 6.56617 18.5943 6.69883 18.5354 6.82062C18.4764 6.94241 18.393 7.0507 18.2902 7.1387L18.1135 7.32522C17.9487 7.46961 17.837 7.66499 17.7961 7.88024C17.7551 8.09549 17.7874 8.31824 17.8877 8.51303C18.2193 9.06233 18.4674 9.65782 18.624 10.28C18.6796 10.496 18.8072 10.6866 18.9856 10.8204C19.164 10.9543 19.3827 11.0233 19.6056 11.0163H19.8511C20.1114 11.0163 20.3611 11.1197 20.5452 11.3038C20.7293 11.4879 20.8327 11.7376 20.8327 11.9979C20.8327 12.2583 20.7293 12.508 20.5452 12.6921C20.3611 12.8762 20.1114 12.9796 19.8511 12.9796Z" fill="#00C3F9"/>
<path fill-rule="evenodd" clip-rule="evenodd" d="M22.4034 11.9927C22.4034 11.9944 22.4034 11.9962 22.4034 11.9979C22.4034 11.9979 22.4034 11.9979 22.4034 11.9979H22.796C22.7961 12.6957 22.5485 13.3707 22.0972 13.9029C21.646 14.435 21.0204 14.7897 20.3321 14.9037C20.2231 15.2219 20.0953 15.5333 19.9492 15.8362C20.3609 16.4035 20.5567 17.099 20.5015 17.7978C20.4462 18.4965 20.1437 19.1526 19.648 19.6482C19.1524 20.1438 18.4963 20.4464 17.7976 20.5016C17.0989 20.5568 16.4033 20.361 15.8361 19.9494C15.5331 20.0954 15.2217 20.2233 14.9035 20.3323C14.7899 21.0209 14.4354 21.6469 13.9032 22.0984C13.371 22.55 12.6957 22.7979 11.9978 22.7979C11.2998 22.7979 10.6245 22.55 10.0923 22.0984C9.56012 21.6469 9.20563 21.0209 9.09203 20.3323C8.77384 20.2233 8.46243 20.0954 8.15945 19.9494C7.59216 20.361 6.89665 20.5568 6.19793 20.5016C5.4992 20.4464 4.84308 20.1438 4.34747 19.6482C3.85185 19.1526 3.54925 18.4965 3.49405 17.7978C3.43884 17.099 3.63465 16.4035 4.04628 15.8362C3.90025 15.5333 3.7724 15.2219 3.66343 14.9037C2.97477 14.7901 2.34884 14.4356 1.89725 13.9034C1.44565 13.3712 1.19775 12.6959 1.19775 11.9979C1.19775 11.3 1.44565 10.6247 1.89725 10.0925C2.34884 9.56031 2.97477 9.20581 3.66343 9.09221C3.7724 8.77402 3.90025 8.46261 4.04628 8.15963C3.60801 7.59096 3.39257 6.88178 3.44047 6.16542C3.48837 5.44905 3.79631 4.77487 4.30639 4.26961C4.81648 3.76435 5.49356 3.46283 6.21034 3.42174C6.92713 3.38064 7.63423 3.60281 8.19872 4.04647C8.50169 3.90043 8.8131 3.77259 9.1313 3.66362C9.24489 2.97495 9.59939 2.34902 10.1316 1.89743C10.6638 1.44583 11.3391 1.19794 12.037 1.19794C12.735 1.19794 13.4103 1.44583 13.9425 1.89743C14.4746 2.34902 14.8291 2.97495 14.9427 3.66362C15.2476 3.77401 15.5459 3.90184 15.8361 4.04647C16.4011 3.65579 17.0849 3.47493 17.7692 3.53519C18.4535 3.59544 19.0952 3.89303 19.5833 4.37644C20.0714 4.85985 20.3751 5.49868 20.4419 6.18237C20.5088 6.86606 20.3345 7.55161 19.9492 8.12037C20.0953 8.42334 20.2231 8.73476 20.3321 9.05295C21.0271 9.16795 21.6579 9.52832 22.11 10.0687C22.5621 10.609 22.8055 11.2935 22.796 11.9979L22.4034 11.9927ZM18.6142 13.7158C18.6698 13.4999 18.7973 13.3093 18.9758 13.1754C19.1542 13.0416 19.3729 12.9725 19.5958 12.9796H19.8511C20.1114 12.9796 20.3611 12.8762 20.5452 12.6921C20.7293 12.508 20.8327 12.2583 20.8327 11.9979C20.8327 11.7376 20.7293 11.4879 20.5452 11.3038C20.3611 11.1197 20.1114 11.0163 19.8511 11.0163H19.6056C19.3827 11.0233 19.164 10.9543 18.9856 10.8204C18.8072 10.6866 18.6796 10.496 18.624 10.28C18.4674 9.65782 18.2193 9.06233 17.8877 8.51303C17.7874 8.31824 17.7551 8.09549 17.7961 7.88024C17.837 7.66499 17.9487 7.46961 18.1135 7.32522L18.2902 7.1387C18.393 7.0507 18.4764 6.94241 18.5354 6.82062C18.5943 6.69883 18.6274 6.56617 18.6326 6.43098C18.6378 6.29578 18.6151 6.16097 18.5657 6.035C18.5163 5.90903 18.4415 5.79462 18.3458 5.69895C18.2502 5.60328 18.1357 5.52842 18.0098 5.47907C17.8838 5.42972 17.749 5.40694 17.6138 5.41216C17.4786 5.41738 17.3459 5.45049 17.2242 5.50941C17.1024 5.56834 16.9941 5.6518 16.9061 5.75456L16.6999 5.96071C16.547 6.11434 16.3476 6.21306 16.1328 6.24147C15.9179 6.26989 15.6997 6.22639 15.5121 6.11777C14.9628 5.78622 14.3673 5.5381 13.7451 5.38153C13.5291 5.32588 13.3385 5.19834 13.2047 5.01991C13.0709 4.84148 13.0018 4.62279 13.0089 4.39986V4.14463C13.0089 3.88428 12.9054 3.63459 12.7213 3.45049C12.5372 3.26639 12.2876 3.16297 12.0272 3.16297C11.7668 3.16297 11.5172 3.26639 11.3331 3.45049C11.149 3.63459 11.0455 3.88428 11.0455 4.14463V4.37041C11.0526 4.59334 10.9835 4.81203 10.8497 4.99046C10.7159 5.16889 10.5253 5.29643 10.3093 5.35208C9.68709 5.50865 9.09159 5.75677 8.5423 6.08832C8.35474 6.19694 8.13652 6.24044 7.92165 6.21202C7.70679 6.18361 7.50736 6.08489 7.35449 5.93126L7.16797 5.75456C6.98018 5.59374 6.73861 5.5097 6.49155 5.51924C6.24449 5.52879 6.01013 5.63121 5.8353 5.80604C5.66047 5.98086 5.55805 6.21523 5.54851 6.46229C5.53897 6.70935 5.623 6.95091 5.78383 7.1387L5.96053 7.32522C6.11416 7.4781 6.21288 7.67752 6.24129 7.89239C6.2697 8.10725 6.22621 8.32548 6.11759 8.51303C5.78604 9.06233 5.53791 9.65782 5.38134 10.28C5.3257 10.496 5.19816 10.6866 5.01972 10.8204C4.84129 10.9543 4.62261 11.0233 4.39968 11.0163H4.14445C3.8841 11.0163 3.63441 11.1197 3.45031 11.3038C3.26621 11.4879 3.16279 11.7376 3.16279 11.9979C3.16279 12.2583 3.26621 12.508 3.45031 12.6921C3.63441 12.8762 3.8841 12.9796 4.14445 12.9796H4.38986C4.61279 12.9725 4.83148 13.0416 5.00991 13.1754C5.18834 13.3093 5.31588 13.4999 5.37153 13.7158C5.5281 14.3381 5.77622 14.9335 6.10777 15.4828C6.22654 15.6775 6.27386 15.9073 6.24161 16.133C6.20937 16.3587 6.09958 16.5662 5.93107 16.7197L5.75438 16.9063C5.62814 16.9864 5.52187 17.0943 5.44368 17.2217C5.3655 17.3492 5.31745 17.4928 5.30322 17.6416C5.28899 17.7905 5.30894 17.9406 5.36156 18.0805C5.41418 18.2205 5.49807 18.3466 5.60684 18.4492C5.7156 18.5518 5.84637 18.6282 5.98915 18.6725C6.13194 18.7169 6.28297 18.728 6.43072 18.7052C6.57848 18.6823 6.71905 18.6259 6.84172 18.5404C6.96438 18.4549 7.0659 18.3426 7.13852 18.2119L7.32504 18.0352C7.50788 17.8538 7.75467 17.7516 8.0122 17.7505C8.18748 17.7476 8.36035 17.7916 8.51285 17.8781C9.06214 18.2097 9.65764 18.4578 10.2798 18.6143C10.4958 18.67 10.6864 18.7975 10.8202 18.976C10.9541 19.1544 11.0231 19.3731 11.0161 19.596V19.8512C11.0161 20.1116 11.1195 20.3613 11.3036 20.5454C11.4877 20.7295 11.7374 20.8329 11.9978 20.8329C12.2581 20.8329 12.5078 20.7295 12.6919 20.5454C12.876 20.3613 12.9794 20.1116 12.9794 19.8512V19.6058C12.9724 19.3829 13.0414 19.1642 13.1753 18.9858C13.3091 18.8074 13.4997 18.6798 13.7157 18.6242C14.3379 18.4676 14.9334 18.2195 15.4827 17.8879C15.6773 17.7692 15.9071 17.7218 16.1328 17.7541C16.3585 17.7863 16.566 17.8961 16.7196 18.0646L16.9061 18.2413C16.9862 18.3676 17.0941 18.4738 17.2215 18.552C17.349 18.6302 17.4926 18.6782 17.6414 18.6925C17.7903 18.7067 17.9404 18.6867 18.0804 18.6341C18.2203 18.5815 18.3464 18.4976 18.449 18.3889C18.5516 18.2801 18.628 18.1493 18.6723 18.0065C18.7167 17.8638 18.7279 17.7127 18.705 17.565C18.6821 17.4172 18.6257 17.2766 18.5402 17.154C18.4548 17.0313 18.3424 16.9298 18.2117 16.8572L18.035 16.6707C17.8813 16.5178 17.7826 16.3184 17.7542 16.1035C17.7258 15.8886 17.7693 15.6704 17.8779 15.4828C18.2095 14.9335 18.4576 14.3381 18.6142 13.7158Z" fill="#00C3F9"/>
</svg>
