<svg width="34" height="34" viewBox="0 0 34 34" fill="none" xmlns="http://www.w3.org/2000/svg">
<circle cx="17" cy="17" r="16.25" stroke="#7A7C80" stroke-width="0.5" stroke-dasharray="4 4"/>
<mask id="mask0_5657_10975" style="mask-type:alpha" maskUnits="userSpaceOnUse" x="5" y="5" width="24" height="24">
<rect x="5" y="5" width="24" height="24" fill="#D9D9D9"/>
</mask>
<g mask="url(#mask0_5657_10975)">
<path d="M17.5 16.95C17.9833 16.4167 18.3543 15.8083 18.613 15.125C18.871 14.4417 19 13.7333 19 13C19 12.2667 18.871 11.5583 18.613 10.875C18.3543 10.1917 17.9833 9.58333 17.5 9.05C18.5 9.18333 19.3333 9.625 20 10.375C20.6667 11.125 21 12 21 13C21 14 20.6667 14.875 20 15.625C19.3333 16.375 18.5 16.8167 17.5 16.95ZM23 25V22C23 21.4 22.8667 20.8293 22.6 20.288C22.3333 19.746 21.9833 19.2667 21.55 18.85C22.4 19.15 23.1877 19.5373 23.913 20.012C24.6377 20.4873 25 21.15 25 22V25H23ZM25 18V16H23V14H25V12H27V14H29V16H27V18H25ZM13 17C11.9 17 10.9583 16.6083 10.175 15.825C9.39167 15.0417 9 14.1 9 13C9 11.9 9.39167 10.9583 10.175 10.175C10.9583 9.39167 11.9 9 13 9C14.1 9 15.0417 9.39167 15.825 10.175C16.6083 10.9583 17 11.9 17 13C17 14.1 16.6083 15.0417 15.825 15.825C15.0417 16.6083 14.1 17 13 17ZM5 25V22.2C5 21.6333 5.146 21.1123 5.438 20.637C5.72933 20.1623 6.11667 19.8 6.6 19.55C7.63333 19.0333 8.68333 18.6457 9.75 18.387C10.8167 18.129 11.9 18 13 18C14.1 18 15.1833 18.129 16.25 18.387C17.3167 18.6457 18.3667 19.0333 19.4 19.55C19.8833 19.8 20.2707 20.1623 20.562 20.637C20.854 21.1123 21 21.6333 21 22.2V25H5ZM13 15C13.55 15 14.021 14.804 14.413 14.412C14.8043 14.0207 15 13.55 15 13C15 12.45 14.8043 11.9793 14.413 11.588C14.021 11.196 13.55 11 13 11C12.45 11 11.9793 11.196 11.588 11.588C11.196 11.9793 11 12.45 11 13C11 13.55 11.196 14.0207 11.588 14.412C11.9793 14.804 12.45 15 13 15ZM7 23H19V22.2C19 22.0167 18.9543 21.85 18.863 21.7C18.771 21.55 18.65 21.4333 18.5 21.35C17.6 20.9 16.6917 20.5623 15.775 20.337C14.8583 20.1123 13.9333 20 13 20C12.0667 20 11.1417 20.1123 10.225 20.337C9.30833 20.5623 8.4 20.9 7.5 21.35C7.35 21.4333 7.22933 21.55 7.138 21.7C7.046 21.85 7 22.0167 7 22.2V23Z" fill="#22242C"/>
</g>
</svg>
