<svg width="32" height="32" viewBox="0 0 34 34" fill="none" xmlns="http://www.w3.org/2000/svg">
<circle cx="17" cy="17" r="16.25" stroke="#22242C" stroke-width="0.5" stroke-linecap="round" stroke-linejoin="round" stroke-dasharray="4 4"/>
<path fill-rule="evenodd" clip-rule="evenodd" d="M7.83398 12C7.83398 10.4812 9.0652 9.25 10.584 9.25H23.4173C24.9361 9.25 26.1673 10.4812 26.1673 12V24.8333C26.1673 26.3521 24.9361 27.5833 23.4173 27.5833H10.584C9.0652 27.5833 7.83398 26.3521 7.83398 24.8333V12ZM10.584 11.0833C10.0777 11.0833 9.66732 11.4937 9.66732 12V24.8333C9.66732 25.3396 10.0777 25.75 10.584 25.75H23.4173C23.9236 25.75 24.334 25.3396 24.334 24.8333V12C24.334 11.4937 23.9236 11.0833 23.4173 11.0833H10.584Z" fill="#22242C"/>
<path fill-rule="evenodd" clip-rule="evenodd" d="M20.6667 7.41699C21.1729 7.41699 21.5833 7.8274 21.5833 8.33366V12.0003C21.5833 12.5066 21.1729 12.917 20.6667 12.917C20.1604 12.917 19.75 12.5066 19.75 12.0003V8.33366C19.75 7.8274 20.1604 7.41699 20.6667 7.41699Z" fill="#22242C"/>
<path fill-rule="evenodd" clip-rule="evenodd" d="M13.3327 7.41699C13.8389 7.41699 14.2493 7.8274 14.2493 8.33366V12.0003C14.2493 12.5066 13.8389 12.917 13.3327 12.917C12.8264 12.917 12.416 12.5066 12.416 12.0003V8.33366C12.416 7.8274 12.8264 7.41699 13.3327 7.41699Z" fill="#22242C"/>
<path fill-rule="evenodd" clip-rule="evenodd" d="M7.83398 15.6667C7.83398 15.1604 8.24439 14.75 8.75065 14.75H25.2507C25.7569 14.75 26.1673 15.1604 26.1673 15.6667C26.1673 16.1729 25.7569 16.5833 25.2507 16.5833H8.75065C8.24439 16.5833 7.83398 16.1729 7.83398 15.6667Z" fill="#22242C"/>
</svg>
