<svg width="34" height="34" viewBox="0 0 34 34" fill="none" xmlns="http://www.w3.org/2000/svg">
<circle cx="17" cy="17" r="16.25" stroke="#22242C" stroke-width="0.5" stroke-linecap="round" stroke-linejoin="round" stroke-dasharray="4 4"/>
<path d="M17.0007 25.833C12.9582 25.833 9.66732 22.5422 9.66732 18.4997C9.66732 14.4572 12.9582 11.1663 17.0007 11.1663C21.0432 11.1663 24.334 14.4572 24.334 18.4997C24.334 22.5422 21.0432 25.833 17.0007 25.833ZM17.0007 9.33301C15.7969 9.33301 14.6049 9.57011 13.4927 10.0308C12.3806 10.4914 11.37 11.1667 10.5188 12.0179C8.79976 13.7369 7.83398 16.0685 7.83398 18.4997C7.83398 20.9308 8.79976 23.2624 10.5188 24.9815C11.37 25.8327 12.3806 26.5079 13.4927 26.9686C14.6049 27.4292 15.7969 27.6663 17.0007 27.6663C19.4318 27.6663 21.7634 26.7006 23.4825 24.9815C25.2015 23.2624 26.1673 20.9308 26.1673 18.4997C26.1673 17.2959 25.9302 16.1039 25.4695 14.9917C25.0089 13.8796 24.3337 12.8691 23.4825 12.0179C22.6313 11.1667 21.6207 10.4914 20.5086 10.0308C19.3964 9.57011 18.2044 9.33301 17.0007 9.33301Z" fill="#22242C"/>
<path d="M15.1797 22.1667C14.9535 22.1667 14.7299 22.0814 14.5604 21.9152L11.9342 19.3388C11.5922 19.0033 11.5922 18.4595 11.9342 18.1245C12.2762 17.789 12.83 17.789 13.172 18.1245L15.2837 20.1961L21.6624 15.9007C22.0607 15.6325 22.6058 15.7319 22.8792 16.1227C23.153 16.5138 23.0517 17.0481 22.6529 17.3168L15.675 22.0163C15.5243 22.1174 15.3518 22.1667 15.1797 22.1667Z" fill="#22242C"/>
</svg>
