<svg width="34" height="34" viewBox="0 0 34 34" fill="none" xmlns="http://www.w3.org/2000/svg">
<path fill-rule="evenodd" clip-rule="evenodd" d="M17 9C15.3431 9 14 10.3431 14 12C14 13.6569 15.3431 15 17 15C18.6569 15 20 13.6569 20 12C20 10.3431 18.6569 9 17 9ZM12 12C12 9.23858 14.2386 7 17 7C19.7614 7 22 9.23858 22 12C22 14.7614 19.7614 17 17 17C14.2386 17 12 14.7614 12 12ZM9.46447 20.4645C10.4021 19.5268 11.6739 19 13 19H21C22.3261 19 23.5979 19.5268 24.5355 20.4645C25.4732 21.4021 26 22.6739 26 24V26C26 26.5523 25.5523 27 25 27C24.4477 27 24 26.5523 24 26V24C24 23.2044 23.6839 22.4413 23.1213 21.8787C22.5587 21.3161 21.7956 21 21 21H13C12.2044 21 11.4413 21.3161 10.8787 21.8787C10.3161 22.4413 10 23.2043 10 24V26C10 26.5523 9.55228 27 9 27C8.44772 27 8 26.5523 8 26V24C8 22.6739 8.52678 21.4021 9.46447 20.4645Z" fill="#22242C"/>
<circle cx="17" cy="17" r="16.25" stroke="#7A7C80" stroke-width="0.5" stroke-dasharray="4 4"/>
</svg>
