<svg width="32" height="32" viewBox="0 0 34 34" fill="none" xmlns="http://www.w3.org/2000/svg">
<circle cx="17" cy="17" r="16.25" stroke="#22242C" stroke-width="0.5" stroke-linecap="round" stroke-linejoin="round" stroke-dasharray="4 4"/>
<path fill-rule="evenodd" clip-rule="evenodd" d="M13.6393 11.1992C13.2813 11.5572 13.2813 12.1376 13.6393 12.4956L16.5183 15.3746C16.8763 15.7326 17.4567 15.7326 17.8147 15.3746C18.1726 15.0166 18.1726 14.4362 17.8147 14.0782L15.5838 11.8474L17.8147 9.61661C18.1726 9.25863 18.1726 8.67822 17.8147 8.32024C17.4567 7.96226 16.8763 7.96226 16.5183 8.32024L13.6393 11.1992Z" fill="#22242C"/>
<path d="M11.545 18.5175C11.6362 19.8855 12.2262 21.1724 13.2033 22.1342L13.2077 22.1386C13.8486 22.7782 14.6351 23.2528 15.4998 23.5216C15.6923 23.5814 15.8873 23.6307 16.0841 23.6693V25.5288C15.703 25.4729 15.3257 25.3873 14.9555 25.2723C13.8087 24.9157 12.7653 24.2865 11.9149 23.4386C10.6192 22.162 9.83669 20.4544 9.71569 18.6394C9.64984 17.6517 9.7824 16.6695 10.0966 15.7478C10.2599 15.2686 10.7807 15.0125 11.2599 15.1758C11.7391 15.3392 11.9952 15.86 11.8319 16.3392C11.5952 17.0336 11.4954 17.7735 11.545 18.5175Z" fill="#22242C"/>
<path d="M18.8341 25.4166C19.8926 25.1721 20.8861 24.6982 21.7435 24.0267C22.6898 23.2855 23.4423 22.3259 23.9362 21.23C24.4302 20.1342 24.651 18.9349 24.5796 17.735C24.5083 16.5351 24.1469 15.3704 23.5265 14.3409C22.9061 13.3113 22.0452 12.4476 21.0177 11.8239C19.9902 11.2002 18.8267 10.835 17.627 10.7597L17.6234 10.7595L14.6869 10.5868C14.1815 10.557 13.7477 10.9426 13.718 11.448C13.6882 11.9534 14.0738 12.3872 14.5792 12.4169L17.5122 12.5895L17.5138 12.5896C18.4169 12.6465 19.2928 12.9215 20.0664 13.3911C20.8404 13.8609 21.4889 14.5116 21.9562 15.2871C22.4235 16.0626 22.6958 16.94 22.7495 17.8439C22.8033 18.7477 22.637 19.6511 22.2649 20.4766C21.8928 21.3021 21.326 22.025 20.6131 22.5833C20.0799 23.0009 19.4769 23.317 18.8341 23.5183V25.4166Z" fill="#22242C"/>
</svg>
