<svg width="17" height="17" viewBox="0 0 17 17" fill="none" xmlns="http://www.w3.org/2000/svg">
<path d="M9.5625 2.83268L3.1875 1.41602C2.6007 1.41602 2.125 2.05028 2.125 2.83268V14.166C2.125 14.9484 2.6007 15.5827 3.1875 15.5827H9.5625C10.1493 15.5827 10.625 14.9484 10.625 14.166V4.24935C10.625 3.46695 10.1493 2.83268 9.5625 2.83268Z" stroke="white" stroke-width="1.5" stroke-linecap="round" stroke-linejoin="round"/>
<path d="M14.3438 9.20833L11.1562 8.5C10.8628 8.5 10.625 8.81713 10.625 9.20833V14.875C10.625 15.2662 10.8628 15.5833 11.1562 15.5833H14.3438C14.6372 15.5833 14.875 15.2662 14.875 14.875V9.91667C14.875 9.52546 14.6372 9.20833 14.3438 9.20833Z" stroke="white" stroke-width="1.5" stroke-linecap="round" stroke-linejoin="round"/>
<path d="M4.95801 15.5833V12.75H7.79134V15.5833" stroke="white" stroke-width="1.5" stroke-linecap="round" stroke-linejoin="round"/>
<path d="M4.95801 4.25H4.96509M7.79134 4.25H7.79842M7.79134 7.08333H7.79842M7.79134 9.91667H7.79842M4.95801 7.08333H4.96509M4.95801 9.91667H4.96509" stroke="white" stroke-width="1.5" stroke-linecap="round" stroke-linejoin="round"/>
<path d="M12.75 11.334H12.7571" stroke="white" stroke-width="1.5" stroke-linecap="round" stroke-linejoin="round"/>
<path d="M12.75 13.459H12.7571" stroke="white" stroke-width="1.5" stroke-linecap="round" stroke-linejoin="round"/>
</svg>
