<svg width="28" height="28" viewBox="0 0 28 28" fill="none" xmlns="http://www.w3.org/2000/svg">
<path d="M7 0C6.0375 0 5.25 0.7875 5.25 1.75V26.25C5.25 27.2125 6.0375 28 7 28H24.5C25.4625 28 26.25 27.2125 26.25 26.25V7L19.25 0H7Z" fill="#E2E5E7"/>
<path d="M21 7H26.25L19.25 0V5.25C19.25 6.2125 20.0375 7 21 7Z" fill="#B0B7BD"/>
<path d="M26.25 12.25L21 7H26.25V12.25Z" fill="#CAD1D8"/>
<path d="M22.75 22.75C22.75 23.2312 22.3563 23.625 21.875 23.625H2.625C2.14375 23.625 1.75 23.2312 1.75 22.75V14C1.75 13.5187 2.14375 13.125 2.625 13.125H21.875C22.3563 13.125 22.75 13.5187 22.75 14V22.75Z" fill="#A7A7AB"/>
<path d="M5.56396 16.5787C5.56396 16.3477 5.74596 16.0957 6.03909 16.0957H7.65521C8.56521 16.0957 9.38422 16.7047 9.38422 17.872C9.38422 18.978 8.56521 19.594 7.65521 19.594H6.48709V20.518C6.48709 20.826 6.29109 21.0001 6.03909 21.0001C5.80809 21.0001 5.56396 20.826 5.56396 20.518V16.5787ZM6.48709 16.9768V18.7198H7.65521C8.12421 18.7198 8.49521 18.306 8.49521 17.872C8.49521 17.3828 8.12421 16.9768 7.65521 16.9768H6.48709Z" fill="white"/>
<path d="M10.7545 20.9996C10.5235 20.9996 10.2715 20.8736 10.2715 20.5665V16.5922C10.2715 16.3411 10.5235 16.1582 10.7545 16.1582H12.3566C15.5539 16.1582 15.4839 20.9996 12.4196 20.9996H10.7545ZM11.1955 17.0122V20.1465H12.3566C14.2457 20.1465 14.3297 17.0122 12.3566 17.0122H11.1955Z" fill="white"/>
<path d="M16.6179 17.0691V18.1812H18.402C18.654 18.1812 18.906 18.4332 18.906 18.6773C18.906 18.9083 18.654 19.0973 18.402 19.0973H16.6179V20.5664C16.6179 20.8114 16.4438 20.9996 16.1988 20.9996C15.8908 20.9996 15.7026 20.8114 15.7026 20.5664V16.5922C15.7026 16.3411 15.8916 16.1582 16.1988 16.1582H18.6549C18.9629 16.1582 19.1449 16.3411 19.1449 16.5922C19.1449 16.8162 18.9629 17.0682 18.6549 17.0682H16.6179V17.0691Z" fill="white"/>
<path d="M21.875 23.625H5.25V24.5H21.875C22.3563 24.5 22.75 24.1063 22.75 23.625V22.75C22.75 23.2313 22.3563 23.625 21.875 23.625Z" fill="#CAD1D8"/>
</svg>
