<svg width="21" height="20" viewBox="0 0 21 20" fill="none" xmlns="http://www.w3.org/2000/svg">
<g clip-path="url(#clip0_10801_50118)">
<path d="M12.584 1.66766H5.50065C5.05862 1.66766 4.6347 1.84326 4.32214 2.15582C4.00958 2.46838 3.83398 2.8923 3.83398 3.33433V16.6677C3.83398 17.1097 4.00958 17.5336 4.32214 17.8462C4.6347 18.1587 5.05862 18.3343 5.50065 18.3343H15.5007C15.9427 18.3343 16.3666 18.1587 16.6792 17.8462C16.9917 17.5336 17.1673 17.1097 17.1673 16.6677V6.251L12.584 1.66766Z" stroke="white" stroke-width="2" stroke-linecap="round" stroke-linejoin="round"/>
<path d="M12.166 1.66766V6.66766H17.166" stroke="white" stroke-width="2" stroke-linecap="round" stroke-linejoin="round"/>
<path d="M8.41602 10.4177L12.5827 14.5843" stroke="white" stroke-width="2" stroke-linecap="round" stroke-linejoin="round"/>
<path d="M12.5827 10.4177L8.41602 14.5843" stroke="white" stroke-width="2" stroke-linecap="round" stroke-linejoin="round"/>
</g>
<defs>
<clipPath id="clip0_10801_50118">
<rect width="20" height="20" fill="white" transform="translate(0.5 0.000976562)"/>
</clipPath>
</defs>
</svg>
