<svg width="22" height="22" viewBox="0 0 22 22" fill="none" xmlns="http://www.w3.org/2000/svg">
<g clip-path="url(#clip0_836_34458)">
<path d="M6.55218 6.33109C6.41428 6.29865 6.31152 6.17512 6.31152 6.02733V5.08187C6.31152 4.90941 6.4514 4.76953 6.62387 4.76953H15.1671C15.3396 4.76953 15.4795 4.90941 15.4795 5.08187V6.02738C15.4795 6.17517 15.3767 6.29871 15.2388 6.33114C15.1445 8.01331 14.2709 9.55492 12.8608 10.4997L12.2713 10.8946L12.8608 11.2895C14.2709 12.2341 15.1446 13.7758 15.2388 15.458C15.3767 15.4904 15.4795 15.6139 15.4795 15.7617V16.7072C15.4795 16.8797 15.3396 17.0196 15.1671 17.0196H6.62387C6.4514 17.0196 6.31152 16.8797 6.31152 16.7072V15.7617C6.31152 15.6139 6.41428 15.4904 6.55218 15.458C6.64651 13.7758 7.52013 12.2342 8.9303 11.2895L9.5198 10.8946L8.9303 10.4997C7.52013 9.55492 6.64651 8.01326 6.55218 6.33109ZM10.2548 10.6351C10.3414 10.693 10.3933 10.7903 10.3933 10.8946C10.3933 10.9988 10.3414 11.0961 10.2548 11.1541L9.27794 11.8085C8.04367 12.6353 7.27427 13.9795 7.17832 15.4494H14.6127C14.5167 13.9796 13.7473 12.6353 12.5131 11.8085L11.5362 11.1541C11.4497 11.0961 11.3977 10.9988 11.3977 10.8946C11.3977 10.7903 11.4497 10.693 11.5362 10.6351L12.5131 9.98065C13.7473 9.15377 14.5167 7.80956 14.6127 6.33973H7.17832C7.27427 7.80961 8.04367 9.15377 9.27794 9.98065L10.2548 10.6351Z" fill="white"/>
<path d="M10.081 9.07256H11.7101C11.8396 9.07256 11.9556 9.15246 12.0019 9.27339C12.0481 9.39437 12.0149 9.53133 11.9184 9.61764L11.1038 10.3464C11.0445 10.3995 10.9701 10.426 10.8956 10.426C10.8212 10.426 10.7466 10.3995 10.6874 10.3464L9.87285 9.61764C9.77634 9.53128 9.74312 9.39432 9.78935 9.27339C9.83542 9.15246 9.95151 9.07256 10.081 9.07256Z" fill="white"/>
<path d="M10.9083 12.0878L11.7005 12.5966C12.3932 13.0607 12.8089 13.8395 12.8089 14.6733H8.82598C8.82598 13.8395 9.24171 13.0607 9.93438 12.5966L10.7266 12.0878C10.7825 12.0542 10.8524 12.0542 10.9083 12.0878Z" fill="white"/>
</g>
<defs>
<clipPath id="clip0_836_34458">
<rect width="12.25" height="12.25" fill="white" transform="matrix(-1 0 0 1 17.0205 4.76953)"/>
</clipPath>
</defs>
</svg>
