<svg width="22" height="23" viewBox="0 0 22 23" fill="none" xmlns="http://www.w3.org/2000/svg">
<path fill-rule="evenodd" clip-rule="evenodd" d="M15.8478 4.05903C15.3307 3.54277 14.6296 3.2531 13.8988 3.25374C13.1681 3.25439 12.4675 3.5453 11.9513 4.06247L4.09487 11.9189C3.23475 12.779 2.75155 13.9456 2.75155 15.1619C2.75155 16.3783 3.23475 17.5449 4.09487 18.405C4.95498 19.2651 6.12155 19.7483 7.33794 19.7483C8.55433 19.7483 9.72089 19.2651 10.581 18.405L19.0052 9.98084C19.3632 9.62286 19.9436 9.62286 20.3015 9.98084C20.6595 10.3388 20.6595 10.9192 20.3015 11.2772L11.8774 19.7014C10.6734 20.9053 9.04056 21.5817 7.33794 21.5817C5.63532 21.5817 4.00244 20.9053 2.79851 19.7014C1.59457 18.4974 0.918213 16.8646 0.918213 15.1619C0.918213 13.4593 1.59457 11.8264 2.79851 10.6225L10.6538 2.76725C11.5135 1.90632 12.6805 1.42149 13.8972 1.42041C15.1142 1.41934 16.2818 1.90175 17.143 2.76152C18.0043 3.62129 18.4888 4.788 18.4899 6.00497C18.491 7.22195 18.0085 8.38951 17.1488 9.2508L9.27404 17.1072C8.75812 17.6231 8.05839 17.913 7.32877 17.913C6.59915 17.913 5.89942 17.6231 5.38351 17.1072C4.86759 16.5913 4.57775 15.8916 4.57775 15.1619C4.57775 14.4323 4.86759 13.7326 5.38351 13.2167L13.1664 5.44296C13.5246 5.08519 14.105 5.08553 14.4628 5.44373C14.8205 5.80192 14.8202 6.38232 14.462 6.74009L6.67987 14.513C6.50801 14.6851 6.41109 14.9187 6.41109 15.1619C6.41109 15.4053 6.50777 15.6387 6.67987 15.8108C6.85197 15.9829 7.08539 16.0796 7.32877 16.0796C7.57216 16.0796 7.80557 15.9829 7.97767 15.8108L15.8513 7.95558C15.8515 7.95532 15.8518 7.95506 15.8521 7.9548C16.3678 7.4377 16.6572 6.73697 16.6566 6.00659C16.6559 5.27585 16.365 4.57529 15.8478 4.05903Z" fill="#22242C"/>
</svg>
