<svg width="24" height="24" viewBox="0 0 24 24" fill="none" xmlns="http://www.w3.org/2000/svg">
<rect width="23.6995" height="24" transform="translate(0.136963)" fill="white"/>
<path fill-rule="evenodd" clip-rule="evenodd" d="M11.9868 2C8.71454 2 6.06187 4.68629 6.06187 8C6.06187 11.3137 8.71454 14 11.9868 14C15.259 14 17.9116 11.3137 17.9116 8C17.9116 4.68629 15.259 2 11.9868 2ZM4.08691 8C4.08691 3.58172 7.62379 0 11.9868 0C16.3497 0 19.8866 3.58172 19.8866 8C19.8866 12.4183 16.3497 16 11.9868 16C7.62379 16 4.08691 12.4183 4.08691 8Z" fill="#FFB74A"/>
<path fill-rule="evenodd" clip-rule="evenodd" d="M15.5993 12.8887C16.14 12.816 16.6364 13.201 16.7081 13.7485L17.903 22.8685C17.9528 23.2491 17.7831 23.625 17.4662 23.8358C17.1493 24.0466 16.7411 24.055 16.416 23.8575L11.9867 21.1662L7.55733 23.8575C7.23218 24.0551 6.82403 24.0466 6.50711 23.8358C6.19018 23.625 6.02046 23.249 6.07039 22.8683L7.26524 13.7583C7.33705 13.2109 7.83352 12.826 8.37414 12.8987C8.91476 12.9714 9.29481 13.4742 9.22301 14.0217L8.29789 21.0751L11.4786 19.1425C11.7913 18.9525 12.182 18.9525 12.4947 19.1425L15.6758 21.0753L14.7503 14.0115C14.6786 13.464 15.0587 12.9613 15.5993 12.8887Z" fill="#FFB74A"/>
</svg>
