<svg width="26" height="26" viewBox="0 0 26 26" fill="none" xmlns="http://www.w3.org/2000/svg">
<path d="M14 8C14 7.44772 13.5523 7 13 7C12.4477 7 12 7.44772 12 8H14ZM12 18C12 18.5523 12.4477 19 13 19C13.5523 19 14 18.5523 14 18H12ZM8 12C7.44772 12 7 12.4477 7 13C7 13.5523 7.44772 14 8 14V12ZM18 14C18.5523 14 19 13.5523 19 13C19 12.4477 18.5523 12 18 12V14ZM24 13C24 19.0751 19.0751 24 13 24V26C20.1797 26 26 20.1797 26 13H24ZM13 24C6.92487 24 2 19.0751 2 13H0C0 20.1797 5.8203 26 13 26V24ZM2 13C2 6.92487 6.92487 2 13 2V0C5.8203 0 0 5.8203 0 13H2ZM13 2C19.0751 2 24 6.92487 24 13H26C26 5.8203 20.1797 0 13 0V2ZM12 8V18H14V8H12ZM8 14H18V12H8V14Z" fill="#22242C"/>
</svg>
