<svg width="12" height="10" viewBox="0 0 12 10" fill="none" xmlns="http://www.w3.org/2000/svg">
<path d="M9.19989 2.21801L9.66049 3.5998H7.46249V1.49981H8.20379C8.4242 1.49983 8.63901 1.5692 8.81778 1.6981C8.99656 1.827 9.13025 2.0089 9.19989 2.21801ZM9.89359 4.2998L9.89569 4.30681L10.0819 4.35301L10.1673 4.374C10.3945 4.43085 10.5962 4.56204 10.7403 4.74672C10.8844 4.9314 10.9626 5.15896 10.9625 5.39321V6.57481C10.9625 6.68681 10.9275 6.79181 10.8666 6.87721C10.7413 6.5144 10.5002 6.20284 10.1805 5.99051C9.86074 5.77819 9.48005 5.67688 9.09706 5.70218C8.71406 5.72749 8.35001 5.878 8.06098 6.13055C7.77194 6.3831 7.57395 6.72367 7.49749 7.09981H4.62749C4.55104 6.72367 4.35305 6.3831 4.06401 6.13055C3.77498 5.878 3.41092 5.72749 3.02793 5.70218C2.64494 5.67688 2.26425 5.77819 1.9445 5.99051C1.62475 6.20284 1.38367 6.5144 1.25839 6.87721C1.19588 6.78877 1.16237 6.6831 1.16249 6.57481V5.7257C1.16241 5.49423 1.23883 5.26921 1.37985 5.08565C1.52088 4.90209 1.71861 4.77027 1.94229 4.7107L3.48369 4.2998H9.89359ZM4.05209 3.5998L4.91869 2.0402C5.00952 1.87658 5.14242 1.74021 5.30365 1.6452C5.46487 1.55019 5.64856 1.49999 5.83569 1.49981H6.76249V3.5998H4.05209ZM0.462494 6.57481C0.462494 7.06971 0.756494 7.49601 1.17859 7.68921C1.23465 8.09875 1.43387 8.47524 1.74096 8.75195C2.04805 9.02866 2.44318 9.18774 2.85634 9.20099C3.26949 9.21424 3.674 9.08081 3.99819 8.82434C4.32238 8.56787 4.54531 8.20492 4.62749 7.79981H7.49749C7.57968 8.20492 7.80261 8.56787 8.1268 8.82434C8.45099 9.08081 8.8555 9.21424 9.26865 9.20099C9.68181 9.18774 10.0769 9.02866 10.384 8.75195C10.6911 8.47524 10.8903 8.09875 10.9464 7.68921C11.16 7.59164 11.3411 7.43472 11.4681 7.23715C11.595 7.03957 11.6625 6.80966 11.6625 6.57481V5.39321C11.6625 5.02118 11.544 4.65882 11.3241 4.35874C11.1042 4.05866 10.7943 3.83646 10.4396 3.72441L9.86349 1.99611C9.74736 1.64791 9.52468 1.34504 9.22696 1.13036C8.92924 0.915672 8.57155 0.800035 8.20449 0.799805H5.83639C5.52411 0.799612 5.21746 0.882986 4.94827 1.04128C4.67907 1.19957 4.45714 1.42701 4.30549 1.7L3.22749 3.6439L1.76239 4.03451C1.38962 4.13372 1.06008 4.35332 0.824996 4.65917C0.589917 4.96501 0.462478 5.33996 0.462494 5.7257V6.57481ZM9.21249 6.39981C9.49097 6.39981 9.75804 6.51043 9.95496 6.70734C10.1519 6.90426 10.2625 7.17133 10.2625 7.44981C10.2625 7.72828 10.1519 7.99535 9.95496 8.19227C9.75804 8.38918 9.49097 8.49981 9.21249 8.49981C8.93402 8.49981 8.66695 8.38918 8.47003 8.19227C8.27312 7.99535 8.16249 7.72828 8.16249 7.44981C8.16249 7.17133 8.27312 6.90426 8.47003 6.70734C8.66695 6.51043 8.93402 6.39981 9.21249 6.39981ZM2.91249 6.39981C3.19097 6.39981 3.45804 6.51043 3.65496 6.70734C3.85187 6.90426 3.96249 7.17133 3.96249 7.44981C3.96249 7.72828 3.85187 7.99535 3.65496 8.19227C3.45804 8.38918 3.19097 8.49981 2.91249 8.49981C2.63402 8.49981 2.36695 8.38918 2.17003 8.19227C1.97312 7.99535 1.86249 7.72828 1.86249 7.44981C1.86249 7.17133 1.97312 6.90426 2.17003 6.70734C2.36695 6.51043 2.63402 6.39981 2.91249 6.39981Z" fill="#FF4A55"/>
</svg>
