<svg width="29" height="28" viewBox="0 0 29 28" fill="none" xmlns="http://www.w3.org/2000/svg">
<path fill-rule="evenodd" clip-rule="evenodd" d="M14.9358 3.13149C16.256 1.85638 18.0243 1.15082 19.8596 1.16677C21.695 1.18272 23.4507 1.9189 24.7486 3.21676C26.0464 4.51461 26.7826 6.2703 26.7985 8.10568C26.8145 9.94106 26.1089 11.7093 24.8338 13.0295L24.8196 13.0439L21.3198 16.5438C20.6101 17.2537 19.7561 17.8027 18.8156 18.1535C17.8752 18.5043 16.8703 18.6488 15.8691 18.5771C14.8679 18.5054 13.8938 18.2192 13.0129 17.7379C12.1321 17.2567 11.365 16.5916 10.7638 15.7878C10.3778 15.2718 10.4832 14.5407 10.9992 14.1548C11.5151 13.7688 12.2463 13.8742 12.6322 14.3902C13.033 14.926 13.5444 15.3694 14.1317 15.6903C14.7189 16.0111 15.3683 16.2019 16.0358 16.2497C16.7032 16.2975 17.3732 16.2012 18.0001 15.9673C18.6271 15.7334 19.1965 15.3674 19.6695 14.8942L19.6697 14.894L23.1621 11.4016C24.008 10.5222 24.4759 9.34635 24.4653 8.12595C24.4547 6.90237 23.9639 5.73191 23.0986 4.86667C22.2334 4.00144 21.0629 3.51065 19.8394 3.50001C18.6184 3.4894 17.4421 3.95771 16.5626 4.80428L14.5622 6.79302C14.1053 7.2473 13.3666 7.24514 12.9123 6.78821C12.458 6.33127 12.4602 5.59258 12.9171 5.1383L14.9238 3.1433L14.9358 3.13149Z" fill="white"/>
<path fill-rule="evenodd" clip-rule="evenodd" d="M9.24683 9.69146C10.1873 9.34064 11.1922 9.19618 12.1934 9.26788C13.1946 9.33959 14.1687 9.62578 15.0495 10.107C15.9304 10.5883 16.6975 11.2534 17.2987 12.0572C17.6847 12.5731 17.5793 13.3042 17.0633 13.6902C16.5473 14.0761 15.8162 13.9707 15.4303 13.4548C15.0294 12.9189 14.5181 12.4755 13.9308 12.1547C13.3436 11.8339 12.6942 11.6431 12.0267 11.5953C11.3593 11.5475 10.6893 11.6438 10.0623 11.8776C9.43537 12.1115 8.86602 12.4775 8.39293 12.9508L4.90035 16.4434C4.05447 17.3228 3.58658 18.4986 3.59718 19.719C3.60781 20.9426 4.0986 22.113 4.96384 22.9783C5.82908 23.8435 6.99954 24.3343 8.22312 24.3449C9.44351 24.3555 10.6194 23.8877 11.4987 23.0418L13.4862 21.0543C13.9418 20.5987 14.6805 20.5987 15.1361 21.0543C15.5917 21.5099 15.5917 22.2486 15.1361 22.7042L13.1411 24.6993L13.1267 24.7135C11.8064 25.9886 10.0382 26.6941 8.20285 26.6782C6.36747 26.6622 4.61178 25.926 3.31392 24.6282C2.01607 23.3303 1.27989 21.5746 1.26394 19.7393C1.24799 17.9039 1.95355 16.1357 3.22865 14.8155L3.24287 14.801L6.74272 11.3012C6.74277 11.3011 6.74267 11.3012 6.74272 11.3012C7.45233 10.5913 8.30644 10.0423 9.24683 9.69146Z" fill="white"/>
</svg>
