<svg width="24" height="24" viewBox="0 0 24 24" fill="none" xmlns="http://www.w3.org/2000/svg">
<path fill-rule="evenodd" clip-rule="evenodd" d="M12.7822 2.68427C13.8784 1.59132 15.3466 0.986556 16.8705 1.00023C18.3945 1.0139 19.8523 1.64491 20.9299 2.75736C22.0075 3.86981 22.6188 5.37468 22.632 6.94786C22.6453 8.52104 22.0594 10.0367 21.0007 11.1683L20.9889 11.1807L18.0829 14.1805C17.4937 14.789 16.7846 15.2596 16.0037 15.5603C15.2228 15.861 14.3884 15.9848 13.5571 15.9233C12.7258 15.8619 11.917 15.6166 11.1856 15.2041C10.4542 14.7916 9.81727 14.2215 9.31806 13.5325C8.9976 13.0903 9.08512 12.4636 9.51353 12.1328C9.94194 11.802 10.549 11.8923 10.8695 12.3346C11.2023 12.7939 11.6269 13.1739 12.1145 13.4489C12.6021 13.7239 13.1413 13.8875 13.6955 13.9284C14.2497 13.9694 14.806 13.8869 15.3266 13.6864C15.8471 13.4859 16.3199 13.1722 16.7127 12.7666L16.7128 12.7665L19.6127 9.77294C20.315 9.01917 20.7035 8.01129 20.6947 6.96524C20.6859 5.91646 20.2784 4.91321 19.5599 4.17157C18.8415 3.42994 17.8697 3.00926 16.8537 3.00015C15.8399 2.99106 14.8632 3.39246 14.1329 4.1181L12.472 5.82272C12.0926 6.21211 11.4792 6.21026 11.102 5.8186C10.7248 5.42694 10.7266 4.79378 11.106 4.40439L12.7722 2.69439L12.7822 2.68427Z" fill="#00C3F9"/>
<path fill-rule="evenodd" clip-rule="evenodd" d="M8.05874 8.3071C8.83962 8.0064 9.67402 7.88258 10.5053 7.94404C11.3366 8.0055 12.1454 8.2508 12.8768 8.66331C13.6082 9.07582 14.2451 9.64589 14.7444 10.3348C15.0648 10.7771 14.9773 11.4038 14.5489 11.7346C14.1205 12.0654 13.5134 11.975 13.193 11.5328C12.8601 11.0735 12.4355 10.6935 11.9479 10.4184C11.4603 10.1434 10.9211 9.9799 10.3669 9.93893C9.81272 9.89796 9.25646 9.9805 8.73587 10.181C8.21528 10.3814 7.74255 10.6951 7.34973 11.1008L4.44977 14.0944C3.74743 14.8482 3.35893 15.8561 3.36773 16.9021C3.37656 17.9509 3.78407 18.9542 4.50249 19.6958C5.22092 20.4374 6.19277 20.8581 7.20873 20.8672C8.22204 20.8763 9.19837 20.4753 9.92855 19.7502L11.5788 18.0467C11.9571 17.6562 12.5704 17.6562 12.9487 18.0467C13.327 18.4372 13.327 19.0704 12.9487 19.4609L11.2922 21.1709L11.2802 21.1831C10.184 22.2761 8.71585 22.8808 7.1919 22.8672C5.66795 22.8535 4.21017 22.2225 3.13254 21.11C2.0549 19.9976 1.44364 18.4927 1.4304 16.9195C1.41715 15.3463 2.00299 13.8307 3.06174 12.6991L3.07354 12.6867L5.97953 9.68684C5.97957 9.6868 5.97948 9.68688 5.97953 9.68684C6.56873 9.07842 7.27791 8.60778 8.05874 8.3071Z" fill="#00C3F9"/>
</svg>
