<svg width="22" height="23" viewBox="0 0 22 23" fill="none" xmlns="http://www.w3.org/2000/svg">
<path fill-rule="evenodd" clip-rule="evenodd" d="M11.7107 2.96042C12.748 1.95855 14.1374 1.40418 15.5794 1.41671C17.0215 1.42924 18.401 2.00767 19.4207 3.02742C20.4405 4.04716 21.0189 5.42663 21.0314 6.86871C21.044 8.31079 20.4896 9.70011 19.4877 10.7374L19.4766 10.7488L16.7267 13.4987C16.1691 14.0564 15.4981 14.4878 14.7592 14.7634C14.0202 15.0391 13.2307 15.1526 12.444 15.0962C11.6573 15.0399 10.892 14.815 10.1999 14.4369C9.50778 14.0588 8.90508 13.5362 8.43269 12.9047C8.12945 12.4993 8.21226 11.9248 8.61766 11.6216C9.02305 11.3183 9.59752 11.4011 9.90076 11.8065C10.2157 12.2276 10.6175 12.5759 11.0789 12.828C11.5403 13.0801 12.0505 13.23 12.575 13.2676C13.0994 13.3051 13.6258 13.2295 14.1184 13.0457C14.611 12.8619 15.0584 12.5744 15.4301 12.2025L15.4302 12.2024L18.1743 9.45836C18.8389 8.76741 19.2065 7.84352 19.1982 6.88464C19.1898 5.92325 18.8042 5.00361 18.1244 4.32378C17.4445 3.64395 16.5249 3.25833 15.5635 3.24998C14.6042 3.24164 13.6799 3.60959 12.9889 4.27476L11.4172 5.83733C11.0582 6.19427 10.4778 6.19258 10.1208 5.83355C9.76388 5.47453 9.76558 4.89413 10.1246 4.5372L11.7013 2.9697L11.7107 2.96042Z" fill="#22242C"/>
<path fill-rule="evenodd" clip-rule="evenodd" d="M7.24075 8.11493C7.97968 7.83928 8.76925 7.72578 9.55591 7.78212C10.3426 7.83846 11.1079 8.06332 11.8 8.44145C12.4921 8.81958 13.0948 9.34214 13.5672 9.97368C13.8705 10.3791 13.7877 10.9535 13.3823 11.2568C12.9769 11.56 12.4024 11.4772 12.0992 11.0718C11.7842 10.6508 11.3824 10.3024 10.921 10.0503C10.4596 9.79823 9.94938 9.64833 9.42495 9.61077C8.90051 9.57321 8.37413 9.64888 7.8815 9.83264C7.38888 10.0164 6.94154 10.304 6.56982 10.6758L3.82565 13.42C3.16103 14.1109 2.7934 15.0348 2.80173 15.9937C2.81009 16.9551 3.19571 17.8747 3.87554 18.5546C4.55537 19.2344 5.47501 19.62 6.4364 19.6284C7.39528 19.6367 8.31915 19.2691 9.01011 18.6045L10.5717 17.0429C10.9297 16.6849 11.5101 16.6849 11.868 17.0429C12.226 17.4009 12.226 17.9813 11.868 18.3393L10.3005 19.9068L10.2892 19.9179C9.25186 20.9198 7.86255 21.4742 6.42047 21.4616C4.97839 21.4491 3.59892 20.8707 2.57917 19.8509C1.55943 18.8312 0.981001 17.4517 0.96847 16.0096C0.955938 14.5676 1.51031 13.1782 2.51218 12.1409L2.52334 12.1296L5.27323 9.37968C5.27326 9.37965 5.27319 9.37972 5.27323 9.37968C5.83078 8.82197 6.50186 8.39055 7.24075 8.11493Z" fill="#22242C"/>
</svg>
