<svg width="22" height="23" viewBox="0 0 22 23" fill="none" xmlns="http://www.w3.org/2000/svg">
<path fill-rule="evenodd" clip-rule="evenodd" d="M15.5834 10.5835C15.0772 10.5835 14.6667 10.9939 14.6667 11.5002C14.6667 12.0064 15.0772 12.4168 15.5834 12.4168C16.0897 12.4168 16.5001 12.0064 16.5001 11.5002C16.5001 10.9939 16.0897 10.5835 15.5834 10.5835ZM12.9899 10.5835C13.3674 9.5154 14.386 8.75016 15.5834 8.75016C17.1022 8.75016 18.3334 9.98138 18.3334 11.5002C18.3334 13.0189 17.1022 14.2502 15.5834 14.2502C14.386 14.2502 13.3674 13.4849 12.9899 12.4168H9.16675V16.0835C9.16675 16.3266 9.26333 16.5598 9.43523 16.7317C9.60714 16.9036 9.8403 17.0002 10.0834 17.0002H15.5834C15.6352 17.0002 15.686 17.0045 15.7355 17.0127C16.1094 15.9381 17.1314 15.1668 18.3334 15.1668C19.8522 15.1668 21.0834 16.398 21.0834 17.9168C21.0834 19.4356 19.8522 20.6668 18.3334 20.6668C17.1314 20.6668 16.1094 19.8956 15.7355 18.8209C15.686 18.8292 15.6352 18.8335 15.5834 18.8335H10.0834C9.35407 18.8335 8.6546 18.5438 8.13887 18.028C7.62315 17.5123 7.33342 16.8128 7.33342 16.0835V12.4168H4.58341C4.07715 12.4168 3.66675 12.0064 3.66675 11.5002C3.66675 10.9939 4.07715 10.5835 4.58341 10.5835H12.9899ZM18.3334 17.0002C17.8272 17.0002 17.4167 17.4106 17.4167 17.9168C17.4167 18.4231 17.8272 18.8335 18.3334 18.8335C18.8397 18.8335 19.2501 18.4231 19.2501 17.9168C19.2501 17.4106 18.8397 17.0002 18.3334 17.0002Z" fill="#22242C"/>
<path fill-rule="evenodd" clip-rule="evenodd" d="M9.16675 6.91683V10.5835H7.33342V6.91683C7.33342 6.18748 7.62315 5.48801 8.13887 4.97229C8.6546 4.45656 9.35407 4.16683 10.0834 4.16683H15.5834C15.6352 4.16683 15.686 4.17113 15.7355 4.17939C16.1094 3.10474 17.1314 2.3335 18.3334 2.3335C19.8522 2.3335 21.0834 3.56471 21.0834 5.0835C21.0834 6.60228 19.8522 7.8335 18.3334 7.8335C17.1314 7.8335 16.1094 7.06225 15.7355 5.9876C15.686 5.99586 15.6352 6.00016 15.5834 6.00016H10.0834C9.8403 6.00016 9.60714 6.09674 9.43523 6.26865C9.26333 6.44056 9.16675 6.67371 9.16675 6.91683ZM18.3334 6.00016C17.8272 6.00016 17.4167 5.58976 17.4167 5.0835C17.4167 4.57723 17.8272 4.16683 18.3334 4.16683C18.8397 4.16683 19.2501 4.57723 19.2501 5.0835C19.2501 5.58976 18.8397 6.00016 18.3334 6.00016Z" fill="#22242C"/>
<path fill-rule="evenodd" clip-rule="evenodd" d="M2.77139 8.75C1.57402 8.75 0.555387 9.51524 0.17787 10.5833C-0.124256 11.4384 0.0158027 11.9583 0.17787 12.4167C0.555387 13.4848 1.57402 14.25 2.77139 14.25C4.29017 14.25 5.52139 13.0188 5.52139 11.5C5.52139 9.98122 4.29017 8.75 2.77139 8.75ZM2.77139 10.5833C2.26513 10.5833 1.85472 10.9937 1.85472 11.5C1.85472 12.0063 2.26513 12.4167 2.77139 12.4167C3.27765 12.4167 3.68806 12.0063 3.68806 11.5C3.68806 10.9937 3.27765 10.5833 2.77139 10.5833Z" fill="#22242C"/>
</svg>
