<svg width="22" height="23" viewBox="0 0 22 23" fill="none" xmlns="http://www.w3.org/2000/svg">
<path fill-rule="evenodd" clip-rule="evenodd" d="M15.5834 10.5834C15.0772 10.5834 14.6667 10.9938 14.6667 11.5C14.6667 12.0063 15.0772 12.4167 15.5834 12.4167C16.0897 12.4167 16.5001 12.0063 16.5001 11.5C16.5001 10.9938 16.0897 10.5834 15.5834 10.5834ZM12.9899 10.5834C13.3674 9.51528 14.386 8.75004 15.5834 8.75004C17.1022 8.75004 18.3334 9.98126 18.3334 11.5C18.3334 13.0188 17.1022 14.25 15.5834 14.25C14.386 14.25 13.3674 13.4848 12.9899 12.4167H9.16675V16.0834C9.16675 16.3265 9.26333 16.5596 9.43523 16.7316C9.60714 16.9035 9.8403 17 10.0834 17H15.5834C15.6352 17 15.686 17.0043 15.7355 17.0126C16.1094 15.938 17.1314 15.1667 18.3334 15.1667C19.8522 15.1667 21.0834 16.3979 21.0834 17.9167C21.0834 19.4355 19.8522 20.6667 18.3334 20.6667C17.1314 20.6667 16.1094 19.8955 15.7355 18.8208C15.686 18.8291 15.6352 18.8334 15.5834 18.8334H10.0834C9.35407 18.8334 8.6546 18.5436 8.13887 18.0279C7.62315 17.5122 7.33342 16.8127 7.33342 16.0834V12.4167H4.58341C4.07715 12.4167 3.66675 12.0063 3.66675 11.5C3.66675 10.9938 4.07715 10.5834 4.58341 10.5834H12.9899ZM18.3334 17C17.8272 17 17.4167 17.4104 17.4167 17.9167C17.4167 18.423 17.8272 18.8334 18.3334 18.8334C18.8397 18.8334 19.2501 18.423 19.2501 17.9167C19.2501 17.4104 18.8397 17 18.3334 17Z" fill="#4A50E2"/>
<path fill-rule="evenodd" clip-rule="evenodd" d="M9.16675 6.91671V10.5834H7.33342V6.91671C7.33342 6.18736 7.62315 5.48789 8.13887 4.97216C8.6546 4.45644 9.35407 4.16671 10.0834 4.16671H15.5834C15.6352 4.16671 15.686 4.171 15.7355 4.17926C16.1094 3.10462 17.1314 2.33337 18.3334 2.33337C19.8522 2.33337 21.0834 3.56459 21.0834 5.08337C21.0834 6.60216 19.8522 7.83337 18.3334 7.83337C17.1314 7.83337 16.1094 7.06213 15.7355 5.98748C15.686 5.99574 15.6352 6.00004 15.5834 6.00004H10.0834C9.8403 6.00004 9.60714 6.09662 9.43523 6.26853C9.26333 6.44043 9.16675 6.67359 9.16675 6.91671ZM18.3334 6.00004C17.8272 6.00004 17.4167 5.58963 17.4167 5.08337C17.4167 4.57711 17.8272 4.16671 18.3334 4.16671C18.8397 4.16671 19.2501 4.57711 19.2501 5.08337C19.2501 5.58964 18.8397 6.00004 18.3334 6.00004Z" fill="#4A50E2"/>
<path fill-rule="evenodd" clip-rule="evenodd" d="M2.77139 8.75C1.57402 8.75 0.555387 9.51524 0.17787 10.5833C-0.124256 11.4384 0.0158027 11.9583 0.17787 12.4167C0.555387 13.4848 1.57402 14.25 2.77139 14.25C4.29017 14.25 5.52139 13.0188 5.52139 11.5C5.52139 9.98122 4.29017 8.75 2.77139 8.75ZM2.77139 10.5833C2.26513 10.5833 1.85472 10.9937 1.85472 11.5C1.85472 12.0063 2.26513 12.4167 2.77139 12.4167C3.27765 12.4167 3.68806 12.0063 3.68806 11.5C3.68806 10.9937 3.27765 10.5833 2.77139 10.5833Z" fill="#4A50E2"/>
</svg>
