<svg width="40" height="40" viewBox="0 0 40 40" fill="none" xmlns="http://www.w3.org/2000/svg">
<g filter="url(#filter0_d_10189_191482)">
<rect x="4" y="2" width="32" height="32" rx="10" fill="url(#paint0_linear_10189_191482)"/>
</g>
<path fill-rule="evenodd" clip-rule="evenodd" d="M14.6726 14.4283C14.2688 14.4283 13.9414 14.7513 13.9414 15.1497V21.1616C13.9414 21.5601 14.2688 21.8831 14.6726 21.8831H21.3753C21.7792 21.8831 22.1066 21.5601 22.1066 21.1616V15.1497C22.1066 14.7513 21.7792 14.4283 21.3753 14.4283H14.6726ZM23.0815 17.2211V15.1497C23.0815 14.2201 22.3176 13.4664 21.3753 13.4664H14.6726C13.7303 13.4664 12.9664 14.2201 12.9664 15.1497V21.1616C12.9664 22.0913 13.7303 22.845 14.6726 22.845H21.3753C22.3176 22.845 23.0815 22.0913 23.0815 21.1616V19.0903L26.5761 21.553C26.7247 21.6577 26.9201 21.6717 27.0825 21.5893C27.2448 21.5068 27.3469 21.3418 27.3469 21.1616V15.1497C27.3469 14.9696 27.2448 14.8045 27.0825 14.7221C26.9201 14.6396 26.7247 14.6536 26.5761 14.7584L23.0815 17.2211ZM23.4327 18.1557L26.3719 20.227V16.0843L23.4327 18.1557Z" fill="white" stroke="white" stroke-linecap="round" stroke-linejoin="round"/>
<defs>
<filter id="filter0_d_10189_191482" x="0" y="0" width="40" height="40" filterUnits="userSpaceOnUse" color-interpolation-filters="sRGB">
<feFlood flood-opacity="0" result="BackgroundImageFix"/>
<feColorMatrix in="SourceAlpha" type="matrix" values="0 0 0 0 0 0 0 0 0 0 0 0 0 0 0 0 0 0 127 0" result="hardAlpha"/>
<feOffset dy="2"/>
<feGaussianBlur stdDeviation="2"/>
<feColorMatrix type="matrix" values="0 0 0 0 0.427083 0 0 0 0 0.671455 0 0 0 0 1 0 0 0 0.36 0"/>
<feBlend mode="normal" in2="BackgroundImageFix" result="effect1_dropShadow_10189_191482"/>
<feBlend mode="normal" in="SourceGraphic" in2="effect1_dropShadow_10189_191482" result="shape"/>
</filter>
<linearGradient id="paint0_linear_10189_191482" x1="10.5455" y1="2" x2="25.8182" y2="34" gradientUnits="userSpaceOnUse">
<stop stop-color="#FF858A"/>
<stop offset="1" stop-color="#F04148"/>
</linearGradient>
</defs>
</svg>
