<svg width="40" height="40" viewBox="0 0 40 40" fill="none" xmlns="http://www.w3.org/2000/svg">
<g filter="url(#filter0_d_10189_191520)">
<rect x="4" y="2" width="32" height="32" rx="10" fill="url(#paint0_linear_10189_191520)"/>
</g>
<g clip-path="url(#clip0_10189_191520)">
<path fill-rule="evenodd" clip-rule="evenodd" d="M13.868 10.7548C13.2538 10.7548 12.7558 11.2528 12.7558 11.867V24.0286C12.7558 24.6428 13.2538 25.1407 13.868 25.1407H26.0296C26.6438 25.1407 27.1417 24.6428 27.1417 24.0286V11.867C27.1417 11.2528 26.6438 10.7548 26.0296 10.7548H13.868ZM11.5054 11.867C11.5054 10.5621 12.5631 9.50436 13.868 9.50436H26.0296C27.3344 9.50436 28.3922 10.5621 28.3922 11.867V24.0286C28.3922 25.3334 27.3344 26.3912 26.0296 26.3912H13.868C12.5631 26.3912 11.5054 25.3334 11.5054 24.0286V11.867Z" fill="white"/>
<path fill-rule="evenodd" clip-rule="evenodd" d="M11.5054 15.5841C11.5054 15.2388 11.7853 14.9589 12.1306 14.9589H27.767C28.1123 14.9589 28.3922 15.2388 28.3922 15.5841C28.3922 15.9295 28.1123 16.2094 27.767 16.2094H12.1306C11.7853 16.2094 11.5054 15.9295 11.5054 15.5841Z" fill="white"/>
<path fill-rule="evenodd" clip-rule="evenodd" d="M17.5852 14.9589C17.9305 14.9589 18.2104 15.2388 18.2104 15.5841V25.766C18.2104 26.1113 17.9305 26.3912 17.5852 26.3912C17.2398 26.3912 16.9599 26.1113 16.9599 25.766V15.5841C16.9599 15.2388 17.2398 14.9589 17.5852 14.9589Z" fill="white"/>
<path fill-rule="evenodd" clip-rule="evenodd" d="M13.868 10.7548C13.2538 10.7548 12.7558 11.2528 12.7558 11.867V24.0286C12.7558 24.6428 13.2538 25.1407 13.868 25.1407H26.0296C26.6438 25.1407 27.1417 24.6428 27.1417 24.0286V11.867C27.1417 11.2528 26.6438 10.7548 26.0296 10.7548H13.868ZM11.5054 11.867C11.5054 10.5621 12.5631 9.50436 13.868 9.50436H26.0296C27.3344 9.50436 28.3922 10.5621 28.3922 11.867V24.0286C28.3922 25.3334 27.3344 26.3912 26.0296 26.3912H13.868C12.5631 26.3912 11.5054 25.3334 11.5054 24.0286V11.867Z" stroke="white" stroke-linecap="round" stroke-linejoin="round"/>
<path fill-rule="evenodd" clip-rule="evenodd" d="M11.5054 15.5841C11.5054 15.2388 11.7853 14.9589 12.1306 14.9589H27.767C28.1123 14.9589 28.3922 15.2388 28.3922 15.5841C28.3922 15.9295 28.1123 16.2094 27.767 16.2094H12.1306C11.7853 16.2094 11.5054 15.9295 11.5054 15.5841Z" stroke="white" stroke-linecap="round" stroke-linejoin="round"/>
<path fill-rule="evenodd" clip-rule="evenodd" d="M17.5852 14.9589C17.9305 14.9589 18.2104 15.2388 18.2104 15.5841V25.766C18.2104 26.1113 17.9305 26.3912 17.5852 26.3912C17.2398 26.3912 16.9599 26.1113 16.9599 25.766V15.5841C16.9599 15.2388 17.2398 14.9589 17.5852 14.9589Z" stroke="white" stroke-linecap="round" stroke-linejoin="round"/>
</g>
<defs>
<filter id="filter0_d_10189_191520" x="0" y="0" width="40" height="40" filterUnits="userSpaceOnUse" color-interpolation-filters="sRGB">
<feFlood flood-opacity="0" result="BackgroundImageFix"/>
<feColorMatrix in="SourceAlpha" type="matrix" values="0 0 0 0 0 0 0 0 0 0 0 0 0 0 0 0 0 0 127 0" result="hardAlpha"/>
<feOffset dy="2"/>
<feGaussianBlur stdDeviation="2"/>
<feColorMatrix type="matrix" values="0 0 0 0 0.427083 0 0 0 0 0.671455 0 0 0 0 1 0 0 0 0.36 0"/>
<feBlend mode="normal" in2="BackgroundImageFix" result="effect1_dropShadow_10189_191520"/>
<feBlend mode="normal" in="SourceGraphic" in2="effect1_dropShadow_10189_191520" result="shape"/>
</filter>
<linearGradient id="paint0_linear_10189_191520" x1="10.5455" y1="2" x2="25.8182" y2="34" gradientUnits="userSpaceOnUse">
<stop stop-color="#FFD085"/>
<stop offset="1" stop-color="#FFAF2E"/>
</linearGradient>
<clipPath id="clip0_10189_191520">
<rect width="17.194" height="17.194" fill="white" transform="translate(11.4033 9.40234)"/>
</clipPath>
</defs>
</svg>
