<svg width="40" height="40" viewBox="0 0 40 40" fill="none" xmlns="http://www.w3.org/2000/svg">
<g filter="url(#filter0_d_10189_191505)">
<rect x="4" y="2" width="32" height="32" rx="10" fill="url(#paint0_linear_10189_191505)"/>
</g>
<g clip-path="url(#clip0_10189_191505)">
<path d="M20.9539 19.9946V18.863C20.9539 18.4167 20.5946 18.0537 20.1529 18.0537C19.7112 18.0537 19.3519 18.4167 19.3519 18.863V19.8847C19.3519 21.116 18.9029 22.2982 18.0875 23.2134L16.9633 24.4753C16.8689 24.5814 16.8774 24.7446 16.9823 24.8401C17.0873 24.9355 17.2489 24.9269 17.3434 24.8209L18.4676 23.559C19.3675 22.5487 19.8632 21.2438 19.8632 19.8847V18.863C19.8632 18.7016 19.9932 18.5703 20.1529 18.5703C20.3127 18.5703 20.4426 18.7016 20.4426 18.863V19.9946C20.4426 21.5099 19.887 22.9618 18.8781 24.083L17.7822 25.3008C17.6873 25.4063 17.695 25.5697 17.7995 25.6657C17.8484 25.7107 17.91 25.7328 17.9713 25.7328C18.0409 25.7328 18.1101 25.7043 18.1606 25.6483L19.2564 24.4305C20.3511 23.214 20.9539 21.6386 20.9539 19.9946Z" fill="white"/>
<path d="M22.0447 18.863C22.0447 17.8091 21.196 16.9518 20.1529 16.9518C19.1098 16.9518 18.2611 17.8091 18.2611 18.863V19.8847C18.2611 20.8434 17.9116 21.7637 17.2768 22.4763L16.4776 23.3734C16.3831 23.4794 16.3916 23.6427 16.4966 23.7382C16.6015 23.8336 16.7631 23.8249 16.8576 23.719L17.6568 22.8218C18.3763 22.0143 18.7725 20.9712 18.7725 19.8847V18.863C18.7725 18.0939 19.3917 17.4683 20.1529 17.4683C20.9142 17.4683 21.5334 18.0939 21.5334 18.863V19.9946C21.5334 21.7845 20.8771 23.4998 19.6852 24.8243L18.7606 25.8518C18.6656 25.9573 18.6733 26.1207 18.7778 26.2166C18.8268 26.2616 18.8883 26.2838 18.9496 26.2838C19.0192 26.2838 19.0884 26.2553 19.1389 26.1992L20.0635 25.1717C21.3411 23.7519 22.0447 21.9134 22.0447 19.9946V18.863Z" fill="white"/>
<path d="M23.1354 18.863C23.1354 17.2015 21.7975 15.8499 20.1529 15.8499C18.5083 15.8499 17.1704 17.2015 17.1704 18.863V19.8847C17.1704 20.5707 16.9202 21.2292 16.466 21.7391L15.7464 22.5469C15.6519 22.6529 15.6605 22.8162 15.7654 22.9117C15.8703 23.0071 16.032 22.9984 16.1264 22.8924L16.8461 22.0847C17.3849 21.4798 17.6817 20.6985 17.6817 19.8847V18.863C17.6817 17.4863 18.7903 16.3664 20.1529 16.3664C21.5156 16.3664 22.6241 17.4863 22.6241 18.863V19.9946C22.6241 22.0593 21.867 24.0378 20.4922 25.5655L20.2364 25.8498C20.1414 25.9554 20.1491 26.1188 20.2536 26.2147C20.3026 26.2597 20.3641 26.2818 20.4254 26.2818C20.495 26.2818 20.5642 26.2534 20.6147 26.1973L20.8705 25.9129C22.331 24.2899 23.1354 22.1881 23.1354 19.9946V18.863H23.1354Z" fill="white"/>
<path d="M16.0796 18.863C16.0796 19.0056 16.1941 19.1212 16.3353 19.1212C16.4765 19.1212 16.5909 19.0056 16.5909 18.863C16.5909 17.9933 16.9035 17.1532 17.471 16.4974C18.0332 15.8477 18.8049 15.4229 19.6438 15.3011C19.7836 15.2808 19.8806 15.1499 19.8605 15.0087C19.8404 14.8676 19.7108 14.7697 19.5711 14.7898C18.6113 14.9292 17.7287 15.4148 17.0861 16.1575C16.4371 16.9074 16.0796 17.8682 16.0796 18.863Z" fill="white"/>
<path d="M16.5909 19.8847C16.5909 19.7421 16.4765 19.6265 16.3353 19.6265C16.1941 19.6265 16.0796 19.7421 16.0796 19.8847C16.0796 20.298 15.929 20.6947 15.6553 21.0019L15.0152 21.7205C14.9208 21.8265 14.9293 21.9897 15.0342 22.0852C15.0831 22.1296 15.1442 22.1515 15.2052 22.1515C15.2751 22.1515 15.3448 22.1226 15.3953 22.066L16.0354 21.3475C16.3936 20.9453 16.5909 20.4258 16.5909 19.8847Z" fill="white"/>
<path d="M23.7244 22.1902C23.5878 22.1542 23.4481 22.2367 23.4123 22.3747C23.318 22.739 23.2006 23.1011 23.0633 23.451C23.0113 23.5837 23.0755 23.7338 23.2068 23.7863C23.2377 23.7986 23.2696 23.8045 23.3009 23.8045C23.4027 23.8045 23.4989 23.7427 23.5387 23.6413C23.6835 23.272 23.8074 22.8899 23.907 22.5054C23.9427 22.3675 23.861 22.2263 23.7244 22.1902Z" fill="white"/>
<path d="M22.8735 15.8028C22.7685 15.7073 22.6068 15.7161 22.5124 15.8221C22.4181 15.9282 22.4266 16.0915 22.5316 16.1868C23.2836 16.8698 23.7149 17.8451 23.7149 18.863V19.9946C23.7149 20.4241 23.6855 20.857 23.6277 21.2811C23.6084 21.4224 23.7062 21.5527 23.8461 21.5722C23.8579 21.5738 23.8696 21.5746 23.8813 21.5746C24.007 21.5746 24.1166 21.4809 24.1342 21.3516C24.1952 20.9041 24.2261 20.4476 24.2261 19.9946V18.863C24.2262 17.6989 23.7331 16.5835 22.8735 15.8028Z" fill="white"/>
<path d="M21.6784 15.6114C21.7138 15.6285 21.7512 15.6366 21.7881 15.6366C21.8836 15.6366 21.9753 15.5822 22.0191 15.4893C22.0798 15.3605 22.0256 15.2064 21.8982 15.1451C21.5298 14.9679 21.1384 14.8484 20.7346 14.7898C20.5947 14.7697 20.4653 14.8676 20.4452 15.0087C20.4252 15.1499 20.5222 15.2808 20.6619 15.3011C21.0146 15.3523 21.3566 15.4567 21.6784 15.6114Z" fill="white"/>
<path d="M20.1529 13.646C20.0573 13.646 19.9605 13.6487 19.8653 13.654C19.7244 13.6618 19.6164 13.7837 19.6241 13.9261C19.6319 14.0685 19.7524 14.1782 19.8935 14.1697C19.9793 14.1649 20.0666 14.1625 20.1529 14.1625C22.7184 14.1625 24.8056 16.2711 24.8056 18.8629V19.9946C24.8056 20.1373 24.9201 20.2529 25.0613 20.2529C25.2024 20.2529 25.3169 20.1373 25.3169 19.9946V18.863C25.3169 15.9863 23.0003 13.646 20.1529 13.646Z" fill="white"/>
<path d="M17.3577 15.0473C17.4081 15.0473 17.459 15.0323 17.5035 15.001C17.9288 14.7022 18.3959 14.4792 18.8919 14.3379C19.0278 14.2992 19.1069 14.1565 19.0686 14.0192C19.0303 13.882 18.889 13.8021 18.7531 13.8407C18.2023 13.9976 17.6837 14.2453 17.2116 14.5769C17.0956 14.6583 17.067 14.8193 17.1476 14.9364C17.1973 15.0086 17.2768 15.0473 17.3577 15.0473Z" fill="white"/>
<path d="M15.5002 19.8847V18.863C15.5002 17.6615 15.9506 16.5173 16.7684 15.641C16.8652 15.5372 16.8605 15.3738 16.7577 15.2759C16.655 15.1781 16.4932 15.1829 16.3963 15.2867C15.4887 16.2592 14.9889 17.5293 14.9889 18.863V19.8847C14.9889 20.0253 14.9376 20.1603 14.8446 20.2647L14.5294 20.6185C14.4349 20.7246 14.4434 20.8879 14.5484 20.9833C14.5972 21.0277 14.6584 21.0496 14.7193 21.0496C14.7893 21.0496 14.8589 21.0208 14.9094 20.9641L15.2246 20.6103C15.4023 20.4108 15.5002 20.1531 15.5002 19.8847Z" fill="white"/>
<path d="M26.083 16.8521C25.8026 16.0103 25.357 15.2498 24.7586 14.5917C24.663 14.4866 24.5013 14.4797 24.3974 14.5762C24.2934 14.6727 24.2865 14.8361 24.3821 14.9411C24.9318 15.5456 25.341 16.244 25.5984 17.0168C25.6344 17.1247 25.734 17.1927 25.8407 17.1927C25.8677 17.1927 25.8952 17.1884 25.9223 17.1792C26.056 17.1337 26.128 16.9872 26.083 16.8521Z" fill="white"/>
<path d="M22.1732 12.8823C22.0397 12.8361 21.8943 12.9081 21.8486 13.043C21.8029 13.178 21.8741 13.3248 22.0077 13.371C22.5714 13.5658 23.1007 13.8481 23.5808 14.2101C23.6267 14.2447 23.6803 14.2614 23.7335 14.2614C23.8114 14.2614 23.8884 14.2255 23.9386 14.1576C24.023 14.0433 23.9997 13.8814 23.8866 13.7961C23.3638 13.4021 22.7873 13.0946 22.1732 12.8823Z" fill="white"/>
<path d="M16.1807 14.6759C17.2561 13.6343 18.6668 13.0606 20.1529 13.0606C20.4289 13.0606 20.7064 13.0807 20.9777 13.1202C21.1175 13.1408 21.247 13.0427 21.2672 12.9015C21.2874 12.7603 21.1905 12.6294 21.0507 12.609C20.7553 12.5659 20.4532 12.5441 20.1529 12.5441C18.5343 12.5441 16.9979 13.1688 15.8269 14.3031C14.6595 15.4338 13.9768 16.9513 13.9046 18.5759C13.8982 18.7184 14.0074 18.8392 14.1484 18.8455C14.1524 18.8457 14.1562 18.8458 14.1601 18.8458C14.296 18.8458 14.4092 18.7377 14.4153 18.5991C14.4816 17.1077 15.1086 15.7144 16.1807 14.6759Z" fill="white"/>
<path d="M20.1529 11.4421C19.5812 11.4421 19.0115 11.5091 18.4597 11.6411C18.3223 11.674 18.2374 11.8131 18.2699 11.9519C18.3024 12.0907 18.4402 12.1766 18.5776 12.1437C19.0908 12.021 19.6208 11.9587 20.1529 11.9587C22.0275 11.9587 23.7773 12.7132 25.08 14.0832C25.1302 14.1359 25.1973 14.1625 25.2644 14.1625C25.3281 14.1625 25.392 14.1386 25.4415 14.0905C25.5433 13.9917 25.5466 13.8282 25.4488 13.7254C24.77 13.0116 23.9727 12.45 23.0791 12.0565C22.1534 11.6488 21.1689 11.4421 20.1529 11.4421Z" fill="white"/>
<path d="M14.4105 14.6585C14.4573 14.6955 14.5128 14.7135 14.5679 14.7135C14.6438 14.7135 14.719 14.6795 14.7694 14.6144C15.498 13.6743 16.4572 12.9368 17.5432 12.4818C17.6736 12.4271 17.7355 12.276 17.6814 12.1443C17.6273 12.0125 17.4777 11.9499 17.3473 12.0046C16.1802 12.4937 15.1495 13.286 14.3668 14.2959C14.2798 14.4083 14.2993 14.5706 14.4105 14.6585Z" fill="white"/>
<path d="M16.6082 11.6737C16.6455 11.6737 16.6834 11.6655 16.7192 11.648C17.7955 11.1229 18.9508 10.8567 20.1529 10.8567C20.7793 10.8567 21.4033 10.9312 22.0072 11.078C22.1444 11.1113 22.2825 11.026 22.3156 10.8874C22.3486 10.7487 22.2641 10.6092 22.1268 10.5758C21.4837 10.4195 20.8196 10.3402 20.1529 10.3402C18.8732 10.3402 17.6431 10.6237 16.4969 11.1828C16.3698 11.2448 16.3164 11.3992 16.3778 11.5277C16.4219 11.6199 16.5132 11.6737 16.6082 11.6737Z" fill="white"/>
<path d="M23.0757 11.4209C23.3393 11.5269 23.6001 11.6488 23.851 11.7832C23.8892 11.8036 23.9301 11.8133 23.9705 11.8133C24.0621 11.8133 24.1507 11.7634 24.1966 11.6759C24.2627 11.5499 24.2152 11.3936 24.0904 11.3267C23.8233 11.1837 23.5455 11.054 23.2649 10.941C23.1337 10.8882 22.985 10.9529 22.9328 11.0854C22.8805 11.2179 22.9446 11.3681 23.0757 11.4209Z" fill="white"/>
<path fill-rule="evenodd" clip-rule="evenodd" d="M16.4531 11.0929C17.613 10.5271 18.8581 10.2402 20.1529 10.2402C20.8275 10.2402 21.4996 10.3204 22.1504 10.4786C22.3421 10.5252 22.4585 10.7191 22.4129 10.9105C22.3672 11.1023 22.1754 11.2217 21.9837 11.1752C21.3875 11.0303 20.7715 10.9567 20.1529 10.9567C18.966 10.9567 17.8257 11.2195 16.763 11.7378C16.7133 11.7621 16.6604 11.7737 16.6082 11.7737C16.4758 11.7737 16.3488 11.6987 16.2876 11.5708M20.1529 10.4402C18.8884 10.4402 17.6733 10.7202 16.5408 11.2727C16.4635 11.3104 16.4301 11.4051 16.4681 11.4845C16.4951 11.5411 16.5507 11.5737 16.6082 11.5737C16.6307 11.5737 16.6535 11.5688 16.6753 11.5581C17.7654 11.0264 18.9357 10.7567 20.1529 10.7567C20.7872 10.7567 21.4191 10.8321 22.0308 10.9808M20.1529 10.4402C20.8117 10.4402 21.4679 10.5185 22.1032 10.673ZM22.1032 10.673C22.1862 10.6931 22.2388 10.7782 22.2183 10.8642ZM22.8398 11.0487C22.9121 10.8653 23.1189 10.7745 23.3022 10.8483C23.5862 10.9625 23.8673 11.0939 24.1376 11.2386C24.3113 11.3316 24.3765 11.5482 24.2852 11.7223C24.2215 11.8437 24.0982 11.9133 23.9705 11.9133C23.9141 11.9133 23.8569 11.8997 23.8039 11.8713M22.8398 11.0487C22.7676 11.2317 22.8556 11.4401 23.0384 11.5137ZM23.0258 11.122C22.9935 11.2041 23.0335 11.2961 23.1131 11.3281C23.38 11.4355 23.6442 11.5589 23.8983 11.695C23.9215 11.7075 23.9463 11.7133 23.9705 11.7133C24.0261 11.7133 24.08 11.683 24.1081 11.6294M23.0258 11.122C23.058 11.0405 23.1485 11.002 23.2276 11.0338C23.5048 11.1454 23.7793 11.2736 24.0432 11.4149M22.2183 10.8642C22.1979 10.9497 22.1134 11.0008 22.0308 10.9808ZM16.4531 11.0929C16.2761 11.1793 16.2028 11.3933 16.2876 11.5708ZM18.4365 11.5438C18.996 11.41 19.5735 11.3421 20.1529 11.3421C21.1828 11.3421 22.181 11.5517 23.1194 11.9649C24.0253 12.3639 24.8335 12.9331 25.5212 13.6564M18.6008 12.2409C18.4088 12.2869 18.2175 12.1666 18.1725 11.9748C18.1277 11.7832 18.2447 11.5897 18.4365 11.5438C18.4365 11.5438 18.4365 11.5438 18.4365 11.5438M20.1529 11.5421C19.589 11.5421 19.0272 11.6082 18.483 11.7384C18.4 11.7582 18.3471 11.8431 18.3673 11.9291C18.3874 12.0148 18.4717 12.0662 18.5543 12.0464C19.0752 11.9219 19.6131 11.8587 20.1529 11.8587C22.0552 11.8587 23.8311 12.6246 25.1525 14.0142C25.1832 14.0465 25.2237 14.0625 25.2645 14.0625C25.3031 14.0625 25.3416 14.0481 25.3719 14.0188C25.4344 13.9581 25.4364 13.8574 25.3763 13.7943C24.7066 13.09 23.9202 12.5362 23.0388 12.148C22.1259 11.746 21.1551 11.5421 20.1529 11.5421ZM17.3087 11.9124C17.491 11.8359 17.6991 11.9239 17.7739 12.1063C17.8487 12.2883 17.7636 12.4979 17.5819 12.574C16.5119 13.0223 15.5666 13.749 14.8485 14.6757C14.7784 14.766 14.6737 14.8135 14.568 14.8135C14.491 14.8135 14.4135 14.7883 14.3485 14.737C14.1941 14.6149 14.1673 14.3902 14.2878 14.2347C15.081 13.2112 16.1255 12.4082 17.3087 11.9124ZM17.5889 12.1823C17.5556 12.1012 17.4645 12.0639 17.3861 12.0968C16.235 12.5791 15.2182 13.3607 14.4459 14.3572M17.5889 12.1823C17.6224 12.2638 17.5837 12.3564 17.5046 12.3895ZM17.5046 12.3895C16.4024 12.8513 15.4294 13.5995 14.6904 14.5532ZM15.7574 14.2312C16.9469 13.079 18.5081 12.4441 20.1529 12.4441C20.458 12.4441 20.7649 12.4663 21.0652 12.51C21.2604 12.5385 21.3941 12.7208 21.3662 12.9156C21.3384 13.1104 21.159 13.2479 20.9633 13.2192C20.6968 13.1803 20.4241 13.1606 20.1529 13.1606C18.693 13.1606 17.3072 13.724 16.2503 14.7477C15.1966 15.7684 14.5804 17.1376 14.5153 18.6036C14.5067 18.7949 14.3502 18.9458 14.1602 18.9458M14.1436 18.9454C13.9466 18.9363 13.7959 18.768 13.8047 18.5715C13.8781 16.9214 14.5716 15.3798 15.7574 14.2312M14.1436 18.9454C14.1435 18.9454 14.1437 18.9454 14.1436 18.9454ZM20.1529 12.6441C18.5605 12.6441 17.049 13.2585 15.8965 14.3749C14.7475 15.4879 14.0756 16.9812 14.0045 18.5804C14.0006 18.6687 14.0681 18.7418 14.153 18.7456L14.1602 18.7458C14.2419 18.7458 14.3116 18.6804 14.3155 18.5947M20.1529 12.6441C20.4484 12.6441 20.7457 12.6656 21.0363 12.7079ZM21.0363 12.7079C21.1207 12.7202 21.1808 12.7998 21.1682 12.8873C21.1557 12.9748 21.0762 13.0336 20.9922 13.0213C20.7162 12.981 20.4337 12.9606 20.1529 12.9606C18.6406 12.9606 17.2051 13.5445 16.1112 14.6041C15.0207 15.6603 14.3829 17.0777 14.3155 18.5947M22.2059 12.7878C22.0193 12.7232 21.8172 12.8241 21.7539 13.011ZM21.7539 13.011C21.6908 13.1973 21.7888 13.4011 21.9751 13.4655ZM22.1406 12.9768C22.0602 12.949 21.9715 12.992 21.9433 13.0751C21.915 13.1587 21.9595 13.2485 22.0404 13.2764C22.6141 13.4748 23.1526 13.762 23.641 14.1303C23.641 14.1303 23.641 14.1303 23.641 14.1303C23.669 14.1514 23.7014 14.1614 23.7335 14.1614C23.7808 14.1614 23.8275 14.1397 23.8582 14.0982C23.9102 14.0278 23.8955 13.9281 23.8264 13.876C23.8264 13.876 23.8264 13.876 23.8264 13.876C23.3119 13.4882 22.7447 13.1856 22.1406 12.9768ZM22.2059 12.7878C22.83 13.0035 23.4157 13.316 23.9468 13.7163C24.1039 13.8347 24.1359 14.0588 24.019 14.217C24.019 14.217 24.019 14.217 24.019 14.217C23.9493 14.3114 23.842 14.3614 23.7335 14.3614C23.6593 14.3614 23.5844 14.3381 23.5206 14.29C23.0488 13.9342 22.5288 13.6569 21.9751 13.4655M19.8598 13.5541C19.9569 13.5487 20.0554 13.546 20.1529 13.546C23.0566 13.546 25.417 15.9321 25.4169 18.8629V19.9946C25.4169 20.1915 25.2586 20.3529 25.0613 20.3529C24.8639 20.3529 24.7056 20.1915 24.7056 19.9946V18.8629C24.7056 16.3253 22.6622 14.2625 20.1529 14.2625C20.0685 14.2625 19.9831 14.2649 19.8991 14.2695C19.7013 14.2812 19.5351 14.1276 19.5243 13.9315C19.5136 13.735 19.6628 13.5651 19.8598 13.5541ZM20.1529 13.746C20.0591 13.746 19.9643 13.7486 19.8709 13.7538C19.786 13.7586 19.7192 13.8324 19.724 13.9206C19.7289 14.0092 19.8033 14.0749 19.8875 14.0699C19.9753 14.065 20.0648 14.0625 20.1529 14.0625C22.7746 14.0625 24.9056 16.2168 24.9056 18.8629V19.9946C24.9056 20.083 24.9763 20.1529 25.0613 20.1529C25.1463 20.1529 25.2169 20.083 25.2169 19.9946V18.8629C25.217 16.0406 22.9442 13.746 20.1529 13.746ZM18.7259 13.7445C18.9157 13.6906 19.1119 13.8024 19.1649 13.9923C19.2178 14.1818 19.1089 14.38 18.9193 14.434C18.4342 14.5722 17.9772 14.7904 17.561 15.0829C17.4992 15.1262 17.4281 15.1473 17.3578 15.1473C17.2451 15.1473 17.1343 15.0933 17.0653 14.9931M18.7805 13.9369C18.2405 14.0907 17.7321 14.3335 17.2691 14.6587C17.1983 14.7084 17.1803 14.8075 17.23 14.8796C17.2604 14.9238 17.3087 14.9473 17.3578 14.9473C17.3881 14.9473 17.4188 14.9383 17.446 14.9192C17.446 14.9192 17.446 14.9192 17.446 14.9192C17.8804 14.614 18.3577 14.3861 18.8645 14.2417C18.9467 14.2183 18.996 14.1311 18.9723 14.0461C18.9487 13.9615 18.8623 13.9137 18.7805 13.9369ZM24.3293 14.5029C24.4742 14.3685 24.6997 14.3783 24.8326 14.5244C25.4404 15.1927 25.8931 15.9654 26.1779 16.8205C26.2401 17.0071 26.141 17.2104 25.9545 17.2738C25.9545 17.2738 25.9545 17.2738 25.9545 17.2738C25.917 17.2866 25.8786 17.2927 25.8407 17.2927C25.6917 17.2927 25.5534 17.1978 25.5036 17.0484M24.4654 14.6495C24.5285 14.5909 24.6264 14.595 24.6846 14.6589ZM24.6846 14.6589C25.2737 15.3068 25.7122 16.0551 25.9882 16.8837C26.016 16.9674 25.9711 17.0569 25.8901 17.0845C25.8736 17.0901 25.8569 17.0927 25.8407 17.0927C25.7763 17.0927 25.7154 17.0515 25.6933 16.9852C25.4315 16.1991 25.0151 15.4886 24.4561 14.8739M14.6904 14.5532C14.6596 14.5929 14.6141 14.6135 14.568 14.6135ZM14.568 14.6135C14.5346 14.6135 14.5011 14.6027 14.4726 14.5801ZM20.3463 14.9946C20.374 14.7996 20.5534 14.6627 20.7489 14.6908C21.1627 14.7509 21.5641 14.8734 21.9416 15.055C22.119 15.1403 22.1934 15.354 22.1096 15.5319C22.1096 15.5319 22.1096 15.5319 22.1096 15.5319C22.0488 15.6608 21.9213 15.7366 21.7881 15.7366M21.635 15.7015C21.3224 15.5512 20.9902 15.4498 20.6476 15.4C20.4524 15.3717 20.3185 15.1894 20.3463 14.9946M20.7203 14.8888C20.6359 14.8767 20.5567 14.9356 20.5443 15.0228C20.5318 15.1103 20.592 15.1899 20.6763 15.2021C21.0391 15.2548 21.3908 15.3622 21.7217 15.5213C21.7434 15.5317 21.766 15.5366 21.7881 15.5366C21.846 15.5366 21.9018 15.5036 21.9287 15.4466C21.9662 15.367 21.9323 15.2724 21.8549 15.2352C21.4957 15.0624 21.114 14.9459 20.7203 14.8888ZM19.5569 14.6909C19.752 14.6627 19.9318 14.7995 19.9596 14.9947C19.9873 15.1895 19.8534 15.3717 19.6582 15.4001C18.8434 15.5183 18.0934 15.9311 17.5466 16.5629C16.9949 17.2004 16.691 18.0172 16.691 18.8629C16.691 19.0599 16.5327 19.2212 16.3353 19.2212C16.138 19.2212 15.9797 19.0599 15.9797 18.8629C15.9797 17.8443 16.3457 16.8602 17.0105 16.092M19.5855 14.8888C19.6696 14.8767 19.7492 14.9356 19.7615 15.0228C19.774 15.1103 19.7138 15.1899 19.6295 15.2021C18.7664 15.3274 17.9731 15.7644 17.3954 16.432C16.8121 17.106 16.491 17.9693 16.491 18.8629C16.491 18.9513 16.4203 19.0212 16.3353 19.0212C16.2503 19.0212 16.1797 18.9513 16.1797 18.8629C16.1797 17.8922 16.5285 16.9546 17.1617 16.2229C17.7889 15.4982 18.6498 15.0246 19.5855 14.8888ZM16.3233 15.2184C16.458 15.0741 16.6836 15.0672 16.8267 15.2035C16.9692 15.3392 16.9757 15.5654 16.8415 15.7092C16.041 16.5669 15.6002 17.6868 15.6002 18.8629V19.8847C15.6002 20.1775 15.4934 20.4589 15.2993 20.6768L14.9841 21.0306C14.914 21.1093 14.8168 21.1496 14.7193 21.1496C14.6344 21.1496 14.549 21.119 14.4811 21.0572C14.4811 21.0572 14.4811 21.0572 14.4811 21.0572C14.3355 20.9249 14.3239 20.6989 14.4547 20.552L14.7699 20.1982C14.8466 20.1122 14.8889 20.0009 14.8889 19.8847V18.8629C14.8889 17.504 15.3983 16.2095 16.3233 15.2184ZM16.6888 15.3483C16.6264 15.2889 16.5284 15.2917 16.4695 15.3549C15.5792 16.3088 15.0889 17.5545 15.0889 18.8629V19.8847C15.0889 20.0497 15.0287 20.2084 14.9193 20.3312L14.604 20.685C14.546 20.7502 14.5514 20.8508 14.6157 20.9093C14.6455 20.9364 14.6824 20.9496 14.7193 20.9496C14.7618 20.9496 14.8039 20.9322 14.8348 20.8976M14.8348 20.8976L15.15 20.5438C15.15 20.5438 15.15 20.5438 15.15 20.5438C15.3113 20.3627 15.4002 20.1287 15.4002 19.8847V18.8629C15.4002 17.6362 15.8602 16.4676 16.6953 15.5728M22.9407 15.7287C22.7944 15.5958 22.569 15.6081 22.4378 15.7557ZM22.8063 15.8768C22.7425 15.8188 22.6447 15.824 22.5872 15.8886C22.5292 15.9538 22.5346 16.0544 22.5989 16.1128C23.3718 16.8147 23.8149 17.817 23.8149 18.8629V19.9946C23.8149 20.4286 23.7853 20.866 23.7268 21.2946C23.7149 21.3822 23.7755 21.4614 23.8599 21.4731C23.867 21.4741 23.8742 21.4746 23.8813 21.4746C23.9569 21.4746 24.0242 21.4179 24.0351 21.3381C24.0955 20.8951 24.1262 20.4431 24.1262 19.9946V18.8629C24.1262 17.727 23.645 16.6385 22.8063 15.8768ZM17.0704 18.8629C17.0704 17.1472 18.4522 15.7499 20.1529 15.7499C21.8537 15.7499 23.2355 17.1472 23.2355 18.8629V18.9629L23.2354 19.9946C23.2354 22.2127 22.422 24.3383 20.9449 25.9798C20.9449 25.9798 20.9449 25.9798 20.9449 25.9798L20.689 26.2642C20.619 26.3421 20.5223 26.3818 20.4255 26.3818C20.3399 26.3818 20.254 26.3508 20.186 26.2883C20.041 26.1553 20.0305 25.9292 20.162 25.783L20.4179 25.4986C21.7761 23.9893 22.5242 22.0347 22.5242 19.9946V18.8629C22.5242 17.5406 21.4594 16.4664 20.1529 16.4664C18.8465 16.4664 17.7817 17.5406 17.7817 18.8629V19.8847C17.7817 20.7229 17.476 21.5279 16.9208 22.1512L16.2011 22.9589C16.0698 23.1063 15.8443 23.1186 15.6982 22.9856C15.5526 22.8532 15.5409 22.6273 15.6717 22.4804L16.3914 21.6726C16.8292 21.1811 17.0704 20.5463 17.0704 19.8847V18.8629ZM23.0354 18.8486C23.0278 17.248 21.7366 15.9499 20.1529 15.9499C18.5646 15.9499 17.2704 17.2558 17.2704 18.8629V19.8847C17.2704 20.5951 17.0113 21.2774 16.5407 21.8056L15.8211 22.6134C15.7631 22.6785 15.7684 22.7792 15.8327 22.8377C15.8964 22.8955 15.9943 22.8905 16.0518 22.8259L16.7714 22.0181C17.2939 21.4317 17.5817 20.6741 17.5817 19.8847V18.8629C17.5817 17.4321 18.7341 16.2664 20.1529 16.2664C21.5718 16.2664 22.7242 17.4321 22.7242 18.8629V19.9946C22.7242 22.0839 21.958 24.0862 20.5666 25.6324L20.3107 25.9167C20.2524 25.9816 20.2572 26.0822 20.3212 26.141C20.3511 26.1685 20.3883 26.1818 20.4255 26.1818C20.4677 26.1818 20.5096 26.1646 20.5404 26.1304L20.7962 25.846C22.2401 24.2415 23.0354 22.1635 23.0354 19.9946V18.8486ZM22.4378 15.7557C22.307 15.9026 22.3188 16.1286 22.4644 16.2609ZM22.4644 16.2609L22.5317 16.1868ZM23.6149 18.8629C23.6149 17.8733 23.1955 16.9248 22.4644 16.2609L22.5317 16.1868M18.1612 18.8629C18.1612 17.7549 19.0536 16.8518 20.1529 16.8518C21.2523 16.8518 22.1447 17.7549 22.1447 18.8629V19.9946C22.1447 21.9379 21.432 23.8004 20.1379 25.2386L19.2133 26.2661C19.1432 26.344 19.0465 26.3838 18.9497 26.3838C18.8642 26.3838 18.7782 26.3528 18.7102 26.2903C18.5653 26.1572 18.5547 25.9311 18.6863 25.7849C18.6863 25.7849 18.6863 25.7849 18.6863 25.7849L19.6109 24.7574C20.7862 23.4513 21.4335 21.76 21.4335 19.9946V18.8629C21.4335 18.1482 20.858 17.5683 20.153 17.5683C19.448 17.5683 18.8725 18.1482 18.8725 18.8629V19.8847C18.8725 20.9956 18.4673 22.0624 17.7315 22.8883L16.9323 23.7855C16.8009 23.9328 16.5756 23.9451 16.4293 23.8122C16.2838 23.6798 16.2721 23.4538 16.4029 23.3069L17.2021 22.4097C17.8205 21.7156 18.1612 20.819 18.1612 19.8847V18.8629ZM20.1529 17.0518C19.166 17.0518 18.3612 17.8634 18.3612 18.8629V19.8847C18.3612 20.8678 18.0027 21.8118 17.3515 22.5428L16.5523 23.4399C16.4942 23.5051 16.4996 23.6057 16.5639 23.6642C16.6276 23.7221 16.7254 23.717 16.783 23.6524C16.783 23.6524 16.783 23.6524 16.783 23.6524L17.5822 22.7553C18.2852 21.9661 18.6725 20.9468 18.6725 19.8847V18.8629C18.6725 18.0397 19.3356 17.3683 20.153 17.3683C20.9704 17.3683 21.6335 18.0397 21.6335 18.8629V19.9946C21.6335 21.8091 20.968 23.5482 19.7595 24.8911L18.835 25.9187C18.7766 25.9835 18.7814 26.0842 18.8454 26.143C18.8753 26.1704 18.9125 26.1838 18.9497 26.1838C18.9919 26.1838 19.0338 26.1666 19.0646 26.1323L19.9892 25.1048C21.2502 23.7035 21.9447 21.8888 21.9447 19.9946V18.8629C21.9447 17.8634 21.1399 17.0518 20.1529 17.0518ZM19.2519 18.8629C19.2519 18.3625 19.6551 17.9537 20.1529 17.9537C20.6508 17.9537 21.054 18.3625 21.054 18.8629V19.9946C21.054 21.6632 20.442 23.2624 19.3307 24.4974L18.2349 25.7151C18.1648 25.793 18.0682 25.8328 17.9713 25.8328C17.8858 25.8328 17.7999 25.8018 17.7318 25.7393C17.5869 25.6062 17.5763 25.3801 17.7079 25.2339C17.7079 25.2339 17.7079 25.2339 17.7079 25.2339L18.8038 24.0161C19.7961 22.9134 20.3427 21.4853 20.3427 19.9946V18.8629C20.3427 18.7558 20.2565 18.6702 20.1529 18.6702C20.0494 18.6702 19.9632 18.7558 19.9632 18.8629V19.8847C19.9632 21.2682 19.4586 22.5968 18.5423 23.6255L17.4181 24.8874C17.2867 25.0348 17.0613 25.047 16.9151 24.9141C16.7695 24.7817 16.7578 24.5557 16.8887 24.4088L18.0129 23.1469C18.8118 22.2501 19.2519 21.0916 19.2519 19.8847V18.8629ZM20.1529 18.1537C19.7674 18.1537 19.4519 18.471 19.4519 18.8629V19.8847C19.4519 21.1404 18.994 22.3463 18.1622 23.2799L17.038 24.5418C16.98 24.607 16.9853 24.7076 17.0497 24.7661C17.1133 24.824 17.2112 24.819 17.2688 24.7543L18.3929 23.4924C19.2765 22.5006 19.7632 21.2194 19.7632 19.8847V18.8629C19.7632 18.6473 19.937 18.4702 20.1529 18.4702C20.3689 18.4702 20.5427 18.6473 20.5427 18.8629V19.9946C20.5427 21.5345 19.978 23.0103 18.9524 24.1499L17.8566 25.3677C17.7983 25.4325 17.8031 25.5332 17.8671 25.592C17.897 25.6194 17.9342 25.6328 17.9713 25.6328C18.0135 25.6328 18.0554 25.6156 18.0862 25.5814L19.182 24.3636C20.2601 23.1656 20.854 21.6141 20.854 19.9946V18.8629C20.854 18.471 20.5384 18.1537 20.1529 18.1537ZM23.6149 18.8629V19.9946ZM15.9797 19.8847C15.9797 19.6878 16.138 19.5264 16.3353 19.5264C16.5327 19.5264 16.691 19.6878 16.691 19.8847C16.691 20.4502 16.4847 20.9934 16.1101 21.414L15.47 22.1325M14.9406 21.6539L15.5807 20.9354C15.8379 20.6466 15.9797 20.2736 15.9797 19.8847M16.3353 19.7264C16.2503 19.7264 16.1797 19.7963 16.1797 19.8847C16.1797 20.3224 16.02 20.7428 15.73 21.0684L15.0899 21.787C15.0319 21.8521 15.0372 21.9527 15.1015 22.0112C15.1314 22.0383 15.1683 22.0515 15.2052 22.0515C15.2476 22.0515 15.2898 22.0341 15.3206 21.9995L15.9607 21.2809C16.3026 20.8972 16.491 20.4014 16.491 19.8847C16.491 19.7963 16.4203 19.7264 16.3353 19.7264ZM23.6149 19.9946C23.6149 20.4196 23.5859 20.8479 23.5286 21.2676ZM23.5286 21.2676C23.5021 21.4626 23.6369 21.644 23.8323 21.6712ZM23.3156 22.3495C23.3651 22.1587 23.559 22.0433 23.7499 22.0935C23.9404 22.1439 24.0531 22.3401 24.0038 22.5305C23.9032 22.9188 23.7781 23.3047 23.6318 23.6778C23.5767 23.8183 23.4429 23.9045 23.3009 23.9045C23.257 23.9045 23.2126 23.8963 23.1697 23.8791C22.9868 23.8059 22.8984 23.5976 22.9702 23.4145C23.106 23.0683 23.2222 22.71 23.3156 22.3495ZM23.5092 22.3998C23.4138 22.7679 23.2952 23.1339 23.1564 23.4876C23.1242 23.5697 23.1644 23.6616 23.244 23.6934C23.2629 23.701 23.2821 23.7045 23.3009 23.7045M23.4456 23.6048C23.589 23.2392 23.7116 22.8609 23.8102 22.4803C23.8323 22.3949 23.7815 22.3088 23.699 22.2869C23.6166 22.2652 23.5312 22.3147 23.5092 22.3998" fill="white"/>
</g>
<defs>
<filter id="filter0_d_10189_191505" x="0" y="0" width="40" height="40" filterUnits="userSpaceOnUse" color-interpolation-filters="sRGB">
<feFlood flood-opacity="0" result="BackgroundImageFix"/>
<feColorMatrix in="SourceAlpha" type="matrix" values="0 0 0 0 0 0 0 0 0 0 0 0 0 0 0 0 0 0 127 0" result="hardAlpha"/>
<feOffset dy="2"/>
<feGaussianBlur stdDeviation="2"/>
<feColorMatrix type="matrix" values="0 0 0 0 0.427083 0 0 0 0 0.671455 0 0 0 0 1 0 0 0 0.36 0"/>
<feBlend mode="normal" in2="BackgroundImageFix" result="effect1_dropShadow_10189_191505"/>
<feBlend mode="normal" in="SourceGraphic" in2="effect1_dropShadow_10189_191505" result="shape"/>
</filter>
<linearGradient id="paint0_linear_10189_191505" x1="10.5455" y1="2" x2="25.8182" y2="34" gradientUnits="userSpaceOnUse">
<stop stop-color="#FF858A"/>
<stop offset="1" stop-color="#F04148"/>
</linearGradient>
<clipPath id="clip0_10189_191505">
<rect x="11.4033" y="9.40234" width="17.194" height="17.194" rx="5" fill="white"/>
</clipPath>
</defs>
</svg>
