<svg width="40" height="40" viewBox="0 0 40 40" fill="none" xmlns="http://www.w3.org/2000/svg">
<g filter="url(#filter0_d_10189_191438)">
<rect x="4" y="2" width="32" height="32" rx="10" fill="url(#paint0_linear_10189_191438)"/>
</g>
<g clip-path="url(#clip0_10189_191438)">
<path fill-rule="evenodd" clip-rule="evenodd" d="M17.1545 11.1979C17.5044 10.8489 17.9789 10.6528 18.4738 10.6528H21.5268C22.0216 10.6528 22.4962 10.8489 22.8461 11.1979C23.196 11.5469 23.3925 12.0203 23.3925 12.5138V13.6981H26.1063C27.1367 13.6981 27.9721 14.5313 27.9721 15.5591V23.1723C27.9721 24.2001 27.1367 25.0333 26.1063 25.0333H13.8942C12.8638 25.0333 12.0285 24.2001 12.0285 23.1723V15.5591C12.0285 14.5313 12.8638 13.6981 13.8942 13.6981H16.608V12.5138C16.608 12.0203 16.8046 11.5469 17.1545 11.1979ZM16.608 14.3748H13.8942C13.2385 14.3748 12.707 14.905 12.707 15.5591V23.1723C12.707 23.8263 13.2385 24.3566 13.8942 24.3566H16.608V14.3748ZM17.2865 24.3566V14.3748H22.7141V24.3566H17.2865ZM23.3925 24.3566H26.1063C26.762 24.3566 27.2936 23.8263 27.2936 23.1723V15.5591C27.2936 14.905 26.762 14.3748 26.1063 14.3748H23.3925V24.3566ZM22.7141 13.6981H17.2865V12.5138C17.2865 12.1997 17.4116 11.8985 17.6342 11.6764C17.8569 11.4543 18.1589 11.3296 18.4738 11.3296H21.5268C21.8417 11.3296 22.1437 11.4543 22.3663 11.6764C22.589 11.8985 22.7141 12.1997 22.7141 12.5138V13.6981Z" fill="white"/>
<path fill-rule="evenodd" clip-rule="evenodd" d="M17.0441 11.0872C17.4233 10.709 17.9376 10.4965 18.4738 10.4965H21.5268C22.0629 10.4965 22.5772 10.709 22.9565 11.0872C23.3357 11.4655 23.5488 11.9787 23.5488 12.5138V13.5418H26.1063C27.2227 13.5418 28.1284 14.4446 28.1284 15.5591V23.1723C28.1284 24.2868 27.2227 25.1896 26.1063 25.1896H13.8942C12.7779 25.1896 11.8722 24.2868 11.8722 23.1723V15.5591C11.8722 14.4446 12.7779 13.5418 13.8942 13.5418H16.4517V12.5138C16.4517 11.9787 16.6649 11.4655 17.0441 11.0872ZM18.4738 10.8091C18.0203 10.8091 17.5854 10.9888 17.2649 11.3086C16.9443 11.6283 16.7643 12.0618 16.7643 12.5138V13.6981C16.7643 13.7844 16.6944 13.8544 16.608 13.8544H13.8942C12.9498 13.8544 12.1848 14.618 12.1848 15.5591V23.1723C12.1848 24.1134 12.9498 24.877 13.8942 24.877H26.1063C27.0508 24.877 27.8157 24.1134 27.8157 23.1723V15.5591C27.8157 14.618 27.0508 13.8544 26.1063 13.8544H23.3925C23.3062 13.8544 23.2362 13.7844 23.2362 13.6981V12.5138C23.2362 12.0618 23.0562 11.6283 22.7357 11.3086C22.4151 10.9888 21.9803 10.8091 21.5268 10.8091H18.4738ZM18.4738 11.4859C18.2002 11.4859 17.9379 11.5943 17.7446 11.7871C17.5513 11.9799 17.4428 12.2413 17.4428 12.5138V13.5418H22.5578V12.5138C22.5578 12.2413 22.4492 11.9799 22.2559 11.7871C22.0626 11.5943 21.8004 11.4859 21.5268 11.4859H18.4738ZM17.5238 11.5658C17.7758 11.3144 18.1176 11.1732 18.4738 11.1732H21.5268C21.883 11.1732 22.2247 11.3144 22.4767 11.5658C22.7287 11.8171 22.8704 12.1582 22.8704 12.5138V13.6981C22.8704 13.7844 22.8004 13.8544 22.7141 13.8544H17.2865C17.2002 13.8544 17.1302 13.7844 17.1302 13.6981V12.5138C17.1302 12.1582 17.2718 11.8171 17.5238 11.5658ZM13.8942 14.5311C13.3245 14.5311 12.8633 14.9918 12.8633 15.5591V23.1723C12.8633 23.7396 13.3245 24.2003 13.8942 24.2003H16.4517V14.5311H13.8942ZM12.5506 15.5591C12.5506 14.8183 13.1526 14.2185 13.8942 14.2185H16.608C16.6944 14.2185 16.7643 14.2885 16.7643 14.3748V24.3566C16.7643 24.4429 16.6944 24.5129 16.608 24.5129H13.8942C13.1526 24.5129 12.5506 23.913 12.5506 23.1723V15.5591ZM17.1302 14.3748C17.1302 14.2885 17.2002 14.2185 17.2865 14.2185H22.7141C22.8004 14.2185 22.8704 14.2885 22.8704 14.3748V24.3566C22.8704 24.4429 22.8004 24.5129 22.7141 24.5129H17.2865C17.2002 24.5129 17.1302 24.4429 17.1302 24.3566V14.3748ZM17.4428 14.5311V24.2003H22.5578V14.5311H17.4428ZM23.2362 14.3748C23.2362 14.2885 23.3062 14.2185 23.3925 14.2185H26.1063C26.848 14.2185 27.4499 14.8183 27.4499 15.5591V23.1723C27.4499 23.913 26.848 24.5129 26.1063 24.5129H23.3925C23.3062 24.5129 23.2362 24.4429 23.2362 24.3566V14.3748ZM23.5488 14.5311V24.2003H26.1063C26.6761 24.2003 27.1373 23.7396 27.1373 23.1723V15.5591C27.1373 14.9918 26.6761 14.5311 26.1063 14.5311H23.5488Z" fill="white"/>
<path fill-rule="evenodd" clip-rule="evenodd" d="M17.1545 11.1979C17.5044 10.8489 17.9789 10.6528 18.4738 10.6528H21.5268C22.0216 10.6528 22.4962 10.8489 22.8461 11.1979C23.196 11.5469 23.3925 12.0203 23.3925 12.5138V13.6981H26.1063C27.1367 13.6981 27.9721 14.5313 27.9721 15.5591V23.1723C27.9721 24.2001 27.1367 25.0333 26.1063 25.0333H13.8942C12.8638 25.0333 12.0285 24.2001 12.0285 23.1723V15.5591C12.0285 14.5313 12.8638 13.6981 13.8942 13.6981H16.608V12.5138C16.608 12.0203 16.8046 11.5469 17.1545 11.1979ZM16.608 14.3748H13.8942C13.2385 14.3748 12.707 14.905 12.707 15.5591V23.1723C12.707 23.8263 13.2385 24.3566 13.8942 24.3566H16.608V14.3748ZM17.2865 24.3566V14.3748H22.7141V24.3566H17.2865ZM23.3925 24.3566H26.1063C26.762 24.3566 27.2936 23.8263 27.2936 23.1723V15.5591C27.2936 14.905 26.762 14.3748 26.1063 14.3748H23.3925V24.3566ZM22.7141 13.6981H17.2865V12.5138C17.2865 12.1997 17.4116 11.8985 17.6342 11.6764C17.8569 11.4543 18.1589 11.3296 18.4738 11.3296H21.5268C21.8417 11.3296 22.1437 11.4543 22.3663 11.6764C22.589 11.8985 22.7141 12.1997 22.7141 12.5138V13.6981Z" stroke="white" stroke-linecap="round" stroke-linejoin="round"/>
<path fill-rule="evenodd" clip-rule="evenodd" d="M17.0441 11.0872C17.4233 10.709 17.9376 10.4965 18.4738 10.4965H21.5268C22.0629 10.4965 22.5772 10.709 22.9565 11.0872C23.3357 11.4655 23.5488 11.9787 23.5488 12.5138V13.5418H26.1063C27.2227 13.5418 28.1284 14.4446 28.1284 15.5591V23.1723C28.1284 24.2868 27.2227 25.1896 26.1063 25.1896H13.8942C12.7779 25.1896 11.8722 24.2868 11.8722 23.1723V15.5591C11.8722 14.4446 12.7779 13.5418 13.8942 13.5418H16.4517V12.5138C16.4517 11.9787 16.6649 11.4655 17.0441 11.0872ZM18.4738 10.8091C18.0203 10.8091 17.5854 10.9888 17.2649 11.3086C16.9443 11.6283 16.7643 12.0618 16.7643 12.5138V13.6981C16.7643 13.7844 16.6944 13.8544 16.608 13.8544H13.8942C12.9498 13.8544 12.1848 14.618 12.1848 15.5591V23.1723C12.1848 24.1134 12.9498 24.877 13.8942 24.877H26.1063C27.0508 24.877 27.8157 24.1134 27.8157 23.1723V15.5591C27.8157 14.618 27.0508 13.8544 26.1063 13.8544H23.3925C23.3062 13.8544 23.2362 13.7844 23.2362 13.6981V12.5138C23.2362 12.0618 23.0562 11.6283 22.7357 11.3086C22.4151 10.9888 21.9803 10.8091 21.5268 10.8091H18.4738ZM18.4738 11.4859C18.2002 11.4859 17.9379 11.5943 17.7446 11.7871C17.5513 11.9799 17.4428 12.2413 17.4428 12.5138V13.5418H22.5578V12.5138C22.5578 12.2413 22.4492 11.9799 22.2559 11.7871C22.0626 11.5943 21.8004 11.4859 21.5268 11.4859H18.4738ZM17.5238 11.5658C17.7758 11.3144 18.1176 11.1732 18.4738 11.1732H21.5268C21.883 11.1732 22.2247 11.3144 22.4767 11.5658C22.7287 11.8171 22.8704 12.1582 22.8704 12.5138V13.6981C22.8704 13.7844 22.8004 13.8544 22.7141 13.8544H17.2865C17.2002 13.8544 17.1302 13.7844 17.1302 13.6981V12.5138C17.1302 12.1582 17.2718 11.8171 17.5238 11.5658ZM13.8942 14.5311C13.3245 14.5311 12.8633 14.9918 12.8633 15.5591V23.1723C12.8633 23.7396 13.3245 24.2003 13.8942 24.2003H16.4517V14.5311H13.8942ZM12.5506 15.5591C12.5506 14.8183 13.1526 14.2185 13.8942 14.2185H16.608C16.6944 14.2185 16.7643 14.2885 16.7643 14.3748V24.3566C16.7643 24.4429 16.6944 24.5129 16.608 24.5129H13.8942C13.1526 24.5129 12.5506 23.913 12.5506 23.1723V15.5591ZM17.1302 14.3748C17.1302 14.2885 17.2002 14.2185 17.2865 14.2185H22.7141C22.8004 14.2185 22.8704 14.2885 22.8704 14.3748V24.3566C22.8704 24.4429 22.8004 24.5129 22.7141 24.5129H17.2865C17.2002 24.5129 17.1302 24.4429 17.1302 24.3566V14.3748ZM17.4428 14.5311V24.2003H22.5578V14.5311H17.4428ZM23.2362 14.3748C23.2362 14.2885 23.3062 14.2185 23.3925 14.2185H26.1063C26.848 14.2185 27.4499 14.8183 27.4499 15.5591V23.1723C27.4499 23.913 26.848 24.5129 26.1063 24.5129H23.3925C23.3062 24.5129 23.2362 24.4429 23.2362 24.3566V14.3748ZM23.5488 14.5311V24.2003H26.1063C26.6761 24.2003 27.1373 23.7396 27.1373 23.1723V15.5591C27.1373 14.9918 26.6761 14.5311 26.1063 14.5311H23.5488Z" stroke="white" stroke-linecap="round" stroke-linejoin="round"/>
</g>
<defs>
<filter id="filter0_d_10189_191438" x="0" y="0" width="40" height="40" filterUnits="userSpaceOnUse" color-interpolation-filters="sRGB">
<feFlood flood-opacity="0" result="BackgroundImageFix"/>
<feColorMatrix in="SourceAlpha" type="matrix" values="0 0 0 0 0 0 0 0 0 0 0 0 0 0 0 0 0 0 127 0" result="hardAlpha"/>
<feOffset dy="2"/>
<feGaussianBlur stdDeviation="2"/>
<feColorMatrix type="matrix" values="0 0 0 0 0.427083 0 0 0 0 0.671455 0 0 0 0 1 0 0 0 0.36 0"/>
<feBlend mode="normal" in2="BackgroundImageFix" result="effect1_dropShadow_10189_191438"/>
<feBlend mode="normal" in="SourceGraphic" in2="effect1_dropShadow_10189_191438" result="shape"/>
</filter>
<linearGradient id="paint0_linear_10189_191438" x1="10.5455" y1="2" x2="25.8182" y2="34" gradientUnits="userSpaceOnUse">
<stop stop-color="#FFD085"/>
<stop offset="1" stop-color="#FFAF2E"/>
</linearGradient>
<clipPath id="clip0_10189_191438">
<rect x="11.4033" y="9.40234" width="17.194" height="17.194" rx="5" fill="white"/>
</clipPath>
</defs>
</svg>
