<svg width="40" height="40" viewBox="0 0 40 40" fill="none" xmlns="http://www.w3.org/2000/svg">
<g filter="url(#filter0_d_10189_191453)">
<rect x="4" y="2" width="32" height="32" rx="10" fill="url(#paint0_linear_10189_191453)"/>
</g>
<path fill-rule="evenodd" clip-rule="evenodd" d="M24.9218 16.3566H15.079C14.3789 16.3566 13.8114 16.9213 13.8114 17.6179V21.4483H26.1893V17.6179C26.1893 16.9213 25.6218 16.3566 24.9218 16.3566ZM15.079 15.5158C13.9122 15.5158 12.9664 16.4569 12.9664 17.6179V21.4483C12.9664 21.9127 13.3448 22.2892 13.8114 22.2892H26.1893C26.6559 22.2892 27.0343 21.9127 27.0343 21.4483V17.6179C27.0343 16.4569 26.0885 15.5158 24.9218 15.5158H15.079Z" fill="white"/>
<path fill-rule="evenodd" clip-rule="evenodd" d="M22.7191 12.7441H17.4211C16.8169 12.7441 16.2967 13.1685 16.1782 13.758L15.8124 15.5781L24.2379 15.5781L23.9726 13.8183C23.8795 13.2009 23.3465 12.7441 22.7191 12.7441ZM17.4211 11.9033C16.4141 11.9033 15.5471 12.6106 15.3496 13.5931L14.9838 15.4132C14.8792 15.9335 15.2791 16.4189 15.8124 16.4189H24.2379C24.7545 16.4189 25.1501 15.9617 25.0735 15.4533L24.8082 13.6936C24.6531 12.6645 23.7648 11.9033 22.7191 11.9033H17.4211Z" fill="white"/>
<path d="M15.0598 22.5222C15.0598 22.0878 15.4137 21.7357 15.8503 21.7357C16.2868 21.7357 16.6408 22.0878 16.6408 22.5222V23.3088C16.6408 23.7433 16.2868 24.0954 15.8503 24.0954C15.4137 24.0954 15.0598 23.7433 15.0598 23.3088V22.5222Z" fill="white"/>
<path d="M16.143 19.1283C16.143 18.6295 16.5494 18.2251 17.0506 18.2251C17.5519 18.2251 17.9582 18.6295 17.9582 19.1283C17.9582 19.627 17.5519 20.0314 17.0506 20.0314C16.5494 20.0314 16.143 19.627 16.143 19.1283Z" fill="white"/>
<path d="M22.0425 19.1283C22.0425 18.6295 22.4488 18.2251 22.9501 18.2251C23.4513 18.2251 23.8577 18.6295 23.8577 19.1283C23.8577 19.627 23.4513 20.0314 22.9501 20.0314C22.4488 20.0314 22.0425 19.627 22.0425 19.1283Z" fill="white"/>
<path d="M23.3599 22.5222C23.3599 22.0878 23.7139 21.7357 24.1504 21.7357C24.587 21.7357 24.9409 22.0878 24.9409 22.5222V23.3088C24.9409 23.7433 24.587 24.0954 24.1504 24.0954C23.7139 24.0954 23.3599 23.7433 23.3599 23.3088V22.5222Z" fill="white"/>
<path fill-rule="evenodd" clip-rule="evenodd" d="M13.4988 21.761V17.6179C13.4988 16.8538 14.0447 16.2188 14.7671 16.0747C14.7357 16.0094 14.7104 15.9408 14.6917 15.8699C13.8829 16.0461 13.279 16.7628 13.279 17.6179V21.4483C13.279 21.7386 13.5159 21.9766 13.8114 21.9766H14.8924C14.9375 21.8981 14.9921 21.8257 15.0545 21.761H13.4988ZM26.1893 21.4483V17.6179C26.1893 16.9755 25.7067 16.4453 25.0826 16.3667C25.0299 16.36 24.9763 16.3566 24.9218 16.3566H24.5581C24.4597 16.3967 24.3517 16.4189 24.2379 16.4189H15.8124C15.6983 16.4189 15.5902 16.3967 15.492 16.3566H15.079C15.0399 16.3566 15.0012 16.3584 14.963 16.3618C14.3173 16.4201 13.8114 16.9602 13.8114 17.6179V21.4483H26.1893ZM25.2784 16.0843C25.9785 16.2452 26.5019 16.8697 26.5019 17.6179V21.761H24.9462C25.0086 21.8257 25.0632 21.8981 25.1083 21.9766H26.1893C26.4848 21.9766 26.7217 21.7386 26.7217 21.4483V17.6179C26.7217 16.7793 26.1409 16.0738 25.3556 15.8807C25.3363 15.9513 25.3103 16.0195 25.2784 16.0843ZM25.0735 15.4533C25.077 15.4762 25.0795 15.499 25.081 15.5217C25.1883 15.5296 25.2934 15.5456 25.3957 15.5689C26.3342 15.7829 27.0343 16.619 27.0343 17.6179V21.4483C27.0343 21.9127 26.6559 22.2892 26.1893 22.2892H24.9057C24.9286 22.3628 24.9409 22.4411 24.9409 22.5222V23.3088C24.9409 23.7433 24.587 24.0954 24.1504 24.0954C23.7139 24.0954 23.3599 23.7433 23.3599 23.3088V22.5222C23.3599 22.4411 23.3723 22.3628 23.3952 22.2892H16.6055C16.6284 22.3628 16.6408 22.4411 16.6408 22.5222V23.3088C16.6408 23.7433 16.2868 24.0954 15.8503 24.0954C15.4137 24.0954 15.0598 23.7433 15.0598 23.3088V22.5222C15.0598 22.4411 15.0721 22.3628 15.095 22.2892H13.8114C13.3448 22.2892 12.9664 21.9127 12.9664 21.4483V17.6179C12.9664 16.6016 13.6912 15.7537 14.6545 15.5582C14.757 15.5374 14.8621 15.524 14.9693 15.5186C14.9719 15.4837 14.9767 15.4485 14.9838 15.4132L15.3496 13.5931C15.5471 12.6106 16.4141 11.9033 17.4211 11.9033H22.7191C23.7648 11.9033 24.6531 12.6645 24.8082 13.6936L25.0735 15.4533ZM15.3449 15.2032L15.6561 13.6547C15.824 12.8192 16.5619 12.2159 17.4211 12.2159H22.7191C23.6113 12.2159 24.3672 12.8652 24.4991 13.7402L24.7197 15.2032H24.4975L24.2817 13.7717C24.1654 13.0002 23.5 12.4315 22.7191 12.4315H17.4211C16.669 12.4315 16.0197 12.9599 15.8717 13.6964L15.5689 15.2032H15.3449ZM15.3436 15.8284C15.3928 15.919 15.4682 15.9946 15.5608 16.044H24.4893C24.5818 15.9947 24.6573 15.9192 24.7067 15.8284H24.5917L24.6011 15.8907L15.4307 15.8907L15.4432 15.8284H15.3436ZM15.8249 15.5158H24.2285L23.9726 13.8183C23.8795 13.2009 23.3465 12.7441 22.7191 12.7441H17.4211C16.8169 12.7441 16.2967 13.1685 16.1782 13.758L15.8249 15.5158ZM15.3724 22.6018V23.3088C15.3724 23.5691 15.5849 23.7828 15.8503 23.7828C16.1156 23.7828 16.3281 23.5691 16.3281 23.3088V22.6018H15.3724ZM16.8081 21.9766H23.1926C23.2377 21.8981 23.2923 21.8257 23.3547 21.761H16.646C16.7084 21.8257 16.763 21.8981 16.8081 21.9766ZM23.6726 22.6018V23.3088C23.6726 23.5691 23.8851 23.7828 24.1504 23.7828C24.4158 23.7828 24.6283 23.5691 24.6283 23.3088V22.6018H23.6726ZM16.4557 19.1283C16.4557 19.4529 16.7206 19.7188 17.0506 19.7188C17.3807 19.7188 17.6456 19.4529 17.6456 19.1283C17.6456 18.8036 17.3807 18.5378 17.0506 18.5378C16.7206 18.5378 16.4557 18.8036 16.4557 19.1283ZM22.3551 19.1283C22.3551 19.4529 22.62 19.7188 22.9501 19.7188C23.2801 19.7188 23.545 19.4529 23.545 19.1283C23.545 18.8036 23.2801 18.5378 22.9501 18.5378C22.62 18.5378 22.3551 18.8036 22.3551 19.1283ZM17.0506 18.2251C16.5494 18.2251 16.143 18.6295 16.143 19.1283C16.143 19.627 16.5494 20.0314 17.0506 20.0314C17.5519 20.0314 17.9582 19.627 17.9582 19.1283C17.9582 18.6295 17.5519 18.2251 17.0506 18.2251ZM22.0425 19.1283C22.0425 18.6295 22.4488 18.2251 22.9501 18.2251C23.4513 18.2251 23.8577 18.6295 23.8577 19.1283C23.8577 19.627 23.4513 20.0314 22.9501 20.0314C22.4488 20.0314 22.0425 19.627 22.0425 19.1283Z" fill="white"/>
<path d="M15.079 16.3566H24.9218M15.079 16.3566C14.3789 16.3566 13.8114 16.9213 13.8114 17.6179M15.079 16.3566H15.492C15.5902 16.3967 15.6983 16.4189 15.8124 16.4189M15.079 16.3566C15.0399 16.3566 15.0012 16.3584 14.963 16.3618C14.3173 16.4201 13.8114 16.9602 13.8114 17.6179M24.9218 16.3566C25.6218 16.3566 26.1893 16.9213 26.1893 17.6179M24.9218 16.3566C24.9763 16.3566 25.0299 16.36 25.0826 16.3667C25.7067 16.4453 26.1893 16.9755 26.1893 17.6179M24.9218 16.3566H24.5581C24.4597 16.3967 24.3517 16.4189 24.2379 16.4189M13.8114 17.6179V21.4483H26.1893V17.6179M12.9664 17.6179C12.9664 16.4569 13.9122 15.5158 15.079 15.5158H24.9218C26.0885 15.5158 27.0343 16.4569 27.0343 17.6179M12.9664 17.6179V21.4483C12.9664 21.9127 13.3448 22.2892 13.8114 22.2892M12.9664 17.6179C12.9664 16.6016 13.6912 15.7537 14.6545 15.5582C14.757 15.5374 14.8621 15.524 14.9693 15.5186C14.9719 15.4837 14.9767 15.4485 14.9838 15.4132M13.8114 22.2892H26.1893M13.8114 22.2892H15.095C15.0721 22.3628 15.0598 22.4411 15.0598 22.5222M26.1893 22.2892C26.6559 22.2892 27.0343 21.9127 27.0343 21.4483V17.6179M26.1893 22.2892H24.9057C24.9286 22.3628 24.9409 22.4411 24.9409 22.5222M27.0343 17.6179C27.0343 16.619 26.3342 15.7829 25.3957 15.5689C25.2934 15.5456 25.1883 15.5296 25.081 15.5217C25.0795 15.499 25.077 15.4762 25.0735 15.4533M16.1782 13.758C16.2967 13.1685 16.8169 12.7441 17.4211 12.7441H22.7191C23.3465 12.7441 23.8795 13.2009 23.9726 13.8183M16.1782 13.758L15.8124 15.5781L24.2379 15.5781L23.9726 13.8183M16.1782 13.758L15.8249 15.5158H24.2285L23.9726 13.8183M14.9838 15.4132L15.3496 13.5931C15.5471 12.6106 16.4141 11.9033 17.4211 11.9033H22.7191C23.7648 11.9033 24.6531 12.6645 24.8082 13.6936L25.0735 15.4533M14.9838 15.4132C14.8792 15.9335 15.2791 16.4189 15.8124 16.4189M15.8124 16.4189H24.2379M24.2379 16.4189C24.7545 16.4189 25.1501 15.9617 25.0735 15.4533M16.6408 22.5222V23.3088C16.6408 23.7433 16.2868 24.0954 15.8503 24.0954C15.4137 24.0954 15.0598 23.7433 15.0598 23.3088V22.5222M16.6408 22.5222C16.6408 22.0878 16.2868 21.7357 15.8503 21.7357C15.4137 21.7357 15.0598 22.0878 15.0598 22.5222M16.6408 22.5222C16.6408 22.4411 16.6284 22.3628 16.6055 22.2892H23.3952C23.3723 22.3628 23.3599 22.4411 23.3599 22.5222M24.9409 22.5222V23.3088C24.9409 23.7433 24.587 24.0954 24.1504 24.0954C23.7139 24.0954 23.3599 23.7433 23.3599 23.3088V22.5222M24.9409 22.5222C24.9409 22.0878 24.587 21.7357 24.1504 21.7357C23.7139 21.7357 23.3599 22.0878 23.3599 22.5222M17.0506 20.0314C16.5494 20.0314 16.143 19.627 16.143 19.1283C16.143 18.6295 16.5494 18.2251 17.0506 18.2251C17.5519 18.2251 17.9582 18.6295 17.9582 19.1283C17.9582 19.627 17.5519 20.0314 17.0506 20.0314ZM22.9501 20.0314C22.4488 20.0314 22.0425 19.627 22.0425 19.1283C22.0425 18.6295 22.4488 18.2251 22.9501 18.2251C23.4513 18.2251 23.8577 18.6295 23.8577 19.1283C23.8577 19.627 23.4513 20.0314 22.9501 20.0314ZM13.4988 21.761V17.6179C13.4988 16.8538 14.0447 16.2188 14.7671 16.0747C14.7357 16.0094 14.7104 15.9408 14.6917 15.8699C13.8829 16.0461 13.279 16.7628 13.279 17.6179V21.4483C13.279 21.7386 13.5159 21.9766 13.8114 21.9766H14.8924C14.9375 21.8981 14.9921 21.8257 15.0545 21.761H13.4988ZM26.5019 17.6179C26.5019 16.8697 25.9785 16.2452 25.2784 16.0843C25.3103 16.0195 25.3363 15.9513 25.3556 15.8807C26.1409 16.0738 26.7217 16.7793 26.7217 17.6179V21.4483C26.7217 21.7386 26.4848 21.9766 26.1893 21.9766H25.1083C25.0632 21.8981 25.0086 21.8257 24.9462 21.761H26.5019V17.6179ZM15.3449 15.2032L15.6561 13.6547C15.824 12.8192 16.5619 12.2159 17.4211 12.2159H22.7191C23.6113 12.2159 24.3672 12.8652 24.4991 13.7402L24.7197 15.2032H24.4975L24.2817 13.7717C24.1654 13.0002 23.5 12.4315 22.7191 12.4315H17.4211C16.669 12.4315 16.0197 12.9599 15.8717 13.6964L15.5689 15.2032H15.3449ZM15.5608 16.044C15.4682 15.9946 15.3928 15.919 15.3436 15.8284H15.4432L15.4307 15.8907L24.6011 15.8907L24.5917 15.8284H24.7067C24.6573 15.9192 24.5818 15.9947 24.4893 16.044H15.5608ZM15.3724 23.3088V22.6018H16.3281V23.3088C16.3281 23.5691 16.1156 23.7828 15.8503 23.7828C15.5849 23.7828 15.3724 23.5691 15.3724 23.3088ZM23.1926 21.9766H16.8081C16.763 21.8981 16.7084 21.8257 16.646 21.761H23.3547C23.2923 21.8257 23.2377 21.8981 23.1926 21.9766ZM23.6726 23.3088V22.6018H24.6283V23.3088C24.6283 23.5691 24.4158 23.7828 24.1504 23.7828C23.8851 23.7828 23.6726 23.5691 23.6726 23.3088ZM17.0506 19.7188C16.7206 19.7188 16.4557 19.4529 16.4557 19.1283C16.4557 18.8036 16.7206 18.5378 17.0506 18.5378C17.3807 18.5378 17.6456 18.8036 17.6456 19.1283C17.6456 19.4529 17.3807 19.7188 17.0506 19.7188ZM22.9501 19.7188C22.62 19.7188 22.3551 19.4529 22.3551 19.1283C22.3551 18.8036 22.62 18.5378 22.9501 18.5378C23.2801 18.5378 23.545 18.8036 23.545 19.1283C23.545 19.4529 23.2801 19.7188 22.9501 19.7188Z" stroke="white"/>
<defs>
<filter id="filter0_d_10189_191453" x="0" y="0" width="40" height="40" filterUnits="userSpaceOnUse" color-interpolation-filters="sRGB">
<feFlood flood-opacity="0" result="BackgroundImageFix"/>
<feColorMatrix in="SourceAlpha" type="matrix" values="0 0 0 0 0 0 0 0 0 0 0 0 0 0 0 0 0 0 127 0" result="hardAlpha"/>
<feOffset dy="2"/>
<feGaussianBlur stdDeviation="2"/>
<feColorMatrix type="matrix" values="0 0 0 0 0.427083 0 0 0 0 0.671455 0 0 0 0 1 0 0 0 0.36 0"/>
<feBlend mode="normal" in2="BackgroundImageFix" result="effect1_dropShadow_10189_191453"/>
<feBlend mode="normal" in="SourceGraphic" in2="effect1_dropShadow_10189_191453" result="shape"/>
</filter>
<linearGradient id="paint0_linear_10189_191453" x1="10.5455" y1="2" x2="25.8182" y2="34" gradientUnits="userSpaceOnUse">
<stop stop-color="#5CA1FE"/>
<stop offset="1" stop-color="#217BF4"/>
</linearGradient>
</defs>
</svg>
