<svg width="21" height="21" viewBox="0 0 21 21" fill="none" xmlns="http://www.w3.org/2000/svg">
<g clip-path="url(#clip0_12190_207829)">
<path d="M6.125 19.25H16.625C17.0891 19.25 17.5342 19.0656 17.8624 18.7374C18.1906 18.4092 18.375 17.9641 18.375 17.5V6.5625L13.5625 1.75H6.125C5.66087 1.75 5.21575 1.93437 4.88756 2.26256C4.55937 2.59075 4.375 3.03587 4.375 3.5V7" stroke="white" stroke-width="2" stroke-linecap="round" stroke-linejoin="round"/>
<path d="M13.125 1.75V7H18.375" stroke="white" stroke-width="2" stroke-linecap="round" stroke-linejoin="round"/>
<path d="M15 15.3125L13.25 15.3125" stroke="white" stroke-width="2" stroke-linecap="round" stroke-linejoin="round"/>
<path d="M15 11.8125L13.25 11.8125" stroke="white" stroke-width="2" stroke-linecap="round" stroke-linejoin="round"/>
<path d="M9.625 6.125H7.875" stroke="white" stroke-width="2" stroke-linecap="round" stroke-linejoin="round"/>
<path d="M264 17.5C127.034 17.5 16 128.533 16 265.5C16 402.467 127.034 513.5 264 513.5C400.966 513.5 512 402.466 512 265.5C512 128.534 400.967 17.5 264 17.5ZM394.108 135.392C459.556 200.84 464.108 300.873 414.785 371.029L158.47 114.716C228.674 65.36 328.696 69.981 394.108 135.392ZM133.892 395.608C68.444 330.16 63.892 230.127 113.215 159.971L369.53 416.284C299.327 465.64 199.304 461.02 133.892 395.608Z" fill="black"/>
<path d="M2.02517 10.5251C0.658338 11.892 0.658328 14.108 2.02517 15.4749C3.39201 16.8417 5.60808 16.8417 6.97491 15.4749C8.34174 14.108 8.34174 11.892 6.97491 10.5251C5.60808 9.1583 3.39201 9.15829 2.02517 10.5251ZM4.50004 10.4032C5.80629 10.4032 6.84998 11.3561 7.05788 12.5484L1.9422 12.5484C2.15025 11.3553 3.19451 10.4032 4.50004 10.4032ZM4.50004 15.5968C3.19379 15.5968 2.1501 14.6439 1.9422 13.4516L7.05788 13.4516C6.84984 14.6447 5.80558 15.5968 4.50004 15.5968Z" fill="white"/>
</g>
<defs>
<clipPath id="clip0_12190_207829">
<rect width="21" height="21" fill="white"/>
</clipPath>
</defs>
</svg>
