<svg width="40" height="40" viewBox="0 0 40 40" fill="none" xmlns="http://www.w3.org/2000/svg">
<g filter="url(#filter0_d_10189_191526)">
<rect x="4" y="2" width="32" height="32" rx="10" fill="url(#paint0_linear_10189_191526)"/>
</g>
<g clip-path="url(#clip0_10189_191526)">
<path fill-rule="evenodd" clip-rule="evenodd" d="M12.1592 9.69534C12.2967 9.61072 12.4685 9.60302 12.6131 9.67501L15.204 10.9645L17.7949 9.67501C17.9217 9.61191 18.0704 9.6096 18.1991 9.66873L21.019 10.9643L23.3793 9.68269C23.5239 9.60419 23.6993 9.60737 23.8409 9.69105C23.9825 9.77473 24.0693 9.92651 24.0693 10.0904H23.6027C24.0693 10.0904 24.0693 10.0904 24.0693 10.0904V24.4888C24.0693 24.6152 24.1058 24.6835 24.1435 24.7285C24.188 24.7817 24.2595 24.8306 24.3593 24.8703C24.4581 24.9097 24.5634 24.9315 24.6486 24.9428C24.69 24.9483 24.7238 24.9509 24.7457 24.9522C24.7566 24.9528 24.7644 24.9531 24.7686 24.9532L24.7705 24.9532L24.7699 24.9532L24.7717 24.9532C25.0283 24.9546 25.2358 25.162 25.2358 25.4177C25.2358 25.6742 25.0269 25.8821 24.7692 25.8821H14.2708C12.9824 25.8821 11.9379 24.8424 11.9379 23.5598V10.0904C11.9379 9.92947 12.0216 9.77997 12.1592 9.69534ZM23.214 24.9532C23.1637 24.8135 23.1361 24.6584 23.1361 24.4888V10.8728L21.2599 11.8916C21.1303 11.9619 20.975 11.9671 20.8409 11.9055L18.0117 10.6057L15.4127 11.8993C15.2813 11.9646 15.1267 11.9646 14.9954 11.8993L12.8711 10.842V23.5598C12.8711 24.3294 13.4978 24.9532 14.2708 24.9532H23.214Z" fill="white"/>
<path fill-rule="evenodd" clip-rule="evenodd" d="M23.3694 18.9152H26.6356C27.151 18.9152 27.5688 19.3311 27.5688 19.8441V24.0243C27.5688 25.0504 26.7332 25.8821 25.7024 25.8821H25.2358C24.2051 25.8821 23.3694 25.0504 23.3694 24.0243V18.9152ZM24.3026 19.8441V24.0243C24.3026 24.5373 24.7204 24.9532 25.2358 24.9532H25.7024C26.2178 24.9532 26.6356 24.5373 26.6356 24.0243V19.8441H24.3026Z" fill="white"/>
<path d="M15.0641 14.9695C15.0641 14.7808 15.1762 14.6279 15.3146 14.6279H16.4398C16.5782 14.6279 16.6904 14.7808 16.6904 14.9695C16.6904 15.1582 16.5782 15.3111 16.4398 15.3111H15.3146C15.1762 15.3111 15.0641 15.1582 15.0641 14.9695Z" fill="white"/>
<path d="M15.0641 18.0377C15.0641 17.849 15.1762 17.6961 15.3146 17.6961H19.8154C19.9538 17.6961 20.066 17.849 20.066 18.0377C20.066 18.2264 19.9538 18.3793 19.8154 18.3793H15.3146C15.1762 18.3793 15.0641 18.2264 15.0641 18.0377Z" fill="white"/>
<path d="M15.0641 21.1639C15.0641 20.9752 15.1762 20.8222 15.3146 20.8222H19.8154C19.9538 20.8222 20.066 20.9752 20.066 21.1639C20.066 21.3525 19.9538 21.5055 19.8154 21.5055H15.3146C15.1762 21.5055 15.0641 21.3525 15.0641 21.1639Z" fill="white"/>
<path d="M24.0693 10.0904C24.0693 9.92651 23.9825 9.77473 23.8409 9.69105C23.6993 9.60737 23.5239 9.60419 23.3793 9.68269L21.019 10.9643L18.1991 9.66873C18.0704 9.6096 17.9217 9.61191 17.7949 9.67501L15.204 10.9645L12.6131 9.67501C12.4685 9.60302 12.2967 9.61072 12.1592 9.69534C12.0216 9.77997 11.9379 9.92947 11.9379 10.0904V23.5598C11.9379 24.8424 12.9824 25.8821 14.2708 25.8821H24.7692C25.0269 25.8821 25.2358 25.6742 25.2358 25.4177C25.2358 25.162 25.0283 24.9546 24.7717 24.9532L24.7699 24.9532L24.7705 24.9532L24.7686 24.9532C24.7644 24.9531 24.7566 24.9528 24.7457 24.9522C24.7238 24.9509 24.69 24.9483 24.6486 24.9428C24.5634 24.9315 24.4581 24.9097 24.3593 24.8703C24.2595 24.8306 24.188 24.7817 24.1435 24.7285C24.1058 24.6835 24.0693 24.6152 24.0693 24.4888V10.0904ZM24.0693 10.0904H23.6027C24.0693 10.0904 24.0693 10.0904 24.0693 10.0904ZM23.214 24.9532C23.1637 24.8135 23.1361 24.6584 23.1361 24.4888V10.8728L21.2599 11.8916C21.1303 11.9619 20.975 11.9671 20.8409 11.9055L18.0117 10.6057L15.4127 11.8993C15.2813 11.9646 15.1267 11.9646 14.9954 11.8993L12.8711 10.842V23.5598C12.8711 24.3294 13.4978 24.9532 14.2708 24.9532H23.214ZM23.3694 18.9152H26.6356C27.151 18.9152 27.5688 19.3311 27.5688 19.8441V24.0243C27.5688 25.0504 26.7332 25.8821 25.7024 25.8821H25.2358C24.2051 25.8821 23.3694 25.0504 23.3694 24.0243V18.9152ZM24.3026 19.8441V24.0243C24.3026 24.5373 24.7204 24.9532 25.2358 24.9532H25.7024C26.2178 24.9532 26.6356 24.5373 26.6356 24.0243V19.8441H24.3026ZM15.0641 14.9695C15.0641 14.7808 15.1762 14.6279 15.3146 14.6279H16.4398C16.5782 14.6279 16.6904 14.7808 16.6904 14.9695C16.6904 15.1582 16.5782 15.3111 16.4398 15.3111H15.3146C15.1762 15.3111 15.0641 15.1582 15.0641 14.9695ZM15.0641 18.0377C15.0641 17.849 15.1762 17.6961 15.3146 17.6961H19.8154C19.9538 17.6961 20.066 17.849 20.066 18.0377C20.066 18.2264 19.9538 18.3793 19.8154 18.3793H15.3146C15.1762 18.3793 15.0641 18.2264 15.0641 18.0377ZM15.0641 21.1639C15.0641 20.9752 15.1762 20.8222 15.3146 20.8222H19.8154C19.9538 20.8222 20.066 20.9752 20.066 21.1639C20.066 21.3525 19.9538 21.5055 19.8154 21.5055H15.3146C15.1762 21.5055 15.0641 21.3525 15.0641 21.1639Z" stroke="white" stroke-width="0.5"/>
</g>
<defs>
<filter id="filter0_d_10189_191526" x="0" y="0" width="40" height="40" filterUnits="userSpaceOnUse" color-interpolation-filters="sRGB">
<feFlood flood-opacity="0" result="BackgroundImageFix"/>
<feColorMatrix in="SourceAlpha" type="matrix" values="0 0 0 0 0 0 0 0 0 0 0 0 0 0 0 0 0 0 127 0" result="hardAlpha"/>
<feOffset dy="2"/>
<feGaussianBlur stdDeviation="2"/>
<feColorMatrix type="matrix" values="0 0 0 0 0.427083 0 0 0 0 0.671455 0 0 0 0 1 0 0 0 0.36 0"/>
<feBlend mode="normal" in2="BackgroundImageFix" result="effect1_dropShadow_10189_191526"/>
<feBlend mode="normal" in="SourceGraphic" in2="effect1_dropShadow_10189_191526" result="shape"/>
</filter>
<linearGradient id="paint0_linear_10189_191526" x1="10.5455" y1="2" x2="25.8182" y2="34" gradientUnits="userSpaceOnUse">
<stop stop-color="#FFCE80"/>
<stop offset="1" stop-color="#FF6813"/>
</linearGradient>
<clipPath id="clip0_10189_191526">
<rect width="17.194" height="17.194" fill="white" transform="translate(11 9.00073)"/>
</clipPath>
</defs>
</svg>
