<svg width="40" height="40" viewBox="0 0 40 40" fill="none" xmlns="http://www.w3.org/2000/svg">
<g filter="url(#filter0_d_10189_191399)">
<rect x="4" y="2" width="32" height="32" rx="10" fill="url(#paint0_linear_10189_191399)"/>
</g>
<g clip-path="url(#clip0_10189_191399)">
<path fill-rule="evenodd" clip-rule="evenodd" d="M13.8075 10.3339C14.1688 9.97259 14.6588 9.76961 15.1698 9.76961H21.4729C21.5659 9.76961 21.6552 9.80658 21.721 9.87238L26.4482 14.5997C26.5141 14.6655 26.551 14.7547 26.551 14.8478V24.3023C26.551 24.8133 26.348 25.3034 25.9867 25.6647C25.6254 26.026 25.1353 26.229 24.6244 26.229H15.1698C14.6588 26.229 14.1688 26.026 13.8075 25.6647C13.4462 25.3034 13.2432 24.8133 13.2432 24.3023V11.6963C13.2432 11.1853 13.4462 10.6952 13.8075 10.3339ZM15.1698 10.4714C14.845 10.4714 14.5334 10.6005 14.3037 10.8302C14.074 11.0599 13.945 11.3714 13.945 11.6963V24.3023C13.945 24.6272 14.074 24.9387 14.3037 25.1684C14.5334 25.3981 14.845 25.5272 15.1698 25.5272H24.6244C24.9492 25.5272 25.2608 25.3981 25.4905 25.1684C25.7202 24.9387 25.8492 24.6272 25.8492 24.3023V15.1987H21.4728C21.3798 15.1987 21.2905 15.1617 21.2247 15.0959C21.1589 15.0301 21.122 14.9408 21.122 14.8478L21.122 10.4714H15.1698ZM21.8237 10.9677L25.353 14.4969L21.8237 14.4969L21.8237 10.9677ZM19.5767 17.2249C19.7137 17.0879 19.9359 17.0879 20.073 17.2249L21.1257 18.2776C21.2275 18.3794 21.2536 18.5283 21.2041 18.6543L23.2272 19.0589C23.3612 19.0857 23.4674 19.1878 23.4995 19.3206L24.7276 24.4087C24.7563 24.5275 24.7211 24.6527 24.6346 24.7391C24.5482 24.8255 24.423 24.8608 24.3042 24.8321L19.2162 23.6039C19.0833 23.5719 18.9812 23.4656 18.9544 23.3317L18.5498 21.3086C18.4238 21.3581 18.2749 21.332 18.1731 21.2301L17.1204 20.1774C16.9834 20.0404 16.9834 19.8182 17.1204 19.6812L19.5767 17.2249ZM18.4212 20.4858L20.2785 18.6285C20.2785 18.6284 20.2785 18.6285 20.2785 18.6285L20.3813 18.5257L19.8248 17.9693L17.8648 19.9293L18.4212 20.4858ZM19.1531 20.7464L19.5986 22.9743L23.2565 23.8573L21.6823 22.283C21.5449 22.3488 21.3909 22.3856 21.2284 22.3856C20.647 22.3856 20.1757 21.9143 20.1757 21.3329C20.1757 20.7515 20.647 20.2802 21.2284 20.2802C21.8098 20.2802 22.2811 20.7515 22.2811 21.3329C22.2811 21.4954 22.2443 21.6493 22.1785 21.7868L23.7528 23.361L22.8698 19.7031L20.642 19.2575L19.1531 20.7464ZM21.4809 21.5766C21.5418 21.5135 21.5793 21.4276 21.5793 21.3329C21.5793 21.1391 21.4222 20.982 21.2284 20.982C21.0346 20.982 20.8775 21.1391 20.8775 21.3329C20.8775 21.5267 21.0346 21.6838 21.2284 21.6838C21.3231 21.6838 21.409 21.6463 21.4722 21.5853C21.4736 21.5839 21.475 21.5824 21.4765 21.5809C21.4779 21.5795 21.4794 21.578 21.4809 21.5766Z" fill="white"/>
<path d="M20.2785 18.6285C20.2785 18.6285 20.2785 18.6284 20.2785 18.6285ZM20.2785 18.6285L20.3813 18.5257L19.8248 17.9693L17.8648 19.9293L18.4212 20.4858L20.2785 18.6285ZM15.1698 9.76961C14.6588 9.76961 14.1688 9.97259 13.8075 10.3339C13.4462 10.6952 13.2432 11.1853 13.2432 11.6963V24.3023C13.2432 24.8133 13.4462 25.3034 13.8075 25.6647C14.1688 26.026 14.6588 26.229 15.1698 26.229H24.6244C25.1353 26.229 25.6254 26.026 25.9867 25.6647C26.348 25.3034 26.551 24.8133 26.551 24.3023V14.8478C26.551 14.7547 26.5141 14.6655 26.4482 14.5997L21.721 9.87238C21.6552 9.80658 21.5659 9.76961 21.4729 9.76961H15.1698ZM14.3037 10.8302C14.5334 10.6005 14.845 10.4714 15.1698 10.4714H21.122L21.122 14.8478C21.122 14.9408 21.1589 15.0301 21.2247 15.0959C21.2905 15.1617 21.3798 15.1987 21.4729 15.1987L25.8492 15.1987V24.3023C25.8492 24.6272 25.7202 24.9387 25.4905 25.1684C25.2608 25.3981 24.9492 25.5272 24.6244 25.5272H15.1698C14.845 25.5272 14.5334 25.3981 14.3037 25.1684C14.074 24.9387 13.945 24.6272 13.945 24.3023V11.6963C13.945 11.3714 14.074 11.0599 14.3037 10.8302ZM21.8237 10.9677L25.353 14.4969L21.8237 14.4969L21.8237 10.9677ZM20.073 17.2249C19.9359 17.0879 19.7137 17.0879 19.5767 17.2249L17.1204 19.6812C16.9834 19.8182 16.9834 20.0404 17.1204 20.1774L18.1731 21.2301C18.2749 21.332 18.4238 21.3581 18.5498 21.3086L18.9544 23.3317C18.9812 23.4656 19.0833 23.5719 19.2162 23.6039L24.3042 24.8321C24.423 24.8608 24.5482 24.8255 24.6346 24.7391C24.7211 24.6527 24.7563 24.5275 24.7276 24.4087L23.4995 19.3206C23.4674 19.1878 23.3612 19.0857 23.2272 19.0589L21.2041 18.6543C21.2536 18.5283 21.2275 18.3794 21.1257 18.2776L20.073 17.2249ZM19.5986 22.9743L19.1531 20.7464L20.642 19.2575L22.8698 19.7031L23.7528 23.361L22.1785 21.7868C22.2443 21.6493 22.2811 21.4954 22.2811 21.3329C22.2811 20.7515 21.8098 20.2802 21.2284 20.2802C20.647 20.2802 20.1757 20.7515 20.1757 21.3329C20.1757 21.9143 20.647 22.3856 21.2284 22.3856C21.3909 22.3856 21.5449 22.3488 21.6823 22.283L23.2565 23.8573L19.5986 22.9743ZM21.5793 21.3329C21.5793 21.4276 21.5418 21.5135 21.4809 21.5766C21.4794 21.578 21.4779 21.5795 21.4765 21.5809C21.475 21.5824 21.4736 21.5839 21.4722 21.5853C21.409 21.6463 21.3231 21.6838 21.2284 21.6838C21.0346 21.6838 20.8775 21.5267 20.8775 21.3329C20.8775 21.1391 21.0346 20.982 21.2284 20.982C21.4222 20.982 21.5793 21.1391 21.5793 21.3329Z" stroke="white" stroke-width="0.5" stroke-linecap="round" stroke-linejoin="round"/>
</g>
<defs>
<filter id="filter0_d_10189_191399" x="0" y="0" width="40" height="40" filterUnits="userSpaceOnUse" color-interpolation-filters="sRGB">
<feFlood flood-opacity="0" result="BackgroundImageFix"/>
<feColorMatrix in="SourceAlpha" type="matrix" values="0 0 0 0 0 0 0 0 0 0 0 0 0 0 0 0 0 0 127 0" result="hardAlpha"/>
<feOffset dy="2"/>
<feGaussianBlur stdDeviation="2"/>
<feColorMatrix type="matrix" values="0 0 0 0 0.427083 0 0 0 0 0.671455 0 0 0 0 1 0 0 0 0.36 0"/>
<feBlend mode="normal" in2="BackgroundImageFix" result="effect1_dropShadow_10189_191399"/>
<feBlend mode="normal" in="SourceGraphic" in2="effect1_dropShadow_10189_191399" result="shape"/>
</filter>
<linearGradient id="paint0_linear_10189_191399" x1="10.5455" y1="2" x2="25.8182" y2="34" gradientUnits="userSpaceOnUse">
<stop stop-color="#C3AEF0"/>
<stop offset="1" stop-color="#7F5EC4"/>
</linearGradient>
<clipPath id="clip0_10189_191399">
<rect x="11.4033" y="9.40234" width="17.194" height="17.194" rx="5" fill="white"/>
</clipPath>
</defs>
</svg>
