<svg width="40" height="40" viewBox="0 0 40 40" fill="none" xmlns="http://www.w3.org/2000/svg">
<g filter="url(#filter0_d_10189_191497)">
<rect x="4" y="2" width="32" height="32" rx="10" fill="url(#paint0_linear_10189_191497)"/>
</g>
<g clip-path="url(#clip0_10189_191497)">
<path fill-rule="evenodd" clip-rule="evenodd" d="M17.5903 10.9291C17.7512 11.2971 17.5834 11.7259 17.2154 11.8868C16.2192 12.3226 15.3445 12.9964 14.6678 13.8495C13.9911 14.7026 13.5332 15.709 13.334 16.7808C13.1349 17.8526 13.2008 18.9569 13.5258 19.9972C13.8509 21.0375 14.4251 21.982 15.1983 22.7482C15.9714 23.5144 16.9199 24.0789 17.9608 24.3926C19.0016 24.7063 20.1032 24.7596 21.1693 24.548C22.2354 24.3363 23.2337 23.8661 24.0768 23.1783C24.92 22.4904 25.5824 21.6059 26.006 20.6019C26.1621 20.2318 26.5887 20.0584 26.9587 20.2145C27.3288 20.3706 27.5023 20.7972 27.3461 21.1672C26.8304 22.3898 26.0237 23.4673 24.9963 24.3054C23.9689 25.1435 22.7522 25.7167 21.4525 25.9747C20.1528 26.2327 18.8098 26.1677 17.541 25.7853C16.2722 25.4029 15.1164 24.7148 14.1745 23.7814C13.2325 22.848 12.5332 21.6976 12.1375 20.431C11.7417 19.1644 11.6616 17.8199 11.904 16.5151C12.1464 15.2103 12.704 13.9847 13.5282 12.9456C14.3525 11.9064 15.4183 11.0853 16.6325 10.5542C17.0005 10.3932 17.4293 10.5611 17.5903 10.9291Z" fill="white"/>
<path fill-rule="evenodd" clip-rule="evenodd" d="M19.6163 9.97899C19.7527 9.8426 19.9377 9.76598 20.1306 9.76598C21.1862 9.76598 22.2306 9.98434 23.2038 10.4076C24.1769 10.8308 25.0587 11.4501 25.7998 12.2283C26.5409 13.0064 27.127 13.9283 27.5263 14.9404C27.9255 15.9525 28.1306 17.0361 28.1306 18.1296C28.1306 18.5313 27.805 18.8569 27.4033 18.8569H20.1306C19.7289 18.8569 19.4033 18.5313 19.4033 18.1296V10.4932C19.4033 10.3004 19.48 10.1154 19.6163 9.97899ZM20.8579 11.2633V17.4023H26.6397C26.5733 16.7402 26.4164 16.0907 26.1732 15.4742C25.8415 14.6333 25.3562 13.8715 24.7466 13.2315C24.137 12.5914 23.4153 12.0858 22.6237 11.7415C22.0576 11.4953 21.4632 11.3348 20.8579 11.2633Z" fill="white"/>
<path fill-rule="evenodd" clip-rule="evenodd" d="M17.5903 10.9291C17.7512 11.2971 17.5834 11.7259 17.2154 11.8868C16.2192 12.3226 15.3445 12.9964 14.6678 13.8495C13.9911 14.7026 13.5332 15.709 13.334 16.7808C13.1349 17.8526 13.2008 18.9569 13.5258 19.9972C13.8509 21.0375 14.4251 21.982 15.1983 22.7482C15.9714 23.5144 16.9199 24.0789 17.9608 24.3926C19.0016 24.7063 20.1032 24.7596 21.1693 24.548C22.2354 24.3363 23.2337 23.8661 24.0768 23.1783C24.92 22.4904 25.5824 21.6059 26.006 20.6019C26.1621 20.2318 26.5887 20.0584 26.9587 20.2145C27.3288 20.3706 27.5023 20.7972 27.3461 21.1672C26.8304 22.3898 26.0237 23.4673 24.9963 24.3054C23.9689 25.1435 22.7522 25.7167 21.4525 25.9747C20.1528 26.2327 18.8098 26.1677 17.541 25.7853C16.2722 25.4029 15.1164 24.7148 14.1745 23.7814C13.2325 22.848 12.5332 21.6976 12.1375 20.431C11.7417 19.1644 11.6616 17.8199 11.904 16.5151C12.1464 15.2103 12.704 13.9847 13.5282 12.9456C14.3525 11.9064 15.4183 11.0853 16.6325 10.5542C17.0005 10.3932 17.4293 10.5611 17.5903 10.9291Z" stroke="white" stroke-linecap="round" stroke-linejoin="round"/>
<path fill-rule="evenodd" clip-rule="evenodd" d="M19.6163 9.97899C19.7527 9.8426 19.9377 9.76598 20.1306 9.76598C21.1862 9.76598 22.2306 9.98434 23.2038 10.4076C24.1769 10.8308 25.0587 11.4501 25.7998 12.2283C26.5409 13.0064 27.127 13.9283 27.5263 14.9404C27.9255 15.9525 28.1306 17.0361 28.1306 18.1296C28.1306 18.5313 27.805 18.8569 27.4033 18.8569H20.1306C19.7289 18.8569 19.4033 18.5313 19.4033 18.1296V10.4932C19.4033 10.3004 19.48 10.1154 19.6163 9.97899ZM20.8579 11.2633V17.4023H26.6397C26.5733 16.7402 26.4164 16.0907 26.1732 15.4742C25.8415 14.6333 25.3562 13.8715 24.7466 13.2315C24.137 12.5914 23.4153 12.0858 22.6237 11.7415C22.0576 11.4953 21.4632 11.3348 20.8579 11.2633Z" stroke="white" stroke-linecap="round" stroke-linejoin="round"/>
</g>
<defs>
<filter id="filter0_d_10189_191497" x="0" y="0" width="40" height="40" filterUnits="userSpaceOnUse" color-interpolation-filters="sRGB">
<feFlood flood-opacity="0" result="BackgroundImageFix"/>
<feColorMatrix in="SourceAlpha" type="matrix" values="0 0 0 0 0 0 0 0 0 0 0 0 0 0 0 0 0 0 127 0" result="hardAlpha"/>
<feOffset dy="2"/>
<feGaussianBlur stdDeviation="2"/>
<feColorMatrix type="matrix" values="0 0 0 0 0.427083 0 0 0 0 0.671455 0 0 0 0 1 0 0 0 0.36 0"/>
<feBlend mode="normal" in2="BackgroundImageFix" result="effect1_dropShadow_10189_191497"/>
<feBlend mode="normal" in="SourceGraphic" in2="effect1_dropShadow_10189_191497" result="shape"/>
</filter>
<linearGradient id="paint0_linear_10189_191497" x1="10.5455" y1="2" x2="25.8182" y2="34" gradientUnits="userSpaceOnUse">
<stop stop-color="#5CA1FE"/>
<stop offset="1" stop-color="#217BF4"/>
</linearGradient>
<clipPath id="clip0_10189_191497">
<rect x="11.4033" y="9.40234" width="17.194" height="17.194" rx="5" fill="white"/>
</clipPath>
</defs>
</svg>
