<svg width="40" height="40" viewBox="0 0 40 40" fill="none" xmlns="http://www.w3.org/2000/svg">
<g filter="url(#filter0_d_10189_191412)">
<rect x="4" y="2" width="32" height="32" rx="10" fill="url(#paint0_linear_10189_191412)"/>
</g>
<path d="M20.5974 22.7059L24.7068 18.5964L26.468 20.3576L22.3586 24.467L20.5974 22.7059Z" fill="white"/>
<path d="M14.8904 13.4037L16.7815 21.2382L21.1845 22.1188L24.1198 19.1835L23.2392 14.7805L15.4046 12.8894L19.4374 16.9221C19.4508 16.9356 19.4629 16.9498 19.4738 16.9646C19.6346 16.8819 19.817 16.8352 20.0103 16.8352C20.6588 16.8352 21.1844 17.3609 21.1844 18.0093C21.1844 18.6578 20.6588 19.1834 20.0103 19.1834C19.3619 19.1834 18.8362 18.6578 18.8362 18.0093C18.8362 17.816 18.8829 17.6337 18.9656 17.4729C18.9508 17.462 18.9365 17.4498 18.9231 17.4364L14.8904 13.4037Z" fill="white"/>
<rect x="12.1533" y="10.1523" width="15.694" height="15.694" rx="4.25" stroke="white" stroke-width="1.5"/>
<defs>
<filter id="filter0_d_10189_191412" x="0" y="0" width="40" height="40" filterUnits="userSpaceOnUse" color-interpolation-filters="sRGB">
<feFlood flood-opacity="0" result="BackgroundImageFix"/>
<feColorMatrix in="SourceAlpha" type="matrix" values="0 0 0 0 0 0 0 0 0 0 0 0 0 0 0 0 0 0 127 0" result="hardAlpha"/>
<feOffset dy="2"/>
<feGaussianBlur stdDeviation="2"/>
<feColorMatrix type="matrix" values="0 0 0 0 0.427083 0 0 0 0 0.671455 0 0 0 0 1 0 0 0 0.36 0"/>
<feBlend mode="normal" in2="BackgroundImageFix" result="effect1_dropShadow_10189_191412"/>
<feBlend mode="normal" in="SourceGraphic" in2="effect1_dropShadow_10189_191412" result="shape"/>
</filter>
<linearGradient id="paint0_linear_10189_191412" x1="10.5455" y1="2" x2="25.8182" y2="34" gradientUnits="userSpaceOnUse">
<stop stop-color="#3AD0FF"/>
<stop offset="1" stop-color="#06AEE3"/>
</linearGradient>
</defs>
</svg>
