<svg width="40" height="40" viewBox="0 0 40 40" fill="none" xmlns="http://www.w3.org/2000/svg">
<g filter="url(#filter0_d_10189_191513)">
<rect x="4" y="2" width="32" height="32" rx="10" fill="url(#paint0_linear_10189_191513)"/>
</g>
<g clip-path="url(#clip0_10189_191513)">
<path d="M25.7552 9.76599H14.1423C12.8326 9.76599 11.767 10.8316 11.767 12.1414V23.7543C11.767 25.064 12.8326 26.1296 14.1423 26.1296H25.7552C27.065 26.1296 28.1306 25.064 28.1306 23.7543V12.1414C28.1306 10.8316 27.065 9.76599 25.7552 9.76599ZM27.6027 23.7543C27.6027 24.773 26.7739 25.6018 25.7552 25.6018H14.1423C13.1236 25.6018 12.2948 24.773 12.2948 23.7543V12.1414C12.2948 11.1227 13.1236 10.2939 14.1423 10.2939H25.7552C26.7739 10.2939 27.6027 11.1227 27.6027 12.1414V23.7543Z" fill="white"/>
<path d="M26.811 17.6839H20.2127V11.0856C20.2127 10.9399 20.0945 10.8217 19.9488 10.8217C19.803 10.8217 19.6849 10.9399 19.6849 11.0856V17.6839H13.0866C12.9409 17.6839 12.8227 17.8021 12.8227 17.9478C12.8227 18.0936 12.9409 18.2117 13.0866 18.2117H19.6849V24.81C19.6849 24.9557 19.803 25.0739 19.9488 25.0739C20.0945 25.0739 20.2127 24.9557 20.2127 24.81V18.2117H26.811C26.9567 18.2117 27.0749 18.0936 27.0749 17.9478C27.0749 17.8021 26.9567 17.6839 26.811 17.6839Z" fill="white"/>
<path d="M13.8784 14.2528H15.7259V16.1003C15.7259 16.2461 15.8441 16.3642 15.9898 16.3642C16.1356 16.3642 16.2538 16.2461 16.2538 16.1003V14.2528H18.1013C18.247 14.2528 18.3652 14.1346 18.3652 13.9889C18.3652 13.8431 18.247 13.7249 18.1013 13.7249H16.2538V11.8774C16.2538 11.7317 16.1356 11.6135 15.9898 11.6135C15.8441 11.6135 15.7259 11.7317 15.7259 11.8774V13.7249H13.8784C13.7326 13.7249 13.6145 13.8431 13.6145 13.9889C13.6145 14.1346 13.7326 14.2528 13.8784 14.2528Z" fill="white"/>
<path d="M21.7963 14.2528H26.0192C26.1649 14.2528 26.2831 14.1346 26.2831 13.9889C26.2831 13.8431 26.1649 13.7249 26.0192 13.7249H21.7963C21.6505 13.7249 21.5324 13.8431 21.5324 13.9889C21.5324 14.1346 21.6505 14.2528 21.7963 14.2528Z" fill="white"/>
<path d="M26.0192 21.6428H21.7963C21.6505 21.6428 21.5324 21.761 21.5324 21.9067C21.5324 22.0525 21.6505 22.1707 21.7963 22.1707H26.0192C26.1649 22.1707 26.2831 22.0525 26.2831 21.9067C26.2831 21.761 26.1649 21.6428 26.0192 21.6428Z" fill="white"/>
<path d="M17.76 20.1365C17.657 20.0335 17.4899 20.0335 17.3868 20.1365L15.9898 21.5335L14.5929 20.1366C14.4898 20.0335 14.3227 20.0335 14.2197 20.1366C14.1166 20.2396 14.1166 20.4067 14.2197 20.5098L15.6166 21.9068L14.2197 23.3037C14.1166 23.4068 14.1166 23.5739 14.2197 23.6769C14.2712 23.7285 14.3387 23.7543 14.4063 23.7543C14.4738 23.7543 14.5414 23.7285 14.5929 23.677L15.9898 22.28L17.3868 23.6769C17.4383 23.7285 17.5058 23.7542 17.5734 23.7542C17.641 23.7542 17.7085 23.7285 17.76 23.6769C17.8631 23.5739 17.8631 23.4068 17.76 23.3037L16.3631 21.9068L17.76 20.5098C17.8631 20.4067 17.8631 20.2396 17.76 20.1365Z" fill="white"/>
<path d="M24.6995 19.9036C24.6995 19.467 24.3443 19.1118 23.9077 19.1118C23.4711 19.1118 23.1159 19.467 23.1159 19.9036C23.1159 20.3402 23.4711 20.6954 23.9077 20.6954C24.3443 20.6954 24.6995 20.3402 24.6995 19.9036ZM23.6438 19.9036C23.6438 19.7581 23.7622 19.6397 23.9077 19.6397C24.0532 19.6397 24.1717 19.7581 24.1717 19.9036C24.1717 20.0491 24.0532 20.1675 23.9077 20.1675C23.7622 20.1675 23.6438 20.0491 23.6438 19.9036Z" fill="white"/>
<path d="M23.9077 23.1181C23.4711 23.1181 23.1159 23.4733 23.1159 23.9099C23.1159 24.3465 23.4711 24.7017 23.9077 24.7017C24.3443 24.7017 24.6995 24.3465 24.6995 23.9099C24.6995 23.4733 24.3443 23.1181 23.9077 23.1181ZM23.9077 24.1738C23.7622 24.1738 23.6438 24.0554 23.6438 23.9099C23.6438 23.7644 23.7622 23.646 23.9077 23.646C24.0532 23.646 24.1717 23.7644 24.1717 23.9099C24.1717 24.0554 24.0532 24.1738 23.9077 24.1738Z" fill="white"/>
<path d="M25.7552 9.76599H14.1423C12.8326 9.76599 11.767 10.8316 11.767 12.1414V23.7543C11.767 25.064 12.8326 26.1296 14.1423 26.1296H25.7552C27.065 26.1296 28.1306 25.064 28.1306 23.7543V12.1414C28.1306 10.8316 27.065 9.76599 25.7552 9.76599ZM27.6027 23.7543C27.6027 24.773 26.7739 25.6018 25.7552 25.6018H14.1423C13.1236 25.6018 12.2948 24.773 12.2948 23.7543V12.1414C12.2948 11.1227 13.1236 10.2939 14.1423 10.2939H25.7552C26.7739 10.2939 27.6027 11.1227 27.6027 12.1414V23.7543Z" stroke="white"/>
<path d="M26.811 17.6839H20.2127V11.0856C20.2127 10.9399 20.0945 10.8217 19.9488 10.8217C19.803 10.8217 19.6849 10.9399 19.6849 11.0856V17.6839H13.0866C12.9409 17.6839 12.8227 17.8021 12.8227 17.9478C12.8227 18.0936 12.9409 18.2117 13.0866 18.2117H19.6849V24.81C19.6849 24.9557 19.803 25.0739 19.9488 25.0739C20.0945 25.0739 20.2127 24.9557 20.2127 24.81V18.2117H26.811C26.9567 18.2117 27.0749 18.0936 27.0749 17.9478C27.0749 17.8021 26.9567 17.6839 26.811 17.6839Z" stroke="white"/>
<path d="M13.8784 14.2528H15.7259V16.1003C15.7259 16.2461 15.8441 16.3642 15.9898 16.3642C16.1356 16.3642 16.2538 16.2461 16.2538 16.1003V14.2528H18.1013C18.247 14.2528 18.3652 14.1346 18.3652 13.9889C18.3652 13.8431 18.247 13.7249 18.1013 13.7249H16.2538V11.8774C16.2538 11.7317 16.1356 11.6135 15.9898 11.6135C15.8441 11.6135 15.7259 11.7317 15.7259 11.8774V13.7249H13.8784C13.7326 13.7249 13.6145 13.8431 13.6145 13.9889C13.6145 14.1346 13.7326 14.2528 13.8784 14.2528Z" stroke="white"/>
<path d="M21.7963 14.2528H26.0192C26.1649 14.2528 26.2831 14.1346 26.2831 13.9889C26.2831 13.8431 26.1649 13.7249 26.0192 13.7249H21.7963C21.6505 13.7249 21.5324 13.8431 21.5324 13.9889C21.5324 14.1346 21.6505 14.2528 21.7963 14.2528Z" stroke="white"/>
<path d="M26.0192 21.6428H21.7963C21.6505 21.6428 21.5324 21.761 21.5324 21.9067C21.5324 22.0525 21.6505 22.1707 21.7963 22.1707H26.0192C26.1649 22.1707 26.2831 22.0525 26.2831 21.9067C26.2831 21.761 26.1649 21.6428 26.0192 21.6428Z" stroke="white"/>
<path d="M17.76 20.1365C17.657 20.0335 17.4899 20.0335 17.3868 20.1365L15.9898 21.5335L14.5929 20.1366C14.4898 20.0335 14.3227 20.0335 14.2197 20.1366C14.1166 20.2396 14.1166 20.4067 14.2197 20.5098L15.6166 21.9068L14.2197 23.3037C14.1166 23.4068 14.1166 23.5739 14.2197 23.6769C14.2712 23.7285 14.3387 23.7543 14.4063 23.7543C14.4738 23.7543 14.5414 23.7285 14.5929 23.677L15.9898 22.28L17.3868 23.6769C17.4383 23.7285 17.5058 23.7542 17.5734 23.7542C17.641 23.7542 17.7085 23.7285 17.76 23.6769C17.8631 23.5739 17.8631 23.4068 17.76 23.3037L16.3631 21.9068L17.76 20.5098C17.8631 20.4067 17.8631 20.2396 17.76 20.1365Z" stroke="white"/>
<path d="M24.6995 19.9036C24.6995 19.467 24.3443 19.1118 23.9077 19.1118C23.4711 19.1118 23.1159 19.467 23.1159 19.9036C23.1159 20.3402 23.4711 20.6954 23.9077 20.6954C24.3443 20.6954 24.6995 20.3402 24.6995 19.9036ZM23.6438 19.9036C23.6438 19.7581 23.7622 19.6397 23.9077 19.6397C24.0532 19.6397 24.1717 19.7581 24.1717 19.9036C24.1717 20.0491 24.0532 20.1675 23.9077 20.1675C23.7622 20.1675 23.6438 20.0491 23.6438 19.9036Z" stroke="white"/>
<path d="M23.9077 23.1181C23.4711 23.1181 23.1159 23.4733 23.1159 23.9099C23.1159 24.3465 23.4711 24.7017 23.9077 24.7017C24.3443 24.7017 24.6995 24.3465 24.6995 23.9099C24.6995 23.4733 24.3443 23.1181 23.9077 23.1181ZM23.9077 24.1738C23.7622 24.1738 23.6438 24.0554 23.6438 23.9099C23.6438 23.7644 23.7622 23.646 23.9077 23.646C24.0532 23.646 24.1717 23.7644 24.1717 23.9099C24.1717 24.0554 24.0532 24.1738 23.9077 24.1738Z" stroke="white"/>
</g>
<defs>
<filter id="filter0_d_10189_191513" x="0" y="0" width="40" height="40" filterUnits="userSpaceOnUse" color-interpolation-filters="sRGB">
<feFlood flood-opacity="0" result="BackgroundImageFix"/>
<feColorMatrix in="SourceAlpha" type="matrix" values="0 0 0 0 0 0 0 0 0 0 0 0 0 0 0 0 0 0 127 0" result="hardAlpha"/>
<feOffset dy="2"/>
<feGaussianBlur stdDeviation="2"/>
<feColorMatrix type="matrix" values="0 0 0 0 0.427083 0 0 0 0 0.671455 0 0 0 0 1 0 0 0 0.36 0"/>
<feBlend mode="normal" in2="BackgroundImageFix" result="effect1_dropShadow_10189_191513"/>
<feBlend mode="normal" in="SourceGraphic" in2="effect1_dropShadow_10189_191513" result="shape"/>
</filter>
<linearGradient id="paint0_linear_10189_191513" x1="10.5455" y1="2" x2="25.8182" y2="34" gradientUnits="userSpaceOnUse">
<stop stop-color="#C3AEF0"/>
<stop offset="1" stop-color="#7F5EC4"/>
</linearGradient>
<clipPath id="clip0_10189_191513">
<rect width="17.194" height="17.194" fill="white" transform="translate(11.4033 9.40234)"/>
</clipPath>
</defs>
</svg>
