<svg width="40" height="40" viewBox="0 0 40 40" fill="none" xmlns="http://www.w3.org/2000/svg">
<g filter="url(#filter0_d_10189_191405)">
<rect x="4" y="2" width="32" height="32" rx="10" fill="url(#paint0_linear_10189_191405)"/>
</g>
<g clip-path="url(#clip0_10189_191405)">
<path fill-rule="evenodd" clip-rule="evenodd" d="M20.0228 11.0582C19.3705 11.0582 18.8418 11.594 18.8418 12.255C18.8418 12.9159 19.3705 13.4517 20.0228 13.4517C20.6751 13.4517 21.2039 12.9159 21.2039 12.255C21.2039 11.594 20.6751 11.0582 20.0228 11.0582ZM18.1653 11.9014C18.329 11.0128 19.0984 10.3402 20.0228 10.3402C20.9475 10.3402 21.717 11.0131 21.8805 11.9021C21.9017 11.8981 21.9235 11.896 21.9459 11.896H25.1169C25.3126 11.896 25.4712 12.0567 25.4712 12.255C25.4712 12.4533 25.3126 12.614 25.1169 12.614H21.9459C21.9235 12.614 21.9017 12.6119 21.8805 12.6079C21.717 13.4968 20.9475 14.1698 20.0228 14.1698C19.0984 14.1698 18.329 13.4972 18.1653 12.6086C18.1452 12.6121 18.1246 12.614 18.1036 12.614L15.2382 12.614L15.2382 17.2813H18.1036C18.1246 17.2813 18.1452 17.2832 18.1653 17.2867C18.329 16.3981 19.0984 15.7255 20.0228 15.7255C20.9475 15.7255 21.717 16.3985 21.8805 17.2874C21.9017 17.2834 21.9235 17.2813 21.9459 17.2813H25.1169C25.3126 17.2813 25.4712 17.442 25.4712 17.6403C25.4712 17.8386 25.3126 17.9994 25.1169 17.9994H21.9459C21.9235 17.9994 21.9017 17.9973 21.8805 17.9933C21.717 18.8822 20.9475 19.5551 20.0228 19.5551C19.0984 19.5551 18.329 18.8825 18.1653 17.9939C18.1452 17.9975 18.1246 17.9994 18.1036 17.9994H15.2382L15.2382 23.3847H18.1036C18.1246 23.3847 18.1452 23.3866 18.1653 23.3901C18.329 22.5015 19.0984 21.8289 20.0228 21.8289C20.9475 21.8289 21.717 22.5019 21.8805 23.3908C21.9017 23.3868 21.9235 23.3847 21.9459 23.3847H25.1169C25.3126 23.3847 25.4712 23.5454 25.4712 23.7437C25.4712 23.942 25.3126 24.1027 25.1169 24.1027H21.9459C21.9235 24.1027 21.9017 24.1006 21.8805 24.0966C21.717 24.9856 20.9475 25.6585 20.0228 25.6585C19.0984 25.6585 18.329 24.9859 18.1653 24.0973C18.1452 24.1009 18.1246 24.1027 18.1036 24.1027H14.9326C14.9244 24.1027 14.9163 24.1025 14.9082 24.1019C14.9002 24.1025 14.892 24.1027 14.8839 24.1027C14.6882 24.1027 14.5295 23.942 14.5295 23.7437L14.5295 12.614C14.5295 12.5304 14.5578 12.4534 14.6051 12.3923C14.5878 12.35 14.5783 12.3036 14.5783 12.255C14.5783 12.0567 14.7369 11.896 14.9326 11.896H18.1036C18.1246 11.896 18.1452 11.8978 18.1653 11.9014ZM20.0228 16.4436C19.3705 16.4436 18.8418 16.9794 18.8418 17.6403C18.8418 18.3013 19.3705 18.8371 20.0228 18.8371C20.6751 18.8371 21.2039 18.3013 21.2039 17.6403C21.2039 16.9794 20.6751 16.4436 20.0228 16.4436ZM20.0228 22.547C19.3705 22.547 18.8418 23.0828 18.8418 23.7437C18.8418 24.4047 19.3705 24.9405 20.0228 24.9405C20.6751 24.9405 21.2039 24.4047 21.2039 23.7437C21.2039 23.0828 20.6751 22.547 20.0228 22.547Z" fill="white" stroke="white" stroke-linecap="round" stroke-linejoin="round"/>
</g>
<defs>
<filter id="filter0_d_10189_191405" x="0" y="0" width="40" height="40" filterUnits="userSpaceOnUse" color-interpolation-filters="sRGB">
<feFlood flood-opacity="0" result="BackgroundImageFix"/>
<feColorMatrix in="SourceAlpha" type="matrix" values="0 0 0 0 0 0 0 0 0 0 0 0 0 0 0 0 0 0 127 0" result="hardAlpha"/>
<feOffset dy="2"/>
<feGaussianBlur stdDeviation="2"/>
<feColorMatrix type="matrix" values="0 0 0 0 0.427083 0 0 0 0 0.671455 0 0 0 0 1 0 0 0 0.36 0"/>
<feBlend mode="normal" in2="BackgroundImageFix" result="effect1_dropShadow_10189_191405"/>
<feBlend mode="normal" in="SourceGraphic" in2="effect1_dropShadow_10189_191405" result="shape"/>
</filter>
<linearGradient id="paint0_linear_10189_191405" x1="10.5455" y1="2" x2="25.8182" y2="34" gradientUnits="userSpaceOnUse">
<stop stop-color="#5CA1FE"/>
<stop offset="1" stop-color="#217BF4"/>
</linearGradient>
<clipPath id="clip0_10189_191405">
<rect x="11.4033" y="9.40234" width="17.194" height="17.194" rx="5" fill="white"/>
</clipPath>
</defs>
</svg>
