<svg width="21" height="21" viewBox="0 0 21 21" fill="none" xmlns="http://www.w3.org/2000/svg">
<path d="M6.125 19.25H16.625C17.0891 19.25 17.5342 19.0656 17.8624 18.7374C18.1906 18.4092 18.375 17.9641 18.375 17.5V6.5625L13.5625 1.75H6.125C5.66087 1.75 5.21575 1.93437 4.88756 2.26256C4.55937 2.59075 4.375 3.03587 4.375 3.5V7" stroke="white" stroke-width="2" stroke-linecap="round" stroke-linejoin="round"/>
<path d="M13.125 1.75V7H18.375" stroke="white" stroke-width="2" stroke-linecap="round" stroke-linejoin="round"/>
<path d="M15 15.3125L13.25 15.3125" stroke="white" stroke-width="2" stroke-linecap="round" stroke-linejoin="round"/>
<path d="M15 11.8125L13.25 11.8125" stroke="white" stroke-width="2" stroke-linecap="round" stroke-linejoin="round"/>
<path d="M9.625 6.125H7.875" stroke="white" stroke-width="2" stroke-linecap="round" stroke-linejoin="round"/>
<path d="M4.39844 17.4982V15.3164" stroke="white" stroke-width="1.5" stroke-linecap="round" stroke-linejoin="round"/>
<path d="M2 12.2273L10 9.5V16.0455L2 13.8636V12.2273Z" stroke="white" stroke-width="1.5" stroke-linecap="round" stroke-linejoin="round"/>
</svg>
