<svg width="40" height="40" viewBox="0 0 40 40" fill="none" xmlns="http://www.w3.org/2000/svg">
<g filter="url(#filter0_d_10189_191475)">
<rect x="4" y="2" width="32" height="32" rx="10" fill="url(#paint0_linear_10189_191475)"/>
</g>
<path fill-rule="evenodd" clip-rule="evenodd" d="M12.6538 12.4137C12.6538 12.1318 12.8768 11.9033 13.1519 11.9033H26.8488C27.1239 11.9033 27.3469 12.1318 27.3469 12.4137V15.6037C27.3469 15.8856 27.1239 16.1141 26.8488 16.1141H26.1017V23.8976C26.1017 24.1795 25.8787 24.408 25.6036 24.408H14.3971C14.122 24.408 13.899 24.1795 13.899 23.8976V16.1141H13.1519C12.8768 16.1141 12.6538 15.8856 12.6538 15.6037V12.4137ZM14.8951 16.1141V23.3872H25.1056V16.1141H14.8951ZM13.6499 15.0933V12.9241H26.3507V15.0933H13.6499ZM18.2571 18.1557C18.2571 17.8738 18.4801 17.6453 18.7552 17.6453H21.2455C21.5206 17.6453 21.7436 17.8738 21.7436 18.1557C21.7436 18.4375 21.5206 18.6661 21.2455 18.6661H18.7552C18.4801 18.6661 18.2571 18.4375 18.2571 18.1557Z" fill="white" stroke="white" stroke-linecap="round" stroke-linejoin="round"/>
<defs>
<filter id="filter0_d_10189_191475" x="0" y="0" width="40" height="40" filterUnits="userSpaceOnUse" color-interpolation-filters="sRGB">
<feFlood flood-opacity="0" result="BackgroundImageFix"/>
<feColorMatrix in="SourceAlpha" type="matrix" values="0 0 0 0 0 0 0 0 0 0 0 0 0 0 0 0 0 0 127 0" result="hardAlpha"/>
<feOffset dy="2"/>
<feGaussianBlur stdDeviation="2"/>
<feColorMatrix type="matrix" values="0 0 0 0 0.427083 0 0 0 0 0.671455 0 0 0 0 1 0 0 0 0.36 0"/>
<feBlend mode="normal" in2="BackgroundImageFix" result="effect1_dropShadow_10189_191475"/>
<feBlend mode="normal" in="SourceGraphic" in2="effect1_dropShadow_10189_191475" result="shape"/>
</filter>
<linearGradient id="paint0_linear_10189_191475" x1="10.5455" y1="2" x2="25.8182" y2="34" gradientUnits="userSpaceOnUse">
<stop stop-color="#FFD085"/>
<stop offset="1" stop-color="#FFAF2E"/>
</linearGradient>
</defs>
</svg>
