<svg width="40" height="40" viewBox="0 0 40 40" fill="none" xmlns="http://www.w3.org/2000/svg">
<g filter="url(#filter0_d_10189_191460)">
<rect x="4" y="2" width="32" height="32" rx="10" fill="url(#paint0_linear_10189_191460)"/>
</g>
<path d="M12.2774 24.7876C10.7078 19.3867 16.2016 15.9468 18.6541 15.1431C18.0198 11.2854 13.749 14.1787 14.73 8.39205C18.1636 3.56984 20.6162 13.2143 24.5403 8.39204C26.0118 13.6965 22.0877 12.2498 21.2505 15.1431C25.1746 17.072 28.3206 19.9653 27.9738 24.7876C27.6606 29.1434 14.2395 31.5386 12.2774 24.7876Z" stroke="white" stroke-width="2" stroke-linejoin="round"/>
<path d="M19.4 27.15V25.8L19.7 26.07C19.2133 26.0433 18.7467 25.9667 18.3 25.84C17.86 25.7067 17.49 25.5333 17.19 25.32L17.7 23.89C18 24.0967 18.35 24.26 18.75 24.38C19.15 24.5 19.5533 24.56 19.96 24.56C20.38 24.56 20.6733 24.5033 20.84 24.39C21.0067 24.27 21.09 24.13 21.09 23.97C21.09 23.83 21.03 23.7133 20.91 23.62C20.7967 23.5267 20.59 23.4467 20.29 23.38L19.16 23.13C18.5333 22.9967 18.07 22.7633 17.77 22.43C17.47 22.0967 17.32 21.6667 17.32 21.14C17.32 20.74 17.4167 20.3833 17.61 20.07C17.81 19.75 18.0867 19.49 18.44 19.29C18.8 19.09 19.22 18.9633 19.7 18.91L19.4 19.08V17.8H20.79V19.08L20.49 18.89C20.8967 18.91 21.2867 18.9867 21.66 19.12C22.0333 19.2533 22.3367 19.4267 22.57 19.64L22.08 20.98C21.84 20.7933 21.5567 20.65 21.23 20.55C20.9033 20.4433 20.5533 20.39 20.18 20.39C19.8267 20.39 19.55 20.4533 19.35 20.58C19.1567 20.7067 19.06 20.87 19.06 21.07C19.06 21.2033 19.1167 21.3167 19.23 21.41C19.35 21.5033 19.5567 21.5833 19.85 21.65L20.98 21.9C21.6133 22.0333 22.0833 22.2633 22.39 22.59C22.6967 22.91 22.85 23.3267 22.85 23.84C22.85 24.24 22.7533 24.5933 22.56 24.9C22.3667 25.2067 22.0967 25.4567 21.75 25.65C21.41 25.8433 21.0133 25.97 20.56 26.03L20.79 25.79V27.15H19.4Z" fill="white"/>
<defs>
<filter id="filter0_d_10189_191460" x="0" y="0" width="40" height="40" filterUnits="userSpaceOnUse" color-interpolation-filters="sRGB">
<feFlood flood-opacity="0" result="BackgroundImageFix"/>
<feColorMatrix in="SourceAlpha" type="matrix" values="0 0 0 0 0 0 0 0 0 0 0 0 0 0 0 0 0 0 127 0" result="hardAlpha"/>
<feOffset dy="2"/>
<feGaussianBlur stdDeviation="2"/>
<feColorMatrix type="matrix" values="0 0 0 0 0.427083 0 0 0 0 0.671455 0 0 0 0 1 0 0 0 0.36 0"/>
<feBlend mode="normal" in2="BackgroundImageFix" result="effect1_dropShadow_10189_191460"/>
<feBlend mode="normal" in="SourceGraphic" in2="effect1_dropShadow_10189_191460" result="shape"/>
</filter>
<linearGradient id="paint0_linear_10189_191460" x1="10.5455" y1="2" x2="25.8182" y2="34" gradientUnits="userSpaceOnUse">
<stop stop-color="#C3AEF0"/>
<stop offset="1" stop-color="#7F5EC4"/>
</linearGradient>
</defs>
</svg>
