<svg width="22" height="26" viewBox="0 0 22 26" fill="none" xmlns="http://www.w3.org/2000/svg">
<path fill-rule="evenodd" clip-rule="evenodd" d="M1.52513 1.19212C2.1815 0.535741 3.07174 0.166992 4 0.166992H13.9167C14.2261 0.166992 14.5228 0.289908 14.7416 0.508701L21.1583 6.92537C21.3771 7.14416 21.5 7.44091 21.5 7.75033V22.3337C21.5 23.2619 21.1313 24.1522 20.4749 24.8085C19.8185 25.4649 18.9283 25.8337 18 25.8337H4C3.07174 25.8337 2.1815 25.4649 1.52513 24.8085C0.868749 24.1522 0.5 23.2619 0.5 22.3337V3.66699C0.5 2.73873 0.868749 1.8485 1.52513 1.19212ZM18.1001 7.16699L14.5 3.56691V7.16699H18.1001ZM12.1667 2.50033V8.33366C12.1667 8.97799 12.689 9.50033 13.3333 9.50033H19.1667V22.3337C19.1667 22.6431 19.0437 22.9398 18.825 23.1586C18.6062 23.3774 18.3094 23.5003 18 23.5003H4C3.69058 23.5003 3.39383 23.3774 3.17504 23.1586C2.95625 22.9398 2.83333 22.6431 2.83333 22.3337V3.66699C2.83333 3.35757 2.95625 3.06083 3.17504 2.84203C3.39383 2.62324 3.69058 2.50033 4 2.50033H12.1667ZM5.16667 9.50033C5.16667 8.85599 5.689 8.33366 6.33333 8.33366H8.66667C9.311 8.33366 9.83333 8.85599 9.83333 9.50033C9.83333 10.1447 9.311 10.667 8.66667 10.667H6.33333C5.689 10.667 5.16667 10.1447 5.16667 9.50033ZM5.16667 14.167C5.16667 13.5227 5.689 13.0003 6.33333 13.0003H15.6667C16.311 13.0003 16.8333 13.5227 16.8333 14.167C16.8333 14.8113 16.311 15.3337 15.6667 15.3337H6.33333C5.689 15.3337 5.16667 14.8113 5.16667 14.167ZM5.16667 18.8337C5.16667 18.1893 5.689 17.667 6.33333 17.667H15.6667C16.311 17.667 16.8333 18.1893 16.8333 18.8337C16.8333 19.478 16.311 20.0003 15.6667 20.0003H6.33333C5.689 20.0003 5.16667 19.478 5.16667 18.8337Z" fill="#22242C"/>
</svg>
