<svg width="40" height="40" viewBox="0 0 40 40" fill="none" xmlns="http://www.w3.org/2000/svg">
<g filter="url(#filter0_d_10189_191425)">
<rect x="4" y="2" width="32" height="32" rx="10" fill="url(#paint0_linear_10189_191425)"/>
</g>
<g clip-path="url(#clip0_10189_191425)">
<path fill-rule="evenodd" clip-rule="evenodd" d="M13.8434 10.2793C14.2047 9.91795 14.6947 9.71497 15.2057 9.71497H21.5087C21.6018 9.71497 21.6911 9.75194 21.7569 9.81774L26.4841 14.545C26.5499 14.6108 26.5869 14.7001 26.5869 14.7931V24.2477C26.5869 24.7587 26.3839 25.2487 26.0226 25.61C25.6613 25.9714 25.1712 26.1743 24.6603 26.1743H15.2057C14.6947 26.1743 14.2047 25.9714 13.8434 25.61C13.482 25.2487 13.2791 24.7587 13.2791 24.2477V11.6416C13.2791 11.1306 13.482 10.6406 13.8434 10.2793ZM15.2057 10.4168C14.8809 10.4168 14.5693 10.5458 14.3396 10.7755C14.1099 11.0052 13.9808 11.3168 13.9808 11.6416V24.2477C13.9808 24.5725 14.1099 24.8841 14.3396 25.1138C14.5693 25.3435 14.8809 25.4725 15.2057 25.4725H24.6603C24.9851 25.4725 25.2967 25.3435 25.5264 25.1138C25.7561 24.8841 25.8851 24.5725 25.8851 24.2477V15.144L21.5087 15.144C21.4157 15.144 21.3264 15.1071 21.2606 15.0413C21.1948 14.9755 21.1578 14.8862 21.1578 14.7931L21.1578 10.4168H15.2057ZM21.8596 10.913L25.3889 14.4422L21.8596 14.4422L21.8596 10.913ZM16.4306 15.581C16.4306 15.3872 16.5877 15.2301 16.7815 15.2301H18.3572C18.551 15.2301 18.7081 15.3872 18.7081 15.581C18.7081 15.7748 18.551 15.9319 18.3572 15.9319H16.7815C16.5877 15.9319 16.4306 15.7748 16.4306 15.581ZM16.4306 18.7325C16.4306 18.5387 16.5877 18.3816 16.7815 18.3816H23.0845C23.2783 18.3816 23.4354 18.5387 23.4354 18.7325C23.4354 18.9263 23.2783 19.0834 23.0845 19.0834H16.7815C16.5877 19.0834 16.4306 18.9263 16.4306 18.7325ZM16.4306 21.884C16.4306 21.6903 16.5877 21.5331 16.7815 21.5331H23.0845C23.2783 21.5331 23.4354 21.6903 23.4354 21.884C23.4354 22.0778 23.2783 22.2349 23.0845 22.2349H16.7815C16.5877 22.2349 16.4306 22.0778 16.4306 21.884Z" fill="white" stroke="white" stroke-linecap="round" stroke-linejoin="round"/>
</g>
<defs>
<filter id="filter0_d_10189_191425" x="0" y="0" width="40" height="40" filterUnits="userSpaceOnUse" color-interpolation-filters="sRGB">
<feFlood flood-opacity="0" result="BackgroundImageFix"/>
<feColorMatrix in="SourceAlpha" type="matrix" values="0 0 0 0 0 0 0 0 0 0 0 0 0 0 0 0 0 0 127 0" result="hardAlpha"/>
<feOffset dy="2"/>
<feGaussianBlur stdDeviation="2"/>
<feColorMatrix type="matrix" values="0 0 0 0 0.427083 0 0 0 0 0.671455 0 0 0 0 1 0 0 0 0.36 0"/>
<feBlend mode="normal" in2="BackgroundImageFix" result="effect1_dropShadow_10189_191425"/>
<feBlend mode="normal" in="SourceGraphic" in2="effect1_dropShadow_10189_191425" result="shape"/>
</filter>
<linearGradient id="paint0_linear_10189_191425" x1="10.5455" y1="2" x2="25.8182" y2="34" gradientUnits="userSpaceOnUse">
<stop stop-color="#FF858A"/>
<stop offset="1" stop-color="#F04148"/>
</linearGradient>
<clipPath id="clip0_10189_191425">
<rect x="11.4033" y="9.40234" width="17.194" height="17.194" rx="5" fill="white"/>
</clipPath>
</defs>
</svg>
