<svg width="40" height="40" viewBox="0 0 40 40" fill="none" xmlns="http://www.w3.org/2000/svg">
<g filter="url(#filter0_d_10189_191447)">
<rect x="4" y="2" width="32" height="32" rx="10" fill="url(#paint0_linear_10189_191447)"/>
</g>
<path d="M11.1624 6.51591L10.3375 5.69612C10.3681 5.68785 10.399 5.68048 10.4303 5.67405C10.5321 5.65313 10.6379 5.64205 10.7469 5.64205C11.0879 5.64205 11.4027 5.75111 11.6583 5.93574L11.1624 6.51591ZM11.4203 6.77222L11.9984 6.27197C12.1875 6.52771 12.299 6.84332 12.299 7.18415C12.299 7.29136 12.2881 7.39551 12.2674 7.49573C12.2608 7.52794 12.2531 7.55979 12.2445 7.59124L11.4203 6.77222Z" fill="white" stroke="white"/>
<defs>
<filter id="filter0_d_10189_191447" x="0" y="0" width="40" height="40" filterUnits="userSpaceOnUse" color-interpolation-filters="sRGB">
<feFlood flood-opacity="0" result="BackgroundImageFix"/>
<feColorMatrix in="SourceAlpha" type="matrix" values="0 0 0 0 0 0 0 0 0 0 0 0 0 0 0 0 0 0 127 0" result="hardAlpha"/>
<feOffset dy="2"/>
<feGaussianBlur stdDeviation="2"/>
<feColorMatrix type="matrix" values="0 0 0 0 0.427083 0 0 0 0 0.671455 0 0 0 0 1 0 0 0 0.36 0"/>
<feBlend mode="normal" in2="BackgroundImageFix" result="effect1_dropShadow_10189_191447"/>
<feBlend mode="normal" in="SourceGraphic" in2="effect1_dropShadow_10189_191447" result="shape"/>
</filter>
<linearGradient id="paint0_linear_10189_191447" x1="10.5455" y1="2" x2="25.8182" y2="34" gradientUnits="userSpaceOnUse">
<stop stop-color="#3AD0FF"/>
<stop offset="1" stop-color="#06AEE3"/>
</linearGradient>
</defs>
</svg>

