<svg width="24" height="24" viewBox="0 0 24 24" fill="none" xmlns="http://www.w3.org/2000/svg">
<path d="M12.1798 8.97473L9.03906 5.83401L12.1798 2.6933" stroke="#00C3F9" stroke-width="2" stroke-linecap="round" stroke-linejoin="round"/>
<path fill-rule="evenodd" clip-rule="evenodd" d="M6.04869 13.1105C6.14818 14.6028 6.79189 16.0067 7.85774 17.056L7.85776 17.056L7.86255 17.0608C8.56176 17.7585 9.41979 18.2762 10.363 18.5695C10.573 18.6347 10.7858 18.6885 11.0005 18.7306V20.7591C10.5848 20.6982 10.1731 20.6048 9.76928 20.4793C8.51818 20.0903 7.38002 19.4039 6.45224 18.4789C5.03876 17.0862 4.18512 15.2235 4.05312 13.2435C3.98129 12.166 4.1259 11.0945 4.46862 10.089C4.64679 9.5662 5.215 9.28686 5.73775 9.46503C6.26051 9.6432 6.53985 10.2114 6.36168 10.7342C6.10349 11.4917 5.99458 12.2988 6.04869 13.1105ZM14.0005 20.6368C15.1552 20.3701 16.239 19.853 17.1744 19.1205C18.2067 18.3119 19.0276 17.2651 19.5665 16.0696C20.1053 14.8742 20.3462 13.5658 20.2683 12.2568C20.1905 10.9479 19.7962 9.6773 19.1195 8.55415C18.4427 7.43101 17.5035 6.4888 16.3826 5.80836C15.2617 5.12792 13.9924 4.72955 12.6837 4.64744L12.6798 4.64719L12.6798 4.6472L9.47624 4.45876C8.9249 4.42633 8.45167 4.84698 8.41924 5.39831C8.38681 5.94964 8.80746 6.42287 9.35879 6.45531L12.5584 6.64351L12.5601 6.64362C13.5454 6.70572 14.5009 7.00575 15.3448 7.51802C16.1892 8.03059 16.8966 8.74034 17.4064 9.5864C17.9162 10.4324 18.2132 11.3895 18.2719 12.3756C18.3305 13.3616 18.1491 14.3472 17.7431 15.2477C17.3372 16.1482 16.7189 16.9368 15.9412 17.5459C15.3595 18.0014 14.7017 18.3463 14.0005 18.5659V20.6368Z" fill="#00C3F9"/>
</svg>
