<svg width="30" height="31" viewBox="0 0 30 31" fill="none" xmlns="http://www.w3.org/2000/svg">
<path fill-rule="evenodd" clip-rule="evenodd" d="M15 1.75C15.4758 1.75 15.9103 2.02009 16.1209 2.44672L19.6929 9.68308L27.6808 10.8506C28.1515 10.9194 28.5424 11.2495 28.6891 11.702C28.8358 12.1545 28.713 12.651 28.3722 12.9829L22.5932 18.6117L23.957 26.5637C24.0375 27.0327 23.8447 27.5067 23.4597 27.7863C23.0747 28.066 22.5644 28.1028 22.1432 27.8813L15 24.1248L7.85685 27.8813C7.43571 28.1028 6.92534 28.066 6.54037 27.7863C6.1554 27.5067 5.96259 27.0327 6.04303 26.5637L7.40688 18.6117L1.62787 12.9829C1.2871 12.651 1.16426 12.1545 1.31098 11.702C1.4577 11.2495 1.84855 10.9194 2.31925 10.8506L10.3072 9.68308L13.8792 2.44672C14.0897 2.02009 14.5243 1.75 15 1.75Z" fill="#FFB74A"/>
</svg>
