<svg width="24" height="24" viewBox="0 0 24 24" fill="none" xmlns="http://www.w3.org/2000/svg">
<path fill-rule="evenodd" clip-rule="evenodd" d="M4.37486 4C4.11795 4 3.87155 4.10536 3.68989 4.29289C3.50822 4.48043 3.40616 4.73478 3.40616 5V19C3.40616 19.2652 3.50822 19.5196 3.68989 19.7071C3.87155 19.8946 4.11795 20 4.37486 20H16.968C17.0099 20 17.0517 20.0028 17.0932 20.0084C17.2845 20.0341 17.4789 20.0003 17.6515 19.9112C17.8055 19.8317 17.9357 19.7116 18.0294 19.5635L20.4137 13H8.90553L7.21169 17.3714C7.013 17.8842 6.44924 18.1336 5.95251 17.9285C5.45577 17.7234 5.21416 17.1414 5.41285 16.6286L7.35026 11.6286C7.49737 11.249 7.85357 11 8.24968 11H18.9054V8C18.9054 7.73478 18.8034 7.48043 18.6217 7.29289C18.44 7.10536 18.1936 7 17.9367 7H11.1558C10.8319 7 10.5294 6.8329 10.3498 6.5547L8.69995 4H4.37486ZM20.8428 11V8C20.8428 7.20435 20.5367 6.44129 19.9917 5.87868C19.4467 5.31607 18.7075 5 17.9367 5H11.6742L10.0244 2.4453C9.84474 2.1671 9.54228 2 9.21839 2H4.37486C3.60411 2 2.86493 2.31607 2.31993 2.87868C1.77493 3.44129 1.46875 4.20435 1.46875 5V19C1.46875 19.7957 1.77493 20.5587 2.31993 21.1213C2.86493 21.6839 3.60411 22 4.37486 22H16.9116C17.4633 22.0605 18.0208 21.9566 18.518 21.7C19.0357 21.4328 19.4644 21.012 19.749 20.4916C19.7736 20.4466 19.7949 20.3996 19.8125 20.3511L22.7186 12.3511C22.8301 12.044 22.7887 11.7 22.6077 11.4304C22.4268 11.1608 22.1293 11 21.8115 11H20.8428Z" fill="#22242C"/>
</svg>
