<svg width="74" height="142" viewBox="0 0 74 142" fill="none" xmlns="http://www.w3.org/2000/svg">
<rect x="5.5" y="4" width="64" height="64" rx="32" fill="#FFBE5E"/>
<path d="M36.6374 17.1691C32.8968 17.1691 29.2402 18.3111 26.13 20.4507C23.0198 22.5903 20.5957 25.6314 19.1643 29.1894C17.7328 32.7474 17.3583 36.6625 18.088 40.4397C18.8178 44.2169 20.619 47.6865 23.2641 50.4096C25.9091 53.1328 29.279 54.9874 32.9477 55.7387C36.6164 56.49 40.4192 56.1044 43.875 54.6306C47.3309 53.1568 50.2847 50.6611 52.3629 47.4589C54.441 44.2568 55.5502 40.4921 55.5502 36.6409C55.5502 34.0839 55.061 31.5518 54.1106 29.1894C53.1601 26.8269 51.767 24.6804 50.0108 22.8722C48.2546 21.0641 46.1697 19.6298 43.875 18.6513C41.5804 17.6727 39.1211 17.1691 36.6374 17.1691V17.1691ZM36.6374 52.2185C33.6449 52.2185 30.7197 51.3048 28.2315 49.5932C25.7434 47.8815 23.8041 45.4486 22.6589 42.6022C21.5137 39.7558 21.2141 36.6237 21.7979 33.6019C22.3817 30.5802 23.8227 27.8045 25.9387 25.626C28.0547 23.4474 30.7507 21.9638 33.6857 21.3628C36.6206 20.7617 39.6628 21.0702 42.4275 22.2492C45.1922 23.4282 47.5552 25.4248 49.2178 27.9865C50.8803 30.5483 51.7677 33.56 51.7677 36.6409C51.7677 40.7724 50.1736 44.7346 47.3361 47.6559C44.4987 50.5773 40.6502 52.2185 36.6374 52.2185V52.2185Z" fill="white"/>
<g clip-path="url(#clip0_8563_201663)">
<path d="M38.583 27.6677H31.4997C31.0576 27.6677 30.6337 27.8433 30.3212 28.1558C30.0086 28.4684 29.833 28.8923 29.833 29.3343V42.6677C29.833 43.1097 30.0086 43.5336 30.3212 43.8462C30.6337 44.1587 31.0576 44.3343 31.4997 44.3343H41.4997C41.9417 44.3343 42.3656 44.1587 42.6782 43.8462C42.9907 43.5336 43.1663 43.1097 43.1663 42.6677V32.251L38.583 27.6677Z" stroke="white" stroke-width="2" stroke-linecap="round" stroke-linejoin="round"/>
<path d="M38.167 27.6677V32.6677H43.167" stroke="white" stroke-width="2" stroke-linecap="round" stroke-linejoin="round"/>
<path d="M36.5 41.001V36.001" stroke="white" stroke-width="2" stroke-linecap="round" stroke-linejoin="round"/>
<path d="M34 38.501H39" stroke="white" stroke-width="2" stroke-linecap="round" stroke-linejoin="round"/>
</g>
<defs>
<clipPath id="clip0_8563_201663">
<rect width="20" height="20" fill="white" transform="translate(26.5 26.001)"/>
</clipPath>
</defs>
</svg>
