<svg width="21" height="22" viewBox="0 0 21 22" fill="none" xmlns="http://www.w3.org/2000/svg">
<path d="M2.625 5.75H4.375H18.375" stroke="white" stroke-width="2" stroke-linecap="round" stroke-linejoin="round"/>
<path d="M17.625 5.75C17.625 5.19772 17.1773 4.75 16.625 4.75C16.0727 4.75 15.625 5.19772 15.625 5.75H17.625ZM5.375 5.75C5.375 5.19772 4.92728 4.75 4.375 4.75C3.82272 4.75 3.375 5.19772 3.375 5.75H5.375ZM6 5.75C6 6.30228 6.44772 6.75 7 6.75C7.55228 6.75 8 6.30228 8 5.75H6ZM13 5.75C13 6.30228 13.4477 6.75 14 6.75C14.5523 6.75 15 6.30228 15 5.75H13ZM15.625 5.75V18H17.625V5.75H15.625ZM15.625 18C15.625 18.4142 15.2892 18.75 14.875 18.75V20.75C16.3938 20.75 17.625 19.5188 17.625 18H15.625ZM14.875 18.75H6.125V20.75H14.875V18.75ZM6.125 18.75C5.71079 18.75 5.375 18.4142 5.375 18H3.375C3.375 19.5188 4.60622 20.75 6.125 20.75V18.75ZM5.375 18V5.75H3.375V18H5.375ZM8 5.75V4H6V5.75H8ZM8 4C8 3.58579 8.33579 3.25 8.75 3.25V1.25C7.23122 1.25 6 2.48122 6 4H8ZM8.75 3.25H12.25V1.25H8.75V3.25ZM12.25 3.25C12.6642 3.25 13 3.58579 13 4H15C15 2.48122 13.7688 1.25 12.25 1.25V3.25ZM13 4V5.75H15V4H13Z" fill="white"/>
<path d="M8.75 10.125V15.375" stroke="white" stroke-width="2" stroke-linecap="round" stroke-linejoin="round"/>
<path d="M12.25 10.125V15.375" stroke="white" stroke-width="2" stroke-linecap="round" stroke-linejoin="round"/>
</svg>
