<svg width="25" height="24" viewBox="0 0 25 24" fill="none" xmlns="http://www.w3.org/2000/svg">
<path d="M20.5557 10C20.5557 16 12.5557 22 12.5557 22C12.5557 22 4.55566 16 4.55566 10C4.55566 7.87827 5.39852 5.84344 6.89881 4.34315C8.3991 2.84285 10.4339 2 12.5557 2C14.6774 2 16.7122 2.84285 18.2125 4.34315C19.7128 5.84344 20.5557 7.87827 20.5557 10Z" fill="#FF6E77"/>
<path d="M12.5557 13C14.2125 13 15.5557 11.6569 15.5557 10C15.5557 8.34315 14.2125 7 12.5557 7C10.8988 7 9.55566 8.34315 9.55566 10C9.55566 11.6569 10.8988 13 12.5557 13Z" fill="white"/>
</svg>
