<svg width="24" height="25" viewBox="0 0 24 25" fill="none" xmlns="http://www.w3.org/2000/svg">
<path d="M17 18.5V17.1667C17 16.4594 16.7366 15.7811 16.2678 15.281C15.7989 14.781 15.163 14.5 14.5 14.5H9.5C8.83696 14.5 8.20107 14.781 7.73223 15.281C7.26339 15.7811 7 16.4594 7 17.1667V18.5M14.5 9.16667C14.5 10.6394 13.3807 11.8333 12 11.8333C10.6193 11.8333 9.5 10.6394 9.5 9.16667C9.5 7.69391 10.6193 6.5 12 6.5C13.3807 6.5 14.5 7.69391 14.5 9.16667Z" stroke="#0FAFE4" stroke-width="2" stroke-linecap="round" stroke-linejoin="round"/>
<rect x="2" y="2.5" width="20" height="20" rx="5" stroke="#0FAFE4" stroke-width="2"/>
</svg>
