<svg width="22" height="22" viewBox="0 0 22 22" fill="none" xmlns="http://www.w3.org/2000/svg">
<g clip-path="url(#clip0_1258_23288)">
<path d="M0.916656 3.6667V9.1667M0.916656 9.1667H6.41666M0.916656 9.1667L5.16999 5.17003C6.15517 4.18435 7.374 3.4643 8.71273 3.07707C10.0515 2.68984 11.4665 2.64805 12.8257 2.9556C14.185 3.26315 15.4442 3.91001 16.4858 4.83583C17.5275 5.76165 18.3176 6.93625 18.7825 8.25003M21.0833 18.3334V12.8334M21.0833 12.8334H15.5833M21.0833 12.8334L16.83 16.83C15.8448 17.8157 14.626 18.5358 13.2872 18.923C11.9485 19.3102 10.5335 19.352 9.17425 19.0445C7.815 18.7369 6.55581 18.09 5.51417 17.1642C4.47253 16.2384 3.68239 15.0638 3.21749 13.75" stroke="#8E8EA1" stroke-width="2" stroke-linecap="round" stroke-linejoin="round"/>
</g>
<defs>
<clipPath id="clip0_1258_23288">
<rect width="22" height="22" fill="white"/>
</clipPath>
</defs>
</svg>
