<svg width="12" height="12" viewBox="0 0 12 12" fill="none" xmlns="http://www.w3.org/2000/svg">
<path d="M7.02498 3.00005C7.51674 3.09702 7.96799 3.33956 8.32017 3.6962C8.67235 4.05284 8.9092 4.50711 8.99998 5.00005M7.02498 1.00005C8.04411 1.10743 8.99607 1.55945 9.72341 2.28134C10.4508 3.00323 10.9099 3.95175 11.025 4.97005M11.025 8.47005V9.97005C11.025 10.2353 10.9196 10.4896 10.7321 10.6772C10.5446 10.8647 10.2902 10.97 10.025 10.97H9.92998C8.3914 10.8029 6.91348 10.2771 5.61498 9.43505C4.4071 8.66712 3.3829 7.64293 2.61498 6.43505C1.76194 5.12927 1.22916 3.64057 1.05998 2.09005C1.04759 1.95901 1.0612 1.82682 1.10001 1.70105C1.13883 1.57528 1.20209 1.45841 1.28616 1.35714C1.37024 1.25588 1.47349 1.17221 1.58997 1.11093C1.70646 1.04965 1.8339 1.01197 1.96498 1.00005H3.55498C3.79763 0.99766 4.03288 1.08359 4.21686 1.24181C4.40085 1.40004 4.52102 1.61977 4.55498 1.86005C4.61896 2.33996 4.73635 2.81121 4.90498 3.26505C4.97225 3.44401 4.98681 3.63851 4.94693 3.82549C4.90706 4.01247 4.81441 4.1841 4.67998 4.32005L4.04498 4.95505C4.75676 6.20682 5.79321 7.24327 7.04498 7.95505L7.67998 7.32005C7.81592 7.18562 7.98756 7.09297 8.17454 7.0531C8.36152 7.01322 8.55602 7.02778 8.73498 7.09505C9.18882 7.26368 9.66007 7.38107 10.14 7.44505C10.3829 7.47931 10.6047 7.60165 10.7632 7.7888C10.9218 7.97594 11.0061 8.21484 11 8.46005L11.025 8.47005Z" stroke="#22242C" stroke-linecap="round" stroke-linejoin="round"/>
</svg>
