<svg width="24" height="24" viewBox="0 0 24 24" fill="none" xmlns="http://www.w3.org/2000/svg">
<path d="M19 5H5C3.89543 5 3 5.89543 3 7V9C3 10.1046 3.89543 11 5 11H19C20.1046 11 21 10.1046 21 9V7C21 5.89543 20.1046 5 19 5Z" stroke="#A7A7AB" stroke-width="2" stroke-linecap="round" stroke-linejoin="round"/>
<path d="M19 14H5C3.89543 14 3 14.8954 3 16V18C3 19.1046 3.89543 20 5 20H19C20.1046 20 21 19.1046 21 18V16C21 14.8954 20.1046 14 19 14Z" stroke="#A7A7AB" stroke-width="2" stroke-linecap="round" stroke-linejoin="round"/>
</svg>
