<svg width="24" height="24" viewBox="0 0 24 24" fill="none" xmlns="http://www.w3.org/2000/svg">
<path fill-rule="evenodd" clip-rule="evenodd" d="M11.9739 2C8.8157 2 6.25549 4.68629 6.25549 8C6.25549 11.3137 8.8157 14 11.9739 14C15.132 14 17.6922 11.3137 17.6922 8C17.6922 4.68629 15.132 2 11.9739 2ZM4.34937 8C4.34937 3.58172 7.76297 0 11.9739 0C16.1848 0 19.5984 3.58172 19.5984 8C19.5984 12.4183 16.1848 16 11.9739 16C7.76297 16 4.34937 12.4183 4.34937 8Z" fill="#FFB74A"/>
<path fill-rule="evenodd" clip-rule="evenodd" d="M15.4605 12.8887C15.9823 12.816 16.4614 13.201 16.5307 13.7485L17.6839 22.8685C17.732 23.2491 17.5682 23.625 17.2623 23.8358C16.9564 24.0466 16.5625 24.055 16.2487 23.8575L11.9738 21.1662L7.6988 23.8575C7.38499 24.0551 6.99107 24.0466 6.68519 23.8358C6.37931 23.625 6.21551 23.249 6.26369 22.8683L7.4169 13.7583C7.4862 13.2109 7.96537 12.826 8.48715 12.8987C9.00893 12.9714 9.37573 13.4742 9.30643 14.0217L8.41355 21.0751L11.4834 19.1425C11.7852 18.9525 12.1623 18.9525 12.4641 19.1425L15.5343 21.0753L14.6411 14.0115C14.5719 13.464 14.9387 12.9613 15.4605 12.8887Z" fill="#FFB74A"/>
</svg>
