<svg width="28" height="28" viewBox="0 0 28 28" fill="none" xmlns="http://www.w3.org/2000/svg">
<path d="M0 14C0 6.26801 6.26801 0 14 0C21.732 0 28 6.26801 28 14C28 21.732 21.732 28 14 28C6.26801 28 0 21.732 0 14Z" fill="white"/>
<path d="M15 9C15 8.44772 14.5523 8 14 8C13.4477 8 13 8.44772 13 9H15ZM13 19C13 19.5523 13.4477 20 14 20C14.5523 20 15 19.5523 15 19H13ZM9 13C8.44772 13 8 13.4477 8 14C8 14.5523 8.44772 15 9 15V13ZM19 15C19.5523 15 20 14.5523 20 14C20 13.4477 19.5523 13 19 13V15ZM25 14C25 20.0751 20.0751 25 14 25V27C21.1797 27 27 21.1797 27 14H25ZM14 25C7.92487 25 3 20.0751 3 14H1C1 21.1797 6.8203 27 14 27V25ZM3 14C3 7.92487 7.92487 3 14 3V1C6.8203 1 1 6.8203 1 14H3ZM14 3C20.0751 3 25 7.92487 25 14H27C27 6.8203 21.1797 1 14 1V3ZM13 9V19H15V9H13ZM9 15H19V13H9V15Z" fill="#4A50E2"/>
</svg>
