<svg width="18" height="18" viewBox="0 0 18 18" fill="none" xmlns="http://www.w3.org/2000/svg">
<path fill-rule="evenodd" clip-rule="evenodd" d="M12 6C11.5858 6 11.25 6.33579 11.25 6.75C11.25 7.16421 11.5858 7.5 12 7.5C12.4142 7.5 12.75 7.16421 12.75 6.75C12.75 6.33579 12.4142 6 12 6ZM9.87803 6C10.1869 5.12611 11.0203 4.5 12 4.5C13.2426 4.5 14.25 5.50736 14.25 6.75C14.25 7.99264 13.2426 9 12 9C11.0203 9 10.1869 8.37389 9.87803 7.5H6V10.5C6 10.6989 6.07902 10.8897 6.21967 11.0303C6.36032 11.171 6.55109 11.25 6.75 11.25H12C12.0424 11.25 12.084 11.2535 12.1244 11.2603C12.4304 10.381 13.2665 9.75 14.25 9.75C15.4926 9.75 16.5 10.7574 16.5 12C16.5 13.2426 15.4926 14.25 14.25 14.25C13.2665 14.25 12.4304 13.619 12.1244 12.7397C12.084 12.7465 12.0424 12.75 12 12.75H6.75C6.15326 12.75 5.58097 12.5129 5.15901 12.091C4.73705 11.669 4.5 11.0967 4.5 10.5V7.5H2.25C1.83579 7.5 1.5 7.16421 1.5 6.75C1.5 6.33579 1.83579 6 2.25 6H9.87803ZM14.25 11.25C13.8358 11.25 13.5 11.5858 13.5 12C13.5 12.4142 13.8358 12.75 14.25 12.75C14.6642 12.75 15 12.4142 15 12C15 11.5858 14.6642 11.25 14.25 11.25Z" fill="#A7A7AB"/>
</svg>
