<svg width="48" height="48" viewBox="0 0 48 48" fill="none" xmlns="http://www.w3.org/2000/svg">
<path d="M37.3346 5.33301H19.828L10.668 14.4797V19.9997H13.3346V18.1463H23.4813V7.99967H37.3346V39.9997H10.668C10.668 40.7069 10.9489 41.3852 11.449 41.8853C11.9491 42.3854 12.6274 42.6663 13.3346 42.6663H37.3346C38.0419 42.6663 38.7202 42.3854 39.2203 41.8853C39.7204 41.3852 40.0013 40.7069 40.0013 39.9997V7.99967C40.0013 7.29243 39.7204 6.61415 39.2203 6.11406C38.7202 5.61396 38.0419 5.33301 37.3346 5.33301ZM21.3346 15.9997H13.3346V15.573L20.9346 7.99967H21.3346V15.9997Z" fill="#0FAFE4"/>
<path d="M15.9213 35.0401C15.7817 35.1596 15.6684 35.3067 15.5883 35.4721C15.5083 35.6375 15.4633 35.8177 15.4562 36.0013C15.4491 36.1849 15.4801 36.3681 15.5471 36.5392C15.6142 36.7103 15.7158 36.8657 15.8458 36.9956C15.9757 37.1255 16.1311 37.2272 16.3022 37.2942C16.4733 37.3613 16.6564 37.3922 16.84 37.3851C17.0237 37.378 17.2038 37.3331 17.3693 37.253C17.5347 37.173 17.6818 37.0596 17.8013 36.9201L25.3346 29.3334L17.7613 21.7601C17.5062 21.5416 17.1781 21.4275 16.8426 21.4404C16.507 21.4534 16.1887 21.5925 15.9512 21.83C15.7138 22.0674 15.5746 22.3858 15.5617 22.7213C15.5487 23.0569 15.6629 23.385 15.8813 23.6401L20.268 28.0001H4.0013C3.64768 28.0001 3.30854 28.1405 3.05849 28.3906C2.80844 28.6406 2.66797 28.9798 2.66797 29.3334C2.66797 29.687 2.80844 30.0262 3.05849 30.2762C3.30854 30.5263 3.64768 30.6667 4.0013 30.6667H20.308L15.9213 35.0401Z" fill="#0FAFE4"/>
</svg>
