<svg width="22" height="23" viewBox="0 0 22 23" fill="none" xmlns="http://www.w3.org/2000/svg">
<path d="M16 2.50006C16.2626 2.23741 16.5744 2.02907 16.9176 1.88693C17.2608 1.74479 17.6286 1.67163 18 1.67163C18.3714 1.67163 18.7392 1.74479 19.0824 1.88693C19.4256 2.02907 19.7374 2.23741 20 2.50006C20.2626 2.7627 20.471 3.07451 20.6131 3.41767C20.7553 3.76083 20.8284 4.12862 20.8284 4.50006C20.8284 4.87149 20.7553 5.23929 20.6131 5.58245C20.471 5.92561 20.2626 6.23741 20 6.50006L6.5 20.0001L1 21.5001L2.5 16.0001L16 2.50006Z" stroke="white" stroke-width="2" stroke-linecap="round" stroke-linejoin="round"/>
</svg>
