<svg width="24" height="24" viewBox="0 0 24 24" fill="none" xmlns="http://www.w3.org/2000/svg">
<path d="M12.1245 20C7.85256 20 4.37491 16.41 4.37491 12C4.37491 7.59 7.85256 4 12.1245 4C16.3965 4 19.8742 7.59 19.8742 12C19.8742 16.41 16.3965 20 12.1245 20ZM12.1245 2C10.8524 2 9.59276 2.25866 8.41747 2.7612C7.24219 3.26375 6.1743 4.00035 5.27477 4.92893C3.4581 6.8043 2.4375 9.34784 2.4375 12C2.4375 14.6522 3.4581 17.1957 5.27477 19.0711C6.1743 19.9997 7.24219 20.7362 8.41747 21.2388C9.59276 21.7413 10.8524 22 12.1245 22C14.6937 22 17.1576 20.9464 18.9743 19.0711C20.791 17.1957 21.8116 14.6522 21.8116 12C21.8116 10.6868 21.561 9.38642 21.0742 8.17317C20.5874 6.95991 19.8738 5.85752 18.9743 4.92893C18.0748 4.00035 17.0069 3.26375 15.8316 2.7612C14.6563 2.25866 13.3967 2 12.1245 2Z" fill="#22242C"/>
</svg>
