<svg width="28" height="25" viewBox="0 0 28 25" fill="none" xmlns="http://www.w3.org/2000/svg">
<path d="M24.5679 18C25.5509 17.3014 26.2923 16.3002 26.685 15.1407C27.0778 13.9812 27.1015 12.7236 26.7529 11.5494C26.4043 10.3751 25.7014 9.34501 24.7455 8.60779C23.7897 7.87056 22.6304 7.46435 21.4352 7.4478H19.1796C18.8008 6.13557 18.1358 4.92923 17.2351 3.92039C16.3344 2.91156 15.2218 2.12677 13.9815 1.6256C12.7413 1.12444 11.4062 0.920096 10.0776 1.02808C8.74901 1.13607 7.46182 1.55355 6.31382 2.24881C5.16582 2.94408 4.18719 3.89885 3.45225 5.04063C2.71731 6.1824 2.24539 7.48114 2.07232 8.83823C1.89925 10.1953 2.02959 11.5751 2.45343 12.8727C2.87728 14.1703 3.58349 15.3517 4.51843 16.3271" stroke="#0FAFE4" stroke-width="2" stroke-linecap="round" stroke-linejoin="round"/>
<path d="M13.998 17L13.998 24" stroke="#0FAFE4" stroke-width="2" stroke-linecap="round" stroke-linejoin="round"/>
<path d="M19.998 18L14.498 13L8.99805 18" stroke="#0FAFE4" stroke-width="2" stroke-linecap="round" stroke-linejoin="round"/>
</svg>
