<svg width="24" height="24" viewBox="0 0 24 24" fill="none" xmlns="http://www.w3.org/2000/svg">
<path d="M4.2472 15.8508L4.24674 15.8504C4.07465 15.6785 4.07465 15.3988 4.24674 15.227L4.2472 15.2265C4.41989 15.0538 4.69881 15.0538 4.8715 15.2265L8.34936 18.7044L8.9371 19.2921L9.62238 18.8217L20.1279 11.6107C20.3286 11.4729 20.6038 11.5241 20.7415 11.7247L20.7416 11.7249C20.8798 11.9261 20.829 12.2006 20.6272 12.3392L9.13637 20.2268C9.13617 20.2269 9.13597 20.2271 9.13577 20.2272C9.05745 20.2806 8.9711 20.3054 8.88527 20.3054C8.76923 20.3054 8.65792 20.2615 8.5724 20.176L4.2472 15.8508Z" stroke="white" stroke-width="2"/>
<path d="M4.24674 7.29728L4.2472 7.29683C4.41989 7.12414 4.69881 7.12414 4.8715 7.29683L8.34936 10.7747L8.9371 11.3624L9.62238 10.892L20.1279 3.68097C20.3286 3.5432 20.6038 3.59441 20.7415 3.79503L20.7416 3.79522C20.8797 3.99633 20.829 4.2708 20.6274 4.40939C20.6273 4.40943 20.6273 4.40946 20.6272 4.40949L9.13637 12.2978C9.13623 12.2979 9.1361 12.298 9.13597 12.2981C9.05896 12.3507 8.97285 12.3757 8.88527 12.3757C8.76923 12.3757 8.65792 12.3319 8.5724 12.2463L4.2472 7.92114C4.07425 7.74819 4.0749 7.4689 4.24674 7.29728Z" stroke="white" stroke-width="2"/>
</svg>
