<svg width="25" height="25" viewBox="0 0 25 25" fill="none" xmlns="http://www.w3.org/2000/svg">
<rect x="11.769" y="4.5" width="2" height="10" rx="1" fill="#0FAFE4"/>
<rect x="11.769" y="4.5" width="2" height="10" rx="1" fill="#22242C"/>
<path d="M16.8136 7.76019C17.1249 7.31852 17.7401 7.20867 18.1405 7.57144C19.1539 8.4896 19.9193 9.6563 20.3563 10.9635C20.8971 12.5814 20.9067 14.3297 20.3836 15.9534C19.8604 17.5771 18.832 18.991 17.4484 19.9888C16.0647 20.9865 14.3984 21.5159 12.6926 21.4996C10.9869 21.4833 9.33095 20.9222 7.96664 19.8982C6.60234 18.8742 5.60109 17.4409 5.10905 15.8075C4.61702 14.1742 4.65997 12.4263 5.23163 10.8191C5.69354 9.52042 6.48108 8.36856 7.51183 7.46992C7.91909 7.11486 8.53209 7.23645 8.83482 7.68398V7.68398C9.13755 8.13151 9.01331 8.7346 8.62042 9.10551C7.92849 9.75874 7.39708 10.5695 7.07511 11.4748C6.64326 12.6889 6.61082 14.0093 6.98251 15.2431C7.3542 16.477 8.11057 17.5598 9.1412 18.3333C10.1718 19.1069 11.4227 19.5308 12.7113 19.5431C13.9999 19.5554 15.2587 19.1555 16.3039 18.4018C17.3491 17.648 18.126 16.5799 18.5212 15.3534C18.9164 14.1268 18.9092 12.806 18.5006 11.5839C18.196 10.6727 17.6802 9.85188 17.0008 9.18555C16.6151 8.80721 16.5024 8.20185 16.8136 7.76019V7.76019Z" fill="#0FAFE4"/>
<path d="M16.8136 7.76019C17.1249 7.31852 17.7401 7.20867 18.1405 7.57144C19.1539 8.4896 19.9193 9.6563 20.3563 10.9635C20.8971 12.5814 20.9067 14.3297 20.3836 15.9534C19.8604 17.5771 18.832 18.991 17.4484 19.9888C16.0647 20.9865 14.3984 21.5159 12.6926 21.4996C10.9869 21.4833 9.33095 20.9222 7.96664 19.8982C6.60234 18.8742 5.60109 17.4409 5.10905 15.8075C4.61702 14.1742 4.65997 12.4263 5.23163 10.8191C5.69354 9.52042 6.48108 8.36856 7.51183 7.46992C7.91909 7.11486 8.53209 7.23645 8.83482 7.68398V7.68398C9.13755 8.13151 9.01331 8.7346 8.62042 9.10551C7.92849 9.75874 7.39708 10.5695 7.07511 11.4748C6.64326 12.6889 6.61082 14.0093 6.98251 15.2431C7.3542 16.477 8.11057 17.5598 9.1412 18.3333C10.1718 19.1069 11.4227 19.5308 12.7113 19.5431C13.9999 19.5554 15.2587 19.1555 16.3039 18.4018C17.3491 17.648 18.126 16.5799 18.5212 15.3534C18.9164 14.1268 18.9092 12.806 18.5006 11.5839C18.196 10.6727 17.6802 9.85188 17.0008 9.18555C16.6151 8.80721 16.5024 8.20185 16.8136 7.76019V7.76019Z" fill="#22242C"/>
</svg>
