<svg width="36" height="36" viewBox="0 0 36 36" fill="none" xmlns="http://www.w3.org/2000/svg">
<g clip-path="url(#clip0_1758_36570)">
<path d="M11.0542 10.6769C10.8178 10.6214 10.6416 10.4096 10.6416 10.1562V8.53544C10.6416 8.23979 10.8814 8 11.177 8H25.8227C26.1183 8 26.3581 8.23979 26.3581 8.53544V10.1563C26.3581 10.4097 26.182 10.6214 25.9456 10.677C25.7839 13.5608 24.2862 16.2035 21.8689 17.8231L20.8583 18.5L21.8689 19.177C24.2863 20.7965 25.7839 23.4393 25.9456 26.3231C26.182 26.3786 26.3581 26.5904 26.3581 26.8438V28.4646C26.3581 28.7603 26.1183 29.0001 25.8227 29.0001H11.177C10.8814 29.0001 10.6416 28.7603 10.6416 28.4646V26.8438C10.6416 26.5904 10.8178 26.3786 11.0542 26.3231C11.2159 23.4393 12.7135 20.7966 15.1309 19.177L16.1415 18.5L15.1309 17.8231C12.7135 16.2035 11.2159 13.5607 11.0542 10.6769ZM17.4015 18.0552C17.5499 18.1546 17.639 18.3214 17.639 18.5C17.639 18.6787 17.5499 18.8455 17.4015 18.9449L15.7269 20.0668C13.611 21.4842 12.292 23.7885 12.1275 26.3083H24.8722C24.7077 23.7886 23.3887 21.4842 21.2728 20.0668L19.5982 18.9449C19.4498 18.8455 19.3608 18.6787 19.3608 18.5C19.3608 18.3214 19.4498 18.1546 19.5982 18.0552L21.2728 16.9333C23.3887 15.5158 24.7077 13.2115 24.8722 10.6918H12.1275C12.292 13.2116 13.611 15.5158 15.7269 16.9333L17.4015 18.0552Z" fill="#0FAFE4"/>
<path d="M17.1035 15.3766H19.8963C20.1182 15.3766 20.3172 15.5136 20.3965 15.7209C20.4757 15.9283 20.4188 16.1631 20.2533 16.311L18.857 17.5604C18.7554 17.6514 18.6277 17.6968 18.5 17.6968C18.3724 17.6968 18.2446 17.6514 18.1431 17.5604L16.7467 16.311C16.5813 16.163 16.5243 15.9282 16.6036 15.7209C16.6826 15.5136 16.8816 15.3766 17.1035 15.3766Z" fill="#0FAFE4"/>
<path d="M18.5218 20.5455L19.8799 21.4179C21.0673 22.2133 21.78 23.5486 21.78 24.9778H14.9521C14.9521 23.5486 15.6648 22.2133 16.8522 21.4179L18.2103 20.5455C18.3061 20.4881 18.4259 20.4881 18.5218 20.5455Z" fill="#0FAFE4"/>
</g>
<path d="M18 35C8.61116 35 1 27.3888 1 18H-1C-1 28.4934 7.50659 37 18 37V35ZM35 18C35 27.3888 27.3888 35 18 35V37C28.4934 37 37 28.4934 37 18H35ZM18 1C27.3888 1 35 8.61116 35 18H37C37 7.50659 28.4934 -1 18 -1V1ZM18 -1C7.50659 -1 -1 7.50659 -1 18H1C1 8.61116 8.61116 1 18 1V-1Z" fill="#0FAFE4"/>
<defs>
<clipPath id="clip0_1758_36570">
<rect width="21" height="21" fill="white" transform="matrix(-1 0 0 1 29 8)"/>
</clipPath>
</defs>
</svg>
