<svg width="24" height="24" viewBox="0 0 24 24" fill="none" xmlns="http://www.w3.org/2000/svg">
<path d="M11.9851 23.5454C5.62695 23.5454 0.424805 18.3433 0.424805 11.9851C0.424805 5.62695 5.62695 0.424805 11.9851 0.424805C18.3433 0.424805 23.5454 5.62695 23.5454 11.9851C23.5454 18.3433 18.3433 23.5454 11.9851 23.5454ZM11.9851 2.8332C6.97565 2.8332 2.8332 6.97565 2.8332 11.9851C2.8332 16.9946 6.97565 21.137 11.9851 21.137C16.9946 21.137 21.137 16.9946 21.137 11.9851C21.137 6.97565 16.9946 2.8332 11.9851 2.8332Z" fill="#7A7C80"/>
<path d="M10.155 16.5127C9.86598 16.5127 9.48064 16.4164 9.28797 16.1274L6.87957 13.719C6.39789 13.2373 6.39789 12.4666 6.87957 11.9849C7.36125 11.5032 8.13194 11.5032 8.61362 11.9849L10.155 13.5263L15.3571 8.32415C15.8388 7.84247 16.6095 7.84247 17.0912 8.32415C17.5729 8.80583 17.5729 9.57652 17.0912 10.0582L11.022 16.1274C10.733 16.4164 10.444 16.5127 10.155 16.5127Z" fill="#7A7C80"/>
</svg>
