<svg width="24" height="24" viewBox="0 0 24 24" fill="none" xmlns="http://www.w3.org/2000/svg">
<path d="M8.31599 13.1862C7.30799 13.1862 6.55199 12.8862 6.04799 12.2862C5.54399 11.6802 5.29199 10.8462 5.29199 9.78419C5.29199 8.61419 5.55599 7.75019 6.08399 7.19219C6.61199 6.62819 7.35599 6.34619 8.31599 6.34619C9.26399 6.34619 9.99599 6.62819 10.512 7.19219C11.028 7.75019 11.286 8.62019 11.286 9.80219C11.286 12.0582 10.296 13.1862 8.31599 13.1862ZM15.174 6.45419H16.938L10.062 19.0002H8.29799L15.174 6.45419ZM8.29799 11.8362C8.70599 11.8362 8.97599 11.6652 9.10799 11.3232C9.23999 10.9752 9.30599 10.4802 9.30599 9.83819C9.30599 9.34019 9.27599 8.93819 9.21599 8.63219C9.15599 8.32619 9.04799 8.09819 8.89199 7.94819C8.74199 7.79219 8.53199 7.71419 8.26199 7.71419C7.87799 7.71419 7.60799 7.88219 7.45199 8.21819C7.29599 8.54819 7.21799 9.07019 7.21799 9.78419C7.21799 10.4382 7.29299 10.9452 7.44299 11.3052C7.59299 11.6592 7.87799 11.8362 8.29799 11.8362ZM17.01 19.2702C15.996 19.2702 15.237 18.9672 14.733 18.3612C14.235 17.7552 13.986 16.9182 13.986 15.8502C13.986 14.6862 14.247 13.8222 14.769 13.2582C15.291 12.6942 16.032 12.4122 16.992 12.4122C17.94 12.4122 18.675 12.6972 19.197 13.2672C19.719 13.8312 19.98 14.7042 19.98 15.8862C19.98 16.9422 19.743 17.7702 19.269 18.3702C18.801 18.9702 18.048 19.2702 17.01 19.2702ZM16.956 17.8842C17.25 17.8842 17.472 17.8002 17.622 17.6322C17.772 17.4582 17.868 17.2332 17.91 16.9572C17.958 16.6812 17.982 16.3302 17.982 15.9042C17.982 15.1602 17.907 14.6202 17.757 14.2842C17.613 13.9482 17.346 13.7802 16.956 13.7802C16.56 13.7802 16.287 13.9452 16.137 14.2752C15.987 14.6052 15.912 15.1362 15.912 15.8682C15.912 16.5162 15.981 17.0142 16.119 17.3622C16.263 17.7102 16.542 17.8842 16.956 17.8842Z" fill="#22242C"/>
</svg>
