<svg width="24" height="24" viewBox="0 0 24 24" fill="none" xmlns="http://www.w3.org/2000/svg">
<path d="M17.3783 7.23125L18.1679 9.60005H14.3999V6.00005H15.6707C16.0485 6.00008 16.4168 6.11901 16.7233 6.33999C17.0297 6.56096 17.2589 6.87278 17.3783 7.23125ZM18.5675 10.8L18.5711 10.812L18.8903 10.8913L19.0367 10.9272C19.4263 11.0247 19.772 11.2496 20.0191 11.5662C20.2661 11.8828 20.4001 12.2729 20.3999 12.6744V14.7001C20.3999 14.8921 20.3399 15.0721 20.2355 15.2185C20.0207 14.5965 19.6075 14.0624 19.0593 13.6984C18.5112 13.3344 17.8586 13.1607 17.202 13.2041C16.5455 13.2475 15.9214 13.5055 15.4259 13.9385C14.9304 14.3714 14.591 14.9552 14.4599 15.6H9.5399C9.40884 14.9552 9.06943 14.3714 8.57393 13.9385C8.07844 13.5055 7.45435 13.2475 6.7978 13.2041C6.14124 13.1607 5.48863 13.3344 4.94048 13.6984C4.39234 14.0624 3.97906 14.5965 3.7643 15.2185C3.65714 15.0668 3.5997 14.8857 3.5999 14.7001V13.2444C3.59977 12.8476 3.73076 12.4619 3.97252 12.1472C4.21428 11.8325 4.55324 11.6066 4.9367 11.5044L7.5791 10.8H18.5675ZM8.5535 9.60005L10.0391 6.92645C10.1948 6.64596 10.4226 6.41217 10.699 6.2493C10.9754 6.08642 11.2903 6.00037 11.6111 6.00005H13.1999V9.60005H8.5535ZM2.3999 14.7001C2.3999 15.5485 2.9039 16.2793 3.6275 16.6105C3.7236 17.3125 4.06513 17.9579 4.59156 18.4323C5.118 18.9067 5.79537 19.1794 6.50363 19.2021C7.2119 19.2248 7.90534 18.9961 8.46109 18.5564C9.01684 18.1167 9.39902 17.4945 9.5399 16.8001H14.4599C14.6008 17.4945 14.983 18.1167 15.5387 18.5564C16.0945 18.9961 16.7879 19.2248 17.4962 19.2021C18.2044 19.1794 18.8818 18.9067 19.4082 18.4323C19.9347 17.9579 20.2762 17.3125 20.3723 16.6105C20.7385 16.4432 21.0489 16.1742 21.2666 15.8355C21.4842 15.4968 21.5999 15.1027 21.5999 14.7001V12.6744C21.5999 12.0367 21.3967 11.4155 21.0197 10.9011C20.6428 10.3867 20.1117 10.0057 19.5035 9.81365L18.5159 6.85085C18.3168 6.25394 17.9351 5.73475 17.4247 5.36671C16.9143 4.99868 16.3011 4.80044 15.6719 4.80005H11.6123C11.077 4.79972 10.5513 4.94265 10.0898 5.214C9.62832 5.48536 9.24787 5.87526 8.9879 6.34325L7.1399 9.67565L4.6283 10.3453C3.98926 10.5153 3.42433 10.8918 3.02134 11.4161C2.61834 11.9404 2.39987 12.5832 2.3999 13.2444V14.7001ZM17.3999 14.4001C17.8773 14.4001 18.3351 14.5897 18.6727 14.9273C19.0103 15.2648 19.1999 15.7227 19.1999 16.2001C19.1999 16.6774 19.0103 17.1353 18.6727 17.4728C18.3351 17.8104 17.8773 18.0001 17.3999 18.0001C16.9225 18.0001 16.4647 17.8104 16.1271 17.4728C15.7895 17.1353 15.5999 16.6774 15.5999 16.2001C15.5999 15.7227 15.7895 15.2648 16.1271 14.9273C16.4647 14.5897 16.9225 14.4001 17.3999 14.4001ZM6.5999 14.4001C7.07729 14.4001 7.53513 14.5897 7.87269 14.9273C8.21026 15.2648 8.3999 15.7227 8.3999 16.2001C8.3999 16.6774 8.21026 17.1353 7.87269 17.4728C7.53513 17.8104 7.07729 18.0001 6.5999 18.0001C6.12251 18.0001 5.66468 17.8104 5.32711 17.4728C4.98954 17.1353 4.7999 16.6774 4.7999 16.2001C4.7999 15.7227 4.98954 15.2648 5.32711 14.9273C5.66468 14.5897 6.12251 14.4001 6.5999 14.4001Z" fill="#00C3F9" stroke="#00C3F9" stroke-width="0.25"/>
</svg>
