<svg width="28" height="32" viewBox="0 0 28 32" fill="none" xmlns="http://www.w3.org/2000/svg">
<path d="M7 4C6.0375 4 5.25 4.7875 5.25 5.75V30.25C5.25 31.2125 6.0375 32 7 32H24.5C25.4625 32 26.25 31.2125 26.25 30.25V11L19.25 4H7Z" fill="#E2E5E7"/>
<path d="M21 11H26.25L19.25 4V9.25C19.25 10.2125 20.0375 11 21 11Z" fill="#B0B7BD"/>
<path d="M26.25 16.25L21 11H26.25V16.25Z" fill="#CAD1D8"/>
<path d="M22.75 26.75C22.75 27.2313 22.3563 27.625 21.875 27.625H2.625C2.14375 27.625 1.75 27.2313 1.75 26.75V18C1.75 17.5187 2.14375 17.125 2.625 17.125H21.875C22.3563 17.125 22.75 17.5187 22.75 18V26.75Z" fill="#F15642"/>
<path d="M5.56445 20.5787C5.56445 20.3477 5.74645 20.0957 6.03958 20.0957H7.6557C8.5657 20.0957 9.3847 20.7047 9.3847 21.872C9.3847 22.978 8.5657 23.594 7.6557 23.594H6.48758V24.518C6.48758 24.826 6.29158 25.0001 6.03958 25.0001C5.80858 25.0001 5.56445 24.826 5.56445 24.518V20.5787V20.5787ZM6.48758 20.9768V22.7198H7.6557C8.1247 22.7198 8.4957 22.306 8.4957 21.872C8.4957 21.3828 8.1247 20.9768 7.6557 20.9768H6.48758Z" fill="white"/>
<path d="M10.7545 24.9996C10.5235 24.9996 10.2715 24.8736 10.2715 24.5665V20.5922C10.2715 20.3411 10.5235 20.1582 10.7545 20.1582H12.3566C15.5539 20.1582 15.4839 24.9996 12.4196 24.9996H10.7545V24.9996ZM11.1955 21.0122V24.1465H12.3566C14.2457 24.1465 14.3297 21.0122 12.3566 21.0122H11.1955V21.0122Z" fill="white"/>
<path d="M16.6184 21.0691V22.1812H18.4025C18.6545 22.1812 18.9065 22.4332 18.9065 22.6773C18.9065 22.9083 18.6545 23.0973 18.4025 23.0973H16.6184V24.5664C16.6184 24.8114 16.4443 24.9996 16.1993 24.9996C15.8913 24.9996 15.7031 24.8114 15.7031 24.5664V20.5922C15.7031 20.3411 15.8921 20.1582 16.1993 20.1582H18.6554C18.9634 20.1582 19.1454 20.3411 19.1454 20.5922C19.1454 20.8162 18.9634 21.0682 18.6554 21.0682H16.6184V21.0691Z" fill="white"/>
<path d="M21.875 27.625H5.25V28.5H21.875C22.3563 28.5 22.75 28.1063 22.75 27.625V26.75C22.75 27.2313 22.3563 27.625 21.875 27.625Z" fill="#CAD1D8"/>
<rect width="14" height="14" rx="7" fill="#FFAF2E"/>
<path d="M7.14648 4.80854L9.1917 6.85376L10.0682 5.97724L8.02301 3.93202L7.14648 4.80854Z" stroke="white" stroke-width="0.5" stroke-linecap="round" stroke-linejoin="round"/>
<path d="M8.89939 6.56172L8.46113 8.75303L4.22461 9.77563L5.24722 5.53911L7.43852 5.10085L8.89939 6.56172Z" stroke="white" stroke-width="0.5" stroke-linecap="round" stroke-linejoin="round"/>
<path d="M4.22461 9.77563L6.44104 7.5592" stroke="white" stroke-width="0.5" stroke-linecap="round" stroke-linejoin="round"/>
<path d="M6.85388 6.56177C7.17661 6.56177 7.43823 6.82339 7.43823 7.14612C7.43823 7.46885 7.17661 7.73047 6.85388 7.73047C6.53115 7.73047 6.26953 7.46885 6.26953 7.14612C6.26953 6.82339 6.53115 6.56177 6.85388 6.56177Z" stroke="white" stroke-width="0.5" stroke-linecap="round" stroke-linejoin="round"/>
</svg>
