<svg width="20" height="20" viewBox="0 0 20 20" fill="none" xmlns="http://www.w3.org/2000/svg">
<mask id="mask0_3570_5506" style="mask-type:alpha" maskUnits="userSpaceOnUse" x="0" y="0" width="20" height="20">
<rect width="20" height="20" fill="#D9D9D9"/>
</mask>
<g mask="url(#mask0_3570_5506)">
<path d="M10.7087 18.3332C10.4725 18.3332 10.2503 18.2879 10.042 18.1973C9.83366 18.1073 9.6531 17.9859 9.50033 17.8332L2.16699 10.4998C2.01421 10.3471 1.89283 10.1665 1.80283 9.95817C1.71227 9.74984 1.66699 9.52762 1.66699 9.2915V3.33317C1.66699 2.87484 1.83033 2.48234 2.15699 2.15567C2.4831 1.82956 2.87533 1.6665 3.33366 1.6665H9.29199C9.5281 1.6665 9.75033 1.7115 9.95866 1.8015C10.167 1.89206 10.3475 2.01373 10.5003 2.1665L17.8337 9.52067C18.1531 9.84012 18.3128 10.2323 18.3128 10.6973C18.3128 11.1629 18.1531 11.5554 17.8337 11.8748L11.8753 17.8332C11.7225 17.9859 11.5456 18.1073 11.3445 18.1973C11.1428 18.2879 10.9309 18.3332 10.7087 18.3332ZM10.6878 16.6665L16.6462 10.7082L9.29199 3.33317H3.33366V9.2915L10.6878 16.6665ZM5.41699 6.6665C5.76421 6.6665 6.05921 6.54484 6.30199 6.3015C6.54533 6.05873 6.66699 5.76373 6.66699 5.4165C6.66699 5.06928 6.54533 4.77428 6.30199 4.5315C6.05921 4.28817 5.76421 4.1665 5.41699 4.1665C5.06977 4.1665 4.77477 4.28817 4.53199 4.5315C4.28866 4.77428 4.16699 5.06928 4.16699 5.4165C4.16699 5.76373 4.28866 6.05873 4.53199 6.3015C4.77477 6.54484 5.06977 6.6665 5.41699 6.6665Z" fill="#22242C"/>
</g>
</svg>
