<svg width="24" height="25" viewBox="0 0 24 25" fill="none" xmlns="http://www.w3.org/2000/svg">
<path fill-rule="evenodd" clip-rule="evenodd" d="M9.67503 5.40047C8.13423 5.40047 6.88516 6.68989 6.88516 8.28047C6.88516 9.87105 8.13423 11.1605 9.67503 11.1605C11.2158 11.1605 12.4649 9.87105 12.4649 8.28047C12.4649 6.68989 11.2158 5.40047 9.67503 5.40047ZM5.02525 8.28047C5.02525 5.6295 7.10702 3.48047 9.67503 3.48047C12.243 3.48047 14.3248 5.6295 14.3248 8.28047C14.3248 10.9314 12.243 13.0805 9.67503 13.0805C7.10702 13.0805 5.02525 10.9314 5.02525 8.28047ZM15.2838 4.32715C15.4112 3.81352 15.9178 3.50376 16.4154 3.63527C17.4156 3.89963 18.3021 4.50011 18.9352 5.34204C19.5682 6.18397 19.9118 7.21946 19.9118 8.28527C19.9118 9.35107 19.5682 10.3866 18.9352 11.2285C18.3021 12.0704 17.4156 12.6709 16.4154 12.9353C15.9178 13.0668 15.4112 12.757 15.2838 12.2434C15.1564 11.7298 15.4565 11.2068 15.9541 11.0753C16.5542 10.9166 17.0861 10.5564 17.4659 10.0512C17.8458 9.54604 18.0519 8.92475 18.0519 8.28527C18.0519 7.64578 17.8458 7.02449 17.4659 6.51933C17.0861 6.01417 16.5542 5.65388 15.9541 5.49527C15.4565 5.36376 15.1564 4.84077 15.2838 4.32715ZM2.66731 16.4064C3.53931 15.5062 4.722 15.0005 5.9552 15.0005H13.3949C14.6281 15.0005 15.8107 15.5062 16.6827 16.4064C17.5547 17.3065 18.0446 18.5274 18.0446 19.8005V21.7205C18.0446 22.2507 17.6283 22.6805 17.1147 22.6805C16.6011 22.6805 16.1847 22.2507 16.1847 21.7205V19.8005C16.1847 19.0366 15.8908 18.3041 15.3676 17.764C14.8444 17.2239 14.1348 16.9205 13.3949 16.9205H5.9552C5.21528 16.9205 4.50567 17.2239 3.98247 17.764C3.45926 18.3041 3.16533 19.0366 3.16533 19.8005V21.7205C3.16533 22.2507 2.74898 22.6805 2.23538 22.6805C1.72178 22.6805 1.30542 22.2507 1.30542 21.7205V19.8005C1.30542 18.5274 1.79531 17.3065 2.66731 16.4064ZM19.0041 15.8453C19.1325 15.3319 19.6397 15.0232 20.137 15.1558C21.1346 15.4216 22.0183 16.022 22.6495 16.8625C23.2807 17.7031 23.6236 18.7362 23.6244 19.7998V21.7205C23.6244 22.2507 23.208 22.6805 22.6944 22.6805C22.1808 22.6805 21.7645 22.2507 21.7645 21.7205V19.8012C21.764 19.1631 21.5583 18.5432 21.1795 18.0388C20.8008 17.5345 20.2706 17.1743 19.6721 17.0148C19.1748 16.8822 18.8757 16.3586 19.0041 15.8453Z" fill="#22242C"/>
</svg>
