<svg width="24" height="24" viewBox="0 0 24 24" fill="none" xmlns="http://www.w3.org/2000/svg">
<mask id="path-1-inside-1_55_15517" fill="white">
<path d="M-nan -nanL1.84619 12C1.84619 6.39222 6.39222 1.84619 12 1.84619L-nan -nanL12 1.84619C17.6079 1.84619 22.1539 6.39222 22.1539 12L-nan -nanL22.1539 12C22.1539 17.6079 17.6079 22.1539 12 22.1539L-nan -nanL12 22.1539C6.39222 22.1539 1.84619 17.6079 1.84619 12L-nan -nanZ"/>
</mask>
<path d="M12 20.6539C7.22065 20.6539 3.34619 16.7794 3.34619 12H0.346191C0.346191 18.4363 5.5638 23.6539 12 23.6539V20.6539ZM20.6539 12C20.6539 16.7794 16.7794 20.6539 12 20.6539V23.6539C18.4363 23.6539 23.6539 18.4363 23.6539 12H20.6539ZM12 3.34619C16.7794 3.34619 20.6539 7.22065 20.6539 12H23.6539C23.6539 5.5638 18.4363 0.346191 12 0.346191V3.34619ZM12 0.346191C5.5638 0.346191 0.346191 5.5638 0.346191 12H3.34619C3.34619 7.22065 7.22065 3.34619 12 3.34619V0.346191Z" fill="#4A50E2" mask="url(#path-1-inside-1_55_15517)"/>
<path fill-rule="evenodd" clip-rule="evenodd" d="M3.23081 12C3.23081 16.8432 7.15693 20.7693 12 20.7693C16.8432 20.7693 20.7693 16.8432 20.7693 12C20.7693 7.15693 16.8432 3.23081 12 3.23081C7.15693 3.23081 3.23081 7.15693 3.23081 12ZM12 1.84619C6.39222 1.84619 1.84619 6.39222 1.84619 12C1.84619 17.6079 6.39222 22.1539 12 22.1539C17.6079 22.1539 22.1539 17.6079 22.1539 12C22.1539 6.39222 17.6079 1.84619 12 1.84619Z" fill="#4A50E2"/>
<path d="M7.0769 18.1539V14.4616C7.0769 14.1231 7.19752 13.8333 7.43875 13.592C7.67957 13.3512 7.96921 13.2308 8.30767 13.2308H15.6923C16.0308 13.2308 16.3206 13.3512 16.5618 13.592C16.8026 13.8333 16.9231 14.1231 16.9231 14.4616V18.1539H7.0769ZM8.30767 15.6923H15.6923V14.4616H8.30767V15.6923ZM12 13.2308L8.92306 8.92311C8.92306 8.07183 9.22316 7.34629 9.82337 6.7465C10.4232 6.14629 11.1487 5.84619 12 5.84619C12.8513 5.84619 13.577 6.14629 14.1772 6.7465C14.777 7.34629 15.0769 8.07183 15.0769 8.92311L12 13.2308ZM12 11.5077L13.8461 8.92311C13.8461 8.41029 13.6666 7.9744 13.3077 7.61542C12.9487 7.25645 12.5128 7.07696 12 7.07696C11.4872 7.07696 11.0513 7.25645 10.6923 7.61542C10.3333 7.9744 10.1538 8.41029 10.1538 8.92311L12 11.5077Z" fill="#4A50E2"/>
</svg>
