<svg width="24" height="24" viewBox="0 0 24 24" fill="none" xmlns="http://www.w3.org/2000/svg">
<g clip-path="url(#clip0_4370_146540)">
<path d="M11.9851 23.5454C5.62695 23.5454 0.424805 18.3433 0.424805 11.9851C0.424805 5.62695 5.62695 0.424805 11.9851 0.424805C18.3433 0.424805 23.5454 5.62695 23.5454 11.9851C23.5454 18.3433 18.3433 23.5454 11.9851 23.5454ZM11.9851 2.8332C6.97565 2.8332 2.8332 6.97565 2.8332 11.9851C2.8332 16.9946 6.97565 21.137 11.9851 21.137C16.9946 21.137 21.137 16.9946 21.137 11.9851C21.137 6.97565 16.9946 2.8332 11.9851 2.8332Z" fill="white"/>
<path fill-rule="evenodd" clip-rule="evenodd" d="M6.80504 6.80529C7.30715 6.30319 8.12122 6.30319 8.62332 6.80529L11.9999 10.1819L15.3765 6.80529C15.8786 6.30319 16.6926 6.30319 17.1947 6.80529C17.6968 7.30739 17.6968 8.12146 17.1947 8.62356L13.8182 12.0001L17.1947 15.3767C17.6968 15.8788 17.6968 16.6929 17.1947 17.195C16.6926 17.6971 15.8786 17.6971 15.3765 17.195L11.9999 13.8184L8.62332 17.195C8.12122 17.6971 7.30715 17.6971 6.80504 17.195C6.30294 16.6929 6.30294 15.8788 6.80504 15.3767L10.1816 12.0001L6.80504 8.62356C6.30294 8.12146 6.30294 7.30739 6.80504 6.80529Z" fill="white"/>
</g>
<defs>
<clipPath id="clip0_4370_146540">
<rect width="24" height="24" fill="white"/>
</clipPath>
</defs>
</svg>
