<svg width="14" height="14" viewBox="0 0 14 14" fill="none" xmlns="http://www.w3.org/2000/svg">
<g clip-path="url(#clip0_1550_5294)">
<path d="M0.583344 2.33342V5.83342M0.583344 5.83342H4.08334M0.583344 5.83342L3.29001 3.29008C3.91695 2.66283 4.69256 2.20462 5.54448 1.9582C6.3964 1.71178 7.29686 1.68519 8.16184 1.8809C9.02682 2.07661 9.82813 2.48825 10.491 3.07741C11.1538 3.66657 11.6567 4.41404 11.9525 5.25008M13.4167 11.6668V8.16675M13.4167 8.16675H9.91668M13.4167 8.16675L10.71 10.7101C10.0831 11.3373 9.30746 11.7955 8.45554 12.042C7.60362 12.2884 6.70316 12.315 5.83818 12.1193C4.9732 11.9236 4.17189 11.5119 3.50903 10.9228C2.84617 10.3336 2.34336 9.58613 2.04751 8.75009" stroke="#0FAFE4" stroke-width="1.5" stroke-linecap="round" stroke-linejoin="round"/>
</g>
<defs>
<clipPath id="clip0_1550_5294">
<rect width="14" height="14" fill="white"/>
</clipPath>
</defs>
</svg>
