<svg width="31" height="31" viewBox="0 0 31 31" fill="none" xmlns="http://www.w3.org/2000/svg">
<path fill-rule="evenodd" clip-rule="evenodd" d="M15.25 1.75C15.7258 1.75 16.1603 2.02009 16.3709 2.44672L19.9429 9.68308L27.9308 10.8506C28.4015 10.9194 28.7924 11.2495 28.9391 11.702C29.0858 12.1545 28.963 12.651 28.6222 12.9829L22.8432 18.6117L24.207 26.5637C24.2875 27.0327 24.0947 27.5067 23.7097 27.7863C23.3247 28.066 22.8144 28.1028 22.3932 27.8813L15.25 24.1248L8.10685 27.8813C7.68571 28.1028 7.17534 28.066 6.79037 27.7863C6.4054 27.5067 6.21259 27.0327 6.29303 26.5637L7.65688 18.6117L1.87787 12.9829C1.5371 12.651 1.41426 12.1545 1.56098 11.702C1.7077 11.2495 2.09855 10.9194 2.56925 10.8506L10.5572 9.68308L14.1292 2.44672C14.3397 2.02009 14.7743 1.75 15.25 1.75ZM15.25 5.82407L12.5084 11.3783C12.3265 11.7468 11.975 12.0024 11.5683 12.0619L5.43555 12.9583L9.8722 17.2796C10.167 17.5667 10.3016 17.9806 10.232 18.3863L9.18526 24.4896L14.6682 21.6062C15.0325 21.4146 15.4676 21.4146 15.8319 21.6062L21.3148 24.4896L20.268 18.3863C20.1985 17.9806 20.333 17.5667 20.6279 17.2796L25.0645 12.9583L18.9318 12.0619C18.5251 12.0024 18.1736 11.7468 17.9917 11.3783L15.25 5.82407Z" fill="#22242C"/>
</svg>
