<svg width="20" height="20" viewBox="0 0 20 20" fill="none" xmlns="http://www.w3.org/2000/svg">
<path d="M9.09371 7H11.0311V5H9.09371V7ZM10.0624 18C5.79042 18 2.31278 14.41 2.31278 10C2.31278 5.59 5.79042 2 10.0624 2C14.3344 2 17.812 5.59 17.812 10C17.812 14.41 14.3344 18 10.0624 18ZM10.0624 0C8.79029 0 7.53063 0.258658 6.35534 0.761205C5.18005 1.26375 4.11216 2.00035 3.21264 2.92893C1.39596 4.8043 0.375366 7.34784 0.375366 10C0.375366 12.6522 1.39596 15.1957 3.21264 17.0711C4.11216 17.9997 5.18005 18.7362 6.35534 19.2388C7.53063 19.7413 8.79029 20 10.0624 20C12.6316 20 15.0955 18.9464 16.9122 17.0711C18.7289 15.1957 19.7495 12.6522 19.7495 10C19.7495 8.68678 19.4989 7.38642 19.0121 6.17317C18.5253 4.95991 17.8117 3.85752 16.9122 2.92893C16.0127 2.00035 14.9448 1.26375 13.7695 0.761205C12.5942 0.258658 11.3345 0 10.0624 0ZM9.09371 15H11.0311V9H9.09371V15Z" fill="#00C3F9"/>
</svg>
