<svg width="22" height="23" viewBox="0 0 22 23" fill="none" xmlns="http://www.w3.org/2000/svg">
<path fill-rule="evenodd" clip-rule="evenodd" d="M11.7107 2.96054C12.748 1.95867 14.1374 1.4043 15.5794 1.41683C17.0215 1.42937 18.401 2.00779 19.4207 3.02754C20.4405 4.04728 21.0189 5.42675 21.0314 6.86883C21.044 8.31092 20.4896 9.70023 19.4877 10.7375L19.4766 10.7489L16.7267 13.4988C16.1691 14.0566 15.4981 14.4879 14.7592 14.7635C14.0202 15.0392 13.2307 15.1527 12.444 15.0964C11.6573 15.04 10.892 14.8152 10.1999 14.437C9.50778 14.0589 8.90508 13.5363 8.43269 12.9048C8.12945 12.4994 8.21226 11.9249 8.61766 11.6217C9.02305 11.3184 9.59752 11.4013 9.90076 11.8067C10.2157 12.2277 10.6175 12.5761 11.0789 12.8281C11.5403 13.0802 12.0505 13.2301 12.575 13.2677C13.0994 13.3053 13.6258 13.2296 14.1184 13.0458C14.611 12.8621 15.0584 12.5745 15.4301 12.2027L15.4302 12.2025L18.1743 9.45849C18.8389 8.76753 19.2065 7.84365 19.1982 6.88476C19.1898 5.92338 18.8042 5.00373 18.1244 4.3239C17.4445 3.64407 16.5249 3.25845 15.5635 3.2501C14.6042 3.24176 13.6799 3.60972 12.9889 4.27488L11.4172 5.83746C11.0582 6.19439 10.4778 6.1927 10.1208 5.83368C9.76388 5.47465 9.76558 4.89426 10.1246 4.53732L11.7013 2.96982L11.7107 2.96054Z" fill="#4A50E2"/>
<path fill-rule="evenodd" clip-rule="evenodd" d="M7.24075 8.1148C7.97968 7.83916 8.76925 7.72566 9.55591 7.782C10.3426 7.83833 11.1079 8.0632 11.8 8.44133C12.4921 8.81946 13.0948 9.34202 13.5672 9.97356C13.8705 10.379 13.7877 10.9534 13.3823 11.2567C12.9769 11.5599 12.4024 11.4771 12.0992 11.0717C11.7842 10.6507 11.3824 10.3023 10.921 10.0502C10.4596 9.79811 9.94938 9.6482 9.42495 9.61065C8.90051 9.57309 8.37413 9.64875 7.8815 9.83252C7.38888 10.0163 6.94154 10.3038 6.56982 10.6757L3.82565 13.4199C3.16103 14.1108 2.7934 15.0347 2.80173 15.9936C2.81009 16.955 3.19571 17.8746 3.87554 18.5544C4.55537 19.2343 5.47501 19.6199 6.4364 19.6283C7.39528 19.6366 8.31915 19.269 9.01011 18.6043L10.5717 17.0428C10.9297 16.6848 11.5101 16.6848 11.868 17.0428C12.226 17.4008 12.226 17.9812 11.868 18.3391L10.3005 19.9066L10.2892 19.9178C9.25186 20.9197 7.86255 21.474 6.42047 21.4615C4.97839 21.449 3.59892 20.8706 2.57917 19.8508C1.55943 18.8311 0.981001 17.4516 0.96847 16.0095C0.955938 14.5674 1.51031 13.1781 2.51218 12.1408L2.52334 12.1294L5.27323 9.37956C5.27326 9.37952 5.27319 9.3796 5.27323 9.37956C5.83078 8.82184 6.50186 8.39043 7.24075 8.1148Z" fill="#4A50E2"/>
</svg>
