<svg width="32" height="29" viewBox="0 0 32 29" fill="none" xmlns="http://www.w3.org/2000/svg">
<g clip-path="url(#clip0_1258_23320)">
<g filter="url(#filter0_d_1258_23320)">
<path d="M25 10C25 17 16 23 16 23C16 23 7 17 7 10C7 7.61305 7.94821 5.32387 9.63604 3.63604C11.3239 1.94821 13.6131 1 16 1C18.3869 1 20.6761 1.94821 22.364 3.63604C24.0518 5.32387 25 7.61305 25 10Z" fill="white"/>
<path d="M16 13C17.6569 13 19 11.6569 19 10C19 8.34315 17.6569 7 16 7C14.3431 7 13 8.34315 13 10C13 11.6569 14.3431 13 16 13Z" fill="white"/>
<path d="M25 10C25 17 16 23 16 23C16 23 7 17 7 10C7 7.61305 7.94821 5.32387 9.63604 3.63604C11.3239 1.94821 13.6131 1 16 1C18.3869 1 20.6761 1.94821 22.364 3.63604C24.0518 5.32387 25 7.61305 25 10Z" stroke="#8E8EA1" stroke-width="2" stroke-linecap="round" stroke-linejoin="round"/>
<path d="M16 13C17.6569 13 19 11.6569 19 10C19 8.34315 17.6569 7 16 7C14.3431 7 13 8.34315 13 10C13 11.6569 14.3431 13 16 13Z" stroke="#8E8EA1" stroke-width="2" stroke-linecap="round" stroke-linejoin="round"/>
</g>
</g>
<defs>
<filter id="filter0_d_1258_23320" x="-2" y="-4" width="36" height="40" filterUnits="userSpaceOnUse" color-interpolation-filters="sRGB">
<feFlood flood-opacity="0" result="BackgroundImageFix"/>
<feColorMatrix in="SourceAlpha" type="matrix" values="0 0 0 0 0 0 0 0 0 0 0 0 0 0 0 0 0 0 127 0" result="hardAlpha"/>
<feOffset dy="4"/>
<feGaussianBlur stdDeviation="4"/>
<feComposite in2="hardAlpha" operator="out"/>
<feColorMatrix type="matrix" values="0 0 0 0 0 0 0 0 0 0 0 0 0 0 0 0 0 0 0.15 0"/>
<feBlend mode="normal" in2="BackgroundImageFix" result="effect1_dropShadow_1258_23320"/>
<feBlend mode="normal" in="SourceGraphic" in2="effect1_dropShadow_1258_23320" result="shape"/>
</filter>
<clipPath id="clip0_1258_23320">
<rect width="32" height="29" fill="white"/>
</clipPath>
</defs>
</svg>
