<svg width="28" height="25" viewBox="0 0 28 25" fill="none" xmlns="http://www.w3.org/2000/svg">
<path d="M24.1753 18C25.1609 17.3014 25.9042 16.3002 26.298 15.1407C26.6918 13.9812 26.7156 12.7236 26.3661 11.5494C26.0166 10.3751 25.3118 9.34501 24.3534 8.60779C23.395 7.87056 22.2327 7.46435 21.0343 7.4478H18.7728C18.393 6.13557 17.7262 4.92923 16.8232 3.92039C15.9201 2.91156 14.8045 2.12677 13.561 1.6256C12.3175 1.12444 10.9789 0.920096 9.64679 1.02808C8.31467 1.13607 7.02409 1.55355 5.87306 2.24881C4.72203 2.94408 3.74082 3.89885 3.00394 5.04063C2.26706 6.1824 1.79389 7.48114 1.62037 8.83823C1.44684 10.1953 1.57752 11.5751 2.00249 12.8727C2.42745 14.1703 3.13552 15.3517 4.07293 16.3271" stroke="#0FAFE4" stroke-width="2" stroke-linecap="round" stroke-linejoin="round"/>
<path d="M13.5771 17L13.5771 24" stroke="#0FAFE4" stroke-width="2" stroke-linecap="round" stroke-linejoin="round"/>
<path d="M19.5935 18L14.079 13L8.56445 18" stroke="#0FAFE4" stroke-width="2" stroke-linecap="round" stroke-linejoin="round"/>
</svg>
