<svg width="28" height="22" viewBox="0 0 28 22" fill="none" xmlns="http://www.w3.org/2000/svg">
<path fill-rule="evenodd" clip-rule="evenodd" d="M2.49753 11C2.62504 11.2203 2.79408 11.5011 3.00348 11.8254C3.54134 12.6582 4.33786 13.7657 5.37196 14.8687C7.46144 17.0975 10.3828 19.1667 14 19.1667C17.6172 19.1667 20.5386 17.0975 22.628 14.8687C23.6621 13.7657 24.4587 12.6582 24.9965 11.8254C25.2059 11.5011 25.375 11.2203 25.5025 11C25.375 10.7797 25.2059 10.4989 24.9965 10.1746C24.4587 9.3418 23.6621 8.2343 22.628 7.13126C20.5386 4.90249 17.6172 2.83333 14 2.83333C10.3828 2.83333 7.46144 4.90249 5.37196 7.13126C4.33786 8.2343 3.54134 9.3418 3.00348 10.1746C2.79408 10.4989 2.62504 10.7797 2.49753 11ZM26.8333 11C27.8768 10.4783 27.8766 10.4779 27.8764 10.4774L27.8745 10.4737L27.8705 10.4657L27.8573 10.4398C27.8461 10.4182 27.8304 10.3879 27.8101 10.3495C27.7695 10.2728 27.7106 10.1638 27.6337 10.027C27.4799 9.75358 27.2535 9.36844 26.9566 8.90872C26.3643 7.99153 25.4837 6.7657 24.3303 5.5354C22.0448 3.09751 18.5494 0.5 14 0.5C9.45057 0.5 5.95523 3.09751 3.66971 5.5354C2.51631 6.7657 1.63574 7.99153 1.04339 8.90872C0.746492 9.36844 0.520091 9.75358 0.3663 10.027C0.289361 10.1638 0.230463 10.2728 0.189879 10.3495C0.169583 10.3879 0.153854 10.4182 0.142728 10.4398L0.129488 10.4657L0.125462 10.4737L0.124098 10.4764C0.123884 10.4768 0.123168 10.4783 1.16667 11L0.123168 10.4782C-0.0410561 10.8067 -0.0410561 11.1933 0.123168 11.5217L1.16667 11C0.123168 11.5217 0.122954 11.5213 0.123168 11.5217L0.125462 11.5263L0.129488 11.5343L0.142728 11.5602C0.153854 11.5818 0.169583 11.6121 0.189879 11.6505C0.230463 11.7272 0.289361 11.8362 0.3663 11.973C0.520091 12.2464 0.746492 12.6316 1.04339 13.0913C1.63574 14.0085 2.51631 15.2343 3.66971 16.4646C5.95523 18.9025 9.45057 21.5 14 21.5C18.5494 21.5 22.0448 18.9025 24.3303 16.4646C25.4837 15.2343 26.3643 14.0085 26.9566 13.0913C27.2535 12.6316 27.4799 12.2464 27.6337 11.973C27.7106 11.8362 27.7695 11.7272 27.8101 11.6505C27.8304 11.6121 27.8461 11.5818 27.8573 11.5602L27.8705 11.5343L27.8745 11.5263L27.8759 11.5236C27.8761 11.5232 27.8768 11.5217 26.8333 11ZM26.8333 11L27.8768 11.5217C28.0411 11.1933 28.0406 10.8059 27.8764 10.4774L26.8333 11ZM14 8.66667C12.7113 8.66667 11.6667 9.71134 11.6667 11C11.6667 12.2887 12.7113 13.3333 14 13.3333C15.2887 13.3333 16.3333 12.2887 16.3333 11C16.3333 9.71134 15.2887 8.66667 14 8.66667ZM9.33333 11C9.33333 8.42267 11.4227 6.33333 14 6.33333C16.5773 6.33333 18.6667 8.42267 18.6667 11C18.6667 13.5773 16.5773 15.6667 14 15.6667C11.4227 15.6667 9.33333 13.5773 9.33333 11Z" fill="#22242C"/>
</svg>
