<svg width="34" height="34" viewBox="0 0 34 34" fill="none" xmlns="http://www.w3.org/2000/svg">
<circle cx="17.4277" cy="17" r="16.25" stroke="#22242C" stroke-width="0.5" stroke-linecap="round" stroke-linejoin="round" stroke-dasharray="4 4"/>
<g clip-path="url(#clip0_4491_12560)">
<path fill-rule="evenodd" clip-rule="evenodd" d="M8.39008 17.5C8.49026 17.6731 8.62308 17.8938 8.78761 18.1485C9.21022 18.8029 9.83605 19.673 10.6486 20.5397C12.2903 22.2909 14.5856 23.9167 17.4277 23.9167C20.2699 23.9167 22.5652 22.2909 24.2069 20.5397C25.0194 19.673 25.6453 18.8029 26.0679 18.1485C26.2324 17.8938 26.3652 17.6731 26.4654 17.5C26.3652 17.3269 26.2324 17.1062 26.0679 16.8515C25.6453 16.1971 25.0194 15.327 24.2069 14.4603C22.5652 12.7091 20.2699 11.0833 17.4277 11.0833C14.5856 11.0833 12.2903 12.7091 10.6486 14.4603C9.83605 15.327 9.21022 16.1971 8.78761 16.8515C8.62308 17.1062 8.49026 17.3269 8.39008 17.5ZM27.5111 17.5C28.331 17.0901 28.3308 17.0897 28.3306 17.0894L28.3292 17.0865L28.326 17.0802L28.3156 17.0598C28.3068 17.0428 28.2945 17.019 28.2785 16.9889C28.2467 16.9286 28.2004 16.843 28.1399 16.7355C28.0191 16.5207 27.8412 16.2181 27.6079 15.8569C27.1425 15.1362 26.4506 14.173 25.5444 13.2064C23.7486 11.2909 21.0023 9.25 17.4277 9.25C13.8532 9.25 11.1068 11.2909 9.31108 13.2064C8.40483 14.173 7.71296 15.1362 7.24754 15.8569C7.01426 16.2181 6.83638 16.5207 6.71554 16.7355C6.65509 16.843 6.60881 16.9286 6.57692 16.9889C6.56098 17.019 6.54862 17.0428 6.53988 17.0598L6.52948 17.0802L6.52631 17.0865L6.52524 17.0886C6.52507 17.0889 6.52451 17.0901 7.3444 17.5L6.52451 17.0901C6.39548 17.3481 6.39548 17.6519 6.52451 17.9099L7.3444 17.5C6.52451 17.9099 6.52434 17.9096 6.52451 17.9099L6.52631 17.9135L6.52948 17.9198L6.53988 17.9402C6.54862 17.9572 6.56098 17.981 6.57692 18.0111C6.60881 18.0714 6.65509 18.157 6.71554 18.2645C6.83638 18.4793 7.01426 18.7819 7.24754 19.1431C7.71296 19.8638 8.40483 20.827 9.31108 21.7936C11.1068 23.7091 13.8532 25.75 17.4277 25.75C21.0023 25.75 23.7486 23.7091 25.5444 21.7936C26.4506 20.827 27.1425 19.8638 27.6079 19.1431C27.8412 18.7819 28.0191 18.4793 28.1399 18.2645C28.2004 18.157 28.2467 18.0714 28.2785 18.0111C28.2945 17.981 28.3068 17.9572 28.3156 17.9402L28.326 17.9198L28.3292 17.9135L28.3302 17.9114C28.3304 17.9111 28.331 17.9099 27.5111 17.5ZM27.5111 17.5L28.331 17.9099C28.46 17.6519 28.4597 17.3475 28.3306 17.0894L27.5111 17.5ZM17.4277 15.6667C16.4152 15.6667 15.5944 16.4875 15.5944 17.5C15.5944 18.5125 16.4152 19.3333 17.4277 19.3333C18.4403 19.3333 19.2611 18.5125 19.2611 17.5C19.2611 16.4875 18.4403 15.6667 17.4277 15.6667ZM13.7611 17.5C13.7611 15.475 15.4027 13.8333 17.4277 13.8333C19.4528 13.8333 21.0944 15.475 21.0944 17.5C21.0944 19.525 19.4528 21.1667 17.4277 21.1667C15.4027 21.1667 13.7611 19.525 13.7611 17.5Z" fill="#22242C"/>
</g>
<defs>
<clipPath id="clip0_4491_12560">
<rect width="22" height="22" fill="white" transform="translate(6.42773 6.5)"/>
</clipPath>
</defs>
</svg>
