<svg width="25" height="25" viewBox="0 0 25 25" fill="none" xmlns="http://www.w3.org/2000/svg">
<g clip-path="url(#clip0_2444_50688)">
<path d="M18.75 3.50006C19.0126 3.23741 19.3244 3.02907 19.6676 2.88693C20.0108 2.74479 20.3786 2.67163 20.75 2.67163C21.1214 2.67163 21.4892 2.74479 21.8324 2.88693C22.1756 3.02907 22.4874 3.23741 22.75 3.50006C23.0126 3.7627 23.221 4.07451 23.3631 4.41767C23.5053 4.76083 23.5784 5.12862 23.5784 5.50006C23.5784 5.87149 23.5053 6.23929 23.3631 6.58245C23.221 6.92561 23.0126 7.23741 22.75 7.50006L9.25 21.0001L3.75 22.5001L5.25 17.0001L18.75 3.50006Z" stroke="white" stroke-width="2" stroke-linecap="round" stroke-linejoin="round"/>
</g>
<defs>
<clipPath id="clip0_2444_50688">
<rect width="24" height="24" fill="white" transform="translate(0.75 0.5)"/>
</clipPath>
</defs>
</svg>
