<svg width="22" height="22" viewBox="0 0 22 22" fill="none" xmlns="http://www.w3.org/2000/svg">
<path d="M5.125 15.375L6.875 8.375H20L17.375 18C17.2036 18.3036 16.9455 18.549 16.6337 18.7049C16.3219 18.8608 15.9707 18.92 15.625 18.875H4.25C3.78587 18.875 3.34075 18.6906 3.01256 18.3624C2.68437 18.0342 2.5 17.5891 2.5 17.125V4.875C2.5 4.41087 2.68437 3.96575 3.01256 3.63756C3.34075 3.30937 3.78587 3.125 4.25 3.125H8.625L10.375 5.75H16.5C16.9641 5.75 17.4092 5.93437 17.7374 6.26256C18.0656 6.59075 18.25 7.03587 18.25 7.5V8.375" stroke="white" stroke-width="2" stroke-linecap="round" stroke-linejoin="round"/>
<path d="M14.75 13.625H9.5M12.125 11V16.25" stroke="white" stroke-width="2" stroke-linecap="round" stroke-linejoin="round"/>
</svg>
