<svg width="22" height="22" viewBox="0 0 22 22" fill="none" xmlns="http://www.w3.org/2000/svg">
<path d="M3.375 5.75H5.125H19.125" stroke="white" stroke-width="2" stroke-linecap="round" stroke-linejoin="round"/>
<path d="M18.375 5.75C18.375 5.19772 17.9273 4.75 17.375 4.75C16.8227 4.75 16.375 5.19772 16.375 5.75H18.375ZM6.125 5.75C6.125 5.19772 5.67728 4.75 5.125 4.75C4.57272 4.75 4.125 5.19772 4.125 5.75H6.125ZM6.75 5.75C6.75 6.30228 7.19772 6.75 7.75 6.75C8.30228 6.75 8.75 6.30228 8.75 5.75H6.75ZM13.75 5.75C13.75 6.30228 14.1977 6.75 14.75 6.75C15.3023 6.75 15.75 6.30228 15.75 5.75H13.75ZM16.375 5.75V18H18.375V5.75H16.375ZM16.375 18C16.375 18.4142 16.0392 18.75 15.625 18.75V20.75C17.1438 20.75 18.375 19.5188 18.375 18H16.375ZM15.625 18.75H6.875V20.75H15.625V18.75ZM6.875 18.75C6.46079 18.75 6.125 18.4142 6.125 18H4.125C4.125 19.5188 5.35622 20.75 6.875 20.75V18.75ZM6.125 18V5.75H4.125V18H6.125ZM8.75 5.75V4H6.75V5.75H8.75ZM8.75 4C8.75 3.58579 9.08579 3.25 9.5 3.25V1.25C7.98122 1.25 6.75 2.48122 6.75 4H8.75ZM9.5 3.25H13V1.25H9.5V3.25ZM13 3.25C13.4142 3.25 13.75 3.58579 13.75 4H15.75C15.75 2.48122 14.5188 1.25 13 1.25V3.25ZM13.75 4V5.75H15.75V4H13.75Z" fill="white"/>
<path d="M9.5 10.125V15.375" stroke="white" stroke-width="2" stroke-linecap="round" stroke-linejoin="round"/>
<path d="M13 10.125V15.375" stroke="white" stroke-width="2" stroke-linecap="round" stroke-linejoin="round"/>
</svg>
