<svg width="25" height="25" viewBox="0 0 25 25" fill="none" xmlns="http://www.w3.org/2000/svg">
<path d="M9.5 13.375C10.0523 13.375 10.5 12.9273 10.5 12.375C10.5 11.8227 10.0523 11.375 9.5 11.375C8.94772 11.375 8.5 11.8227 8.5 12.375C8.5 12.9273 8.94772 13.375 9.5 13.375Z" stroke="#8E8EA1" stroke-width="2" stroke-linecap="round" stroke-linejoin="round"/>
<path d="M9.5 6.375C10.0523 6.375 10.5 5.92728 10.5 5.375C10.5 4.82272 10.0523 4.375 9.5 4.375C8.94772 4.375 8.5 4.82272 8.5 5.375C8.5 5.92728 8.94772 6.375 9.5 6.375Z" stroke="#8E8EA1" stroke-width="2" stroke-linecap="round" stroke-linejoin="round"/>
<path d="M9.5 20.375C10.0523 20.375 10.5 19.9273 10.5 19.375C10.5 18.8227 10.0523 18.375 9.5 18.375C8.94772 18.375 8.5 18.8227 8.5 19.375C8.5 19.9273 8.94772 20.375 9.5 20.375Z" stroke="#8E8EA1" stroke-width="2" stroke-linecap="round" stroke-linejoin="round"/>
<path d="M15.5 13.375C16.0523 13.375 16.5 12.9273 16.5 12.375C16.5 11.8227 16.0523 11.375 15.5 11.375C14.9477 11.375 14.5 11.8227 14.5 12.375C14.5 12.9273 14.9477 13.375 15.5 13.375Z" stroke="#8E8EA1" stroke-width="2" stroke-linecap="round" stroke-linejoin="round"/>
<path d="M15.5 6.375C16.0523 6.375 16.5 5.92728 16.5 5.375C16.5 4.82272 16.0523 4.375 15.5 4.375C14.9477 4.375 14.5 4.82272 14.5 5.375C14.5 5.92728 14.9477 6.375 15.5 6.375Z" stroke="#8E8EA1" stroke-width="2" stroke-linecap="round" stroke-linejoin="round"/>
<path d="M15.5 20.375C16.0523 20.375 16.5 19.9273 16.5 19.375C16.5 18.8227 16.0523 18.375 15.5 18.375C14.9477 18.375 14.5 18.8227 14.5 19.375C14.5 19.9273 14.9477 20.375 15.5 20.375Z" stroke="#8E8EA1" stroke-width="2" stroke-linecap="round" stroke-linejoin="round"/>
</svg>
