<svg width="34" height="33" viewBox="0 0 34 33" fill="none" xmlns="http://www.w3.org/2000/svg">
<circle cx="17" cy="16.5" r="16.25" stroke="#22242C" stroke-width="0.5" stroke-linecap="round" stroke-linejoin="round" stroke-dasharray="4 4"/>
<path d="M25 13V11.5L19.5 6H11C10.4696 6 9.96086 6.21071 9.58579 6.58579C9.21071 6.96086 9 7.46957 9 8V24C9 24.5304 9.21071 25.0391 9.58579 25.4142C9.96086 25.7893 10.4696 26 11 26H23C23.5304 26 24.0391 25.7893 24.4142 25.4142C24.7893 25.0391 25 24.5304 25 24V21.5" stroke="#22242C" stroke-width="2" stroke-linecap="round" stroke-linejoin="round"/>
<path d="M19 6V12H25" stroke="#22242C" stroke-width="2" stroke-linecap="round" stroke-linejoin="round"/>
<path d="M14 17H13" stroke="#22242C" stroke-width="2" stroke-linecap="round" stroke-linejoin="round"/>
<path d="M16.5 21H13" stroke="#22242C" stroke-width="2" stroke-linecap="round" stroke-linejoin="round"/>
<path d="M15 13H13" stroke="#22242C" stroke-width="2" stroke-linecap="round" stroke-linejoin="round"/>
<path d="M21.5519 22C21.2578 22 20.9672 21.8793 20.7469 21.6439L17.3334 17.9964C16.8889 17.5215 16.8889 16.7517 17.3334 16.2773C17.7779 15.8024 18.4977 15.8024 18.9422 16.2773L21.687 19.2102L27.2183 14.2135C27.7361 13.8338 28.4446 13.9745 28.7999 14.5278C29.1559 15.0816 29.0242 15.838 28.5059 16.2184L22.1957 21.7871C21.9998 21.9302 21.7756 22 21.5519 22Z" fill="#22242C"/>
</svg>
