<svg width="34" height="33" viewBox="0 0 34 33" fill="none" xmlns="http://www.w3.org/2000/svg">
<circle cx="17" cy="16.5" r="16.25" stroke="#22242C" stroke-width="0.5" stroke-linecap="round" stroke-linejoin="round" stroke-dasharray="4 4"/>
<g clip-path="url(#clip0_1227_7979)">
<path fill-rule="evenodd" clip-rule="evenodd" d="M16.1666 8.66659C14.6478 8.66659 13.4166 9.8978 13.4166 11.4166C13.4166 12.9354 14.6478 14.1666 16.1666 14.1666C17.6854 14.1666 18.9166 12.9354 18.9166 11.4166C18.9166 9.8978 17.6854 8.66659 16.1666 8.66659ZM11.5833 11.4166C11.5833 8.88528 13.6353 6.83325 16.1666 6.83325C18.6979 6.83325 20.75 8.88528 20.75 11.4166C20.75 13.9479 18.6979 15.9999 16.1666 15.9999C13.6353 15.9999 11.5833 13.9479 11.5833 11.4166ZM25.3335 10.4998C25.8397 10.4998 26.2501 10.9102 26.2501 11.4164V13.2499H28.0836C28.5899 13.2499 29.0003 13.6603 29.0003 14.1666C29.0003 14.6728 28.5899 15.0833 28.0836 15.0833H26.2501V16.9167C26.2501 17.423 25.8397 17.8334 25.3335 17.8334C24.8272 17.8334 24.4168 17.423 24.4168 16.9167V15.0833H22.5833C22.077 15.0833 21.6666 14.6728 21.6666 14.1666C21.6666 13.6603 22.077 13.2499 22.5833 13.2499H24.4168V11.4164C24.4168 10.9102 24.8272 10.4998 25.3335 10.4998ZM9.25905 19.1757C10.1186 18.3161 11.2844 17.8333 12.5 17.8333H19.8333C21.0489 17.8333 22.2147 18.3161 23.0742 19.1757C23.9337 20.0352 24.4166 21.201 24.4166 22.4166V24.2499C24.4166 24.7562 24.0062 25.1666 23.5 25.1666C22.9937 25.1666 22.5833 24.7562 22.5833 24.2499V22.4166C22.5833 21.6872 22.2936 20.9878 21.7778 20.472C21.2621 19.9563 20.5626 19.6666 19.8333 19.6666H12.5C11.7706 19.6666 11.0711 19.9563 10.5554 20.472C10.0397 20.9878 9.74996 21.6872 9.74996 22.4166V24.2499C9.74996 24.7562 9.33955 25.1666 8.83329 25.1666C8.32703 25.1666 7.91663 24.7562 7.91663 24.2499V22.4166C7.91663 21.201 8.39951 20.0352 9.25905 19.1757Z" fill="#22242C"/>
</g>
<defs>
<clipPath id="clip0_1227_7979">
<rect width="22" height="22" fill="white" transform="translate(7 5)"/>
</clipPath>
</defs>
</svg>
