<svg width="34" height="34" viewBox="0 0 34 34" fill="none" xmlns="http://www.w3.org/2000/svg">
<circle cx="17" cy="17" r="16.25" stroke="#4A50E2" stroke-width="0.5" stroke-linecap="round" stroke-linejoin="round" stroke-dasharray="4 4"/>
<path fill-rule="evenodd" clip-rule="evenodd" d="M21.8476 10.059C21.3304 9.54277 20.6293 9.2531 19.8986 9.25374C19.1679 9.25439 18.4673 9.5453 17.951 10.0625L10.0946 17.9189C9.23451 18.779 8.7513 19.9456 8.7513 21.1619C8.7513 22.3783 9.23451 23.5449 10.0946 24.405C10.9547 25.2651 12.1213 25.7483 13.3377 25.7483C14.5541 25.7483 15.7206 25.2651 16.5808 24.405L25.0049 15.9808C25.3629 15.6229 25.9433 15.6229 26.3013 15.9808C26.6593 16.3388 26.6593 16.9192 26.3013 17.2772L17.8771 25.7014C16.6732 26.9053 15.0403 27.5817 13.3377 27.5817C11.6351 27.5817 10.0022 26.9053 8.79826 25.7014C7.59433 24.4974 6.91797 22.8646 6.91797 21.1619C6.91797 19.4593 7.59433 17.8264 8.79826 16.6225L16.6535 8.76725C17.5132 7.90632 18.6803 7.42149 19.897 7.42041C21.114 7.41934 22.2815 7.90175 23.1428 8.76152C24.0041 9.62129 24.4886 10.788 24.4896 12.005C24.4907 13.222 24.0083 14.3895 23.1485 15.2508L15.2738 23.1072C14.7579 23.6231 14.0581 23.913 13.3285 23.913C12.5989 23.913 11.8992 23.6231 11.3833 23.1072C10.8673 22.5913 10.5775 21.8916 10.5775 21.1619C10.5775 20.4323 10.8673 19.7326 11.3833 19.2167L19.1661 11.443C19.5243 11.0852 20.1047 11.0855 20.4625 11.4437C20.8203 11.8019 20.8199 12.3823 20.4617 12.7401L12.6796 20.513C12.5078 20.6851 12.4108 20.9187 12.4108 21.1619C12.4108 21.4053 12.5075 21.6387 12.6796 21.8108C12.8517 21.9829 13.0851 22.0796 13.3285 22.0796C13.5719 22.0796 13.8053 21.9829 13.9774 21.8108L21.851 13.9556C21.8513 13.9553 21.8515 13.9551 21.8518 13.9548C22.3676 13.4377 22.657 12.737 22.6563 12.0066C22.6557 11.2758 22.3648 10.5753 21.8476 10.059Z" fill="#4A50E2"/>
</svg>
