<svg width="34" height="34" viewBox="0 0 34 34" fill="none" xmlns="http://www.w3.org/2000/svg">
<circle cx="17" cy="17" r="16.25" stroke="#4A50E2" stroke-width="0.5" stroke-linecap="round" stroke-linejoin="round" stroke-dasharray="4 4"/>
<path fill-rule="evenodd" clip-rule="evenodd" d="M17.7107 8.96042C18.748 7.95855 20.1374 7.40418 21.5794 7.41671C23.0215 7.42924 24.401 8.00767 25.4207 9.02742C26.4405 10.0472 27.0189 11.4266 27.0314 12.8687C27.044 14.3108 26.4896 15.7001 25.4877 16.7374L25.4766 16.7488L22.7267 19.4987C22.1691 20.0564 21.4981 20.4878 20.7592 20.7634C20.0202 21.0391 19.2307 21.1526 18.444 21.0962C17.6573 21.0399 16.892 20.815 16.1999 20.4369C15.5078 20.0588 14.9051 19.5362 14.4327 18.9047C14.1294 18.4993 14.2123 17.9248 14.6177 17.6216C15.0231 17.3183 15.5975 17.4011 15.9008 17.8065C16.2157 18.2276 16.6175 18.5759 17.0789 18.828C17.5403 19.0801 18.0505 19.23 18.575 19.2676C19.0994 19.3051 19.6258 19.2295 20.1184 19.0457C20.611 18.8619 21.0584 18.5744 21.4301 18.2025L21.4302 18.2024L24.1743 15.4584C24.8389 14.7674 25.2065 13.8435 25.1982 12.8846C25.1898 11.9233 24.8042 11.0036 24.1244 10.3238C23.4445 9.64395 22.5249 9.25833 21.5635 9.24998C20.6042 9.24164 19.6799 9.60959 18.9889 10.2748L17.4172 11.8373C17.0582 12.1943 16.4778 12.1926 16.1208 11.8336C15.7639 11.4745 15.7656 10.8941 16.1246 10.5372L17.7013 8.9697L17.7107 8.96042Z" fill="#4A50E2"/>
<path fill-rule="evenodd" clip-rule="evenodd" d="M13.2412 14.1149C13.9802 13.8393 14.7697 13.7258 15.5564 13.7821C16.3431 13.8385 17.1084 14.0633 17.8005 14.4415C18.4926 14.8196 19.0953 15.3421 19.5677 15.9737C19.871 16.3791 19.7881 16.9535 19.3827 17.2568C18.9773 17.56 18.4029 17.4772 18.0996 17.0718C17.7847 16.6508 17.3829 16.3024 16.9215 16.0503C16.4601 15.7982 15.9499 15.6483 15.4254 15.6108C14.901 15.5732 14.3746 15.6489 13.882 15.8326C13.3894 16.0164 12.942 16.304 12.5703 16.6758L9.82614 19.42C9.16152 20.1109 8.79389 21.0348 8.80222 21.9937C8.81058 22.9551 9.1962 23.8747 9.87603 24.5546C10.5559 25.2344 11.4755 25.62 12.4369 25.6284C13.3958 25.6367 14.3196 25.2691 15.0106 24.6045L16.5722 23.0429C16.9301 22.6849 17.5105 22.6849 17.8685 23.0429C18.2265 23.4009 18.2265 23.9813 17.8685 24.3393L16.301 25.9068L16.2897 25.9179C15.2524 26.9198 13.863 27.4742 12.421 27.4616C10.9789 27.4491 9.59941 26.8707 8.57966 25.8509C7.55992 24.8312 6.98149 23.4517 6.96896 22.0096C6.95643 20.5676 7.5108 19.1782 8.51267 18.1409L8.52383 18.1296L11.2737 15.3797C11.2738 15.3796 11.2737 15.3797 11.2737 15.3797C11.8313 14.822 12.5024 14.3906 13.2412 14.1149Z" fill="#4A50E2"/>
</svg>
