<svg width="34" height="34" viewBox="0 0 34 34" fill="none" xmlns="http://www.w3.org/2000/svg">
<circle cx="17" cy="17" r="16.25" stroke="#4A50E2" stroke-width="0.5" stroke-linecap="round" stroke-linejoin="round" stroke-dasharray="4 4"/>
<path fill-rule="evenodd" clip-rule="evenodd" d="M21.5837 16.5835C21.0774 16.5835 20.667 16.9939 20.667 17.5002C20.667 18.0064 21.0774 18.4168 21.5837 18.4168C22.0899 18.4168 22.5003 18.0064 22.5003 17.5002C22.5003 16.9939 22.0899 16.5835 21.5837 16.5835ZM18.9901 16.5835C19.3677 15.5154 20.3863 14.7502 21.5837 14.7502C23.1024 14.7502 24.3337 15.9814 24.3337 17.5002C24.3337 19.0189 23.1024 20.2502 21.5837 20.2502C20.3863 20.2502 19.3677 19.4849 18.9901 18.4168H15.167V22.0835C15.167 22.3266 15.2636 22.5598 15.4355 22.7317C15.6074 22.9036 15.8405 23.0002 16.0837 23.0002H21.5837C21.6355 23.0002 21.6863 23.0045 21.7357 23.0127C22.1097 21.9381 23.1316 21.1668 24.3337 21.1668C25.8524 21.1668 27.0837 22.398 27.0837 23.9168C27.0837 25.4356 25.8524 26.6668 24.3337 26.6668C23.1316 26.6668 22.1097 25.8956 21.7357 24.8209C21.6863 24.8292 21.6355 24.8335 21.5837 24.8335H16.0837C15.3543 24.8335 14.6548 24.5438 14.1391 24.028C13.6234 23.5123 13.3337 22.8128 13.3337 22.0835V18.4168H10.5837C10.0774 18.4168 9.66699 18.0064 9.66699 17.5002C9.66699 16.9939 10.0774 16.5835 10.5837 16.5835H18.9901ZM24.3337 23.0002C23.8274 23.0002 23.417 23.4106 23.417 23.9168C23.417 24.4231 23.8274 24.8335 24.3337 24.8335C24.8399 24.8335 25.2503 24.4231 25.2503 23.9168C25.2503 23.4106 24.8399 23.0002 24.3337 23.0002Z" fill="#4A50E2"/>
<path fill-rule="evenodd" clip-rule="evenodd" d="M15.167 12.9168V16.5835H13.3337V12.9168C13.3337 12.1875 13.6234 11.488 14.1391 10.9723C14.6548 10.4566 15.3543 10.1668 16.0837 10.1668H21.5837C21.6355 10.1668 21.6863 10.1711 21.7357 10.1794C22.1097 9.10474 23.1316 8.3335 24.3337 8.3335C25.8524 8.3335 27.0837 9.56471 27.0837 11.0835C27.0837 12.6023 25.8524 13.8335 24.3337 13.8335C23.1316 13.8335 22.1097 13.0623 21.7357 11.9876C21.6863 11.9959 21.6355 12.0002 21.5837 12.0002H16.0837C15.8405 12.0002 15.6074 12.0967 15.4355 12.2686C15.2636 12.4406 15.167 12.6737 15.167 12.9168ZM24.3337 12.0002C23.8274 12.0002 23.417 11.5898 23.417 11.0835C23.417 10.5772 23.8274 10.1668 24.3337 10.1668C24.8399 10.1668 25.2503 10.5772 25.2503 11.0835C25.2503 11.5898 24.8399 12.0002 24.3337 12.0002Z" fill="#4A50E2"/>
<path fill-rule="evenodd" clip-rule="evenodd" d="M8.77139 14.75C7.57402 14.75 6.55539 15.5152 6.17787 16.5833C5.87574 17.4384 6.0158 17.9583 6.17787 18.4167C6.55539 19.4848 7.57402 20.25 8.77139 20.25C10.2902 20.25 11.5214 19.0188 11.5214 17.5C11.5214 15.9812 10.2902 14.75 8.77139 14.75ZM8.77139 16.5833C8.26513 16.5833 7.85472 16.9937 7.85472 17.5C7.85472 18.0063 8.26513 18.4167 8.77139 18.4167C9.27765 18.4167 9.68806 18.0063 9.68806 17.5C9.68806 16.9937 9.27765 16.5833 8.77139 16.5833Z" fill="#4A50E2"/>
</svg>
