<svg width="34" height="33" viewBox="0 0 34 33" fill="none" xmlns="http://www.w3.org/2000/svg">
<circle cx="17" cy="16.5" r="16.25" stroke="#22242C" stroke-width="0.5" stroke-linecap="round" stroke-linejoin="round" stroke-dasharray="4 4"/>
<path fill-rule="evenodd" clip-rule="evenodd" d="M7.96235 17C8.06253 17.1731 8.19535 17.3938 8.35988 17.6485C8.78248 18.3029 9.40832 19.173 10.2208 20.0397C11.8626 21.7909 14.1579 23.4167 17 23.4167C19.8421 23.4167 22.1374 21.7909 23.7792 20.0397C24.5917 19.173 25.2175 18.3029 25.6401 17.6485C25.8047 17.3938 25.9375 17.1731 26.0377 17C25.9375 16.8269 25.8047 16.6062 25.6401 16.3515C25.2175 15.6971 24.5917 14.827 23.7792 13.9603C22.1374 12.2091 19.8421 10.5833 17 10.5833C14.1579 10.5833 11.8626 12.2091 10.2208 13.9603C9.40832 14.827 8.78248 15.6971 8.35988 16.3515C8.19535 16.6062 8.06253 16.8269 7.96235 17ZM27.0833 17C27.9032 16.5901 27.9031 16.5897 27.9029 16.5894L27.9014 16.5865L27.8983 16.5802L27.8879 16.5598C27.8791 16.5428 27.8668 16.519 27.8508 16.4889C27.8189 16.4286 27.7726 16.343 27.7122 16.2355C27.5914 16.0207 27.4135 15.7181 27.1802 15.3569C26.7148 14.6362 26.0229 13.673 25.1167 12.7064C23.3209 10.7909 20.5745 8.75 17 8.75C13.4255 8.75 10.6791 10.7909 8.88334 12.7064C7.9771 13.673 7.28523 14.6362 6.81981 15.3569C6.58653 15.7181 6.40864 16.0207 6.28781 16.2355C6.22735 16.343 6.18108 16.4286 6.14919 16.4889C6.13324 16.519 6.12089 16.5428 6.11214 16.5598L6.10174 16.5802L6.09858 16.5865L6.09751 16.5886C6.09734 16.5889 6.09678 16.5901 6.91667 17L6.09678 16.5901C5.96774 16.8481 5.96774 17.1519 6.09678 17.4099L6.91667 17C6.09678 17.4099 6.09661 17.4096 6.09678 17.4099L6.09858 17.4135L6.10174 17.4198L6.11214 17.4402C6.12089 17.4572 6.13324 17.481 6.14919 17.5111C6.18108 17.5714 6.22735 17.657 6.28781 17.7645C6.40864 17.9793 6.58653 18.2819 6.81981 18.6431C7.28523 19.3638 7.9771 20.327 8.88334 21.2936C10.6791 23.2091 13.4255 25.25 17 25.25C20.5745 25.25 23.3209 23.2091 25.1167 21.2936C26.0229 20.327 26.7148 19.3638 27.1802 18.6431C27.4135 18.2819 27.5914 17.9793 27.7122 17.7645C27.7726 17.657 27.8189 17.5714 27.8508 17.5111C27.8668 17.481 27.8791 17.4572 27.8879 17.4402L27.8983 17.4198L27.9014 17.4135L27.9025 17.4114C27.9027 17.4111 27.9032 17.4099 27.0833 17ZM27.0833 17L27.9032 17.4099C28.0323 17.1519 28.0319 16.8475 27.9029 16.5894L27.0833 17ZM17 15.1667C15.9875 15.1667 15.1667 15.9875 15.1667 17C15.1667 18.0125 15.9875 18.8333 17 18.8333C18.0125 18.8333 18.8333 18.0125 18.8333 17C18.8333 15.9875 18.0125 15.1667 17 15.1667ZM13.3333 17C13.3333 14.975 14.975 13.3333 17 13.3333C19.025 13.3333 20.6667 14.975 20.6667 17C20.6667 19.025 19.025 20.6667 17 20.6667C14.975 20.6667 13.3333 19.025 13.3333 17Z" fill="#22242C"/>
</svg>
