<svg width="33" height="10" viewBox="0 0 33 10" fill="none" xmlns="http://www.w3.org/2000/svg">
<path d="M0.5295 9V7.2H2.4255V2.376H3.4335L0.7335 3.912V1.872L3.0615 0.539999H4.6335V7.2H6.3975V9H0.5295ZM8.39881 9V6.816H10.6188V9H8.39881ZM13.2183 9V7.38L15.7863 4.704C16.0983 4.384 16.3223 4.104 16.4583 3.864C16.5943 3.624 16.6623 3.38 16.6623 3.132C16.6623 2.828 16.5583 2.6 16.3503 2.448C16.1503 2.296 15.8583 2.22 15.4743 2.22C15.1543 2.22 14.8263 2.28 14.4903 2.4C14.1623 2.512 13.8303 2.696 13.4943 2.952L12.8103 1.344C13.1863 1.056 13.6383 0.828 14.1663 0.659999C14.6943 0.492 15.2383 0.408 15.7983 0.408C16.7823 0.408 17.5303 0.62 18.0423 1.044C18.5623 1.468 18.8223 2.08 18.8223 2.88C18.8223 3.392 18.7023 3.884 18.4623 4.356C18.2303 4.82 17.8423 5.316 17.2983 5.844L15.3303 7.764V7.2H19.1343V9H13.2183ZM21.3637 9V6.816H23.5837V9H21.3637ZM28.7272 9.132C28.1272 9.132 27.5472 9.052 26.9872 8.892C26.4352 8.724 25.9912 8.5 25.6552 8.22L26.3272 6.588C26.6792 6.836 27.0512 7.02 27.4432 7.14C27.8352 7.26 28.2392 7.32 28.6552 7.32C29.0872 7.32 29.4112 7.248 29.6272 7.104C29.8432 6.952 29.9512 6.728 29.9512 6.432C29.9512 6.152 29.8512 5.944 29.6512 5.808C29.4592 5.672 29.1712 5.604 28.7872 5.604H27.2992V3.876H28.5712C28.9152 3.876 29.1872 3.804 29.3872 3.66C29.5872 3.508 29.6872 3.296 29.6872 3.024C29.6872 2.76 29.5912 2.56 29.3992 2.424C29.2072 2.288 28.9272 2.22 28.5592 2.22C27.7912 2.22 27.0952 2.464 26.4712 2.952L25.7992 1.344C26.1592 1.048 26.6032 0.82 27.1312 0.659999C27.6592 0.492 28.2072 0.408 28.7752 0.408C29.7192 0.408 30.4592 0.616 30.9952 1.032C31.5312 1.44 31.7992 2.008 31.7992 2.736C31.7992 3.224 31.6592 3.644 31.3792 3.996C31.1072 4.348 30.7312 4.58 30.2512 4.692V4.524C30.8112 4.612 31.2512 4.848 31.5712 5.232C31.8912 5.608 32.0512 6.08 32.0512 6.648C32.0512 7.416 31.7552 8.024 31.1632 8.472C30.5712 8.912 29.7592 9.132 28.7272 9.132Z" fill="#8E8EA1"/>
</svg>
