<svg width="29" height="10" viewBox="0 0 29 10" fill="none" xmlns="http://www.w3.org/2000/svg">
<path d="M0.0602187 9L4.02022 0.539999H5.82022L9.80422 9H7.58422L6.56422 6.672L7.41622 7.284H2.44822L3.28822 6.672L2.28022 9H0.0602187ZM4.90822 2.82L3.50422 6.168L3.16822 5.604H6.68422L6.38422 6.168L4.96822 2.82H4.90822ZM11.5769 9V0.539999H15.6809C16.6249 0.539999 17.3489 0.736 17.8529 1.128C18.3649 1.52 18.6209 2.052 18.6209 2.724C18.6209 3.22 18.4729 3.644 18.1769 3.996C17.8889 4.348 17.4929 4.588 16.9889 4.716V4.524C17.5889 4.628 18.0489 4.86 18.3689 5.22C18.6969 5.572 18.8609 6.032 18.8609 6.6C18.8609 7.344 18.5889 7.932 18.0449 8.364C17.5009 8.788 16.7569 9 15.8129 9H11.5769ZM13.7009 7.38H15.5249C15.9409 7.38 16.2489 7.304 16.4489 7.152C16.6569 7 16.7609 6.764 16.7609 6.444C16.7609 6.116 16.6569 5.88 16.4489 5.736C16.2489 5.592 15.9409 5.52 15.5249 5.52H13.7009V7.38ZM13.7009 3.9H15.2729C15.6969 3.9 16.0049 3.828 16.1969 3.684C16.3969 3.54 16.4969 3.32 16.4969 3.024C16.4969 2.728 16.3969 2.512 16.1969 2.376C16.0049 2.232 15.6969 2.16 15.2729 2.16H13.7009V3.9ZM25.4889 9.132C24.5689 9.132 23.7729 8.952 23.1009 8.592C22.4369 8.232 21.9209 7.724 21.5529 7.068C21.1929 6.412 21.0129 5.644 21.0129 4.764C21.0129 3.884 21.1929 3.12 21.5529 2.472C21.9209 1.816 22.4369 1.308 23.1009 0.948C23.7729 0.588 24.5689 0.408 25.4889 0.408C26.0729 0.408 26.6049 0.488 27.0849 0.648C27.5649 0.799999 27.9689 1.02 28.2969 1.308L27.6369 3.048C27.2689 2.784 26.9289 2.6 26.6169 2.496C26.3129 2.384 25.9649 2.328 25.5729 2.328C24.8529 2.328 24.2969 2.54 23.9049 2.964C23.5209 3.38 23.3289 3.98 23.3289 4.764C23.3289 5.556 23.5209 6.164 23.9049 6.588C24.2969 7.004 24.8529 7.212 25.5729 7.212C25.9649 7.212 26.3129 7.16 26.6169 7.056C26.9289 6.944 27.2689 6.756 27.6369 6.492L28.2969 8.232C27.9689 8.52 27.5649 8.744 27.0849 8.904C26.6049 9.056 26.0729 9.132 25.4889 9.132Z" fill="#22242C"/>
</svg>
