<svg width="24" height="24" viewBox="0 0 24 24" fill="none" xmlns="http://www.w3.org/2000/svg">
<path d="M21.7202 12H18.4802V2.28003C18.481 2.08973 18.4314 1.9026 18.3366 1.7376C18.2418 1.5726 18.105 1.43559 17.9402 1.34043C17.776 1.24564 17.5898 1.19574 17.4002 1.19574C17.2106 1.19574 17.0244 1.24564 16.8602 1.34043L13.6202 3.19803L10.3802 1.34043C10.216 1.24564 10.0298 1.19574 9.8402 1.19574C9.65062 1.19574 9.46439 1.24564 9.3002 1.34043L6.0602 3.19803L2.8202 1.34043C2.65602 1.24564 2.46978 1.19574 2.2802 1.19574C2.09062 1.19574 1.90438 1.24564 1.7402 1.34043C1.57539 1.43559 1.43865 1.5726 1.34382 1.7376C1.24899 1.9026 1.19945 2.08973 1.2002 2.28003V19.56C1.2002 20.4193 1.54156 21.2434 2.14918 21.8511C2.7568 22.4587 3.5809 22.8 4.4402 22.8H19.5602C20.4195 22.8 21.2436 22.4587 21.8512 21.8511C22.4588 21.2434 22.8002 20.4193 22.8002 19.56V13.08C22.8002 12.7936 22.6864 12.5189 22.4839 12.3164C22.2813 12.1138 22.0066 12 21.7202 12ZM4.4402 20.64C4.15377 20.64 3.87907 20.5262 3.67653 20.3237C3.47399 20.1212 3.3602 19.8465 3.3602 19.56V4.14843L5.5202 5.37963C5.68689 5.46669 5.87215 5.51216 6.0602 5.51216C6.24826 5.51216 6.43352 5.46669 6.6002 5.37963L9.8402 3.52203L13.0802 5.37963C13.2469 5.46669 13.4322 5.51216 13.6202 5.51216C13.8083 5.51216 13.9935 5.46669 14.1602 5.37963L16.3202 4.14843V19.56C16.3231 19.9285 16.3889 20.2937 16.5146 20.64H4.4402ZM20.6402 19.56C20.6402 19.8465 20.5264 20.1212 20.3239 20.3237C20.1213 20.5262 19.8466 20.64 19.5602 20.64C19.2738 20.64 18.9991 20.5262 18.7965 20.3237C18.594 20.1212 18.4802 19.8465 18.4802 19.56V14.16H20.6402V19.56Z" fill="#00C3F9"/>
<path fill-rule="evenodd" clip-rule="evenodd" d="M6.36364 11.875C6.1126 11.875 5.90909 12.0709 5.90909 12.3125V16.6875C5.90909 16.9291 6.1126 17.125 6.36364 17.125H13.6364C13.8874 17.125 14.0909 16.9291 14.0909 16.6875V12.3125C14.0909 12.0709 13.8874 11.875 13.6364 11.875H6.36364ZM5 12.3125C5 11.5876 5.61052 11 6.36364 11H13.6364C14.3895 11 15 11.5876 15 12.3125V16.6875C15 17.4124 14.3895 18 13.6364 18H6.36364C5.61052 18 5 17.4124 5 16.6875V12.3125Z" fill="#00C3F9"/>
<path fill-rule="evenodd" clip-rule="evenodd" d="M8.35147 9.43934C8.57652 9.15804 8.88174 9 9.2 9H10.8C11.1183 9 11.4235 9.15804 11.6485 9.43934C11.8736 9.72064 12 10.1022 12 10.5V11.5C12 11.7761 11.8209 12 11.6 12C11.3791 12 11.2 11.7761 11.2 11.5V10.5C11.2 10.3674 11.1579 10.2402 11.0828 10.1464C11.0078 10.0527 10.9061 10 10.8 10H9.2C9.09391 10 8.99217 10.0527 8.91716 10.1464C8.84214 10.2402 8.8 10.3674 8.8 10.5V11.5C8.8 11.7761 8.62091 12 8.4 12C8.17909 12 8 11.7761 8 11.5V10.5C8 10.1022 8.12643 9.72064 8.35147 9.43934Z" fill="#00C3F9"/>
<path fill-rule="evenodd" clip-rule="evenodd" d="M15 13.6325C14.3749 14.1266 12.5584 15 9.89894 15C7.24061 15 5.55969 14.1264 5 13.6102L5.66971 13.0223C6.02284 13.348 7.4455 14.1581 9.89894 14.1581C12.3513 14.1581 13.9426 13.3477 14.3825 13L15 13.6325Z" fill="#00C3F9"/>
<rect x="8" y="14" width="1" height="2" rx="0.5" fill="#00C3F9"/>
<rect x="11" y="14" width="1" height="2" rx="0.5" fill="#00C3F9"/>
</svg>
