<svg width="20" height="20" viewBox="0 0 20 20" fill="none" xmlns="http://www.w3.org/2000/svg">
<path d="M14.482 6.026L15.14 8H12V5H13.059C13.3739 5.00003 13.6807 5.09914 13.9361 5.28328C14.1915 5.46743 14.3825 5.72727 14.482 6.026ZM15.473 9L15.476 9.01L15.742 9.076L15.864 9.106C16.1886 9.1872 16.4768 9.37463 16.6826 9.63846C16.8885 9.90228 17.0002 10.2274 17 10.562V12.25C17 12.41 16.95 12.56 16.863 12.682C16.684 12.1637 16.3396 11.7186 15.8828 11.4153C15.4261 11.112 14.8822 10.9672 14.3351 11.0034C13.788 11.0395 13.2679 11.2546 12.855 11.6154C12.4421 11.9761 12.1592 12.4627 12.05 13H7.95C7.84078 12.4627 7.55794 11.9761 7.14503 11.6154C6.73212 11.2546 6.21204 11.0395 5.66491 11.0034C5.11778 10.9672 4.57394 11.112 4.11715 11.4153C3.66036 11.7186 3.31596 12.1637 3.137 12.682C3.0477 12.5557 2.99983 12.4047 3 12.25V11.037C2.99989 10.7063 3.10905 10.3849 3.31052 10.1226C3.51198 9.8604 3.79445 9.6721 4.114 9.587L6.316 9H15.473ZM7.128 8L8.366 5.772C8.49575 5.53826 8.68561 5.34344 8.91593 5.20771C9.14625 5.07198 9.40866 5.00027 9.676 5H11V8H7.128ZM2 12.25C2 12.957 2.42 13.566 3.023 13.842C3.10308 14.4271 3.38769 14.9649 3.82639 15.3602C4.26508 15.7555 4.82955 15.9828 5.41978 16.0017C6.01 16.0206 6.58787 15.83 7.05099 15.4636C7.51412 15.0972 7.8326 14.5787 7.95 14H12.05C12.1674 14.5787 12.4859 15.0972 12.949 15.4636C13.4121 15.83 13.99 16.0206 14.5802 16.0017C15.1704 15.9828 15.7349 15.7555 16.1736 15.3602C16.6123 14.9649 16.8969 14.4271 16.977 13.842C17.2822 13.7026 17.5409 13.4785 17.7222 13.1962C17.9036 12.9139 18 12.5855 18 12.25V10.562C18 10.0305 17.8307 9.51288 17.5165 9.08419C17.2024 8.6555 16.7598 8.33808 16.253 8.178L15.43 5.709C15.2641 5.21158 14.946 4.77891 14.5207 4.47222C14.0953 4.16553 13.5844 4.00033 13.06 4H9.677C9.23088 3.99972 8.79281 4.11883 8.40825 4.34496C8.02368 4.57109 7.70664 4.89601 7.49 5.286L5.95 8.063L3.857 8.621C3.32447 8.76274 2.85369 9.07645 2.51786 9.51337C2.18203 9.95029 1.99998 10.4859 2 11.037V12.25ZM14.5 12C14.8978 12 15.2794 12.158 15.5607 12.4393C15.842 12.7206 16 13.1022 16 13.5C16 13.8978 15.842 14.2794 15.5607 14.5607C15.2794 14.842 14.8978 15 14.5 15C14.1022 15 13.7206 14.842 13.4393 14.5607C13.158 14.2794 13 13.8978 13 13.5C13 13.1022 13.158 12.7206 13.4393 12.4393C13.7206 12.158 14.1022 12 14.5 12ZM5.5 12C5.89782 12 6.27936 12.158 6.56066 12.4393C6.84196 12.7206 7 13.1022 7 13.5C7 13.8978 6.84196 14.2794 6.56066 14.5607C6.27936 14.842 5.89782 15 5.5 15C5.10218 15 4.72064 14.842 4.43934 14.5607C4.15804 14.2794 4 13.8978 4 13.5C4 13.1022 4.15804 12.7206 4.43934 12.4393C4.72064 12.158 5.10218 12 5.5 12Z" fill="black"/>
</svg>
