<svg width="24" height="25" viewBox="0 0 24 25" fill="none" xmlns="http://www.w3.org/2000/svg">
<path d="M4.5 6.25H4.50833M4.5 10.4167H4.50833M2.83333 23H6.16667C6.6269 23 7 22.5523 7 22V3C7 2.44772 6.6269 2 6.16667 2H2.83333C2.3731 2 2 2.44772 2 3V22C2 22.5523 2.3731 23 2.83333 23Z" stroke="#00C3F9" stroke-width="2" stroke-linecap="round" stroke-linejoin="round"/>
<path d="M10.5 11.0357H10.5083M8.83333 23H12.1667C12.6269 23 13 22.6802 13 22.2857V8.71429C13 8.3198 12.6269 8 12.1667 8H8.83333C8.3731 8 8 8.3198 8 8.71429V22.2857C8 22.6802 8.3731 23 8.83333 23Z" stroke="#00C3F9" stroke-width="2" stroke-linecap="round" stroke-linejoin="round"/>
<path d="M17.2288 6.41614L17.2367 6.4144M19.224 23.0046L22.3773 22.3111C22.8127 22.2153 23.0701 21.7036 22.9524 21.1681L18.9007 2.74466C18.7829 2.20914 18.3345 1.85263 17.8991 1.94838L14.7458 2.64185C14.3105 2.7376 14.053 3.24934 14.1708 3.78487L18.2224 22.2083C18.3402 22.7438 18.7886 23.1003 19.224 23.0046Z" stroke="#00C3F9" stroke-width="2" stroke-linecap="round" stroke-linejoin="round"/>
</svg>
