<svg width="23" height="23" viewBox="0 0 23 23" fill="none" xmlns="http://www.w3.org/2000/svg">
<mask id="mask0_1161_39951" style="mask-type:alpha" maskUnits="userSpaceOnUse" x="0" y="0" width="23" height="23">
<rect x="0.602386" y="0.5" width="22" height="22" fill="#D9D9D9"/>
</mask>
<g mask="url(#mask0_1161_39951)">
<path d="M4.26904 20.6668V15.1668C4.26904 14.6627 4.44871 14.2309 4.80804 13.8716C5.16677 13.5129 5.59821 13.3335 6.10238 13.3335H17.1024C17.6065 13.3335 18.0383 13.5129 18.3976 13.8716C18.7563 14.2309 18.9357 14.6627 18.9357 15.1668V20.6668H4.26904ZM6.10238 17.0002H17.1024V15.1668H6.10238V17.0002ZM11.6024 13.3335L7.01904 6.91683C7.01904 5.64877 7.46607 4.56802 8.36013 3.67458C9.25357 2.78052 10.3343 2.3335 11.6024 2.3335C12.8704 2.3335 13.9515 2.78052 14.8455 3.67458C15.739 4.56802 16.1857 5.64877 16.1857 6.91683L11.6024 13.3335ZM11.6024 10.7668L14.3524 6.91683C14.3524 6.15294 14.085 5.50363 13.5503 4.96891C13.0156 4.43419 12.3663 4.16683 11.6024 4.16683C10.8385 4.16683 10.1892 4.43419 9.65446 4.96891C9.11974 5.50363 8.85238 6.15294 8.85238 6.91683L11.6024 10.7668Z" fill="white"/>
<path d="M21.6857 20.6668L1.51904 5.0835" stroke="white" stroke-width="2" stroke-linecap="round" stroke-linejoin="round"/>
</g>
</svg>
