<svg width="22" height="22" viewBox="0 0 22 22" fill="none" xmlns="http://www.w3.org/2000/svg">
<path d="M4.10239 19.75V14.5C4.10239 14.0188 4.27389 13.6066 4.61689 13.2636C4.9593 12.9212 5.37114 12.75 5.85239 12.75H16.3524C16.8336 12.75 17.2458 12.9212 17.5888 13.2636C17.9312 13.6066 18.1024 14.0188 18.1024 14.5V19.75H4.10239ZM5.85239 16.25H16.3524V14.5H5.85239V16.25ZM11.1024 12.75L6.72739 6.625C6.72739 5.41458 7.1541 4.38296 8.00751 3.53013C8.86034 2.67671 9.89197 2.25 11.1024 2.25C12.3128 2.25 13.3447 2.67671 14.1981 3.53013C15.051 4.38296 15.4774 5.41458 15.4774 6.625L11.1024 12.75ZM11.1024 10.3L13.7274 6.625C13.7274 5.89583 13.4722 5.27604 12.9618 4.76562C12.4513 4.25521 11.8316 4 11.1024 4C10.3732 4 9.75343 4.25521 9.24301 4.76562C8.73259 5.27604 8.47739 5.89583 8.47739 6.625L11.1024 10.3Z" fill="white"/>
</svg>
