<svg width="17" height="20" viewBox="0 0 17 20" fill="none" xmlns="http://www.w3.org/2000/svg">
<path d="M0.5 20V14C0.5 13.45 0.696 12.979 1.088 12.587C1.47933 12.1957 1.95 12 2.5 12H14.5C15.05 12 15.521 12.1957 15.913 12.587C16.3043 12.979 16.5 13.45 16.5 14V20H0.5ZM2.5 16H14.5V14H2.5V16ZM8.5 12L3.5 5C3.5 3.61667 3.98767 2.43767 4.963 1.463C5.93767 0.487667 7.11667 0 8.5 0C9.88333 0 11.0627 0.487667 12.038 1.463C13.0127 2.43767 13.5 3.61667 13.5 5L8.5 12ZM8.5 9.2L11.5 5C11.5 4.16667 11.2083 3.45833 10.625 2.875C10.0417 2.29167 9.33333 2 8.5 2C7.66667 2 6.95833 2.29167 6.375 2.875C5.79167 3.45833 5.5 4.16667 5.5 5L8.5 9.2Z" fill="white"/>
</svg>
