<svg width="14" height="13" viewBox="0 0 14 13" fill="none" xmlns="http://www.w3.org/2000/svg">
<g clip-path="url(#clip0_2381_118185)">
<g filter="url(#filter0_d_2381_118185)">
<path fill-rule="evenodd" clip-rule="evenodd" d="M7 1.78647C5.97892 1.78647 4.99965 2.17058 4.27764 2.85431C3.55562 3.53804 3.15 4.46538 3.15 5.43233C3.15 6.84421 4.12007 8.21423 5.18374 9.27746C5.70573 9.79923 6.22936 10.2264 6.62303 10.5232C6.76954 10.6337 6.8975 10.7257 7 10.7975C7.10249 10.7257 7.23046 10.6337 7.37697 10.5232C7.77064 10.2264 8.29427 9.79923 8.81626 9.27746C9.87993 8.21423 10.85 6.84421 10.85 5.43233C10.85 4.46538 10.4444 3.53804 9.72236 2.85431C9.00035 2.17058 8.02108 1.78647 7 1.78647ZM7 11.3568C6.73305 11.736 6.73293 11.736 6.73279 11.7359L6.73141 11.735L6.72821 11.733L6.71718 11.7259C6.70781 11.7199 6.69444 11.7112 6.67735 11.7C6.64317 11.6776 6.59405 11.6449 6.53212 11.6026C6.40832 11.5179 6.23306 11.3943 6.02346 11.2363C5.60502 10.9207 5.04583 10.4649 4.48501 9.90431C3.38305 8.80281 2.1875 7.21057 2.1875 5.43233C2.1875 4.22365 2.69453 3.06447 3.59705 2.20981C4.49957 1.35515 5.72365 0.875 7 0.875C8.27635 0.875 9.50043 1.35515 10.403 2.20981C11.3055 3.06447 11.8125 4.22365 11.8125 5.43233C11.8125 7.21057 10.6169 8.80281 9.51499 9.90431C8.95417 10.4649 8.39498 10.9207 7.97654 11.2363C7.76694 11.3943 7.59167 11.5179 7.46788 11.6026C7.40595 11.6449 7.35683 11.6776 7.32265 11.7C7.30556 11.7112 7.29219 11.7199 7.28282 11.7259L7.27179 11.733L7.26859 11.735L7.26757 11.7357C7.26743 11.7357 7.26695 11.736 7 11.3568ZM7 11.3568L7.26695 11.736C7.1053 11.8381 6.89444 11.8379 6.73279 11.7359L7 11.3568ZM7 4.52086C6.46843 4.52086 6.0375 4.92894 6.0375 5.43233C6.0375 5.93571 6.46843 6.34379 7 6.34379C7.53157 6.34379 7.9625 5.93571 7.9625 5.43233C7.9625 4.92894 7.53157 4.52086 7 4.52086ZM5.075 5.43233C5.075 4.42555 5.93685 3.6094 7 3.6094C8.06315 3.6094 8.925 4.42555 8.925 5.43233C8.925 6.4391 8.06315 7.25526 7 7.25526C5.93685 7.25526 5.075 6.4391 5.075 5.43233Z" fill="#22242C"/>
</g>
</g>
<defs>
<filter id="filter0_d_2381_118185" x="-5.8125" y="-3.125" width="25.625" height="26.9375" filterUnits="userSpaceOnUse" color-interpolation-filters="sRGB">
<feFlood flood-opacity="0" result="BackgroundImageFix"/>
<feColorMatrix in="SourceAlpha" type="matrix" values="0 0 0 0 0 0 0 0 0 0 0 0 0 0 0 0 0 0 127 0" result="hardAlpha"/>
<feOffset dy="4"/>
<feGaussianBlur stdDeviation="4"/>
<feComposite in2="hardAlpha" operator="out"/>
<feColorMatrix type="matrix" values="0 0 0 0 0 0 0 0 0 0 0 0 0 0 0 0 0 0 0.15 0"/>
<feBlend mode="normal" in2="BackgroundImageFix" result="effect1_dropShadow_2381_118185"/>
<feBlend mode="normal" in="SourceGraphic" in2="effect1_dropShadow_2381_118185" result="shape"/>
</filter>
<clipPath id="clip0_2381_118185">
<rect width="14" height="12.6875" fill="white"/>
</clipPath>
</defs>
</svg>
