<svg width="32" height="32" viewBox="0 0 32 32" fill="none" xmlns="http://www.w3.org/2000/svg">
<rect width="32" height="32" rx="16" fill="#0FAFE4"/>
<path d="M7 13V11C7 10.4696 7.21071 9.96086 7.58579 9.58579C7.96086 9.21071 8.46957 9 9 9H23C23.5304 9 24.0391 9.21071 24.4142 9.58579C24.7893 9.96086 25 10.4696 25 11V13M7 19V21C7 21.5304 7.21071 22.0391 7.58579 22.4142C7.96086 22.7893 8.46957 23 9 23H23C23.5304 23 24.0391 22.7893 24.4142 22.4142C24.7893 22.0391 25 21.5304 25 21V19" stroke="white" stroke-width="2" stroke-linecap="round" stroke-linejoin="round"/>
<path d="M25 19C24.2044 19 23.4413 18.6839 22.8787 18.1213C22.3161 17.5587 22 16.7956 22 16C22 15.2044 22.3161 14.4413 22.8787 13.8787C23.4413 13.3161 24.2044 13 25 13" stroke="white" stroke-width="2" stroke-linecap="round" stroke-linejoin="round"/>
<path d="M7 19C7.79565 19 8.55871 18.6839 9.12132 18.1213C9.68393 17.5587 10 16.7956 10 16C10 15.2044 9.68393 14.4413 9.12132 13.8787C8.55871 13.3161 7.79565 13 7 13" stroke="white" stroke-width="2" stroke-linecap="round" stroke-linejoin="round"/>
<path d="M17 9V11" stroke="white" stroke-width="2" stroke-linecap="round" stroke-linejoin="round"/>
<path d="M17 21V23" stroke="white" stroke-width="2" stroke-linecap="round" stroke-linejoin="round"/>
<path d="M17 15V17" stroke="white" stroke-width="2" stroke-linecap="round" stroke-linejoin="round"/>
</svg>
