<svg width="22" height="23" viewBox="0 0 22 23" fill="none" xmlns="http://www.w3.org/2000/svg">
<path d="M11.917 8.93766H10.0837V7.10433H11.917V8.93766ZM11.0003 19.021C15.0428 19.021 18.3337 15.7302 18.3337 11.6877C18.3337 7.64516 15.0428 4.35433 11.0003 4.35433C6.95783 4.35433 3.66699 7.64516 3.66699 11.6877C3.66699 15.7302 6.95783 19.021 11.0003 19.021ZM11.0003 2.521C12.2041 2.521 13.3961 2.7581 14.5083 3.21877C15.6204 3.67944 16.6309 4.35465 17.4821 5.20585C19.2012 6.92493 20.167 9.25651 20.167 11.6877C20.167 14.1188 19.2012 16.4504 17.4821 18.1695C16.6309 19.0207 15.6204 19.6959 14.5083 20.1566C13.3961 20.6172 12.2041 20.8543 11.0003 20.8543C8.56917 20.8543 6.2376 19.8886 4.51851 18.1695C2.79943 16.4504 1.83366 14.1188 1.83366 11.6877C1.83366 10.4839 2.07076 9.29188 2.53143 8.17973C2.9921 7.06758 3.66731 6.05705 4.51851 5.20585C5.36972 4.35465 6.38024 3.67944 7.49239 3.21877C8.60454 2.7581 9.79654 2.521 11.0003 2.521ZM11.917 16.271H10.0837V10.771H11.917V16.271Z" fill="#22242C"/>
</svg>
