<svg width="25" height="24" viewBox="0 0 25 24" fill="none" xmlns="http://www.w3.org/2000/svg">
<path fill-rule="evenodd" clip-rule="evenodd" d="M7.6875 3C7.6875 1.89543 8.55491 1 9.62491 1H15.4371C16.5071 1 17.3745 1.89543 17.3745 3V5C17.3745 6.10457 16.5071 7 15.4371 7H9.62491C8.55491 7 7.6875 6.10457 7.6875 5V3ZM15.4371 3H9.62491V5H15.4371V3Z" fill="#00C3F9"/>
<path fill-rule="evenodd" clip-rule="evenodd" d="M4.66368 3.87868C5.20868 3.31607 5.94786 3 6.71861 3H8.65602C9.19102 3 9.62473 3.44772 9.62473 4C9.62473 4.55228 9.19102 5 8.65602 5H6.71861C6.4617 5 6.2153 5.10536 6.03364 5.29289C5.85197 5.48043 5.74991 5.73478 5.74991 6V20C5.74991 20.2652 5.85197 20.5196 6.03364 20.7071C6.2153 20.8946 6.4617 21 6.71861 21H18.3431C18.6 21 18.8464 20.8946 19.028 20.7071C19.2097 20.5196 19.3118 20.2652 19.3118 20V19.5C19.3118 18.9477 19.7455 18.5 20.2805 18.5C20.8155 18.5 21.2492 18.9477 21.2492 19.5V20C21.2492 20.7957 20.943 21.5587 20.398 22.1213C19.853 22.6839 19.1138 23 18.3431 23H6.71861C5.94786 23 5.20868 22.6839 4.66368 22.1213C4.11868 21.5587 3.8125 20.7957 3.8125 20V6C3.8125 5.20435 4.11868 4.44129 4.66368 3.87868Z" fill="#00C3F9"/>
<path fill-rule="evenodd" clip-rule="evenodd" d="M15.4375 4C15.4375 3.44772 15.8712 3 16.4062 3H18.3446C18.8542 3.00054 19.3548 3.13942 19.796 3.40269C20.2372 3.66597 20.6036 4.04439 20.8584 4.5C21.1259 4.97829 20.9671 5.58988 20.5038 5.86603C20.0405 6.14217 19.448 5.97829 19.1805 5.5C19.0956 5.34813 18.9735 5.22199 18.8264 5.13423C18.6795 5.04654 18.5128 5.00026 18.343 5H16.4062C15.8712 5 15.4375 4.55228 15.4375 4Z" fill="#00C3F9"/>
<path fill-rule="evenodd" clip-rule="evenodd" d="M20.1889 9.99512C20.0489 9.99512 19.9104 10.0236 19.7811 10.0789C19.6519 10.1341 19.5346 10.215 19.4357 10.317C19.4356 10.3171 19.4358 10.3169 19.4357 10.317L15.3336 14.5611L14.8337 16.6201L16.8312 16.0981L20.9424 11.8731C20.9426 11.8729 20.9422 11.8733 20.9424 11.8731C21.0411 11.7711 21.12 11.6494 21.1734 11.5162C21.227 11.3827 21.2546 11.2397 21.2546 11.0952C21.2546 10.9508 21.227 10.8077 21.1734 10.6742C21.1199 10.5408 21.0414 10.4195 20.9424 10.3173C20.8435 10.2152 20.726 10.1341 20.5967 10.0789C20.4674 10.0236 20.3288 9.99512 20.1889 9.99512ZM19.0396 8.2311C19.404 8.0753 19.7945 7.99512 20.1889 7.99512C20.5833 7.99512 20.9738 8.0753 21.3381 8.2311C21.7025 8.38689 22.0335 8.61525 22.3124 8.90312C22.5912 9.19099 22.8125 9.53274 22.9634 9.90886C23.1143 10.285 23.192 10.6881 23.192 11.0952C23.192 11.5023 23.1143 11.9055 22.9634 12.2816C22.8125 12.6577 22.5912 12.9995 22.3124 13.2873L22.3108 13.2889L18.0098 17.7089C17.8866 17.8355 17.7326 17.9256 17.5641 17.9696L13.7377 18.9696C13.4073 19.056 13.0571 18.9567 12.8158 18.7082C12.5745 18.4596 12.4775 18.0985 12.5603 17.7571L13.5194 13.8071C13.5619 13.6319 13.6496 13.4718 13.7732 13.3439L18.0654 8.90312C18.3442 8.61525 18.6753 8.38689 19.0396 8.2311Z" fill="#00C3F9"/>
<path fill-rule="evenodd" clip-rule="evenodd" d="M7.6875 18C7.6875 17.4477 8.1212 17 8.6562 17H9.62491C10.1599 17 10.5936 17.4477 10.5936 18C10.5936 18.5523 10.1599 19 9.62491 19H8.6562C8.1212 19 7.6875 18.5523 7.6875 18Z" fill="#00C3F9"/>
</svg>
