<svg width="25" height="24" viewBox="0 0 25 24" fill="none" xmlns="http://www.w3.org/2000/svg">
<path fill-rule="evenodd" clip-rule="evenodd" d="M13.2832 2.68427C14.3794 1.59132 15.8476 0.986556 17.3715 1.00023C18.8954 1.0139 20.3532 1.64491 21.4309 2.75736C22.5085 3.86981 23.1198 5.37468 23.133 6.94786C23.1462 8.52104 22.5604 10.0367 21.5017 11.1683L21.4899 11.1807L18.5839 14.1805C17.9946 14.789 17.2855 15.2596 16.5047 15.5603C15.7238 15.861 14.8894 15.9848 14.0581 15.9233C13.2268 15.8619 12.418 15.6166 11.6866 15.2041C10.9552 14.7916 10.3182 14.2215 9.81903 13.5325C9.49858 13.0903 9.5861 12.4636 10.0145 12.1328C10.4429 11.802 11.05 11.8923 11.3704 12.3346C11.7033 12.7939 12.1279 13.1739 12.6155 13.4489C13.1031 13.7239 13.6423 13.8875 14.1965 13.9284C14.7507 13.9694 15.3069 13.8869 15.8275 13.6864C16.3481 13.4859 16.8209 13.1722 17.2137 12.7666L17.2138 12.7665L20.1136 9.77294C20.816 9.01917 21.2045 8.01129 21.1957 6.96524C21.1868 5.91646 20.7793 4.91321 20.0609 4.17157C19.3425 3.42994 18.3706 3.00926 17.3547 3.00015C16.3409 2.99106 15.3642 3.39246 14.6339 4.1181L12.9729 5.82272C12.5935 6.21211 11.9802 6.21026 11.603 5.8186C11.2258 5.42694 11.2276 4.79378 11.607 4.40439L13.2732 2.69439L13.2832 2.68427Z" fill="#00C3F9"/>
<path fill-rule="evenodd" clip-rule="evenodd" d="M8.55923 8.3071C9.34011 8.0064 10.1745 7.88258 11.0058 7.94404C11.8371 8.0055 12.6459 8.2508 13.3773 8.66331C14.1087 9.07582 14.7456 9.64589 15.2449 10.3348C15.5653 10.7771 15.4778 11.4038 15.0494 11.7346C14.621 12.0654 14.0139 11.975 13.6934 11.5328C13.3606 11.0735 12.936 10.6935 12.4484 10.4184C11.9608 10.1434 11.4216 9.9799 10.8674 9.93893C10.3132 9.89796 9.75695 9.9805 9.23636 10.181C8.71577 10.3814 8.24304 10.6951 7.85022 11.1008L4.95026 14.0944C4.24792 14.8482 3.85941 15.8561 3.86822 16.9021C3.87705 17.9509 4.28456 18.9542 5.00298 19.6958C5.7214 20.4374 6.69326 20.8581 7.70922 20.8672C8.72253 20.8763 9.69885 20.4753 10.429 19.7502L12.0792 18.0467C12.4576 17.6562 13.0709 17.6562 13.4492 18.0467C13.8275 18.4372 13.8275 19.0704 13.4492 19.4609L11.7927 21.1709L11.7807 21.1831C10.6845 22.2761 9.21633 22.8808 7.69239 22.8672C6.16844 22.8535 4.71066 22.2225 3.63303 21.11C2.55539 19.9976 1.94413 18.4927 1.93088 16.9195C1.91764 15.3463 2.50348 13.8307 3.56222 12.6991L3.57403 12.6867L6.48001 9.68684C6.48006 9.6868 6.47997 9.68688 6.48001 9.68684C7.06922 9.07842 7.7784 8.60778 8.55923 8.3071Z" fill="#00C3F9"/>
</svg>
