<svg width="14" height="14" viewBox="0 0 14 14" fill="none" xmlns="http://www.w3.org/2000/svg">
<path fill-rule="evenodd" clip-rule="evenodd" d="M2.33301 2.91667C2.01351 2.91667 1.74967 3.1805 1.74967 3.5V10.5C1.74967 10.8195 2.01351 11.0833 2.33301 11.0833H11.6663C11.9858 11.0833 12.2497 10.8195 12.2497 10.5V3.5C12.2497 3.1805 11.9858 2.91667 11.6663 2.91667H2.33301ZM0.583008 3.5C0.583008 2.53617 1.36918 1.75 2.33301 1.75H11.6663C12.6302 1.75 13.4163 2.53617 13.4163 3.5V10.5C13.4163 11.4638 12.6302 12.25 11.6663 12.25H2.33301C1.36918 12.25 0.583008 11.4638 0.583008 10.5V3.5Z" fill="#22242C"/>
<path fill-rule="evenodd" clip-rule="evenodd" d="M0.688506 3.16537C0.873256 2.90144 1.23698 2.83725 1.50091 3.022L6.99972 6.87117L12.4985 3.022C12.7625 2.83725 13.1262 2.90144 13.3109 3.16537C13.4957 3.4293 13.4315 3.79302 13.1676 3.97777L7.33424 8.06111C7.13339 8.2017 6.86606 8.2017 6.6652 8.06111L0.831872 3.97777C0.567943 3.79302 0.503756 3.4293 0.688506 3.16537Z" fill="#22242C"/>
</svg>
