<svg width="31" height="30" viewBox="0 0 31 30" fill="none" xmlns="http://www.w3.org/2000/svg">
<rect x="0.53125" width="30" height="30" rx="15" fill="white"/>
<path fill-rule="evenodd" clip-rule="evenodd" d="M15.5317 6C10.7167 6 6.81339 10.0294 6.81339 15C6.81339 19.9706 10.7167 24 15.5317 24C20.3467 24 24.2501 19.9706 24.2501 15C24.2501 10.0294 20.3467 6 15.5317 6ZM4.87598 15C4.87598 8.92487 9.64672 4 15.5317 4C21.4167 4 26.1875 8.92487 26.1875 15C26.1875 21.0751 21.4167 26 15.5317 26C9.64672 26 4.87598 21.0751 4.87598 15Z" fill="#00C3F9"/>
<path fill-rule="evenodd" clip-rule="evenodd" d="M15.5312 8C16.0662 8 16.4999 8.44772 16.4999 9V15C16.4999 15.3788 16.2926 15.725 15.9645 15.8944L12.0896 17.8944C11.6111 18.1414 11.0292 17.9412 10.79 17.4472C10.5507 16.9532 10.7447 16.3526 11.2232 16.1056L14.5625 14.382V9C14.5625 8.44772 14.9962 8 15.5312 8Z" fill="#00C3F9"/>
</svg>
