<svg width="23" height="23" viewBox="0 0 23 23" fill="none" xmlns="http://www.w3.org/2000/svg">
<g clip-path="url(#clip0_2825_88740)">
<path fill-rule="evenodd" clip-rule="evenodd" d="M9.66602 4.16683C8.14724 4.16683 6.91602 5.39805 6.91602 6.91683C6.91602 8.43561 8.14724 9.66683 9.66602 9.66683C11.1848 9.66683 12.416 8.43561 12.416 6.91683C12.416 5.39805 11.1848 4.16683 9.66602 4.16683ZM5.08269 6.91683C5.08269 4.38552 7.13471 2.3335 9.66602 2.3335C12.1973 2.3335 14.2494 4.38552 14.2494 6.91683C14.2494 9.44813 12.1973 11.5002 9.66602 11.5002C7.13471 11.5002 5.08269 9.44813 5.08269 6.91683ZM18.8328 6C19.3391 6 19.7495 6.41041 19.7495 6.91667V8.75016H21.583C22.0893 8.75016 22.4997 9.16057 22.4997 9.66683C22.4997 10.1731 22.0893 10.5835 21.583 10.5835H19.7495V12.417C19.7495 12.9232 19.3391 13.3337 18.8328 13.3337C18.3266 13.3337 17.9162 12.9232 17.9162 12.417V10.5835H16.0827C15.5764 10.5835 15.166 10.1731 15.166 9.66683C15.166 9.16057 15.5764 8.75016 16.0827 8.75016H17.9162V6.91667C17.9162 6.41041 18.3266 6 18.8328 6ZM2.75844 14.6759C3.61798 13.8164 4.78377 13.3335 5.99935 13.3335H13.3327C14.5483 13.3335 15.714 13.8164 16.5736 14.6759C17.4331 15.5355 17.916 16.7013 17.916 17.9168V19.7502C17.916 20.2564 17.5056 20.6668 16.9993 20.6668C16.4931 20.6668 16.0827 20.2564 16.0827 19.7502V17.9168C16.0827 17.1875 15.793 16.488 15.2772 15.9723C14.7615 15.4566 14.062 15.1668 13.3327 15.1668H5.99935C5.27 15.1668 4.57053 15.4566 4.05481 15.9723C3.53908 16.488 3.24935 17.1875 3.24935 17.9168V19.7502C3.24935 20.2564 2.83894 20.6668 2.33268 20.6668C1.82642 20.6668 1.41602 20.2564 1.41602 19.7502V17.9168C1.41602 16.7013 1.8989 15.5355 2.75844 14.6759Z" fill="#22242C"/>
</g>
<defs>
<clipPath id="clip0_2825_88740">
<rect width="22" height="22" fill="white" transform="translate(0.5 0.5)"/>
</clipPath>
</defs>
</svg>
