<svg width="28" height="28" viewBox="0 0 29 28" fill="none" xmlns="http://www.w3.org/2000/svg">
<path fill-rule="evenodd" clip-rule="evenodd" d="M15.4358 3.13149C16.756 1.85638 18.5243 1.15082 20.3596 1.16677C22.195 1.18272 23.9507 1.9189 25.2486 3.21676C26.5464 4.51461 27.2826 6.2703 27.2985 8.10568C27.3145 9.94106 26.6089 11.7093 25.3338 13.0295L25.3196 13.0439L21.8198 16.5438C21.1101 17.2537 20.2561 17.8027 19.3156 18.1535C18.3752 18.5043 17.3703 18.6488 16.3691 18.5771C15.3679 18.5054 14.3938 18.2192 13.5129 17.7379C12.6321 17.2567 11.865 16.5916 11.2638 15.7878C10.8778 15.2718 10.9832 14.5407 11.4992 14.1548C12.0151 13.7688 12.7463 13.8742 13.1322 14.3902C13.533 14.926 14.0444 15.3694 14.6317 15.6903C15.2189 16.0111 15.8683 16.2019 16.5358 16.2497C17.2032 16.2975 17.8732 16.2012 18.5001 15.9673C19.1271 15.7334 19.6965 15.3674 20.1695 14.8942L20.1697 14.894L23.6621 11.4016C24.508 10.5222 24.9759 9.34635 24.9653 8.12595C24.9547 6.90237 24.4639 5.73191 23.5986 4.86667C22.7334 4.00144 21.5629 3.51065 20.3394 3.50001C19.1184 3.4894 17.9421 3.95771 17.0626 4.80428L15.0622 6.79302C14.6053 7.2473 13.8666 7.24514 13.4123 6.78821C12.958 6.33127 12.9602 5.59258 13.4171 5.1383L15.4238 3.1433L15.4358 3.13149Z" fill="white"/>
<path fill-rule="evenodd" clip-rule="evenodd" d="M9.74683 9.69146C10.6873 9.34064 11.6922 9.19618 12.6934 9.26788C13.6946 9.33959 14.6687 9.62578 15.5495 10.107C16.4304 10.5883 17.1975 11.2534 17.7987 12.0572C18.1847 12.5731 18.0793 13.3042 17.5633 13.6902C17.0473 14.0761 16.3162 13.9707 15.9303 13.4548C15.5294 12.9189 15.0181 12.4755 14.4308 12.1547C13.8436 11.8339 13.1942 11.6431 12.5267 11.5953C11.8593 11.5475 11.1893 11.6438 10.5623 11.8776C9.93537 12.1115 9.36602 12.4775 8.89293 12.9508L5.40035 16.4434C4.55447 17.3228 4.08658 18.4986 4.09718 19.719C4.10781 20.9426 4.5986 22.113 5.46384 22.9783C6.32908 23.8435 7.49954 24.3343 8.72312 24.3449C9.94351 24.3555 11.1194 23.8877 11.9987 23.0418L13.9862 21.0543C14.4418 20.5987 15.1805 20.5987 15.6361 21.0543C16.0917 21.5099 16.0917 22.2486 15.6361 22.7042L13.6411 24.6993L13.6267 24.7135C12.3064 25.9886 10.5382 26.6941 8.70285 26.6782C6.86747 26.6622 5.11178 25.926 3.81392 24.6282C2.51607 23.3303 1.77989 21.5746 1.76394 19.7393C1.74799 17.9039 2.45355 16.1357 3.72865 14.8155L3.74287 14.801L7.24272 11.3012C7.24277 11.3011 7.24267 11.3012 7.24272 11.3012C7.95233 10.5913 8.80644 10.0423 9.74683 9.69146Z" fill="white"/>
</svg>
