<svg width="24" height="24" viewBox="0 0 24 24" fill="none" xmlns="http://www.w3.org/2000/svg">
<path d="M2 9.28571V7.14286C2 6.57454 2.23413 6.02949 2.65087 5.62763C3.06762 5.22576 3.63285 5 4.22222 5H19.7778C20.3671 5 20.9324 5.22576 21.3491 5.62763C21.7659 6.02949 22 6.57454 22 7.14286V9.28571M2 15.7143V17.8571C2 18.4255 2.23413 18.9705 2.65087 19.3724C3.06762 19.7742 3.63285 20 4.22222 20H19.7778C20.3671 20 20.9324 19.7742 21.3491 19.3724C21.7659 18.9705 22 18.4255 22 17.8571V15.7143" stroke="#00C3F9" stroke-width="2" stroke-linecap="round" stroke-linejoin="round"/>
<path d="M22 15C21.2044 15 20.4413 14.7366 19.8787 14.2678C19.3161 13.7989 19 13.163 19 12.5C19 11.837 19.3161 11.2011 19.8787 10.7322C20.4413 10.2634 21.2044 10 22 10" stroke="#00C3F9" stroke-width="2" stroke-linecap="round" stroke-linejoin="round"/>
<path d="M2 15C2.79565 15 3.55871 14.7366 4.12132 14.2678C4.68393 13.7989 5 13.163 5 12.5C5 11.837 4.68393 11.2011 4.12132 10.7322C3.55871 10.2634 2.79565 10 2 10" stroke="#00C3F9" stroke-width="2" stroke-linecap="round" stroke-linejoin="round"/>
<path d="M13 5V7" stroke="#00C3F9" stroke-width="2" stroke-linecap="round" stroke-linejoin="round"/>
<path d="M13 18V20" stroke="#00C3F9" stroke-width="2" stroke-linecap="round" stroke-linejoin="round"/>
<path d="M13 12V13" stroke="#00C3F9" stroke-width="2" stroke-linecap="round" stroke-linejoin="round"/>
</svg>
