<svg width="32" height="32" viewBox="0 0 32 32" fill="none" xmlns="http://www.w3.org/2000/svg">
<rect width="32" height="32" rx="16" fill="#0FAFE4"/>
<path d="M16.7504 12.7857C16.7504 12.3715 16.4146 12.0357 16.0004 12.0357C15.5862 12.0357 15.2504 12.3715 15.2504 12.7857H16.7504ZM15.2504 19.2143C15.2504 19.6285 15.5862 19.9643 16.0004 19.9643C16.4146 19.9643 16.7504 19.6285 16.7504 19.2143H15.2504ZM12.7861 15.25C12.3719 15.25 12.0361 15.5858 12.0361 16C12.0361 16.4142 12.3719 16.75 12.7861 16.75V15.25ZM19.2147 16.75C19.6289 16.75 19.9647 16.4142 19.9647 16C19.9647 15.5858 19.6289 15.25 19.2147 15.25V16.75ZM22.9647 16C22.9647 19.8463 19.8467 22.9643 16.0004 22.9643V24.4643C20.6751 24.4643 24.4647 20.6747 24.4647 16H22.9647ZM16.0004 22.9643C12.1541 22.9643 9.03613 19.8463 9.03613 16H7.53613C7.53613 20.6747 11.3257 24.4643 16.0004 24.4643V22.9643ZM9.03613 16C9.03613 12.1537 12.1541 9.03572 16.0004 9.03572V7.53572C11.3257 7.53572 7.53613 11.3253 7.53613 16H9.03613ZM16.0004 9.03572C19.8467 9.03572 22.9647 12.1537 22.9647 16H24.4647C24.4647 11.3253 20.6751 7.53572 16.0004 7.53572V9.03572ZM15.2504 12.7857V19.2143H16.7504V12.7857H15.2504ZM12.7861 16.75H19.2147V15.25H12.7861V16.75Z" fill="white"/>
</svg>
