<svg width="32" height="32" viewBox="0 0 32 32" fill="none" xmlns="http://www.w3.org/2000/svg">
<g clip-path="url(#clip0_7_28)">
<path d="M16 31.0588C24.3167 31.0588 31.0588 24.3168 31.0588 16C31.0588 7.68324 24.3167 0.941177 16 0.941177C7.68323 0.941177 0.941162 7.68324 0.941162 16C0.941162 24.3168 7.68323 31.0588 16 31.0588Z" fill="#33CFFA" stroke="white" stroke-width="2"/>
<path fill-rule="evenodd" clip-rule="evenodd" d="M14.1184 10.3529C12.8709 10.3529 11.8596 11.3642 11.8596 12.6118C11.8596 13.8593 12.8709 14.8706 14.1184 14.8706C15.3659 14.8706 16.3772 13.8593 16.3772 12.6118C16.3772 11.3642 15.3659 10.3529 14.1184 10.3529ZM10.3537 12.6118C10.3537 10.5326 12.0392 8.84705 14.1184 8.84705C16.1976 8.84705 17.8831 10.5326 17.8831 12.6118C17.8831 14.6909 16.1976 16.3765 14.1184 16.3765C12.0392 16.3765 10.3537 14.6909 10.3537 12.6118ZM18.6596 9.51115C18.7627 9.10827 19.1729 8.86531 19.5757 8.96846C20.3855 9.1758 21.1033 9.64677 21.6159 10.3071C22.1285 10.9674 22.4067 11.7796 22.4067 12.6155C22.4067 13.4515 22.1285 14.2636 21.6159 14.9239C21.1033 15.5843 20.3855 16.0552 19.5757 16.2626C19.1729 16.3657 18.7627 16.1227 18.6596 15.7199C18.5564 15.3171 18.7993 14.9069 19.2023 14.8038C19.6881 14.6793 20.1188 14.3968 20.4263 14.0006C20.7338 13.6043 20.9008 13.1171 20.9008 12.6155C20.9008 12.114 20.7338 11.6266 20.4263 11.2305C20.1188 10.8343 19.6881 10.5517 19.2023 10.4273C18.7993 10.3241 18.5564 9.91397 18.6596 9.51115ZM8.44457 18.985C9.1506 18.279 10.1081 17.8823 11.1066 17.8823H17.1302C18.1286 17.8823 19.0862 18.279 19.7922 18.985C20.4983 19.691 20.8949 20.6486 20.8949 21.6471V23.1529C20.8949 23.5687 20.5578 23.9059 20.1419 23.9059C19.7261 23.9059 19.389 23.5687 19.389 23.1529V21.6471C19.389 21.048 19.151 20.4734 18.7273 20.0498C18.3038 19.6263 17.7292 19.3882 17.1302 19.3882H11.1066C10.5076 19.3882 9.933 19.6263 9.50937 20.0498C9.08579 20.4734 8.8478 21.048 8.8478 21.6471V23.1529C8.8478 23.5687 8.5107 23.9059 8.09486 23.9059C7.67902 23.9059 7.34192 23.5687 7.34192 23.1529V21.6471C7.34192 20.6486 7.73856 19.691 8.44457 18.985ZM21.6717 18.5449C21.7756 18.1423 22.1864 17.9001 22.589 18.0041C23.3966 18.2127 24.1122 18.6836 24.6232 19.3428C25.1342 20.0021 25.4119 20.8123 25.4125 21.6465V23.1529C25.4125 23.5687 25.0754 23.9059 24.6596 23.9059C24.2438 23.9059 23.9066 23.5687 23.9066 23.1529V21.6476C23.9063 21.1471 23.7397 20.661 23.433 20.2654C23.1264 19.8698 22.6971 19.5873 22.2125 19.4622C21.8099 19.3582 21.5677 18.9476 21.6717 18.5449Z" fill="white"/>
</g>
<defs>
<clipPath id="clip0_7_28">
<rect width="32" height="32" fill="white"/>
</clipPath>
</defs>
</svg>
