<svg width="32" height="32" viewBox="0 0 32 32" fill="none" xmlns="http://www.w3.org/2000/svg">
<g clip-path="url(#clip0_7_25)">
<path d="M15.7714 31.0588C23.8506 31.0588 30.4 24.3168 30.4 16C30.4 7.68324 23.8506 0.941177 15.7714 0.941177C7.69229 0.941177 1.14285 7.68324 1.14285 16C1.14285 24.3168 7.69229 31.0588 15.7714 31.0588Z" stroke="#070709" stroke-width="2" stroke-linecap="round" stroke-linejoin="round" stroke-dasharray="4 4"/>
<path fill-rule="evenodd" clip-rule="evenodd" d="M15.7714 9.72546C14.5091 9.72546 13.4857 10.7789 13.4857 12.0784C13.4857 13.378 14.5091 14.4313 15.7714 14.4313C17.0338 14.4313 18.0571 13.378 18.0571 12.0784C18.0571 10.7789 17.0338 9.72546 15.7714 9.72546ZM11.9619 12.0784C11.9619 9.91266 13.6675 8.15687 15.7714 8.15687C17.8754 8.15687 19.581 9.91266 19.581 12.0784C19.581 14.2442 17.8754 16 15.7714 16C13.6675 16 11.9619 14.2442 11.9619 12.0784ZM10.0301 18.7173C10.7445 17.9818 11.7135 17.5687 12.7238 17.5687H18.819C19.8294 17.5687 20.7983 17.9818 21.5128 18.7173C22.2272 19.4527 22.6286 20.4502 22.6286 21.4902V23.0588C22.6286 23.492 22.2874 23.8431 21.8667 23.8431C21.4458 23.8431 21.1047 23.492 21.1047 23.0588V21.4902C21.1047 20.8662 20.8639 20.2677 20.4353 19.8264C20.0067 19.3851 19.4253 19.1372 18.819 19.1372H12.7238C12.1176 19.1372 11.5362 19.3851 11.1076 19.8264C10.6789 20.2677 10.4381 20.8662 10.4381 21.4902V23.0588C10.4381 23.492 10.097 23.8431 9.67615 23.8431C9.2554 23.8431 8.91428 23.492 8.91428 23.0588V21.4902C8.91428 20.4502 9.31565 19.4527 10.0301 18.7173Z" fill="#22242C"/>
</g>
<defs>
<clipPath id="clip0_7_25">
<rect width="32" height="32" fill="white"/>
</clipPath>
</defs>
</svg>
