<svg width="24" height="24" viewBox="0 0 24 24" fill="none" xmlns="http://www.w3.org/2000/svg">
<path d="M11.6245 20.0001C7.35256 20.0001 3.87491 16.4101 3.87491 12.0001C3.87491 7.59006 7.35256 4.00006 11.6245 4.00006C15.8965 4.00006 19.3742 7.59006 19.3742 12.0001C19.3742 16.4101 15.8965 20.0001 11.6245 20.0001ZM11.6245 2.00006C10.3524 2.00006 9.09276 2.25872 7.91747 2.76127C6.74219 3.26381 5.6743 4.00041 4.77477 4.92899C2.9581 6.80436 1.9375 9.3479 1.9375 12.0001C1.9375 14.6522 2.9581 17.1958 4.77477 19.0711C5.6743 19.9997 6.74219 20.7363 7.91747 21.2389C9.09276 21.7414 10.3524 22.0001 11.6245 22.0001C14.1937 22.0001 16.6576 20.9465 18.4743 19.0711C20.291 17.1958 21.3116 14.6522 21.3116 12.0001C21.3116 10.6868 21.061 9.38648 20.5742 8.17323C20.0874 6.95997 19.3738 5.85758 18.4743 4.92899C17.5748 4.00041 16.5069 3.26381 15.3316 2.76127C14.1563 2.25872 12.8967 2.00006 11.6245 2.00006Z" fill="#22242C"/>
</svg>
