<svg width="24" height="24" viewBox="0 0 24 24" fill="none" xmlns="http://www.w3.org/2000/svg">
<path d="M12 20C7.59 20 4 16.41 4 12C4 7.59 7.59 4 12 4C16.41 4 20 7.59 20 12C20 16.41 16.41 20 12 20ZM12 2C10.6868 2 9.38642 2.25866 8.17317 2.7612C6.95991 3.26375 5.85752 4.00035 4.92893 4.92893C3.05357 6.8043 2 9.34784 2 12C2 14.6522 3.05357 17.1957 4.92893 19.0711C5.85752 19.9997 6.95991 20.7362 8.17317 21.2388C9.38642 21.7413 10.6868 22 12 22C14.6522 22 17.1957 20.9464 19.0711 19.0711C20.9464 17.1957 22 14.6522 22 12C22 10.6868 21.7413 9.38642 21.2388 8.17317C20.7362 6.95991 19.9997 5.85752 19.0711 4.92893C18.1425 4.00035 17.0401 3.26375 15.8268 2.7612C14.6136 2.25866 13.3132 2 12 2Z" fill="#0FAFE4"/>
<path d="M10.0137 16C9.76689 16 9.52295 15.907 9.33808 15.7256L6.47316 12.915C6.10009 12.549 6.10009 11.9559 6.47316 11.5903C6.84622 11.2243 7.45037 11.2243 7.82343 11.5903L10.1271 13.8503L17.0857 9.1644C17.5202 8.8718 18.1149 8.98024 18.4131 9.40653C18.7119 9.83329 18.6013 10.4162 18.1663 10.7092L10.554 15.8359C10.3896 15.9462 10.2014 16 10.0137 16Z" fill="#0FAFE4"/>
</svg>
