<svg width="24" height="24" viewBox="0 0 24 24" fill="none" xmlns="http://www.w3.org/2000/svg">
<path d="M8.7187 13.0001C9.25371 13.0001 9.68741 12.5523 9.68741 12.0001C9.68741 11.4478 9.25371 11.0001 8.7187 11.0001C8.1837 11.0001 7.75 11.4478 7.75 12.0001C7.75 12.5523 8.1837 13.0001 8.7187 13.0001Z" stroke="#22242C" stroke-width="2" stroke-linecap="round" stroke-linejoin="round"/>
<path d="M8.7187 6.00006C9.25371 6.00006 9.68741 5.55235 9.68741 5.00006C9.68741 4.44778 9.25371 4.00006 8.7187 4.00006C8.1837 4.00006 7.75 4.44778 7.75 5.00006C7.75 5.55235 8.1837 6.00006 8.7187 6.00006Z" stroke="#22242C" stroke-width="2" stroke-linecap="round" stroke-linejoin="round"/>
<path d="M8.7187 20.0001C9.25371 20.0001 9.68741 19.5523 9.68741 19.0001C9.68741 18.4478 9.25371 18.0001 8.7187 18.0001C8.1837 18.0001 7.75 18.4478 7.75 19.0001C7.75 19.5523 8.1837 20.0001 8.7187 20.0001Z" stroke="#22242C" stroke-width="2" stroke-linecap="round" stroke-linejoin="round"/>
<path d="M14.5302 13.0001C15.0652 13.0001 15.4989 12.5523 15.4989 12.0001C15.4989 11.4478 15.0652 11.0001 14.5302 11.0001C13.9952 11.0001 13.5615 11.4478 13.5615 12.0001C13.5615 12.5523 13.9952 13.0001 14.5302 13.0001Z" stroke="#22242C" stroke-width="2" stroke-linecap="round" stroke-linejoin="round"/>
<path d="M14.5302 6.00006C15.0652 6.00006 15.4989 5.55235 15.4989 5.00006C15.4989 4.44778 15.0652 4.00006 14.5302 4.00006C13.9952 4.00006 13.5615 4.44778 13.5615 5.00006C13.5615 5.55235 13.9952 6.00006 14.5302 6.00006Z" stroke="#22242C" stroke-width="2" stroke-linecap="round" stroke-linejoin="round"/>
<path d="M14.5302 20.0001C15.0652 20.0001 15.4989 19.5523 15.4989 19.0001C15.4989 18.4478 15.0652 18.0001 14.5302 18.0001C13.9952 18.0001 13.5615 18.4478 13.5615 19.0001C13.5615 19.5523 13.9952 20.0001 14.5302 20.0001Z" stroke="#22242C" stroke-width="2" stroke-linecap="round" stroke-linejoin="round"/>
</svg>
