<svg width="34" height="38" viewBox="0 0 34 38" fill="none" xmlns="http://www.w3.org/2000/svg">
<circle cx="17" cy="17" r="16.25" stroke="#7A7C80" stroke-width="0.5" stroke-dasharray="4 4"/>
<mask id="mask0_830_15648" style="mask-type:alpha" maskUnits="userSpaceOnUse" x="5" y="5" width="24" height="24">
<rect x="5" y="5" width="24" height="24" fill="#D9D9D9"/>
</mask>
<g mask="url(#mask0_830_15648)">
<path d="M16.5 27C14.9667 27 13.6667 26.4667 12.6 25.4C11.5333 24.3333 11 23.0333 11 21.5V11C11 9.9 11.3917 8.95833 12.175 8.175C12.9583 7.39167 13.9 7 15 7C16.1 7 17.0417 7.39167 17.825 8.175C18.6083 8.95833 19 9.9 19 11V20.5C19 21.2 18.7583 21.7917 18.275 22.275C17.7917 22.7583 17.2 23 16.5 23C15.8 23 15.2083 22.7583 14.725 22.275C14.2417 21.7917 14 21.2 14 20.5V11H15.5V20.5C15.5 20.7833 15.596 21.0207 15.788 21.212C15.9793 21.404 16.2167 21.5 16.5 21.5C16.7833 21.5 17.021 21.404 17.213 21.212C17.4043 21.0207 17.5 20.7833 17.5 20.5V11C17.5 10.3 17.2583 9.70833 16.775 9.225C16.2917 8.74167 15.7 8.5 15 8.5C14.3 8.5 13.7083 8.74167 13.225 9.225C12.7417 9.70833 12.5 10.3 12.5 11V21.5C12.5 22.6 12.8917 23.5417 13.675 24.325C14.4583 25.1083 15.4 25.5 16.5 25.5C17.6 25.5 18.5417 25.1083 19.325 24.325C20.1083 23.5417 20.5 22.6 20.5 21.5V11H22V21.5C22 23.0333 21.4667 24.3333 20.4 25.4C19.3333 26.4667 18.0333 27 16.5 27Z" fill="#7A7C80"/>
</g>
</svg>
