<svg width="21" height="20" viewBox="0 0 21 20" fill="none" xmlns="http://www.w3.org/2000/svg">
<path d="M9.65584 7H11.5933V5H9.65584V7ZM10.6245 18C6.35256 18 2.87491 14.41 2.87491 10C2.87491 5.59 6.35256 2 10.6245 2C14.8965 2 18.3742 5.59 18.3742 10C18.3742 14.41 14.8965 18 10.6245 18ZM10.6245 0C9.35242 0 8.09276 0.258658 6.91747 0.761205C5.74219 1.26375 4.6743 2.00035 3.77477 2.92893C1.9581 4.8043 0.9375 7.34784 0.9375 10C0.9375 12.6522 1.9581 15.1957 3.77477 17.0711C4.6743 17.9997 5.74219 18.7362 6.91747 19.2388C8.09276 19.7413 9.35242 20 10.6245 20C13.1937 20 15.6576 18.9464 17.4743 17.0711C19.291 15.1957 20.3116 12.6522 20.3116 10C20.3116 8.68678 20.061 7.38642 19.5742 6.17317C19.0874 4.95991 18.3738 3.85752 17.4743 2.92893C16.5748 2.00035 15.5069 1.26375 14.3316 0.761205C13.1563 0.258658 11.8967 0 10.6245 0ZM9.65584 15H11.5933V9H9.65584V15Z" fill="#22242C"/>
</svg>
