<svg width="34" height="38" viewBox="0 0 34 38" fill="none" xmlns="http://www.w3.org/2000/svg">
<circle cx="17" cy="17" r="16.25" stroke="#7A7C80" stroke-width="0.5" stroke-dasharray="4 4"/>
<mask id="mask0_830_15653" style="mask-type:alpha" maskUnits="userSpaceOnUse" x="5" y="4" width="24" height="27">
<rect x="5" y="4" width="24" height="27" fill="#D9D9D9"/>
</mask>
<g mask="url(#mask0_830_15653)">
<path d="M17.85 30.0625C17.5667 30.0625 17.3 29.9997 17.05 29.874C16.8 29.7492 16.5833 29.5807 16.4 29.3687L7.6 19.1938C7.41667 18.9818 7.271 18.7312 7.163 18.4422C7.05433 18.1531 7 17.8448 7 17.5172V9.25C7 8.61406 7.196 8.06947 7.588 7.61622C7.97933 7.16374 8.45 6.9375 9 6.9375H16.15C16.4333 6.9375 16.7 6.99994 16.95 7.12481C17.2 7.25046 17.4167 7.41927 17.6 7.63125L26.4 17.8352C26.7833 18.2784 26.975 18.8226 26.975 19.4678C26.975 20.1137 26.7833 20.6583 26.4 21.1016L19.25 29.3687C19.0667 29.5807 18.8543 29.7492 18.613 29.874C18.371 29.9997 18.1167 30.0625 17.85 30.0625ZM17.825 27.75L24.975 19.4828L16.15 9.25H9V17.5172L17.825 27.75ZM11.5 13.875C11.9167 13.875 12.2707 13.7062 12.562 13.3686C12.854 13.0317 13 12.6224 13 12.1406C13 11.6589 12.854 11.2495 12.562 10.9127C12.2707 10.5751 11.9167 10.4062 11.5 10.4062C11.0833 10.4062 10.7293 10.5751 10.438 10.9127C10.146 11.2495 10 11.6589 10 12.1406C10 12.6224 10.146 13.0317 10.438 13.3686C10.7293 13.7062 11.0833 13.875 11.5 13.875Z" fill="#7A7C80"/>
</g>
</svg>
