<svg width="24" height="24" viewBox="0 0 24 24" fill="none" xmlns="http://www.w3.org/2000/svg">
<path d="M2 4.00008C2 3.44779 1.55228 3.00008 1 3.00008C0.447715 3.00008 0 3.44779 0 4.00008H2ZM1 10.0001H0C0 10.5524 0.447715 11.0001 1 11.0001L1 10.0001ZM7 11.0001C7.55228 11.0001 8 10.5524 8 10.0001C8 9.44779 7.55228 9.00008 7 9.00008V11.0001ZM22 20.0001C22 20.5524 22.4477 21.0001 23 21.0001C23.5523 21.0001 24 20.5524 24 20.0001H22ZM23 14.0001H24C24 13.4478 23.5523 13.0001 23 13.0001V14.0001ZM17 13.0001C16.4477 13.0001 16 13.4478 16 14.0001C16 14.5524 16.4477 15.0001 17 15.0001V13.0001ZM19.5473 9.33367C19.7315 9.85432 20.3029 10.127 20.8236 9.94279C21.3442 9.75855 21.617 9.18713 21.4327 8.66648L19.5473 9.33367ZM5.64 5.64008L6.32478 6.36883C6.33239 6.36167 6.3399 6.3544 6.34728 6.34701L5.64 5.64008ZM18.36 18.3601L17.6752 17.6313C17.6676 17.6385 17.6601 17.6458 17.6527 17.6531L18.36 18.3601ZM4.45272 14.6665C4.26848 14.1458 3.69705 13.8731 3.1764 14.0574C2.65576 14.2416 2.38304 14.813 2.56728 15.3337L4.45272 14.6665ZM0 4.00008V10.0001H2V4.00008H0ZM1 11.0001H7V9.00008H1V11.0001ZM24 20.0001V14.0001H22V20.0001H24ZM23 13.0001H17V15.0001H23V13.0001ZM21.4327 8.66648C20.8692 7.07402 19.9115 5.65026 18.6489 4.52806L17.3202 6.02293C18.3303 6.9207 19.0965 8.0597 19.5473 9.33367L21.4327 8.66648ZM18.6489 4.52806C17.3863 3.40585 15.86 2.62177 14.2124 2.24899L13.771 4.19968C15.0891 4.49791 16.3101 5.12517 17.3202 6.02293L18.6489 4.52806ZM14.2124 2.24899C12.5648 1.8762 10.8497 1.92686 9.22695 2.39623L9.78267 4.31747C11.0808 3.94198 12.453 3.90145 13.771 4.19968L14.2124 2.24899ZM9.22695 2.39623C7.60424 2.8656 6.12688 3.73838 4.93272 4.93315L6.34728 6.34701C7.30261 5.3912 8.4845 4.69297 9.78267 4.31747L9.22695 2.39623ZM4.95522 4.91132L0.315223 9.27132L1.68478 10.7288L6.32478 6.36883L4.95522 4.91132ZM22.3152 13.2713L17.6752 17.6313L19.0448 19.0888L23.6848 14.7288L22.3152 13.2713ZM17.6527 17.6531C16.6974 18.609 15.5155 19.3072 14.2173 19.6827L14.7731 21.6039C16.3958 21.1346 17.8731 20.2618 19.0673 19.067L17.6527 17.6531ZM14.2173 19.6827C12.9192 20.0582 11.547 20.0987 10.229 19.8005L9.7876 21.7512C11.4352 22.1239 13.1503 22.0733 14.7731 21.6039L14.2173 19.6827ZM10.229 19.8005C8.91091 19.5022 7.68987 18.875 6.6798 17.9772L5.35114 19.4721C6.61373 20.5943 8.14002 21.3784 9.7876 21.7512L10.229 19.8005ZM6.6798 17.9772C5.66972 17.0795 4.90353 15.9404 4.45272 14.6665L2.56728 15.3337C3.1308 16.9261 4.08854 18.3499 5.35114 19.4721L6.6798 17.9772Z" fill="#2FA950"/>
</svg>
