<svg width="24" height="24" viewBox="0 0 24 24" fill="none" xmlns="http://www.w3.org/2000/svg">
<path fill-rule="evenodd" clip-rule="evenodd" d="M9.29929 4.80007C7.75849 4.80007 6.50943 6.08949 6.50943 7.68007C6.50943 9.27065 7.75849 10.5601 9.29929 10.5601C10.8401 10.5601 12.0892 9.27065 12.0892 7.68007C12.0892 6.08949 10.8401 4.80007 9.29929 4.80007ZM4.64951 7.68007C4.64951 5.0291 6.73129 2.88007 9.29929 2.88007C11.8673 2.88007 13.9491 5.0291 13.9491 7.68007C13.9491 10.331 11.8673 12.4801 9.29929 12.4801C6.73129 12.4801 4.64951 10.331 4.64951 7.68007ZM14.9081 3.72675C15.0355 3.21312 15.5421 2.90335 16.0397 3.03486C17.0398 3.29922 17.9263 3.8997 18.5594 4.74164C19.1925 5.58357 19.5361 6.61906 19.5361 7.68486C19.5361 8.75067 19.1925 9.78616 18.5594 10.6281C17.9263 11.47 17.0398 12.0705 16.0397 12.3349C15.5421 12.4664 15.0355 12.1566 14.9081 11.643C14.7807 11.1294 15.0808 10.6064 15.5783 10.4749C16.1784 10.3162 16.7103 9.95596 17.0902 9.4508C17.47 8.94564 17.6762 8.32435 17.6762 7.68486C17.6762 7.04538 17.47 6.42409 17.0902 5.91893C16.7103 5.41377 16.1784 5.05348 15.5783 4.89486C15.0808 4.76335 14.7807 4.24037 14.9081 3.72675ZM2.29158 15.806C3.16358 14.9058 4.34627 14.4001 5.57947 14.4001H13.0191C14.2523 14.4001 15.435 14.9058 16.307 15.806C17.179 16.7061 17.6689 17.927 17.6689 19.2001V21.1201C17.6689 21.6503 17.2525 22.0801 16.7389 22.0801C16.2253 22.0801 15.809 21.6503 15.809 21.1201V19.2001C15.809 18.4362 15.5151 17.7037 14.9919 17.1636C14.4687 16.6235 13.759 16.3201 13.0191 16.3201H5.57947C4.83955 16.3201 4.12994 16.6235 3.60673 17.1636C3.08353 17.7037 2.7896 18.4362 2.7896 19.2001V21.1201C2.7896 21.6503 2.37324 22.0801 1.85964 22.0801C1.34604 22.0801 0.929688 21.6503 0.929688 21.1201V19.2001C0.929688 17.927 1.41957 16.7061 2.29158 15.806ZM18.6284 15.2449C18.7568 14.7315 19.264 14.4228 19.7613 14.5553C20.7588 14.8212 21.6426 15.4216 22.2738 16.2621C22.905 17.1027 23.2479 18.1358 23.2486 19.1993V21.1201C23.2486 21.6503 22.8323 22.0801 22.3187 22.0801C21.8051 22.0801 21.3887 21.6503 21.3887 21.1201V19.2008C21.3883 18.5627 21.1825 17.9428 20.8038 17.4384C20.4251 16.9341 19.8948 16.5739 19.2963 16.4144C18.799 16.2818 18.5 15.7582 18.6284 15.2449Z" fill="#22242C"/>
</svg>
