<svg width="32" height="32" viewBox="0 0 32 32" fill="none" xmlns="http://www.w3.org/2000/svg">
<path fill-rule="evenodd" clip-rule="evenodd" d="M9.33334 24C10.0697 24 10.6667 24.5969 10.6667 25.3334V28C10.6667 28.7363 10.0697 29.3334 9.33334 29.3334C8.59695 29.3334 8 28.7363 8 28V25.3334C8 24.5969 8.59695 24 9.33334 24Z" fill="#22242C"/>
<path fill-rule="evenodd" clip-rule="evenodd" d="M9.33334 2.66668C10.0697 2.66668 10.6667 3.26364 10.6667 4.00001V13.3334C10.6667 14.0697 10.0697 14.6666 9.33334 14.6666C8.59695 14.6666 8 14.0697 8 13.3334V4.00001C8 3.26364 8.59695 2.66668 9.33334 2.66668Z" fill="#22242C"/>
<path fill-rule="evenodd" clip-rule="evenodd" d="M22.9997 16.6666C23.736 16.6666 24.3329 17.2637 24.3329 18V28C24.3329 28.7363 23.736 29.3334 22.9997 29.3334C22.2632 29.3334 21.6663 28.7363 21.6663 28V18C21.6663 17.2637 22.2632 16.6666 22.9997 16.6666Z" fill="#22242C"/>
<path fill-rule="evenodd" clip-rule="evenodd" d="M22.9997 2.66668C23.736 2.66668 24.3329 3.26364 24.3329 4.00001V7.00001C24.3329 7.73639 23.736 8.33335 22.9997 8.33335C22.2632 8.33335 21.6663 7.73639 21.6663 7.00001V4.00001C21.6663 3.26364 22.2632 2.66668 22.9997 2.66668Z" fill="#22242C"/>
<path fill-rule="evenodd" clip-rule="evenodd" d="M7.33371 21.3334C7.33371 22.4379 8.22914 23.3334 9.33371 23.3334C10.4383 23.3334 11.3337 22.4379 11.3337 21.3334C11.3337 20.2288 10.4383 19.3334 9.33371 19.3334C8.22914 19.3334 7.33371 20.2288 7.33371 21.3334ZM9.33371 17.3334C7.12458 17.3334 5.33371 19.1242 5.33371 21.3334C5.33371 23.5425 7.12458 25.3334 9.33371 25.3334C11.5429 25.3334 13.3337 23.5425 13.3337 21.3334C13.3337 19.1242 11.5429 17.3334 9.33371 17.3334Z" fill="#22242C"/>
<path fill-rule="evenodd" clip-rule="evenodd" d="M21 11C21 12.1046 21.8954 13 23 13C24.1046 13 25 12.1046 25 11C25 9.89543 24.1046 9 23 9C21.8954 9 21 9.89543 21 11ZM23 7C20.7909 7 19 8.79086 19 11C19 13.2091 20.7909 15 23 15C25.2091 15 27 13.2091 27 11C27 8.79086 25.2091 7 23 7Z" fill="#22242C"/>
</svg>
