<svg width="24" height="27" viewBox="0 0 24 27" fill="none" xmlns="http://www.w3.org/2000/svg">
<path d="M16 13.5C16 12.9033 16.2107 12.331 16.5858 11.909C16.9609 11.4871 17.4696 11.25 18 11.25C18.5304 11.25 19.0391 11.4871 19.4142 11.909C19.7893 12.331 20 12.9033 20 13.5C20 14.0967 19.7893 14.669 19.4142 15.091C19.0391 15.5129 18.5304 15.75 18 15.75C17.4696 15.75 16.9609 15.5129 16.5858 15.091C16.2107 14.669 16 14.0967 16 13.5ZM10 13.5C10 12.9033 10.2107 12.331 10.5858 11.909C10.9609 11.4871 11.4696 11.25 12 11.25C12.5304 11.25 13.0391 11.4871 13.4142 11.909C13.7893 12.331 14 12.9033 14 13.5C14 14.0967 13.7893 14.669 13.4142 15.091C13.0391 15.5129 12.5304 15.75 12 15.75C11.4696 15.75 10.9609 15.5129 10.5858 15.091C10.2107 14.669 10 14.0967 10 13.5ZM4 13.5C4 12.9033 4.21071 12.331 4.58579 11.909C4.96086 11.4871 5.46957 11.25 6 11.25C6.53043 11.25 7.03914 11.4871 7.41421 11.909C7.78929 12.331 8 12.9033 8 13.5C8 14.0967 7.78929 14.669 7.41421 15.091C7.03914 15.5129 6.53043 15.75 6 15.75C5.46957 15.75 4.96086 15.5129 4.58579 15.091C4.21071 14.669 4 14.0967 4 13.5Z" fill="#7A7C80"/>
</svg>
