<svg width="16" height="16" viewBox="0 0 16 16" fill="none" xmlns="http://www.w3.org/2000/svg">
<path d="M12.6663 11.3333C13.4027 11.3333 13.9997 10.7364 13.9997 10C13.9997 9.26363 13.4027 8.66667 12.6663 8.66667C11.93 8.66667 11.333 9.26363 11.333 10C11.333 10.7364 11.93 11.3333 12.6663 11.3333Z" stroke="#7A7C80" stroke-linecap="round" stroke-linejoin="round"/>
<path d="M10.6663 6.66667C11.4027 6.66667 11.9997 6.06971 11.9997 5.33333C11.9997 4.59695 11.4027 4 10.6663 4C9.92996 4 9.33301 4.59695 9.33301 5.33333C9.33301 6.06971 9.92996 6.66667 10.6663 6.66667Z" stroke="#7A7C80" stroke-linecap="round" stroke-linejoin="round"/>
<path d="M4.66699 6V8.66667C4.66699 9.02029 4.80747 9.35943 5.05752 9.60948C5.30756 9.85952 5.6467 10 6.00033 10H10.667" stroke="#7A7C80" stroke-linecap="round" stroke-linejoin="round"/>
<path d="M2 5.33333L9.33333 5.33333" stroke="#7A7C80" stroke-linecap="round" stroke-linejoin="round"/>
</svg>
