<svg width="24" height="24" viewBox="0 0 24 24" fill="none" xmlns="http://www.w3.org/2000/svg">
<path d="M7.81599 13.1861C6.80799 13.1861 6.05199 12.8861 5.54799 12.2861C5.04399 11.6801 4.79199 10.8461 4.79199 9.78407C4.79199 8.61407 5.05599 7.75007 5.58399 7.19207C6.11199 6.62807 6.85599 6.34607 7.81599 6.34607C8.76399 6.34607 9.49599 6.62807 10.012 7.19207C10.528 7.75007 10.786 8.62007 10.786 9.80207C10.786 12.0581 9.79599 13.1861 7.81599 13.1861ZM14.674 6.45407H16.438L9.56199 19.0001H7.79799L14.674 6.45407ZM7.79799 11.8361C8.20599 11.8361 8.47599 11.6651 8.60799 11.3231C8.73999 10.9751 8.80599 10.4801 8.80599 9.83807C8.80599 9.34007 8.77599 8.93807 8.71599 8.63207C8.65599 8.32607 8.54799 8.09807 8.39199 7.94807C8.24199 7.79207 8.03199 7.71407 7.76199 7.71407C7.37799 7.71407 7.10799 7.88207 6.95199 8.21807C6.79599 8.54807 6.71799 9.07007 6.71799 9.78407C6.71799 10.4381 6.79299 10.9451 6.94299 11.3051C7.09299 11.6591 7.37799 11.8361 7.79799 11.8361ZM16.51 19.2701C15.496 19.2701 14.737 18.9671 14.233 18.3611C13.735 17.7551 13.486 16.9181 13.486 15.8501C13.486 14.6861 13.747 13.8221 14.269 13.2581C14.791 12.6941 15.532 12.4121 16.492 12.4121C17.44 12.4121 18.175 12.6971 18.697 13.2671C19.219 13.8311 19.48 14.7041 19.48 15.8861C19.48 16.9421 19.243 17.7701 18.769 18.3701C18.301 18.9701 17.548 19.2701 16.51 19.2701ZM16.456 17.8841C16.75 17.8841 16.972 17.8001 17.122 17.6321C17.272 17.4581 17.368 17.2331 17.41 16.9571C17.458 16.6811 17.482 16.3301 17.482 15.9041C17.482 15.1601 17.407 14.6201 17.257 14.2841C17.113 13.9481 16.846 13.7801 16.456 13.7801C16.06 13.7801 15.787 13.9451 15.637 14.2751C15.487 14.6051 15.412 15.1361 15.412 15.8681C15.412 16.5161 15.481 17.0141 15.619 17.3621C15.763 17.7101 16.042 17.8841 16.456 17.8841Z" fill="black"/>
</svg>
