<svg width="25" height="24" viewBox="0 0 25 24" fill="none" xmlns="http://www.w3.org/2000/svg">
<path fill-rule="evenodd" clip-rule="evenodd" d="M8.95843 5.12691C8.5679 5.51743 8.5679 6.1506 8.95843 6.54112L12.0991 9.68184C12.4897 10.0724 13.1228 10.0724 13.5134 9.68184C13.9039 9.29131 13.9039 8.65815 13.5134 8.26762L11.0797 5.83401L13.5134 3.40041C13.9039 3.00988 13.9039 2.37672 13.5134 1.98619C13.1228 1.59567 12.4897 1.59567 12.0991 1.98619L8.95843 5.12691Z" fill="#FF4A55"/>
<path d="M6.67369 13.1105C6.77318 14.6028 7.41689 16.0067 8.48274 17.056L8.48755 17.0608C9.18676 17.7585 10.0448 18.2762 10.988 18.5695C11.198 18.6347 11.4108 18.6885 11.6255 18.7306V20.7591C11.2098 20.6982 10.7981 20.6048 10.3943 20.4793C9.14318 20.0903 8.00502 19.4039 7.07724 18.4789C5.66376 17.0862 4.81012 15.2235 4.67812 13.2435C4.60629 12.166 4.7509 11.0945 5.09362 10.089C5.27179 9.56621 5.84 9.28686 6.36275 9.46503C6.88551 9.6432 7.16485 10.2114 6.98668 10.7342C6.72849 11.4917 6.61958 12.2988 6.67369 13.1105Z" fill="#FF4A55"/>
<path d="M14.6255 20.6368C15.7802 20.3701 16.864 19.853 17.7994 19.1205C18.8317 18.3119 19.6526 17.2651 20.1915 16.0696C20.7303 14.8742 20.9712 13.5658 20.8933 12.2568C20.8155 10.9479 20.4212 9.6773 19.7445 8.55416C19.0677 7.43101 18.1285 6.48881 17.0076 5.80836C15.8867 5.12792 14.6174 4.72956 13.3087 4.64744L13.3048 4.64719L10.1012 4.45876C9.5499 4.42633 9.07667 4.84698 9.04424 5.39831C9.01181 5.94964 9.43246 6.42288 9.98379 6.45531L13.1834 6.64351L13.1851 6.64362C14.1704 6.70572 15.1259 7.00575 15.9698 7.51803C16.8142 8.03059 17.5216 8.74035 18.0314 9.5864C18.5412 10.4325 18.8382 11.3895 18.8969 12.3756C18.9555 13.3616 18.7741 14.3472 18.3681 15.2477C17.9622 16.1482 17.3439 16.9368 16.5662 17.5459C15.9845 18.0014 15.3267 18.3463 14.6255 18.5659V20.6368Z" fill="#FF4A55"/>
</svg>
