<svg width="24" height="24" viewBox="0 0 24 24" fill="none" xmlns="http://www.w3.org/2000/svg">
<path fill-rule="evenodd" clip-rule="evenodd" d="M8.33211 5.12688C7.94158 5.5174 7.94158 6.15057 8.33211 6.54109L11.4728 9.68181C11.8633 10.0723 12.4965 10.0723 12.887 9.68181C13.2776 9.29128 13.2776 8.65812 12.887 8.26759L10.4534 5.83398L12.887 3.40037C13.2776 3.00985 13.2776 2.37669 12.887 1.98616C12.4965 1.59564 11.8633 1.59564 11.4728 1.98616L8.33211 5.12688Z" fill="black"/>
<path fill-rule="evenodd" clip-rule="evenodd" d="M6.04869 13.1105C6.14818 14.6028 6.79189 16.0068 7.85774 17.056L7.85776 17.056L7.86255 17.0608C8.56176 17.7585 9.41979 18.2762 10.363 18.5695C10.573 18.6348 10.7858 18.6885 11.0005 18.7306V20.7591C10.5848 20.6982 10.1731 20.6049 9.76928 20.4793C8.51818 20.0904 7.38002 19.404 6.45224 18.4789C5.03876 17.0863 4.18512 15.2235 4.05312 13.2435C3.98129 12.166 4.1259 11.0945 4.46862 10.089C4.64679 9.56623 5.215 9.28689 5.73775 9.46506C6.26051 9.64323 6.53985 10.2114 6.36168 10.7342C6.10349 11.4917 5.99458 12.2988 6.04869 13.1105ZM14.0005 20.6368C15.1552 20.3701 16.239 19.853 17.1744 19.1205C18.2067 18.312 19.0276 17.2651 19.5665 16.0696C20.1053 14.8742 20.3462 13.5659 20.2683 12.2569C20.1905 10.9479 19.7962 9.67733 19.1195 8.55418C18.4427 7.43104 17.5035 6.48883 16.3826 5.80839C15.2617 5.12795 13.9924 4.72959 12.6837 4.64747L12.6798 4.64722L12.6798 4.64723L9.47624 4.45879C8.9249 4.42636 8.45167 4.84701 8.41924 5.39834C8.38681 5.94967 8.80746 6.4229 9.35879 6.45534L12.5584 6.64354L12.5601 6.64365C13.5454 6.70575 14.5009 7.00578 15.3448 7.51805C16.1892 8.03062 16.8966 8.74037 17.4064 9.58643C17.9162 10.4325 18.2132 11.3896 18.2719 12.3756C18.3305 13.3617 18.1491 14.3472 17.7431 15.2477C17.3372 16.1482 16.7189 16.9369 15.9412 17.5459C15.3595 18.0014 14.7017 18.3464 14.0005 18.5659V20.6368Z" fill="black"/>
</svg>
