<svg width="24" height="24" viewBox="0 0 24 24" fill="none" xmlns="http://www.w3.org/2000/svg">
<path fill-rule="evenodd" clip-rule="evenodd" d="M11.6246 4.00006C10.0196 4.00006 8.71848 5.34321 8.71848 7.00006C8.71848 8.65692 10.0196 10.0001 11.6246 10.0001C13.2296 10.0001 14.5307 8.65692 14.5307 7.00006C14.5307 5.34321 13.2296 4.00006 11.6246 4.00006ZM6.78107 7.00006C6.78107 4.23864 8.94959 2.00006 11.6246 2.00006C14.2996 2.00006 16.4681 4.23864 16.4681 7.00006C16.4681 9.76148 14.2996 12.0001 11.6246 12.0001C8.94959 12.0001 6.78107 9.76149 6.78107 7.00006ZM4.32488 15.4645C5.23322 14.5268 6.46519 14.0001 7.74977 14.0001H15.4994C16.784 14.0001 18.016 14.5268 18.9243 15.4645C19.8326 16.4022 20.3429 17.674 20.3429 19.0001V21.0001C20.3429 21.5523 19.9092 22.0001 19.3742 22.0001C18.8392 22.0001 18.4055 21.5523 18.4055 21.0001V19.0001C18.4055 18.2044 18.0993 17.4414 17.5543 16.8787C17.0093 16.3161 16.2702 16.0001 15.4994 16.0001H7.74977C6.97902 16.0001 6.23984 16.3161 5.69484 16.8787C5.14984 17.4414 4.84366 18.2044 4.84366 19.0001V21.0001C4.84366 21.5523 4.40996 22.0001 3.87495 22.0001C3.33995 22.0001 2.90625 21.5523 2.90625 21.0001V19.0001C2.90625 17.674 3.41655 16.4022 4.32488 15.4645Z" fill="#22242C"/>
</svg>
