<svg width="24" height="24" viewBox="0 0 24 24" fill="none" xmlns="http://www.w3.org/2000/svg">
<g clip-path="url(#clip0_2323_21430)">
<path fill-rule="evenodd" clip-rule="evenodd" d="M2.07375 12.0001C2.17962 12.1889 2.31997 12.4296 2.49385 12.7075C2.94044 13.4214 3.6018 14.3707 4.46044 15.3161C6.19537 17.2265 8.62099 19.0001 11.6245 19.0001C14.6279 19.0001 17.0535 17.2265 18.7885 15.3161C19.6471 14.3707 20.3085 13.4214 20.7551 12.7075C20.9289 12.4296 21.0693 12.1889 21.1752 12.0001C21.0693 11.8112 20.9289 11.5705 20.7551 11.2926C20.3085 10.5787 19.6471 9.62947 18.7885 8.684C17.0535 6.77362 14.6279 5.00006 11.6245 5.00006C8.62099 5.00006 6.19537 6.77362 4.46044 8.684C3.6018 9.62947 2.94044 10.5787 2.49385 11.2926C2.31997 11.5705 2.17962 11.8112 2.07375 12.0001ZM22.2802 12.0001C23.1466 11.5528 23.1465 11.5525 23.1463 11.5521L23.1447 11.5489L23.1414 11.5421L23.1304 11.5199C23.1212 11.5013 23.1081 11.4754 23.0912 11.4425C23.0576 11.3768 23.0086 11.2833 22.9448 11.166C22.8171 10.9317 22.6291 10.6016 22.3826 10.2075C21.8907 9.42137 21.1596 8.37066 20.2019 7.31612C18.3042 5.2265 15.4019 3.00006 11.6245 3.00006C7.84698 3.00006 4.94473 5.2265 3.04702 7.31612C2.08934 8.37066 1.35819 9.42137 0.866347 10.2075C0.619826 10.6016 0.431841 10.9317 0.304145 11.166C0.240261 11.2833 0.191358 11.3768 0.15766 11.4425C0.140808 11.4754 0.127748 11.5013 0.118509 11.5199L0.107517 11.5421L0.104173 11.5489L0.103041 11.5513C0.102863 11.5516 0.102269 11.5528 0.968705 12.0001L0.102269 11.5528C-0.0340896 11.8344 -0.0340896 12.1657 0.102269 12.4473L0.968705 12.0001C0.102269 12.4473 0.102091 12.4469 0.102269 12.4473L0.104173 12.4512L0.107517 12.458L0.118509 12.4802C0.127748 12.4988 0.140808 12.5247 0.15766 12.5576C0.191358 12.6234 0.240261 12.7168 0.304145 12.8341C0.431841 13.0684 0.619826 13.3985 0.866347 13.7926C1.35819 14.5787 2.08934 15.6295 3.04702 16.684C4.94473 18.7736 7.84698 21.0001 11.6245 21.0001C15.4019 21.0001 18.3042 18.7736 20.2019 16.684C21.1596 15.6295 21.8907 14.5787 22.3826 13.7926C22.6291 13.3985 22.8171 13.0684 22.9448 12.8341C23.0086 12.7168 23.0576 12.6234 23.0912 12.5576C23.1081 12.5247 23.1212 12.4988 23.1304 12.4802L23.1414 12.458L23.1447 12.4512L23.1459 12.4489C23.146 12.4485 23.1466 12.4473 22.2802 12.0001ZM22.2802 12.0001L23.1466 12.4473C23.283 12.1657 23.2827 11.8337 23.1463 11.5521L22.2802 12.0001ZM11.6245 10.0001C10.5545 10.0001 9.68705 10.8955 9.68705 12.0001C9.68705 13.1046 10.5545 14.0001 11.6245 14.0001C12.6945 14.0001 13.5619 13.1046 13.5619 12.0001C13.5619 10.8955 12.6945 10.0001 11.6245 10.0001ZM7.74964 12.0001C7.74964 9.79092 9.48445 8.00006 11.6245 8.00006C13.7645 8.00006 15.4993 9.79092 15.4993 12.0001C15.4993 14.2092 13.7645 16.0001 11.6245 16.0001C9.48445 16.0001 7.74964 14.2092 7.74964 12.0001Z" fill="#22242C"/>
</g>
<defs>
<clipPath id="clip0_2323_21430">
<rect width="23.2489" height="24" fill="white"/>
</clipPath>
</defs>
</svg>
