<svg width="24" height="24" viewBox="0 0 24 24" fill="none" xmlns="http://www.w3.org/2000/svg">
<mask id="mask0_5_20" style="mask-type:alpha" maskUnits="userSpaceOnUse" x="0" y="0" width="24" height="24">
<path d="M24 0H0V24H24V0Z" fill="white"/>
</mask>
<g mask="url(#mask0_5_20)">
<path d="M4 22V16C4 15.45 4.196 14.979 4.588 14.587C4.97933 14.1957 5.45 14 6 14H18C18.55 14 19.021 14.1957 19.413 14.587C19.8043 14.979 20 15.45 20 16V22H4ZM6 18H18V16H6V18ZM12 14L7 7C7 5.61667 7.48767 4.43767 8.463 3.463C9.43767 2.48767 10.6167 2 12 2C13.3833 2 14.5627 2.48767 15.538 3.463C16.5127 4.43767 17 5.61667 17 7L12 14ZM12 11.2L15 7C15 6.16667 14.7083 5.45833 14.125 4.875C13.5417 4.29167 12.8333 4 12 4C11.1667 4 10.4583 4.29167 9.875 4.875C9.29167 5.45833 9 6.16667 9 7L12 11.2Z" fill="white"/>
</g>
</svg>
