<svg width="24" height="24" viewBox="0 0 24 24" fill="none" xmlns="http://www.w3.org/2000/svg">
<path d="M11.9852 23.0207C5.91597 23.0207 0.950283 18.055 0.950283 11.9858C0.950283 5.91669 5.91597 0.951008 11.9852 0.951008C18.0543 0.951008 23.0199 5.91669 23.0199 11.9858C23.0199 18.055 18.0543 23.0207 11.9852 23.0207ZM11.9852 3.24993C7.20336 3.24993 3.24921 7.20408 3.24921 11.9858C3.24921 16.7676 7.20336 20.7218 11.9852 20.7218C16.7669 20.7218 20.7211 16.7676 20.7211 11.9858C20.7211 7.20408 16.7669 3.24993 11.9852 3.24993Z" fill="white"/>
<path d="M10.2384 16.3078C9.96255 16.3078 9.59472 16.2158 9.41081 15.94L7.11189 13.6411C6.6521 13.1812 6.6521 12.4456 7.11189 11.9858C7.57167 11.5261 8.30733 11.5261 8.76711 11.9858L10.2384 13.4571L15.2041 8.49149C15.6639 8.0317 16.3995 8.0317 16.8593 8.49149C17.3192 8.95127 17.3192 9.68693 16.8593 10.1467L11.0661 15.94C10.7902 16.2158 10.5143 16.3078 10.2384 16.3078Z" fill="white"/>
</svg>
