<svg width="24" height="24" viewBox="0 0 24 24" fill="none" xmlns="http://www.w3.org/2000/svg">
<mask id="mask0_14_19" style="mask-type:alpha" maskUnits="userSpaceOnUse" x="0" y="0" width="24" height="24">
<path d="M23.4545 0.545456H0.545456V23.4545H23.4545V0.545456Z" fill="#D9D9D9"/>
</mask>
<g mask="url(#mask0_14_19)">
<path d="M4.36363 21.5455V15.8182C4.36363 15.2932 4.55072 14.8436 4.92491 14.4694C5.29845 14.0959 5.74772 13.9091 6.27272 13.9091H17.7273C18.2522 13.9091 18.7019 14.0959 19.0761 14.4694C19.4496 14.8436 19.6364 15.2932 19.6364 15.8182V21.5455H4.36363ZM6.27272 17.7273H17.7273V15.8182H6.27272V17.7273ZM12 13.9091L7.22727 7.22727C7.22727 5.90681 7.69277 4.78141 8.62377 3.85105C9.55413 2.92005 10.6795 2.45454 12 2.45454C13.3204 2.45454 14.4461 2.92005 15.3771 3.85105C16.3076 4.78141 16.7727 5.90681 16.7727 7.22727L12 13.9091ZM12 11.2364L14.8636 7.22727C14.8636 6.43181 14.5852 5.75568 14.0284 5.19886C13.4716 4.64205 12.7955 4.36364 12 4.36364C11.2045 4.36364 10.5284 4.64205 9.97158 5.19886C9.41477 5.75568 9.13636 6.43181 9.13636 7.22727L12 11.2364Z" fill="white"/>
<path d="M22.5 21.5455L1.5 5.31818" stroke="white" stroke-width="2" stroke-linecap="round" stroke-linejoin="round"/>
</g>
</svg>
