<svg width="24" height="24" viewBox="0 0 24 24" fill="none" xmlns="http://www.w3.org/2000/svg">
<path d="M11.9852 23.0207C5.91597 23.0207 0.950287 18.055 0.950287 11.9858C0.950287 5.91669 5.91597 0.951008 11.9852 0.951008C18.0543 0.951008 23.0199 5.91669 23.0199 11.9858C23.0199 18.055 18.0543 23.0207 11.9852 23.0207ZM11.9852 3.24994C7.20336 3.24994 3.24921 7.20409 3.24921 11.9858C3.24921 16.7676 7.20336 20.7218 11.9852 20.7218C16.7669 20.7218 20.7211 16.7676 20.7211 11.9858C20.7211 7.20409 16.7669 3.24994 11.9852 3.24994Z" fill="white"/>
<path fill-rule="evenodd" clip-rule="evenodd" d="M7.04128 7.04128C7.52056 6.562 8.29763 6.562 8.77691 7.04128L12 10.2644L15.2231 7.04128C15.7023 6.562 16.4795 6.562 16.9587 7.04128C17.438 7.52056 17.438 8.29763 16.9587 8.77691L13.7356 12L16.9587 15.2231C17.438 15.7024 17.438 16.4795 16.9587 16.9587C16.4795 17.438 15.7023 17.438 15.2231 16.9587L12 13.7356L8.77691 16.9587C8.29763 17.438 7.52056 17.438 7.04128 16.9587C6.56201 16.4795 6.56201 15.7024 7.04128 15.2231L10.2644 12L7.04128 8.77691C6.56201 8.29763 6.56201 7.52056 7.04128 7.04128Z" fill="white"/>
</svg>
