<svg width="24" height="24" viewBox="0 0 24 24" fill="none" xmlns="http://www.w3.org/2000/svg">
<path d="M5 6.6899C5 6.13762 4.55228 5.6899 4 5.6899C3.44772 5.6899 3 6.13762 3 6.6899H5ZM4 10.8391H3C3 11.3914 3.44772 11.8391 4 11.8391V10.8391ZM8.36364 11.8391C8.91592 11.8391 9.36364 11.3914 9.36364 10.8391C9.36364 10.2869 8.91592 9.83914 8.36364 9.83914V11.8391ZM19 17.7545C19 18.3068 19.4477 18.7545 20 18.7545C20.5523 18.7545 21 18.3068 21 17.7545H19ZM20 13.6053H21C21 13.053 20.5523 12.6053 20 12.6053V13.6053ZM15.6364 12.6053C15.0841 12.6053 14.6364 13.053 14.6364 13.6053C14.6364 14.1576 15.0841 14.6053 15.6364 14.6053V12.6053ZM17.2373 10.4964C17.43 11.014 18.0057 11.2774 18.5233 11.0848C19.0409 10.8922 19.3044 10.3164 19.1117 9.79882L17.2373 10.4964ZM7.37455 7.82403L8.04082 8.56973C8.04859 8.56279 8.05626 8.55572 8.06381 8.54854L7.37455 7.82403ZM16.6255 16.6204L15.9592 15.8747C15.9514 15.8817 15.9437 15.8887 15.9362 15.8959L16.6255 16.6204ZM6.76266 13.9481C6.57003 13.4305 5.99428 13.167 5.47667 13.3596C4.95907 13.5523 4.69562 14.128 4.88825 14.6456L6.76266 13.9481ZM3 6.6899V10.8391H5V6.6899H3ZM4 11.8391H8.36364V9.83914H4V11.8391ZM21 17.7545V13.6053H19V17.7545H21ZM20 12.6053H15.6364V14.6053H20V12.6053ZM19.1117 9.79882C18.6815 8.64274 17.9524 7.61485 16.9979 6.80814L15.7069 8.33567C16.4052 8.92585 16.9299 9.67022 17.2373 10.4964L19.1117 9.79882ZM16.9979 6.80814C16.0436 6.00166 14.8944 5.44164 13.6589 5.17582L13.2382 7.13108C14.1595 7.32928 15.0083 7.74526 15.7069 8.33567L16.9979 6.80814ZM13.6589 5.17582C12.4234 4.91001 11.1376 4.94604 9.92012 5.28089L10.4505 7.20928C11.3573 6.95988 12.3168 6.93285 13.2382 7.13108L13.6589 5.17582ZM9.92012 5.28089C8.70253 5.61578 7.58895 6.23982 6.68528 7.09952L8.06381 8.54854C8.72341 7.92103 9.54384 7.45865 10.4505 7.20928L9.92012 5.28089ZM6.70827 7.07832L3.33372 10.0934L4.66628 11.5848L8.04082 8.56973L6.70827 7.07832ZM19.3337 12.8596L15.9592 15.8747L17.2917 17.3661L20.6663 14.351L19.3337 12.8596ZM15.9362 15.8959C15.2766 16.5234 14.4562 16.9858 13.5495 17.2352L14.0799 19.1636C15.2975 18.8287 16.411 18.2046 17.3147 17.3449L15.9362 15.8959ZM13.5495 17.2352C12.6427 17.4846 11.6832 17.5116 10.7618 17.3134L10.3411 19.2686C11.5766 19.5344 12.8624 19.4984 14.0799 19.1636L13.5495 17.2352ZM10.7618 17.3134C9.84055 17.1152 8.9917 16.6992 8.2931 16.1088L7.00212 17.6363C7.95637 18.4428 9.10558 19.0028 10.3411 19.2686L10.7618 17.3134ZM8.2931 16.1088C7.59479 15.5186 7.07012 14.7742 6.76266 13.9481L4.88825 14.6456C5.31849 15.8017 6.04759 16.8296 7.00212 17.6363L8.2931 16.1088Z" fill="white"/>
</svg>
