<svg width="22" height="23" viewBox="0 0 22 23" fill="none" xmlns="http://www.w3.org/2000/svg">
<rect x="0.816406" y="1.30078" width="20.6644" height="20.6644" rx="10.3322" fill="white" stroke="#0FAFE4"/>
<path d="M15 10.5H10.5C9.94772 10.5 9.5 10.9477 9.5 11.5V16C9.5 16.5523 9.94772 17 10.5 17H15C15.5523 17 16 16.5523 16 16V11.5C16 10.9477 15.5523 10.5 15 10.5Z" stroke="#0FAFE4" stroke-linecap="round" stroke-linejoin="round"/>
<path d="M7.5 13.5H7C6.73478 13.5 6.48043 13.3946 6.29289 13.2071C6.10536 13.0196 6 12.7652 6 12.5V8C6 7.73478 6.10536 7.48043 6.29289 7.29289C6.48043 7.10536 6.73478 7 7 7H11.5C11.7652 7 12.0196 7.10536 12.2071 7.29289C12.3946 7.48043 12.5 7.73478 12.5 8V8.5" stroke="#0FAFE4" stroke-linecap="round" stroke-linejoin="round"/>
</svg>
