<svg width="50" height="50" viewBox="0 0 50 50" fill="none" xmlns="http://www.w3.org/2000/svg">
<path d="M27.5 16.0714C27.5 14.6907 26.3807 13.5714 25 13.5714C23.6193 13.5714 22.5 14.6907 22.5 16.0714H27.5ZM22.5 33.9286C22.5 35.3093 23.6193 36.4286 25 36.4286C26.3807 36.4286 27.5 35.3093 27.5 33.9286H22.5ZM16.0714 22.5C14.6907 22.5 13.5714 23.6193 13.5714 25C13.5714 26.3807 14.6907 27.5 16.0714 27.5V22.5ZM33.9286 27.5C35.3093 27.5 36.4286 26.3807 36.4286 25C36.4286 23.6193 35.3093 22.5 33.9286 22.5V27.5ZM43.9286 25C43.9286 35.4539 35.454 43.9286 25 43.9286V48.9286C38.2154 48.9286 48.9286 38.2154 48.9286 25H43.9286ZM25 43.9286C14.5461 43.9286 6.07144 35.4539 6.07144 25H1.07144C1.07144 38.2154 11.7846 48.9286 25 48.9286V43.9286ZM6.07144 25C6.07144 14.546 14.5461 6.07141 25 6.07141V1.07141C11.7846 1.07141 1.07144 11.7846 1.07144 25H6.07144ZM25 6.07141C35.454 6.07141 43.9286 14.546 43.9286 25H48.9286C48.9286 11.7846 38.2154 1.07141 25 1.07141V6.07141ZM22.5 16.0714V33.9286H27.5V16.0714H22.5ZM16.0714 27.5H33.9286V22.5H16.0714V27.5Z" fill="#00C3F9"/>
</svg>
