<svg width="24" height="24" viewBox="0 0 24 24" fill="none" xmlns="http://www.w3.org/2000/svg">
<path fill-rule="evenodd" clip-rule="evenodd" d="M1 7C1 3.68629 3.68629 1 7 1H17C20.3137 1 23 3.68629 23 7V17C23 20.3137 20.3137 23 17 23H7C3.68629 23 1 20.3137 1 17V7ZM7 3C4.79086 3 3 4.79086 3 7V17C3 19.2091 4.79086 21 7 21H17C19.2091 21 21 19.2091 21 17V7C21 4.79086 19.2091 3 17 3H7ZM12 7C11.2314 7 10.5 7.68442 10.5 8.66667C10.5 9.64892 11.2314 10.3333 12 10.3333C12.7686 10.3333 13.5 9.64892 13.5 8.66667C13.5 7.68442 12.7686 7 12 7ZM8.5 8.66667C8.5 6.7034 10.0072 5 12 5C13.9928 5 15.5 6.7034 15.5 8.66667C15.5 10.6299 13.9928 12.3333 12 12.3333C10.0072 12.3333 8.5 10.6299 8.5 8.66667ZM7.0027 14.0971C7.65335 13.4031 8.55015 13 9.5 13H14.5C15.4498 13 16.3466 13.4031 16.9973 14.0971C17.6459 14.789 18 15.7143 18 16.6667V18H16V16.6667C16 16.2046 15.8273 15.7733 15.5382 15.465C15.2512 15.1588 14.8762 15 14.5 15H9.5C9.12376 15 8.74879 15.1588 8.46177 15.465C8.1727 15.7733 8 16.2046 8 16.6667V18H6V16.6667C6 15.7143 6.35409 14.789 7.0027 14.0971Z" fill="#C1C9D2"/>
</svg>
