<svg width="327" height="299" viewBox="0 0 327 299" fill="none" xmlns="http://www.w3.org/2000/svg">
<path d="M95.6621 10.517C56.5338 -17.336 24.6024 20.1274 13.5277 42.3406C-16.0898 111.737 10.944 154.881 72.02 153.868C133.096 152.856 100.793 179.398 199.243 250.65C319.753 279.505 345.315 181.819 309.402 139.145C273.489 96.4706 240.645 110.295 190.122 110.295C76.0828 107.691 144.572 45.3331 95.6621 10.517Z" fill="url(#paint0_linear_1582_43577)"/>
<path d="M277.558 207.266C278.075 206.474 278.469 205.611 278.688 204.652C280.681 195.958 271.247 195.918 266.21 192.488C261.505 189.285 262.183 183.703 262.607 178.752C263.177 172.123 263.486 167.415 259.816 161.46C251.981 148.743 256.217 136.892 253.201 123.093C251.252 114.179 244.531 106.439 236.5 102.016C234.12 100.705 231.29 99.5503 228.045 99.9713C222.146 100.735 218.156 106.269 217.92 110.743C217.685 115.215 219.829 119.23 219.966 123.649C220.102 128.068 217.137 133.657 211.314 135.245C208.393 136.04 204.63 136.006 203.089 138.135C202.399 139.086 202.483 140.149 202.706 141.096C203.689 145.298 206.995 148.675 207.776 152.912C208.696 157.907 205.997 161.171 203.516 165.208C202.404 167.021 201.619 169.279 202.406 171.255C203.86 174.896 208.855 174.783 210.652 178.115C212.789 182.082 207.228 186.944 202.654 190.636C198.081 194.328 193.8 200.356 198.012 203.03C199.323 203.863 201.18 204.086 202.797 204.584C210.064 206.815 211.514 213.929 212.212 220.196C212.966 226.953 219.591 230.17 223.682 234.747C228.295 239.905 228.629 248.636 238.088 246.344C244.565 244.776 248.365 238.75 252.627 234.17C257.297 229.151 262.199 224.236 265.617 218.235C268.242 213.787 274.748 211.57 277.558 207.266Z" fill="#4A50E2"/>
<path d="M237.941 244.216C237.57 244.157 237.28 243.847 237.26 243.457L232.288 145.597C232.263 145.148 232.609 144.766 233.058 144.741C233.507 144.716 233.888 145.061 233.91 145.51L238.883 243.369C238.907 243.819 238.562 244.2 238.112 244.226C238.053 244.228 237.998 244.225 237.941 244.216Z" fill="white"/>
<path d="M235.073 179.987C235.027 179.98 234.979 179.969 234.932 179.953C234.507 179.806 234.286 179.343 234.433 178.918L241.276 159.376C241.427 158.952 241.89 158.73 242.312 158.876C242.736 159.023 242.958 159.486 242.81 159.911L235.967 179.452C235.833 179.83 235.452 180.048 235.073 179.987Z" fill="white"/>
<path d="M236.543 216.578C236.289 216.538 236.059 216.378 235.938 216.127L227.509 198.613C227.313 198.209 227.485 197.721 227.888 197.527C228.295 197.331 228.78 197.502 228.974 197.905L237.403 215.419C237.599 215.823 237.427 216.312 237.024 216.505C236.868 216.583 236.7 216.603 236.543 216.578Z" fill="white"/>
<path d="M247.121 265.343C247.959 264.352 248.678 263.208 248.865 261.926C248.91 261.617 248.914 261.274 248.728 261.023C248.567 260.806 248.292 260.702 248.027 260.647C246.149 260.245 244.387 261.621 243.029 262.981C240.632 265.383 238.494 268.041 236.66 270.895C237.758 269.188 238.335 265.913 238.075 263.906C238.065 263.828 238.049 263.74 237.987 263.69C237.923 263.638 237.834 263.643 237.755 263.657C237.178 263.768 236.814 264.329 236.537 264.849C235.681 266.457 234.933 268.315 234.436 270.12C234.749 268.987 233.824 267.623 232.986 266.946C231.486 265.74 231.806 267.424 232.132 268.412C232.452 269.382 234.571 273.179 236.083 272.331C236.36 272.174 236.428 271.328 236.655 271.054C237.05 270.581 237.602 270.425 238.169 270.25C239.693 269.777 241.28 269.581 242.716 268.838C244.389 267.968 245.903 266.783 247.121 265.343Z" fill="#1735A3"/>
<path d="M111.688 176.14C112.075 175.274 112.328 174.355 112.392 173.369C112.982 164.434 103.615 165.884 98.0687 163.28C92.889 160.847 92.6709 155.204 92.3015 150.228C91.81 143.565 91.365 138.847 86.7728 133.522C76.9689 122.15 79.281 109.729 74.0868 96.5224C70.7306 87.9906 62.8258 81.3774 54.1503 78.2612C51.5794 77.3368 48.5867 76.6392 45.4341 77.5694C39.7019 79.2583 36.6249 85.3773 37.1047 89.8511C37.5846 94.3219 40.3533 97.9642 41.1938 102.325C42.0343 106.685 39.984 112.696 34.4582 115.191C31.6866 116.441 27.9465 117.002 26.757 119.356C26.2248 120.408 26.4778 121.449 26.8501 122.353C28.4962 126.365 32.3148 129.19 33.766 133.269C35.4761 138.077 33.3181 141.739 31.5004 146.135C30.6861 148.108 30.2673 150.472 31.3637 152.306C33.3879 155.687 38.3262 154.786 40.6412 157.806C43.3954 161.402 38.652 167.102 34.7025 171.486C30.753 175.869 27.4666 182.523 32.0734 184.509C33.5072 185.128 35.3859 185.055 37.0698 185.294C44.6373 186.358 47.2111 193.183 48.9037 199.287C50.7302 205.869 57.8177 208.011 62.6077 211.903C68.0084 216.29 69.733 224.894 78.7546 221.127C84.9318 218.549 87.7413 211.973 91.24 206.758C95.0731 201.043 99.1535 195.395 101.588 188.904C103.484 184.079 109.586 180.852 111.688 176.14Z" fill="url(#paint1_linear_1582_43577)"/>
<path d="M78.2653 219.054C77.8873 219.054 77.5499 218.793 77.4685 218.409L56.9155 122.144C56.8195 121.702 57.1016 121.269 57.5437 121.173C57.9857 121.077 58.4191 121.359 58.5121 121.801L79.0651 218.066C79.1611 218.508 78.879 218.941 78.4369 219.037C78.3788 219.049 78.3235 219.054 78.2653 219.054Z" fill="white"/>
<path d="M65.1758 155.807C65.1292 155.807 65.0798 155.805 65.0304 155.796C64.5854 155.717 64.2917 155.293 64.3702 154.848L68.0463 134.386C68.1277 133.942 68.5523 133.648 68.9944 133.727C69.4394 133.805 69.7331 134.229 69.6546 134.674L65.9785 155.136C65.9058 155.531 65.5626 155.807 65.1758 155.807Z" fill="white"/>
<path d="M72.4632 191.868C72.2044 191.868 71.9513 191.746 71.7914 191.516L60.6322 175.482C60.3734 175.112 60.4664 174.601 60.8358 174.345C61.2081 174.086 61.717 174.179 61.9729 174.548L73.1321 190.583C73.3909 190.952 73.2979 191.464 72.9285 191.72C72.786 191.821 72.6232 191.868 72.4632 191.868Z" fill="white"/>
<path d="M233.67 153.01C234.206 152.226 234.621 151.368 234.862 150.41C237.056 141.723 227.584 141.474 222.602 137.92C217.949 134.599 218.754 129.008 219.289 124.046C220.009 117.402 220.424 112.68 216.871 106.619C209.286 93.6758 213.802 81.8675 211.08 67.9442C209.321 58.9491 202.744 51.0281 194.777 46.4101C192.417 45.0407 189.601 43.819 186.333 44.1704C180.393 44.8069 176.263 50.2774 175.926 54.7651C175.591 59.25 177.655 63.3292 177.694 67.7699C177.733 72.2106 174.632 77.7589 168.749 79.2246C165.798 79.9588 162.02 79.8419 160.425 81.9459C159.712 82.8861 159.773 83.9554 159.975 84.9115C160.869 89.1531 164.113 92.6163 164.804 96.8888C165.617 101.926 162.834 105.143 160.253 109.143C159.096 110.94 158.257 113.19 159.004 115.191C160.384 118.879 165.401 118.876 167.132 122.262C169.19 126.293 163.497 131.053 158.823 134.66C154.149 138.267 149.716 144.226 153.887 147.004C155.184 147.87 157.045 148.134 158.657 148.67C165.905 151.07 167.203 158.246 167.764 164.556C168.371 171.358 174.953 174.734 178.959 179.42C183.476 184.703 183.618 193.477 193.168 191.384C199.706 189.952 203.656 183.985 208.037 179.479C212.838 174.541 217.869 169.714 221.434 163.762C224.17 159.353 230.751 157.27 233.67 153.01Z" fill="url(#paint2_linear_1582_43577)"/>
<path d="M193.067 189.247C192.696 189.179 192.411 188.862 192.4 188.47L189.579 90.0873C189.565 89.6355 189.92 89.2598 190.372 89.2445C190.824 89.2292 191.198 89.5841 191.21 90.0354L194.031 188.418C194.046 188.87 193.69 189.245 193.239 189.261C193.18 189.262 193.124 189.257 193.067 189.247Z" fill="white"/>
<path d="M191.612 124.684C191.566 124.676 191.518 124.664 191.471 124.647C191.048 124.49 190.836 124.02 190.994 123.596L198.299 104.123C198.459 103.7 198.93 103.487 199.35 103.644C199.773 103.8 199.985 104.27 199.828 104.694L192.522 124.167C192.379 124.543 191.992 124.753 191.612 124.684Z" fill="white"/>
<path d="M192.277 161.461C192.022 161.415 191.795 161.249 191.68 160.995L183.604 143.221C183.416 142.811 183.6 142.324 184.009 142.139C184.422 141.951 184.905 142.133 185.09 142.542L193.166 160.316C193.354 160.726 193.17 161.213 192.761 161.398C192.602 161.473 192.434 161.49 192.277 161.461Z" fill="white"/>
<path d="M56.7456 214.53C56.8722 214.3 56.9633 214.054 57.004 213.784C57.376 211.341 54.7677 211.522 53.3048 210.678C51.9385 209.888 52.011 208.332 52.0263 206.955C52.0476 205.112 52.0361 203.805 50.8992 202.234C48.472 198.88 49.3988 195.519 48.2814 191.767C47.5594 189.344 45.5424 187.342 43.2315 186.284C42.5467 185.97 41.7407 185.708 40.8526 185.891C39.2377 186.222 38.2486 187.833 38.2754 189.074C38.3024 190.314 38.9777 191.38 39.1063 192.598C39.235 193.817 38.5304 195.422 36.9534 195.979C36.1625 196.258 35.1215 196.326 34.7394 196.945C34.5684 197.222 34.6135 197.514 34.6946 197.771C35.0528 198.912 36.0358 199.778 36.3389 200.933C36.696 202.295 36.017 203.251 35.4144 204.417C35.1443 204.941 34.9737 205.581 35.232 206.111C35.7089 207.087 37.0871 206.954 37.6523 207.839C38.3248 208.891 36.8875 210.348 35.6993 211.462C34.5111 212.575 33.4519 214.328 34.6712 214.981C35.0507 215.184 35.5686 215.208 36.0258 215.313C38.0803 215.781 38.6274 217.717 38.9493 219.435C39.2967 221.287 41.1941 222.04 42.419 223.222C43.8001 224.553 44.0721 226.959 46.6397 226.133C48.3977 225.567 49.324 223.825 50.4078 222.472C51.5953 220.99 52.8492 219.532 53.6704 217.804C54.3048 216.521 56.0572 215.776 56.7456 214.53Z" fill="#478F99"/>
<path d="M46.5545 225.551C46.4506 225.542 46.3641 225.463 46.3507 225.355L42.9635 198.414C42.9475 198.29 43.0352 198.178 43.1588 198.162C43.2825 198.146 43.3949 198.233 43.4101 198.357L46.7974 225.298C46.8134 225.422 46.7257 225.534 46.602 225.55C46.5858 225.552 46.5705 225.552 46.5545 225.551Z" fill="white"/>
<path d="M44.441 207.859C44.4282 207.858 44.4147 207.856 44.4013 207.853C44.2809 207.821 44.2102 207.697 44.2422 207.577L45.7321 202.037C45.7649 201.917 45.8884 201.846 46.008 201.878C46.1284 201.91 46.1991 202.033 46.1671 202.154L44.6772 207.693C44.648 207.8 44.5472 207.868 44.441 207.859Z" fill="white"/>
<path d="M45.5994 217.939C45.5283 217.933 45.4616 217.893 45.4231 217.827L42.7327 213.159C42.6703 213.051 42.7078 212.913 42.8153 212.851C42.9237 212.789 43.0614 212.826 43.1231 212.934L45.8134 217.601C45.8759 217.709 45.8383 217.847 45.7308 217.909C45.6892 217.934 45.6434 217.943 45.5994 217.939Z" fill="white"/>
<path d="M268.459 229.237C268.586 229.007 268.677 228.761 268.717 228.491C269.089 226.048 266.481 226.229 265.018 225.385C263.652 224.595 263.724 223.039 263.74 221.662C263.761 219.819 263.749 218.512 262.613 216.941C260.185 213.587 261.112 210.226 259.995 206.474C259.273 204.051 257.256 202.049 254.945 200.991C254.26 200.677 253.454 200.415 252.566 200.598C250.951 200.929 249.962 202.54 249.989 203.781C250.016 205.021 250.691 206.087 250.82 207.305C250.948 208.524 250.244 210.129 248.667 210.686C247.876 210.965 246.835 211.033 246.453 211.652C246.282 211.929 246.327 212.221 246.408 212.478C246.766 213.619 247.749 214.485 248.052 215.64C248.409 217.002 247.73 217.958 247.128 219.124C246.858 219.648 246.687 220.288 246.945 220.818C247.422 221.794 248.8 221.661 249.366 222.546C250.038 223.598 248.601 225.055 247.413 226.169C246.225 227.282 245.165 229.035 246.385 229.688C246.764 229.891 247.282 229.915 247.739 230.02C249.794 230.488 250.341 232.424 250.663 234.142C251.01 235.994 252.907 236.747 254.132 237.929C255.514 239.26 255.786 241.666 258.353 240.84C260.111 240.274 261.037 238.532 262.121 237.179C263.309 235.697 264.563 234.239 265.384 232.511C266.018 231.229 267.771 230.483 268.459 229.237Z" fill="#478F99"/>
<path d="M258.268 240.258C258.164 240.249 258.077 240.17 258.064 240.062L254.677 213.121C254.661 212.997 254.749 212.885 254.872 212.869C254.996 212.853 255.108 212.94 255.123 213.064L258.511 240.005C258.527 240.129 258.439 240.241 258.315 240.257C258.299 240.259 258.284 240.259 258.268 240.258Z" fill="white"/>
<path d="M256.154 222.566C256.142 222.565 256.128 222.563 256.115 222.56C255.994 222.528 255.924 222.404 255.956 222.284L257.445 216.744C257.478 216.624 257.602 216.553 257.721 216.585C257.842 216.617 257.913 216.74 257.881 216.861L256.391 222.4C256.361 222.507 256.261 222.575 256.154 222.566Z" fill="white"/>
<path d="M257.313 232.646C257.242 232.64 257.175 232.601 257.136 232.534L254.446 227.866C254.384 227.758 254.421 227.62 254.529 227.558C254.637 227.496 254.775 227.533 254.836 227.641L257.527 232.308C257.589 232.416 257.552 232.554 257.444 232.616C257.403 232.641 257.357 232.65 257.313 232.646Z" fill="white"/>
<path d="M10.6151 201.866C10.2716 200.67 9.19695 199.67 8.39784 198.594C7.60057 197.519 7.08069 196.174 7.88715 195.103C8.26374 194.605 8.88098 194.233 9.40087 193.807C11.7743 191.862 11.9066 188.941 11.1552 186.396C10.4039 183.851 8.91038 181.429 8.45847 178.846C8.04146 176.453 8.90487 173.609 11.8809 172.555C14.0651 171.782 16.8574 172.285 18.5787 173.534C20.3 174.784 21.0146 176.646 20.8364 178.412C20.7648 179.119 20.5829 179.892 21.1083 180.489C22.1444 181.67 24.8448 181.135 26.3181 182.035C27.5783 182.804 27.3946 184.251 26.8637 185.386C26.3328 186.519 25.5576 187.707 25.9985 188.862C26.5441 190.287 28.8073 191.177 29.0351 192.648C29.1288 193.25 28.8532 193.869 29.0351 194.46C29.544 196.126 33.343 196.992 32.5494 198.599C31.934 199.846 29.1178 199.693 28.2489 200.858C27.3248 202.093 29.3658 203.522 29.1104 204.917C29.0241 205.393 28.6732 205.817 28.3315 206.226C26.004 209.012 23.6746 211.796 21.3471 214.581C20.9264 215.084 20.4984 215.595 19.9179 216.004C16.343 218.529 10.8999 216.904 10.2918 213.661C10.0016 212.117 9.62131 210.294 9.50741 208.731C9.34392 206.414 11.2746 204.163 10.6151 201.866Z" fill="#07B2C9"/>
<path d="M20.851 239.717C20.5809 239.717 20.3532 239.505 20.3366 239.232L17.3808 189.992C17.3643 189.707 17.5811 189.463 17.8658 189.446C18.1395 189.428 18.3949 189.645 18.4114 189.931L21.3672 239.171C21.3837 239.456 21.167 239.7 20.8822 239.717C20.8712 239.717 20.862 239.717 20.851 239.717Z" fill="#1A4A67"/>
<path d="M12.4912 240.01C11.6497 239.455 10.8626 238.759 10.442 237.845C10.3405 237.624 10.2616 237.37 10.3458 237.142C10.4179 236.945 10.5995 236.807 10.785 236.709C12.0961 235.999 13.7113 236.64 15.0215 237.356C17.3345 238.622 19.5113 240.135 21.504 241.861C20.3113 240.829 19.1621 238.515 18.9152 236.963C18.9051 236.903 18.8982 236.834 18.9331 236.783C18.9693 236.731 19.0373 236.715 19.0986 236.708C19.553 236.665 19.9475 237.003 20.2679 237.33C21.259 238.341 22.2241 239.562 22.9904 240.798C22.509 240.022 22.8986 238.804 23.374 238.117C24.2266 236.891 24.3583 238.215 24.3321 239.022C24.3071 239.815 23.5618 243.107 22.2492 242.804C22.0087 242.749 21.7717 242.133 21.5423 241.978C21.1441 241.712 20.6992 241.716 20.2378 241.71C18.9989 241.69 17.7732 241.891 16.5403 241.651C15.1032 241.368 13.7151 240.816 12.4912 240.01Z" fill="#1735A3"/>
<path d="M18.7571 204.829C18.6395 204.829 18.5219 204.79 18.4264 204.71C18.2078 204.526 18.1784 204.201 18.3621 203.983L25.5173 195.424C25.7011 195.206 26.028 195.176 26.2448 195.36C26.4634 195.544 26.4928 195.869 26.3091 196.087L19.1539 204.645C19.051 204.765 18.904 204.829 18.7571 204.829Z" fill="#1A4A67"/>
<path d="M19.3742 215.096C19.2511 215.096 19.128 215.052 19.0288 214.964L12.6268 209.221C12.4137 209.03 12.3971 208.705 12.5863 208.492C12.7774 208.279 13.1044 208.262 13.3156 208.453L19.7177 214.197C19.9308 214.388 19.9473 214.713 19.7581 214.926C19.6553 215.038 19.5156 215.096 19.3742 215.096Z" fill="#1A4A67"/>
<path d="M93.4762 120.06C95.4988 118.885 97.9613 118.577 100.314 119.205L225.102 152.505C229.617 153.709 232.882 157.718 233.033 162.24L234.94 219.522C235.09 224.025 231.948 227.827 227.457 228.578V228.578C226.041 228.815 224.572 228.731 223.16 228.332L99.6735 193.468C95.2715 192.225 92.0952 188.312 91.8963 183.886L89.3684 127.631C89.2278 124.501 90.7909 121.62 93.4762 120.06V120.06Z" fill="#86B7DD"/>
<path d="M89.3202 132.319C89.1046 125.844 95.1993 121.24 101.655 123.003L220.474 155.444C224.961 156.669 228.195 160.663 228.345 165.164L230.086 217.453C230.302 223.929 224.207 228.532 217.752 226.77L98.9321 194.328C94.446 193.103 91.2113 189.109 91.0615 184.609L89.3202 132.319Z" fill="#4A50E2"/>
<path d="M96.2475 138.664C96.0278 132.182 102.133 127.574 108.594 129.346L213.27 158.055C217.748 159.283 220.976 163.272 221.128 167.766L222.655 212.835C222.875 219.318 216.77 223.926 210.309 222.154L105.633 193.444C101.155 192.216 97.9268 188.227 97.7746 183.734L96.2475 138.664Z" fill="#97CAFF"/>
<path d="M82.7124 198.337C85.0487 196.694 88.0576 196.172 90.9485 196.908L222.518 230.425C224.431 230.912 226.022 232.284 226.766 234.088V234.088C227.776 236.538 227.021 239.261 224.921 240.738L176.32 274.922C173.863 276.65 170.67 277.133 167.66 276.233L50.4825 241.192C42.31 238.748 40.111 228.301 46.7816 223.609L82.7124 198.337Z" fill="#4A50E2"/>
<path d="M83.8065 195.959C86.1988 194.276 89.2929 193.771 92.2401 194.582L207.769 226.378C216.051 228.657 218.442 239.187 211.765 243.977C199.564 252.73 189.298 260.094 175.222 270.192C172.788 271.938 169.607 272.454 166.595 271.587L52.0106 238.616C43.7663 236.243 41.4917 225.721 48.2028 221.001L83.8065 195.959Z" fill="#DCEFFE"/>
<path fill-rule="evenodd" clip-rule="evenodd" d="M89.0847 200.976L98.2535 203.745L93.0675 208.211L83.5003 205.324L89.0847 200.976ZM94.2046 208.555L99.4073 204.094L109.748 207.218L104.565 211.682L94.2046 208.555ZM105.703 212.025L115.037 214.843L120.219 210.38L109.818 207.239L110.724 207.721L105.703 212.025ZM126.88 218.417L116.174 215.186L121.373 210.729L132.059 213.957L126.88 218.417ZM128.017 218.76L137.595 221.651L142.772 217.193L133.213 214.305L128.017 218.76ZM149.065 225.113L138.733 221.995L143.921 217.547L143.89 217.53L154.24 220.657L149.065 225.113ZM150.202 225.457L162.025 229.025L167.198 224.571L155.394 221.005L150.202 225.457ZM171.498 231.885L163.162 229.369L168.352 224.919L176.669 227.432L171.498 231.885ZM172.636 232.228L181.596 234.933L186.765 230.481L177.823 227.78L172.636 232.228ZM198.493 240.033L182.734 235.276L187.92 230.83L204.287 235.774L193.424 244.23L183.289 241.171L187.614 237.731L196.396 240.381L198.493 240.033ZM186.449 237.379L177.508 234.68L173.183 238.121L182.141 240.825L186.449 237.379ZM176.344 234.329L172.036 237.775L163.703 235.259L168.028 231.819L176.344 234.329ZM166.864 231.467L155.075 227.909L150.75 231.349L162.556 234.913L166.864 231.467ZM153.91 227.557L149.603 231.003L139.288 227.89L143.613 224.449L153.91 227.557ZM142.448 224.098L132.877 221.209L128.552 224.649L129.468 224.926L129.473 224.921L129.5 224.935L138.14 227.543L142.448 224.098ZM128.624 225.653L117.905 222.417L113.067 226.601L116.619 227.677L116.735 227.577L117.279 227.877L123.762 229.84L128.624 225.653ZM106.491 225.555L115.816 228.369L111.341 232.228L102 229.409L106.491 225.555ZM123.179 235.801L112.478 232.571L116.968 228.717L127.654 231.942L123.179 235.801ZM124.316 236.145L133.896 239.036L138.371 235.177L128.807 232.29L124.316 236.145ZM145.362 242.497L135.034 239.38L139.525 235.525L149.837 238.638L145.362 242.497ZM159.466 246.754L167.799 249.27L172.275 245.41L163.957 242.9L159.466 246.754ZM181.601 253.435L168.937 249.613L173.428 245.758L173.429 245.759L173.444 245.745L173.933 245.325L173.901 245.307L174.125 245.093L169.481 243.686L174.399 239.469L192.516 244.938L181.601 253.435ZM158.329 246.411L162.804 242.552L150.99 238.986L146.499 242.84L158.329 246.411ZM163.566 241.895L160.014 240.819L164.924 236.609L173.246 239.121L168.344 243.342L163.725 241.943L163.593 241.871L163.566 241.895ZM128.576 231.298L134.469 233.083L139.34 228.887L129.777 226.001L124.898 230.184L128.447 231.259L128.469 231.239L128.576 231.298ZM135.606 233.427L140.495 229.235L150.811 232.349L145.929 236.554L135.606 233.427ZM147.066 236.898L158.878 240.475L163.771 236.261L151.965 232.698L147.066 236.898ZM94.0732 221.807L105.337 225.206L100.862 229.065L89.5827 225.661L94.0732 221.807ZM92.9195 221.458L71.1976 214.902L66.3757 218.656L88.4447 225.317L92.9195 221.458ZM131.713 220.858L127.406 224.303L116.697 221.071L120.836 217.574L131.713 220.858ZM119.68 217.226L110.308 214.397L106.218 217.908L115.558 220.727L119.68 217.226ZM109.155 214.049L93.4943 209.322L89.404 212.833L105.079 217.564L109.155 214.049ZM82.5919 206.031L92.3417 208.974L88.2657 212.489L78.1991 209.451L82.5919 206.031ZM91.7922 214.535L77.2907 210.158L72.1052 214.195L86.962 218.695L91.7922 214.535ZM92.9462 214.884L88.0993 219.039L101.466 223.087L106.309 218.917L105.372 218.634L105.353 218.651L105.25 218.597L92.9462 214.884ZM116.752 222.069L111.933 226.257L102.604 223.432L107.463 219.265L116.752 222.069ZM74.6452 222.134L65.4673 219.363L60.3685 223.333L69.9116 226.216L74.6452 222.134ZM75.7985 222.482L71.0482 226.559L137.446 246.615L141.972 242.712L142.924 243.235L138.585 246.959L149.415 250.23L154.164 246.135L75.7985 222.482ZM155.318 246.484L150.553 250.574L160.259 253.506L165.009 249.409L155.318 246.484ZM175.57 258.131L161.395 253.849L166.163 249.757L180.693 254.143L175.57 258.131Z" fill="#B9D1EE" fill-opacity="0.5"/>
<path d="M175.482 138.325L219.071 151.035C219.317 149.132 222.026 127.273 203.372 121.087C194.718 118.218 178.991 122.852 175.482 138.325Z" fill="#A6C0DB"/>
<path d="M121.366 126.895C121.071 110.505 136.942 101.895 143.345 102.516L201.709 120.458C201.709 120.458 205.739 121.515 207.989 123.037C213.16 126.537 214.822 129.669 214.822 129.669C199.677 113.459 200.046 137.842 199.677 142.747C198.446 163.606 199.604 211.04 198.57 231.751C197.536 252.461 185.087 255.652 178.992 254.659L101.973 229.516C111.947 231.565 115.025 218.465 115.641 211.078C117.672 189.846 121.662 143.284 121.366 126.895Z" fill="#698BAE" fill-opacity="0.86"/>
<path d="M127.646 97.6934L203.556 121.087C194.395 118.435 191.366 127.473 190.997 132.323C189.766 152.954 187.044 199.336 186.01 219.819C184.976 240.303 172.527 243.459 166.432 242.476L89.4133 217.609C99.3869 219.635 102.465 206.68 103.081 199.373C105.113 178.374 109.102 132.323 108.806 116.114C108.511 99.9039 121.243 97.0794 127.646 97.6934Z" fill="url(#paint3_linear_1582_43577)"/>
<path fill-rule="evenodd" clip-rule="evenodd" d="M129.723 135.937C129.924 135.148 130.728 134.671 131.519 134.871L167.165 143.897C167.956 144.097 168.435 144.899 168.234 145.688C168.033 146.477 167.229 146.954 166.438 146.753L130.792 137.727C130.001 137.527 129.522 136.725 129.723 135.937ZM128.984 148.646C129.185 147.858 129.989 147.381 130.78 147.581L166.426 156.607C167.217 156.807 167.696 157.609 167.495 158.398C167.294 159.186 166.49 159.664 165.699 159.463L130.053 150.437C129.262 150.237 128.783 149.435 128.984 148.646ZM127.876 162.646C128.077 161.857 128.881 161.38 129.672 161.58L165.318 170.606C166.109 170.806 166.588 171.608 166.387 172.397C166.186 173.186 165.382 173.663 164.591 173.463L128.945 164.437C128.154 164.236 127.675 163.435 127.876 162.646ZM126.774 177.913C126.987 177.127 127.798 176.662 128.586 176.875L149.087 182.401C149.875 182.613 150.341 183.422 150.128 184.208C149.915 184.993 149.104 185.458 148.316 185.246L127.814 179.72C127.027 179.507 126.561 178.698 126.774 177.913Z" fill="white"/>
<path fill-rule="evenodd" clip-rule="evenodd" d="M126.94 195.635C130.298 194.585 134 195.721 136.633 198.347C137.548 199.26 138.204 200.233 138.445 201.269C138.702 202.372 138.452 203.401 137.831 204.247C137.247 205.042 136.384 205.614 135.466 206.031C134.534 206.454 133.443 206.762 132.281 206.972C129.541 207.466 126.111 207.461 122.853 206.883C122.769 208.089 122.891 208.846 123.122 209.361C123.393 209.966 123.919 210.464 125.139 210.967C126.403 211.488 128.142 211.908 130.589 212.5L130.6 212.502C133.007 213.085 135.981 213.808 139.542 214.93C140.32 215.175 140.752 216.003 140.506 216.779C140.26 217.555 139.43 217.985 138.652 217.74C135.194 216.651 132.304 215.947 129.903 215.367C129.827 215.348 129.75 215.33 129.674 215.311C127.418 214.766 125.489 214.3 124.011 213.69C122.437 213.042 121.128 212.135 120.424 210.564C119.875 209.34 119.777 207.888 119.946 206.192C118.827 205.852 117.765 205.432 116.803 204.931C116.08 204.554 115.8 203.663 116.178 202.942C116.556 202.221 117.449 201.942 118.172 202.319C118.869 202.682 119.639 202.997 120.458 203.263C121.531 199.156 123.932 196.575 126.94 195.635ZM123.325 203.973C126.206 204.49 129.297 204.515 131.755 204.072C132.752 203.892 133.593 203.643 134.242 203.348C134.906 203.047 135.273 202.742 135.447 202.505C135.584 202.319 135.62 202.164 135.566 201.935C135.498 201.64 135.249 201.135 134.543 200.43C132.558 198.45 129.967 197.777 127.824 198.447C126.008 199.015 124.195 200.656 123.325 203.973Z" fill="white"/>
<path d="M177.329 214.956C177.329 221.568 172.119 226.929 165.693 226.929C164.052 226.929 158.612 227.006 157.197 226.376C153.068 224.537 154.057 219.88 154.057 214.956C154.057 210.031 153.622 205.19 157.751 203.351C159.166 202.721 164.052 202.982 165.693 202.982C172.119 202.982 177.329 208.343 177.329 214.956Z" fill="#F27400"/>
<ellipse cx="160.891" cy="214.954" rx="11.6359" ry="11.9731" fill="#FFA34A"/>
<path fill-rule="evenodd" clip-rule="evenodd" d="M154.772 214.18C155.397 213.819 156.143 214.143 156.44 214.904L158.734 218.584L165.322 212.157C165.862 211.63 166.649 211.737 167.081 212.395C167.513 213.053 167.425 214.014 166.886 214.54L159.064 222.171C158.765 222.463 158.373 222.571 158.001 222.467C157.628 222.362 157.315 222.055 157.151 221.634L154.179 216.214C153.882 215.452 154.148 214.542 154.772 214.18Z" fill="white"/>
<path d="M79.4906 206.369C79.0701 204.971 78.145 202.133 77.8086 201.965C70.5757 201.294 71.4307 207.138 72.7624 210.143V212.869L76.547 213.708V210.143C79.5747 210.143 79.771 207.627 79.4906 206.369Z" fill="#FFBFB1"/>
<path d="M57.1466 221.204C56.9784 223.217 59.039 224.978 60.0902 225.607C61.9406 224.433 62.1227 222.182 61.9824 221.204C61.0012 217.429 59.1229 209.713 59.4593 209.042C59.4593 206.315 57.7774 203.38 56.7261 204.638C55.885 205.644 56.656 208.552 57.1466 209.88C57.2167 212.816 57.3148 219.191 57.1466 221.204Z" fill="#FFBFB1"/>
<path d="M52.5458 198.704C50.9045 200.166 48.8777 200.574 48.019 199.615C47.1602 198.657 47.7946 196.694 49.436 195.232C51.0773 193.77 53.1041 193.362 53.9629 194.321C54.8216 195.28 54.1872 197.242 52.5458 198.704Z" fill="white"/>
<path d="M111.293 247.108C111.44 248.877 109.63 249.564 108.707 249.687L112.401 250.608C112.278 250.178 111.884 248.877 111.293 247.108Z" fill="white"/>
<path d="M100.395 246.186L47.3873 201.241C44.8016 197.373 48.3108 194.241 51.4507 192.768C53.9625 191.589 55.5755 192.89 56.0681 193.689L107.044 240.292C107.783 241.397 109.63 244.307 111.108 247.107C111.403 249.318 109.261 249.625 108.153 249.502L100.395 246.186Z" fill="#3856B9"/>
<path d="M53.8519 197.376L105.752 244.9C104.717 246.079 102.119 246.251 100.95 246.189C86.6859 234.628 60.5223 213.083 50.7729 203.952C50.3236 204.471 49.7052 205.203 48.8651 206.217C47.3875 210.048 48.9882 212.848 49.9733 213.769L73.0604 234.032L72.691 235.321H71.2134L47.9416 215.243C47.6338 214.997 46.8334 213.843 46.0946 211.19C45.3559 208.538 46.6487 205.419 47.3875 204.191L48.8609 202.109C47.821 201.066 47.1772 200.325 47.0181 199.955C45.6883 196.86 48.1879 194.613 49.6039 193.876L53.8519 197.376Z" fill="#0B2FA4"/>
<path d="M55.8836 193.323L107.599 240.848V241.952L55.1448 193.323C54.7138 193.139 53.4456 192.66 51.8202 192.218C54.1844 191.629 55.5142 192.709 55.8836 193.323Z" fill="#0B2FA4"/>
<path d="M50.3424 191.664L53.4822 194.796C53.6669 195.287 53.7039 196.601 52.3741 197.928C51.0442 199.254 49.3573 199.34 48.6801 199.217L45.7249 196.638C45.0477 196.024 44.1735 194.353 46.0943 192.585C48.0152 190.817 49.7267 191.234 50.3424 191.664Z" fill="#3B58BE"/>
<path d="M83.639 234.204L81.3262 226.026L85.1108 223.51L88.4749 231.059L94.3621 233.156H96.675L99.1981 234.624C99.6887 235.672 100.418 237.811 99.4083 237.979C98.3991 238.146 97.4459 237.35 97.0955 236.93C96.7451 236.93 95.876 236.679 95.2032 235.672C92.6801 236.175 86.4424 234.903 83.639 234.204Z" fill="#FFBFB1"/>
<path d="M73.9673 278.45V284.321C75.3129 285.328 76.4904 284.601 76.9109 284.112L77.1212 278.45H73.9673Z" fill="#FFBFB1"/>
<path d="M55.4646 272.159L54.4133 278.45L55.4646 279.289L58.6185 274.466L55.4646 272.159Z" fill="#FFBFB1"/>
<path d="M78.3825 201.774C78.2143 200.096 76.9107 199.537 76.2799 199.467C75.4389 199.328 73.2943 199.3 71.444 200.306C69.1312 201.564 68.9209 203.242 68.9209 205.549C68.9209 207.394 70.603 209.393 71.444 210.162H73.5466L75.0184 209.113C74.9483 208.554 74.8081 207.31 74.8081 206.807C73.9671 207.016 73.7569 205.969 73.7569 205.339C73.7569 204.709 74.3876 204.5 75.0184 205.129C74.8502 205.632 75.0885 206.178 75.2287 206.387L75.6492 206.597C75.2287 204.919 75.6492 204.919 76.4902 204.29C77.3312 203.661 78.5928 203.871 78.3825 201.774Z" fill="#2921A2"/>
<path d="M62.613 258.106L64.5053 236.508L81.3259 239.024C80.1345 250.977 77.7515 275.846 77.7515 279.705C76.7423 281.382 74.5276 280.963 73.5464 280.544L72.4951 269.43C72.4951 267.193 72.7054 262.174 73.5464 259.994C72.9156 257.687 72.4951 250.977 72.4951 248.88C72.1587 249.215 71.0934 249.02 70.6028 248.88L66.6079 262.3L57.3565 276.559C57.0762 276.42 56.1371 275.679 54.6232 273.833C57.3145 261.084 61.0711 258.036 62.613 258.106Z" fill="#1735A3"/>
<path d="M54.8338 276.351C54.3292 275.848 53.7826 276.141 53.5723 276.351C51.722 277.022 51.8201 279.007 52.1005 279.917L53.5723 281.384C54.2031 282.014 54.4133 284.53 55.2544 284.74C56.0954 284.949 56.9364 285.159 58.4082 283.481C57.2308 283.314 56.5159 282.014 56.3056 281.384V278.029C56.0253 277.68 55.3385 276.854 54.8338 276.351Z" fill="#1735A3"/>
<path d="M73.1263 284.32V286.627C74.8084 287.801 76.4904 287.116 77.1212 286.627C77.4716 286.207 78.4669 285.369 79.6443 285.369C81.1161 285.369 82.5879 284.32 82.7982 283.481C83.0084 282.643 82.3777 282.223 81.3264 282.223C80.2751 282.223 80.2751 283.062 79.2238 283.062C78.1725 283.062 78.1725 283.062 77.1212 282.643C76.2802 282.852 77.1212 283.481 76.4904 283.901C75.8597 284.32 75.0186 284.74 73.9674 283.481C72.9581 283.481 72.9862 284.041 73.1263 284.32Z" fill="#1735A3"/>
<path d="M68.0796 211.557C70.0981 211.221 72.9856 211.697 74.1771 211.976C76.532 211.976 79.6438 213.653 80.9053 214.492L89.1054 229.17C88.755 229.939 87.7177 231.687 86.372 232.526C85.0264 233.364 83.4284 232.875 82.7977 232.526C82.6575 233.714 82.4613 236.971 82.7977 240.494C79.2233 243.01 73.9668 242.381 70.813 241.962C67.6591 241.542 65.136 240.075 64.0847 239.236C63.2437 238.565 64.7155 227.912 65.5565 222.67C64.9959 223.998 63.2858 226.738 60.9309 227.073C58.576 227.409 57.4266 223.579 57.1462 221.621C59.9497 218.406 66.0612 211.892 68.0796 211.557Z" fill="#97CAFF"/>
<path d="M70.6033 211.139C74.3038 209.965 76.9814 211.698 77.3318 212.606C76.4908 213.613 73.4771 213.515 72.4959 213.445C71.8651 213.445 70.4351 212.985 70.6033 211.139Z" fill="white"/>
<defs>
<linearGradient id="paint0_linear_1582_43577" x1="166.1" y1="2.8529" x2="160.365" y2="253.977" gradientUnits="userSpaceOnUse">
<stop stop-color="#D7ECFF"/>
<stop offset="0.921875" stop-color="#AFCAFF"/>
</linearGradient>
<linearGradient id="paint1_linear_1582_43577" x1="54.7691" y1="128.078" x2="102.156" y2="138.373" gradientUnits="userSpaceOnUse">
<stop stop-color="#0391FA"/>
<stop offset="1" stop-color="#18CEFE"/>
</linearGradient>
<linearGradient id="paint2_linear_1582_43577" x1="186.39" y1="95.5382" x2="231.101" y2="114.186" gradientUnits="userSpaceOnUse">
<stop stop-color="#0391FA"/>
<stop offset="1" stop-color="#18CEFE"/>
</linearGradient>
<linearGradient id="paint3_linear_1582_43577" x1="135.957" y1="97.5093" x2="146.245" y2="226.271" gradientUnits="userSpaceOnUse">
<stop stop-color="#2436FC"/>
<stop offset="1" stop-color="#46CDFF"/>
</linearGradient>
</defs>
</svg>
