<svg width="32" height="32" viewBox="0 0 32 32" fill="none" xmlns="http://www.w3.org/2000/svg">
<rect width="32" height="32" rx="16" fill="#0FAFE4"/>
<path fill-rule="evenodd" clip-rule="evenodd" d="M7.87868 5.87868C8.44129 5.31607 9.20435 5 10 5H18.5C18.7652 5 19.0196 5.10536 19.2071 5.29289L24.7071 10.7929C24.8946 10.9804 25 11.2348 25 11.5V24C25 24.7957 24.6839 25.5587 24.1213 26.1213C23.5587 26.6839 22.7957 27 22 27H10C9.20435 27 8.44129 26.6839 7.87868 26.1213C7.31607 25.5587 7 24.7957 7 24V8C7 7.20435 7.31607 6.44129 7.87868 5.87868ZM22.0858 11L19 7.91421V11H22.0858ZM17 7V12C17 12.5523 17.4477 13 18 13H23V24C23 24.2652 22.8946 24.5196 22.7071 24.7071C22.5196 24.8946 22.2652 25 22 25H10C9.73478 25 9.48043 24.8946 9.29289 24.7071C9.10536 24.5196 9 24.2652 9 24V8C9 7.73478 9.10536 7.48043 9.29289 7.29289C9.48043 7.10536 9.73478 7 10 7H17ZM11 13C11 12.4477 11.4477 12 12 12H14C14.5523 12 15 12.4477 15 13C15 13.5523 14.5523 14 14 14H12C11.4477 14 11 13.5523 11 13ZM11 17C11 16.4477 11.4477 16 12 16H20C20.5523 16 21 16.4477 21 17C21 17.5523 20.5523 18 20 18H12C11.4477 18 11 17.5523 11 17ZM11 21C11 20.4477 11.4477 20 12 20H20C20.5523 20 21 20.4477 21 21C21 21.5523 20.5523 22 20 22H12C11.4477 22 11 21.5523 11 21Z" fill="white"/>
</svg>
