<svg width="32" height="32" viewBox="0 0 32 32" fill="none" xmlns="http://www.w3.org/2000/svg">
<rect width="32" height="32" rx="16" fill="#0FAFE4"/>
<path fill-rule="evenodd" clip-rule="evenodd" d="M8 12C7.44772 12 7 12.4477 7 13V23C7 23.5523 7.44772 24 8 24H24C24.5523 24 25 23.5523 25 23V13C25 12.4477 24.5523 12 24 12H8ZM5 13C5 11.3431 6.34315 10 8 10H24C25.6569 10 27 11.3431 27 13V23C27 24.6569 25.6569 26 24 26H8C6.34315 26 5 24.6569 5 23V13Z" fill="white"/>
<path fill-rule="evenodd" clip-rule="evenodd" d="M11.8787 6.87868C12.4413 6.31607 13.2044 6 14 6H18C18.7956 6 19.5587 6.31607 20.1213 6.87868C20.6839 7.44129 21 8.20435 21 9V25C21 25.5523 20.5523 26 20 26C19.4477 26 19 25.5523 19 25V9C19 8.73478 18.8946 8.48043 18.7071 8.29289C18.5196 8.10536 18.2652 8 18 8H14C13.7348 8 13.4804 8.10536 13.2929 8.29289C13.1054 8.48043 13 8.73478 13 9V25C13 25.5523 12.5523 26 12 26C11.4477 26 11 25.5523 11 25V9C11 8.20435 11.3161 7.44129 11.8787 6.87868Z" fill="white"/>
</svg>
