<svg width="24" height="24" viewBox="0 0 24 24" fill="none" xmlns="http://www.w3.org/2000/svg">
<path d="M21.3002 8.70001L8.7002 21.3C7.7002 22.3 6.2002 22.3 5.3002 21.3L2.7002 18.7C1.7002 17.7 1.7002 16.2 2.7002 15.3L15.3002 2.70001C16.3002 1.70001 17.8002 1.70001 18.7002 2.70001L21.3002 5.30001C22.3002 6.30001 22.3002 7.80001 21.3002 8.70001V8.70001Z" stroke="#22242C" stroke-width="2" stroke-linecap="round" stroke-linejoin="round"/>
<path d="M7.5 10.5L9.5 12.5" stroke="#22242C" stroke-width="2" stroke-linecap="round" stroke-linejoin="round"/>
<path d="M10.5 7.5L12.5 9.5" stroke="#22242C" stroke-width="2" stroke-linecap="round" stroke-linejoin="round"/>
<path d="M13.5 4.5L15.5 6.5" stroke="#22242C" stroke-width="2" stroke-linecap="round" stroke-linejoin="round"/>
<path d="M4.5 13.5L6.5 15.5" stroke="#22242C" stroke-width="2" stroke-linecap="round" stroke-linejoin="round"/>
<path fill-rule="evenodd" clip-rule="evenodd" d="M5.69969 3.31057C5.47785 3.21868 5.24009 3.17139 4.99998 3.17139C4.75986 3.17139 4.5221 3.21868 4.30027 3.31057C4.07843 3.40245 3.87687 3.53714 3.70708 3.70692C3.5373 3.87671 3.40262 4.07827 3.31073 4.30011C3.21884 4.52194 3.17155 4.7597 3.17155 4.99981C3.17155 5.23993 3.21884 5.47769 3.31073 5.69952C3.40262 5.92136 3.5373 6.12292 3.70708 6.29271L6.20718 8.7928L4.79296 10.207L2.29287 7.70692C1.93737 7.35142 1.65537 6.92938 1.46297 6.46489C1.27057 6.0004 1.17155 5.50257 1.17155 4.99981C1.17155 4.49706 1.27057 3.99923 1.46297 3.53474C1.65537 3.07025 1.93737 2.64821 2.29287 2.29271C2.64837 1.9372 3.07042 1.6552 3.5349 1.46281C3.99939 1.27041 4.49722 1.17139 4.99998 1.17139C5.50273 1.17139 6.00056 1.27041 6.46505 1.46281C6.92954 1.6552 7.35158 1.9372 7.70708 2.29271L10.2072 4.7928L8.79296 6.20701L6.29287 3.70692C6.12309 3.53714 5.92152 3.40245 5.69969 3.31057ZM18.3454 15.7595C18.8696 15.2161 19.3373 14.7151 19.7077 14.2933L21.2071 15.7927C21.3301 15.9158 21.419 16.0688 21.4647 16.2367L22.9647 21.7367C23.0592 22.0829 22.9608 22.4532 22.7071 22.7069C22.4533 22.9607 22.0831 23.059 21.7369 22.9646L16.2369 21.4646C16.069 21.4188 15.9159 21.33 15.7929 21.2069L14.3259 19.7399C14.7868 19.2979 15.2733 18.8274 15.7629 18.3486L17.0193 19.6049L20.5748 20.5746L19.6051 17.0191L18.3454 15.7595Z" fill="#22242C"/>
</svg>
