<svg width="25" height="27" viewBox="0 0 25 27" fill="none" xmlns="http://www.w3.org/2000/svg">
<path fill-rule="evenodd" clip-rule="evenodd" d="M22.0404 9.1239C22.5739 9.26667 23.1222 8.94991 23.2649 8.4164L24.3178 4.4819C24.3864 4.2257 24.3503 3.95275 24.2176 3.72311C24.085 3.49347 23.8665 3.32594 23.6103 3.25738L14.4298 0.800697C13.8963 0.65793 13.348 0.974691 13.2053 1.5082L12.1524 5.4427C12.0839 5.6989 12.1199 5.97185 12.2526 6.20149C12.3852 6.43113 12.6037 6.59866 12.8599 6.66721L22.0404 9.1239ZM14.3429 4.9937L14.8788 2.99122L22.1273 4.9309L21.5914 6.93338L14.3429 4.9937Z" fill="#C1C9D2"/>
<path fill-rule="evenodd" clip-rule="evenodd" d="M12.7121 25.6008C13.0486 25.6909 13.4077 25.5993 13.66 25.3591L24.0319 15.4859C24.3139 15.2174 24.4145 14.8096 24.2896 14.4408L21.9344 7.4862C21.8271 7.16951 21.5687 6.92737 21.2457 6.84094L14.6882 5.08617C14.3652 4.99973 14.0204 5.08044 13.7693 5.30124L8.25554 10.1501C7.96314 10.4073 7.84659 10.8108 7.95685 11.1842L12.0115 24.918C12.1101 25.2521 12.3755 25.5108 12.7121 25.6008ZM13.4663 22.7823L10.0558 11.2303L14.6882 7.15653L20.2117 8.63462L22.1904 14.4775L13.4663 22.7823Z" fill="#C1C9D2"/>
<path fill-rule="evenodd" clip-rule="evenodd" d="M12.7121 25.6008C13.2456 25.7436 13.7938 25.4268 13.9366 24.8933L16.5989 14.9443C16.7417 14.4108 16.4249 13.8625 15.8914 13.7198C15.3579 13.577 14.8097 13.8938 14.6669 14.4273L12.0045 24.3763C11.8618 24.9098 12.1785 25.458 12.7121 25.6008Z" fill="#C1C9D2"/>
<path fill-rule="evenodd" clip-rule="evenodd" d="M16.5893 13.6279C16.1493 13.8821 15.5866 13.7315 15.3324 13.2916C15.0782 12.8516 15.2288 12.2889 15.6688 12.0347C16.1087 11.7805 16.6714 11.9311 16.9256 12.371C17.1798 12.811 17.0292 13.3737 16.5893 13.6279ZM13.6007 14.2921C14.4075 15.6885 16.1935 16.1664 17.5898 15.3596C18.9862 14.5528 19.4641 12.7668 18.6573 11.3705C17.8505 9.97411 16.0645 9.49618 14.6682 10.303C13.2718 11.1098 12.7939 12.8958 13.6007 14.2921Z" fill="#C1C9D2"/>
<path fill-rule="evenodd" clip-rule="evenodd" d="M10.8459 21.3163C12.127 22.1236 13.2224 23.4863 13.8439 24.4629C14.1404 24.9288 14.003 25.5469 13.5371 25.8434C13.0712 26.1399 12.4531 26.0026 12.1566 25.5366C11.6114 24.6799 10.7068 23.5926 9.77957 23.0083C9.32106 22.7193 8.94394 22.6085 8.65517 22.6194C8.41058 22.6286 8.11211 22.7275 7.76844 23.14C7.26234 23.7473 6.86399 24.2671 6.52893 24.7044C6.46059 24.7936 6.39489 24.8793 6.33143 24.9617C6.1478 25.2 5.97401 25.4217 5.81355 25.6069C5.65968 25.7844 5.47662 25.9778 5.26902 26.1261C5.06188 26.274 4.7149 26.4594 4.27302 26.4083C3.82755 26.3568 3.52907 26.0936 3.35619 25.8906C3.06267 25.5461 2.8267 25.005 2.6022 24.4473C2.52669 24.5855 2.44789 24.7434 2.36639 24.9171C2.30708 25.0434 2.23696 25.1999 2.16639 25.3574C2.06711 25.579 1.96692 25.8026 1.89465 25.9472C1.64766 26.4412 1.04698 26.6414 0.553005 26.3944C0.059027 26.1474 -0.141197 25.5467 0.105792 25.0528C0.171725 24.9209 0.232434 24.784 0.306196 24.6176C0.373788 24.4651 0.452341 24.2879 0.55592 24.0673C0.738717 23.6778 0.981062 23.1994 1.27337 22.8235C1.41953 22.6356 1.6189 22.4193 1.87869 22.2599C2.15439 22.0908 2.53919 21.9645 2.97829 22.0636C3.39694 22.1581 3.69964 22.4213 3.90754 22.6816C4.11583 22.9423 4.28423 23.2674 4.4287 23.6286C4.47928 23.755 4.52577 23.8686 4.56885 23.9705C4.62376 23.9006 4.68294 23.8244 4.74713 23.741C4.80667 23.6638 4.86962 23.5816 4.93613 23.4948C5.27154 23.057 5.69734 22.5012 6.232 21.8596C6.88832 21.072 7.69402 20.6543 8.57965 20.6208C9.42108 20.589 10.2002 20.9094 10.8459 21.3163ZM2.33255 23.9154C2.33256 23.9154 2.33312 23.916 2.33424 23.9172C2.33311 23.9161 2.33255 23.9155 2.33255 23.9154Z" fill="#C1C9D2"/>
</svg>
